<svg width="24" height="24" viewBox="0 0 24 24" fill="none" xmlns="http://www.w3.org/2000/svg">
<path fill-rule="evenodd" clip-rule="evenodd" d="M6.29279 6.29296C6.48031 6.10549 6.73462 6.00017 6.99979 6.00017C7.26495 6.00017 7.51926 6.10549 7.70679 6.29296L11.9998 10.586L16.2928 6.29296C16.385 6.19745 16.4954 6.12127 16.6174 6.06886C16.7394 6.01645 16.8706 5.98886 17.0034 5.98771C17.1362 5.98655 17.2678 6.01186 17.3907 6.06214C17.5136 6.11242 17.6253 6.18667 17.7192 6.28056C17.8131 6.37446 17.8873 6.48611 17.9376 6.60901C17.9879 6.7319 18.0132 6.86358 18.012 6.99636C18.0109 7.12914 17.9833 7.26036 17.9309 7.38236C17.8785 7.50437 17.8023 7.61471 17.7068 7.70696L13.4138 12L17.7068 16.293C17.8889 16.4816 17.9897 16.7342 17.9875 16.9964C17.9852 17.2586 17.88 17.5094 17.6946 17.6948C17.5092 17.8802 17.2584 17.9854 16.9962 17.9876C16.734 17.9899 16.4814 17.8891 16.2928 17.707L11.9998 13.414L7.70679 17.707C7.51818 17.8891 7.26558 17.9899 7.00339 17.9876C6.74119 17.9854 6.49038 17.8802 6.30497 17.6948C6.11956 17.5094 6.01439 17.2586 6.01211 16.9964C6.00983 16.7342 6.11063 16.4816 6.29279 16.293L10.5858 12L6.29279 7.70696C6.10532 7.51943 6 7.26512 6 6.99996C6 6.73479 6.10532 6.48049 6.29279 6.29296Z" fill="white"/>
</svg>
