<svg width="24" height="24" viewBox="0 0 24 24" fill="none" xmlns="http://www.w3.org/2000/svg">
<path fill-rule="evenodd" clip-rule="evenodd" d="M8.45 10.2C8.45 9.64773 8.89771 9.20001 9.45 9.20001H12.65C13.2023 9.20001 13.65 9.64773 13.65 10.2V18.8C13.65 19.3523 13.2023 19.8 12.65 19.8C12.0977 19.8 11.65 19.3523 11.65 18.8V11.2H9.45C8.89771 11.2 8.45 10.7523 8.45 10.2Z" fill="white"/>
<path fill-rule="evenodd" clip-rule="evenodd" d="M8 19C8 18.4477 8.44772 18 9 18H15.9C16.4523 18 16.9 18.4477 16.9 19C16.9 19.5523 16.4523 20 15.9 20H9C8.44772 20 8 19.5523 8 19Z" fill="white"/>
<path d="M12.45 7.2C12.1335 7.2 11.8242 7.10616 11.5611 6.93035C11.298 6.75454 11.0929 6.50466 10.9718 6.21229C10.8507 5.91993 10.819 5.59823 10.8807 5.28786C10.9425 4.97749 11.0949 4.69239 11.3186 4.46863C11.5424 4.24487 11.8275 4.09248 12.1378 4.03074C12.4482 3.96901 12.7699 4.00069 13.0623 4.12179C13.3546 4.24289 13.6045 4.44797 13.7803 4.71109C13.9562 4.97421 14.05 5.28355 14.05 5.6C14.05 6.02435 13.8814 6.43131 13.5814 6.73137C13.2813 7.03143 12.8743 7.2 12.45 7.2Z" fill="white"/>
</svg>
