<svg width="269" height="119" viewBox="0 0 269 119" fill="rgba(255,255,255,0.15)" xmlns="http://www.w3.org/2000/svg">
<path d="M27.73 39.4699C27.73 39.4699 25.83 42.1699 25.83 42.9699C25.83 42.9699 24.43 44.5699 20.73 44.8699L19.73 46.6699L17 50.1699L16.2 52.8699L10 56.5699L6.5 62.7699L3.8 64.1699L0.800003 70.5699C0.800003 70.5699 1.9 69.4699 2.6 71.8699C2.84041 72.3965 3.17992 72.8718 3.6 73.2699L3.8 76.4699L2.5 78.0699L2.2 80.4699C3.52369 80.4223 4.81164 80.0277 5.93485 79.3257C7.05807 78.6237 7.97713 77.6389 8.6 76.4699C8.6 76.4699 14.7 71.1699 16.4 75.8699C16.4 75.8699 16.2 82.8699 27.6 87.5699C27.6 87.5699 57.5 96.0699 63.1 94.7699C63.1 94.7699 70 97.7699 81 89.7699C81 89.7699 86 83.3699 92.5 91.1699C99 98.9699 121.3 98.5699 121.3 98.5699C121.3 98.5699 125 96.1699 130.7 110.07C130.7 110.07 143.2 126.17 178.9 113.77C178.9 113.77 189.5 102.77 211.3 109.77C211.3 109.77 226.6 116.17 234.5 115.37L261.7 110.87L264.4 104.77L267.9 103.97L267.2 100.67L266.2 99.2699V97.8699L265.4 95.1699L264.8 92.7699L265.6 90.9699L263.5 88.5699V86.6699C263.5 86.6699 259.2 84.5699 257.7 82.8699L255.9 78.7699V77.6699L256.5 76.8699L254 74.4699L249.2 66.6699L246.8 63.7699V61.6699L244.6 58.6699V57.0699L240.3 52.4699L239.5 50.5699L238.7 49.1699C238.7 49.1699 237.7 46.5699 239.2 46.9699C239.2 46.9699 238.4 41.1699 237 42.0699C235.81 42.8599 234.79 43.8799 234 45.0699L232.1 46.3699C232.1 46.3699 227.8 43.4699 227.8 42.6699L218.9 44.7699L211.1 42.6699C211.1 42.6699 202.6 44.0699 199.4 41.8699C199.4 41.8699 187.6 38.3699 186 41.2699C186 41.2699 181.5 49.2699 178 48.7699C174.5 48.2699 165.4 44.7699 165.4 44.7699C165.4 44.7699 155.8 46.0699 152.1 39.9699C152.1 39.9699 152.9 32.1699 144.7 34.1699C144.7 34.1699 136.7 34.7699 136.4 32.3699L136.6 28.1699C136.6 28.1699 137.6 19.0699 130.4 18.5699L124.8 17.5699H121.8C121.8 17.5699 117.6 12.7699 111.1 16.9699C106.678 19.5839 101.72 21.1569 96.6 21.5699L88 25.3699L86.6 28.0699C86.6 28.0699 76.9 33.0699 74.9 31.8699C74.9 31.8699 58.8 39.1699 57.3 38.5699L51.5 40.6699C51.5 40.6699 51.5 42.8699 50.7 42.8699C50.7 42.8699 48.9 45.5699 47.2 44.9699L27.73 39.4699Z" stroke="white" stroke-width="0.5" stroke-miterlimit="10"/>
<path d="M63.23 20.37L70.13 8.07004H56.23L63.23 20.37Z" fill="white"/>
<path d="M63.23 43.3701L66.83 36.8701H59.53L63.23 43.3701Z" fill="white"/>
<path fill-rule="evenodd" clip-rule="evenodd" d="M56.6685 25.6269L57.1915 25.313L63.2292 35.3757L69.125 25.4859V25.4699H69.1345L69.168 25.4138L69.2623 25.4699H69.735V25.654L63.2308 36.5642L56.6685 25.6269Z" fill="white"/>
<path fill-rule="evenodd" clip-rule="evenodd" d="M63.23 0L65.6842 3.87504H60.7758L63.23 0ZM61.8842 3.26504H64.5758L63.23 1.14008L61.8842 3.26504Z" fill="white"/>
<path fill-rule="evenodd" clip-rule="evenodd" d="M63.23 1.48638L65.6747 5.47504H60.7854L63.23 1.48638ZM61.8747 4.86504H64.5854L63.23 2.6537L61.8747 4.86504Z" fill="white"/>
<path fill-rule="evenodd" clip-rule="evenodd" d="M51.8006 13.3651H74.557L63.2312 33.0803L51.8006 13.3651ZM52.8594 13.9751L63.2288 31.86L73.5031 13.9751H52.8594Z" fill="white"/>
<path d="M60.33 6.57004H59.73V7.17004H60.33V6.57004Z" fill="white"/>
<path d="M61.93 6.57004H61.33V7.17004H61.93V6.57004Z" fill="white"/>
<path d="M63.53 6.57004H62.93V7.17004H63.53V6.57004Z" fill="white"/>
<path d="M65.03 6.57004H64.43V7.17004H65.03V6.57004Z" fill="white"/>
<path d="M63.53 41.4699H62.93V42.0699H63.53V41.4699Z" fill="white"/>
<path d="M63.53 43.07H62.93V43.67H63.53V43.07Z" fill="white"/>
<path d="M63.53 44.57H62.93V45.17H63.53V44.57Z" fill="white"/>
<path d="M63.53 46.1701H62.93V46.7701H63.53V46.1701Z" fill="white"/>
<path d="M66.63 6.57004H66.03V7.17004H66.63V6.57004Z" fill="white"/>
<path d="M122.93 41.3698L129.83 29.1698H115.93L122.93 41.3698Z" fill="white"/>
<path d="M122.93 64.4699L126.53 57.9699H119.23L122.93 64.4699Z" fill="white"/>
<path fill-rule="evenodd" clip-rule="evenodd" d="M116.368 46.6257L116.892 46.3141L122.929 56.4715L128.825 46.4866V46.4699H128.835L128.867 46.4148L128.961 46.4699H129.435V46.6532L122.931 57.6683L116.368 46.6257Z" fill="white"/>
<path fill-rule="evenodd" clip-rule="evenodd" d="M122.93 20.9863L125.375 24.975H120.485L122.93 20.9863ZM121.575 24.365H124.285L122.93 22.1537L121.575 24.365Z" fill="white"/>
<path fill-rule="evenodd" clip-rule="evenodd" d="M122.93 22.5862L125.375 26.5748H120.485L122.93 22.5862ZM121.575 25.9648H124.285L122.93 23.7535L121.575 25.9648Z" fill="white"/>
<path fill-rule="evenodd" clip-rule="evenodd" d="M111.499 34.4649H134.258L122.931 54.0777L111.499 34.4649ZM112.561 35.0749L122.929 52.8622L133.202 35.0749H112.561Z" fill="white"/>
<path d="M120.03 27.57H119.43V28.17H120.03V27.57Z" fill="white"/>
<path d="M121.63 27.57H121.03V28.17H121.63V27.57Z" fill="white"/>
<path d="M123.23 27.57H122.63V28.17H123.23V27.57Z" fill="white"/>
<path d="M124.73 27.57H124.13V28.17H124.73V27.57Z" fill="white"/>
<path d="M123.23 62.5697H122.63V63.1697H123.23V62.5697Z" fill="white"/>
<path d="M123.23 64.0697H122.63V64.6697H123.23V64.0697Z" fill="white"/>
<path d="M123.23 65.6698H122.63V66.2698H123.23V65.6698Z" fill="white"/>
<path d="M123.23 67.2699H122.63V67.8699H123.23V67.2699Z" fill="white"/>
<path d="M126.33 27.57H125.73V28.17H126.33V27.57Z" fill="white"/>
<path d="M235.93 22.67L242.93 10.47H229.03L235.93 22.67Z" fill="white"/>
<path d="M235.93 45.67L239.63 39.27H232.33L235.93 45.67Z" fill="white"/>
<path fill-rule="evenodd" clip-rule="evenodd" d="M241.957 27.565H242.23V27.77H242.535V28.175H242.303L235.931 38.8643L229.368 27.927L229.892 27.6131L235.929 37.6758L241.957 27.565Z" fill="white"/>
<path fill-rule="evenodd" clip-rule="evenodd" d="M235.93 2.28638L238.375 6.27504H233.485L235.93 2.28638ZM235.93 3.4537L234.575 5.66504H237.285L235.93 3.4537Z" fill="white"/>
<path fill-rule="evenodd" clip-rule="evenodd" d="M235.93 3.9L238.384 7.77504H233.476L235.93 3.9ZM235.93 5.04008L234.584 7.16504H237.276L235.93 5.04008Z" fill="white"/>
<path fill-rule="evenodd" clip-rule="evenodd" d="M224.603 15.665H247.257L235.93 35.3823L224.603 15.665ZM225.657 16.275L235.93 34.1577L246.203 16.275H225.657Z" fill="white"/>
<path d="M233.13 8.87004H232.53V9.47004H233.13V8.87004Z" fill="white"/>
<path d="M234.63 8.87004H234.03V9.47004H234.63V8.87004Z" fill="white"/>
<path d="M236.23 8.87004H235.63V9.47004H236.23V8.87004Z" fill="white"/>
<path d="M237.83 8.87004H237.23V9.47004H237.83V8.87004Z" fill="white"/>
<path d="M236.23 43.77H235.63V44.37H236.23V43.77Z" fill="white"/>
<path d="M236.23 45.37H235.63V45.97H236.23V45.37Z" fill="white"/>
<path d="M236.23 46.97H235.63V47.57H236.23V46.97Z" fill="white"/>
<path d="M236.23 48.57H235.63V49.17H236.23V48.57Z" fill="white"/>
<path d="M239.33 8.87004H238.73V9.47004H239.33V8.87004Z" fill="white"/>
</svg>
