<svg width="269" height="119" viewBox="0 0 269 119" fill="none"
	xmlns="http://www.w3.org/2000/svg">
	<g clip-path="url(#clip0)">
		<path d="M27.73 39.4699C27.73 39.4699 25.83 42.1699 25.83 42.9699C25.83 42.9699 24.43 44.5699 20.73 44.8699L19.73 46.6699L17 50.1699L16.2 52.8699L10 56.5699L6.50005 62.7699L3.80005 64.1699L0.800049 70.5699C0.800049 70.5699 1.90005 69.4699 2.60005 71.8699C2.84046 72.3965 3.17997 72.8718 3.60005 73.2699L3.80005 76.4699L2.50005 78.0699L2.20005 80.4699C3.52374 80.4223 4.81169 80.0277 5.9349 79.3257C7.05812 78.6237 7.97718 77.6389 8.60005 76.4699C8.60005 76.4699 14.7 71.1699 16.4 75.8699C16.4 75.8699 16.2 82.8699 27.6 87.5699C27.6 87.5699 57.5 96.0699 63.1 94.7699C63.1 94.7699 70 97.7699 81 89.7699C81 89.7699 86 83.3699 92.5 91.1699C99 98.9699 121.3 98.5699 121.3 98.5699C121.3 98.5699 125 96.1699 130.7 110.07C130.7 110.07 143.2 126.17 178.9 113.77C178.9 113.77 189.5 102.77 211.3 109.77C211.3 109.77 226.6 116.17 234.5 115.37L261.7 110.87L264.4 104.77L267.9 103.97L267.2 100.67L266.2 99.2699V97.8699L265.4 95.1699L264.8 92.7699L265.6 90.9699L263.5 88.5699V86.6699C263.5 86.6699 259.2 84.5699 257.7 82.8699L255.9 78.7699V77.6699L256.5 76.8699L254 74.4699L249.2 66.6699L246.8 63.7699V61.6699L244.6 58.6699V57.0699L240.3 52.4699L239.5 50.5699L238.7 49.1699C238.7 49.1699 237.7 46.5699 239.2 46.9699C239.2 46.9699 238.4 41.1699 237 42.0699C235.81 42.8599 234.79 43.8799 234 45.0699L232.1 46.3699C232.1 46.3699 227.8 43.4699 227.8 42.6699L218.9 44.7699L211.1 42.6699C211.1 42.6699 202.6 44.0699 199.4 41.8699C199.4 41.8699 187.6 38.3699 186 41.2699C186 41.2699 181.5 49.2699 178 48.7699C174.5 48.2699 165.4 44.7699 165.4 44.7699C165.4 44.7699 155.8 46.0699 152.1 39.9699C152.1 39.9699 152.9 32.1699 144.7 34.1699C144.7 34.1699 136.7 34.7699 136.4 32.3699L136.6 28.1699C136.6 28.1699 137.6 19.0699 130.4 18.5699L124.8 17.5699H121.8C121.8 17.5699 117.6 12.7699 111.1 16.9699C106.678 19.5839 101.72 21.1569 96.6 21.5699L88 25.3699L86.6 28.0699C86.6 28.0699 76.9 33.0699 74.9 31.8699C74.9 31.8699 58.8 39.1699 57.3 38.5699L51.5 40.6699C51.5 40.6699 51.5 42.8699 50.7 42.8699C50.7 42.8699 48.9 45.5699 47.2 44.9699L27.73 39.4699Z" fill="white" fill-opacity="0.15" stroke="black" stroke-width="1.5" stroke-miterlimit="10"/>
	</g>
	<defs>
		<clipPath id="clip0">
			<rect width="269" height="119" fill="white"/>
		</clipPath>
	</defs>
</svg>
