<svg width="24" height="24" viewBox="0 0 24 24" fill="none" xmlns="http://www.w3.org/2000/svg">
<path d="M22.2364 3.0364C22.5879 2.68492 22.5879 2.11508 22.2364 1.7636C21.885 1.41213 21.3151 1.41213 20.9636 1.7636L3.56363 19.1636C3.21216 19.5151 3.21216 20.0849 3.56363 20.4364C3.9151 20.7879 4.48495 20.7879 4.83642 20.4364L22.2364 3.0364Z" fill="black"/>
<path d="M4.80002 3.6H17.8544L14.2544 7.2H7.20002C6.88176 7.2 6.57654 7.32643 6.3515 7.55147C6.12645 7.77652 6.00002 8.08174 6.00002 8.4C6.00002 8.71826 6.12645 9.02348 6.3515 9.24853C6.57654 9.47357 6.88176 9.6 7.20002 9.6H11.8544L9.45444 12H7.20002C6.88176 12 6.57654 12.1264 6.3515 12.3515C6.12645 12.5765 6.00002 12.8817 6.00002 13.2C6.00002 13.5183 6.12645 13.8235 6.3515 14.0485C6.54385 14.2409 6.79478 14.3612 7.06236 14.3921L3.71414 17.7403C3.49035 17.6268 3.28373 17.4778 3.10297 17.2971C2.65288 16.847 2.40002 16.2365 2.40002 15.6V6C2.40002 5.36348 2.65288 4.75303 3.10297 4.30294C3.55306 3.85286 4.1635 3.6 4.80002 3.6Z" fill="black"/>
<path d="M17.6486 9.24853C17.4605 9.43655 17.2165 9.55573 16.9558 9.58986L8.47282 18.0728L12 21.6L15.6 18H19.2C19.8365 18 20.447 17.7471 20.8971 17.2971C21.3472 16.847 21.6 16.2365 21.6 15.6V6C21.6 5.69393 21.5416 5.39388 21.4308 5.1148L17.9899 8.55573C17.9558 8.81652 17.8366 9.06051 17.6486 9.24853Z" fill="black"/>
</svg>
