<?xml version="1.0" encoding="utf-8"?>
<!-- Generator: Adobe Illustrator 25.0.1, SVG Export Plug-In . SVG Version: 6.00 Build 0)  -->
<svg version="1.1" id="Calque_1" xmlns="http://www.w3.org/2000/svg" xmlns:xlink="http://www.w3.org/1999/xlink" x="0px" y="0px"
	 viewBox="0 0 3656.6 2736.9" style="enable-background:new 0 0 3656.6 2736.9;" xml:space="preserve">
<style type="text/css">
	.st0{fill:none;}
	.st1{fill:#EBDECF;}
	.st2{fill:#5C331E;}
	.st3{fill:#36331B;}
	.st4{fill:#AB8558;}
	.st5{fill:#C0B7AB;}
	.st6{fill:#B7684F;}
	.st7{fill:#1F1710;}
	.st8{fill:#D4B296;}
	.st9{fill:#B4DDDC;}
	.st10{fill:#4E6160;}
	.st11{opacity:0.3;fill:#EBDECF;stroke:#B4DDDC;stroke-width:6;stroke-miterlimit:10;}
	.st12{fill:none;stroke:#B4DDDC;stroke-width:6;stroke-miterlimit:10;}
	.st13{fill:none;stroke:#85361D;stroke-width:5;stroke-miterlimit:10;}
	.st14{fill:none;stroke:#86361D;stroke-width:6;stroke-miterlimit:10;}
	.st15{fill:none;stroke:#86361D;stroke-width:5;stroke-miterlimit:10;}
	.st16{fill:none;stroke:#86361D;stroke-width:8;stroke-miterlimit:10;}
	.st17{fill:#85361D;}
	.st18{fill:none;stroke:#85361D;stroke-width:3;stroke-miterlimit:10;}
	.st19{fill:none;stroke:#A1565E;stroke-width:2;stroke-miterlimit:10;}
	.st20{fill:none;stroke:#B28E8D;stroke-width:6;stroke-miterlimit:10;}
	.st21{fill:none;stroke:#B28E8D;stroke-width:5;stroke-miterlimit:10;}
	.st22{fill:none;stroke:#A1565E;stroke-width:5;stroke-miterlimit:10;}
	.st23{fill:#585022;}
</style>
<g id="Calque_2_1_">
	<g id="Calque_2-2">
		<path class="st0" d="M2227.1,1189.7v598.9h-800v-598.9h260.4c-10.9,28.9-20.8,80.2,2.4,150.3c0,0-8.1,3.9-11.6,24.7
			c-1.1,6.2-1.7,13.8-1.6,23.3l0.4,87.2l0.1,16.8h-80.7v0h381.4l0.1-104c0.3-41.5-13.3-48.1-13.3-48.1
			c22.8-58.8,9.9-117.5-1.4-150.3H2227.1z"/>
		<path class="st1" d="M0,0v1921.1h3656.6V0H0z M1596.5,1492h80.7l-0.1-16.8l-0.4-87.2c-0.1-9.5,0.6-17.2,1.6-23.3
			c3.5-20.8,11.6-24.7,11.6-24.7c-23.2-70.1-13.3-121.4-2.4-150.3c6.7-17.8,13.8-27.1,13.8-27.1s16.7-34.3,71.3-56.2
			c11.3-4.5,31-9.7,55.7-10.6c22.4-0.8,46.8,4.4,61.7,10.3c35.3,13.8,55.1,42.9,62.5,57.3c0,0,5.2,9.9,10.9,26.4
			c11.2,32.8,24.2,91.5,1.4,150.3c0,0,13.6,6.6,13.3,48.1l-0.1,104L1596.5,1492L1596.5,1492z"/>
		<path class="st2" d="M2431.5,783.5c106.1,188.1,170.7,397.5,165.8,604.6c32.5-1.8,51.4-3.6,83.9-5.4
			C2652.6,1159.8,2564.7,953.4,2431.5,783.5z"/>
		<path class="st3" d="M2372.2,1122.8c-2-1-35.5-90.6-16.4-174.8c9.8-85.8,70.9-159.4,73.1-159.7c0.6,1.1-25.9,2.7-59.4,24.8
			c-32.7,21.2-72.4,63.2-81.9,123.3c-10.9,59.9,12.8,112.5,36.7,143.4C2348.6,1111.8,2373.1,1121.9,2372.2,1122.8z"/>
		<path class="st3" d="M2184.7,958.3c-0.8-2.1,29.4-83.3,92.9-123.8c58.1-48,144.6-51.8,146.3-50.3c-0.3,1.1-19.7-16.7-56.3-26.3
			c-35.5-9.7-88.3-11.1-130.8,20.8c-43.4,30.7-58.3,81.2-60,118C2174.8,934.4,2185.9,958.3,2184.7,958.3z"/>
		<path class="st3" d="M2215,746.9c0.6-1.5,56.9-29.4,109.5-18c53.6,4.4,99.4,47.4,99.5,49.1c-0.7,0.5-1.5-19.2-15.2-43.3
			c-13.1-23.7-39.1-51.8-76.7-56.8c-37.4-6.1-70.5,13.2-89.9,32C2222,729,2215.5,747.6,2215,746.9z"/>
		<path class="st3" d="M2692,1009.4c1-2-28.6-93-95.9-147.1c-61-61.1-154.6-80.7-156.6-79.6c0.3,1.2,21.9-14,61.9-17.5
			c38.8-3.7,96,4.4,140.8,45.6c45.8,40.1,60,96.1,60.4,135.1C2703.6,986,2690.7,1009.2,2692,1009.4z"/>
		<path class="st3" d="M2732.7,735.5c-0.9-2.1-78.9-39.7-152.8-24.8c-75.1,5.6-140.1,62.9-140.4,65.1c1,0.6,2.6-25.7,22.3-58
			c18.9-31.6,56-69.1,108.6-75.7c52.5-8,98.3,18.2,125,43.5C2723.2,711.5,2731.9,736.4,2732.7,735.5z"/>
		<path class="st3" d="M2577.3,610.7c-1.5-0.8-63.4,15.2-97.3,58.9c-39.2,39-47.4,102.4-46.5,103.8c0.8-0.1-11.1-15.8-15.9-43.4
			c-4.9-26.9-2.6-65.8,23.6-94.6c25.4-29.5,63.7-36.6,91-35.1C2560.3,601.6,2577.3,611.6,2577.3,610.7z"/>
		<polygon class="st4" points="3656.1,1556.2 2318.1,1555.3 2316.9,1360 2905,1317.9 3656.1,1329 		"/>
		<polygon class="st1" points="3656.1,1658.6 2490.6,1490.8 2766.5,1442.5 3656.1,1511.5 		"/>
		<polygon class="st5" points="2486.5,1521.8 2905,1596 3656.1,1729.2 3656.1,1658.6 2490.6,1490.8 		"/>
		<path class="st3" d="M2715.4,1340.1c2-1,34.4-87.9,15.9-169.6c-9.5-83.2-68.7-154.6-70.9-154.9c-0.5,1.1,25.1,2.6,57.6,24.1
			c31.8,20.6,70.3,61.2,79.4,119.6c10.6,58.1-12.4,109.2-35.6,139.1C2738.3,1329.4,2714.6,1339.2,2715.4,1340.1z"/>
		<path class="st3" d="M2897.2,1180.5c0.8-2-28.5-80.8-90.1-120c-56.3-46.6-140.3-50.2-142-48.8c0.3,1.1,19.1-16.2,54.6-25.5
			c34.5-9.4,85.6-10.7,126.8,20.1c42,29.7,56.5,78.8,58.2,114.5C2906.8,1157.4,2896.1,1180.6,2897.2,1180.5z"/>
		<path class="st3" d="M2867.9,975.5c-0.6-1.5-55.2-28.5-106.2-17.5c-52,4.3-96.4,46-96.5,47.6c0.7,0.4,1.5-18.6,14.8-42
			c12.7-22.9,37.9-50.2,74.4-55.1c36.3-5.9,68.4,12.8,87.2,31.1C2861,958.2,2867.3,976.2,2867.9,975.5z"/>
		<path class="st3" d="M2405.3,1230.1c-0.9-2,27.7-90.2,93-142.7c59.2-59.3,150-78.3,151.8-77.2c-0.3,1.2-21.3-13.6-60.1-17
			c-37.7-3.6-93.1,4.3-136.6,44.2c-44.4,38.9-58.2,93.2-58.6,131C2394,1207.5,2406.5,1229.9,2405.3,1230.1z"/>
		<path class="st3" d="M2365.8,964.5c0.8-2,76.5-38.5,148.2-24.1c72.9,5.4,135.9,61,136.2,63.2c-1,0.6-2.5-24.9-21.6-56.2
			c-18.3-30.6-54.3-67.1-105.4-73.4c-50.9-7.7-95.4,17.6-121.3,42.2C2374.9,941.2,2366.5,965.3,2365.8,964.5z"/>
		<path class="st3" d="M2516.4,843.4c1.4-0.7,61.5,14.8,94.4,57.1c38,37.8,46,99.3,45.1,100.7c-0.8-0.1,10.8-15.3,15.4-42.1
			c4.7-26.1,2.5-63.8-22.9-91.7c-24.6-28.7-61.8-35.5-88.2-34C2532.9,834.6,2516.5,844.2,2516.4,843.4z"/>
		<path class="st2" d="M2657.8,1011c-102.9,182.5-152.3,385.6-147.5,586.4l-94.7-5.2C2443.4,1375.9,2528.7,1175.8,2657.8,1011z"/>
		<polygon class="st6" points="2905,1217.8 3656.1,1189.7 3656.1,1329 2905,1317.9 		"/>
		<rect x="3632.6" y="1258" class="st7" width="23.9" height="51.5"/>
		<rect x="3565.5" y="1258" class="st7" width="36.4" height="51.5"/>
		<rect x="3498.4" y="1258" class="st7" width="36.4" height="51.5"/>
		<rect x="3431.2" y="1258" class="st7" width="36.4" height="51.5"/>
		<polygon class="st8" points="3656.1,1737.1 3656.1,2736.9 0,2736.9 0,1737.1 1212.4,1514.9 1337.4,1492 2318.7,1492 
			2428.7,1512.2 2510.9,1527.3 2665.4,1555.6 2665.4,1555.6 		"/>
		<polygon class="st1" points="0.1,1496.8 1337.4,1492 0,1737.1 		"/>
		<path class="st4" d="M1676.7,1388l0.4,87.2l-80.6,0.1l-65.5,0.1l-18.3,0l-17.7,0l-16.3,0l-20.8,0l-12.1,0h-0.1l-8,0l-10.6,0
			l-14.3,0l-19.4,0l-17.5,0l-17.5,0l-19.2,0h-2.6l-57.1,0.1v0l-0.1-124.9l-2.5-27.2c0,0-4.4-17.8-16-25.4c0,0,0,0,0,0
			c-3.1-2-6.6-3.3-10.7-3.4c-4.2-0.1-7.9,1-11.1,2.9c0,0,0,0,0,0c-12.1,6.9-17.8,23.5-17.8,23.5l-2.4,154.6v0l-30,0.1v0l-0.7-156.4
			c0,0-7.8-22.1-27.8-22.1c-20,0-30,22.1-30,22.1l-2.8,154.8l0,1.6v0l-25.1,16.1l-1.3,0.8h0l-1,0.7l0,0l0-0.7l0-0.8l-0.2-9.9
			l-3-122.8c0,0-3.6-31.2-27.8-31.9c-8.4-0.2-14.6,2.1-19.2,5.2c-0.1,0-0.1,0.1-0.2,0.1c-0.5,0.3-1,0.7-1.4,1
			c-7.5,5.9-9.9,13.7-9.9,13.7l0,1.3c0,0,0,0,0,0l-0.1,13l-1.3,131.3v0.5h-0.8l-556.6,2.6h0l0-1.1l-3.4-137.1c0,0,1.4-61.2-36.5-60
			c-39.5,1.2-33.3,53.9-33.3,53.9l-1.9,143.5l0,0.8h-48.7l0-0.6l-1.4-157.9c0,0-10.9-34.3-32.6-39.5c-1.6-0.4-3.3-0.6-5-0.7
			c-3.6-0.1-6.9,0.8-9.8,2.4c0,0,0,0,0,0c-16.8,9.5-20.9,43.4-20.9,43.4l-4.4,152.6l0,0.3H0v-263.7l254.5-2v22.1h136.8v-35.6h-42.6
			l-0.1-10.4v0l-0.1-23.4l0-6.2l209.8-3.6h0l29.8-0.5V613h82.9V494.6h102.1l1.3,48.3l1.7,61.2h81.5v568.6h138v79.3h675.6l0.4,32
			l5.3-0.1l1.4,80.7C1677.3,1370.8,1676.6,1378.5,1676.7,1388z"/>
		<polygon class="st9" points="588.2,1096.6 485.6,1096.6 318,1183.1 348.5,1183.1 588.2,1183.1 		"/>
		<polygon class="st10" points="348.7,1206.6 318,1183.1 348.5,1183.1 		"/>
		<path class="st7" d="M279.7,1496.6V1340c0-25.8,21.2-46.2,45.4-41.4c18.6,3.7,31.3,23.1,31.3,44v154.1L279.7,1496.6z"/>
		<path class="st7" d="M402.7,1496.6v-158.3c0-26.1,21.2-46.6,45.4-41.8c18.6,3.7,31.3,23.4,31.3,44.4v155.7L402.7,1496.6z"/>
		<path class="st7" d="M1036,1494v-132.2c0-21.8,17.7-39,37.9-35c15.6,3.1,26.2,19.5,26.2,37.1V1494H1036z"/>
		<path class="st7" d="M1281.5,1475.7v-139.7c0-18.9-10.6-36.5-26.2-39.8c-20.2-4.3-37.9,14.2-37.9,37.5v142L1281.5,1475.7z"/>
		<path class="st7" d="M1127.5,1475.9h64.1v-140.1c0-19-10.6-36.6-26.2-40c-20.2-4.3-37.9,14.2-37.9,37.6V1475.9L1127.5,1475.9z"/>
		<path class="st6" d="M2318,839.5v652.6h-340.1v0l0.1-104c0.3-41.5-13.3-48.1-13.3-48.1c22.8-58.8,9.9-117.5-1.4-150.3
			c-5.7-16.5-10.9-26.4-10.9-26.4c-7.4-14.4-27.2-43.4-62.5-57.3c-14.9-5.9-39.3-11.1-61.7-10.3c-24.7,0.9-44.3,6.1-55.7,10.6
			c-54.5,21.9-71.3,56.2-71.3,56.2s-7.1,9.3-13.8,27.1c-10.9,28.9-20.8,80.2,2.4,150.3c0,0-8.1,3.9-11.6,24.7
			c-1.1,6.2-1.7,13.8-1.6,23.3l0.4,87.2l0.1,16.8h-340.5V839.5h191.4V685h598.6v154.5H2318z"/>
		<path class="st9" d="M2108.1,721.5c0,0-0.1-6-4.8-6s-4.9,6-4.9,6v72.9h9.6V721.5z"/>
		<path class="st9" d="M1538,721.5c0,0,0-6-4.8-6s-4.9,6-4.9,6v72.9h9.7V721.5z"/>
		<path class="st9" d="M1550.7,721.5c0,0,0-6-4.8-6s-4.9,6-4.9,6v72.9h9.7V721.5z"/>
		<path class="st9" d="M1563.4,721.5c0,0,0-6-4.8-6s-4.9,6-4.9,6v72.9h9.7V721.5z"/>
		<path class="st9" d="M1576,721.5c0,0,0-6-4.8-6s-4.9,6-4.9,6v72.9h9.7V721.5z"/>
		<path class="st9" d="M1588.7,721.5c0,0,0-6-4.8-6s-4.9,6-4.9,6v72.9h9.7V721.5z"/>
		<path class="st9" d="M1601.4,721.5c0,0,0-6-4.8-6s-4.9,6-4.9,6v72.9h9.7V721.5z"/>
		<path class="st9" d="M1614,721.5c0,0,0-6-4.8-6s-4.9,6-4.9,6v72.9h9.7V721.5z"/>
		<path class="st9" d="M1626.7,721.5c0,0,0-6-4.8-6s-4.9,6-4.9,6v72.9h9.7V721.5z"/>
		<path class="st9" d="M1639.4,721.5c0,0,0-6-4.8-6s-4.9,6-4.9,6v72.9h9.7V721.5z"/>
		<path class="st9" d="M1652,721.5c0,0,0-6-4.8-6s-4.9,6-4.9,6v72.9h9.7V721.5z"/>
		<path class="st9" d="M1664.7,721.5c0,0,0-6-4.8-6s-4.9,6-4.9,6v72.9h9.7V721.5z"/>
		<path class="st9" d="M1677.4,721.5c0,0,0-6-4.8-6s-4.9,6-4.9,6v72.9h9.7V721.5z"/>
		<path class="st9" d="M1377,891.3c0,0,0-6-4.8-6s-4.9,6-4.9,6v72.9h9.7V891.3z"/>
		<path class="st9" d="M1389.6,891.3c0,0-0.1-6-4.8-6s-4.9,6-4.9,6v72.9h9.7V891.3z"/>
		<path class="st9" d="M1364.3,891.3c0,0,0-6-4.8-6s-4.9,6-4.9,6v72.9h9.7V891.3z"/>
		<path class="st9" d="M1351.6,891.3c0,0-0.1-6-4.8-6s-4.9,6-4.9,6v72.9h9.7V891.3z"/>
		<path class="st9" d="M1402.3,891.3c0,0,0-6-4.8-6s-4.9,6-4.9,6v72.9h9.7V891.3z"/>
		<path class="st9" d="M1415,891.3c0,0,0-6-4.8-6s-4.9,6-4.9,6v72.9h9.7V891.3z"/>
		<path class="st9" d="M1427.6,891.3c0,0-0.1-6-4.8-6s-4.9,6-4.9,6v72.9h9.7V891.3z"/>
		<path class="st9" d="M1440.3,891.3c0,0,0-6-4.8-6s-4.9,6-4.9,6v72.9h9.7V891.3z"/>
		<path class="st9" d="M1453,891.3c0,0,0-6-4.8-6s-4.9,6-4.9,6v72.9h9.7V891.3z"/>
		<path class="st9" d="M1465.6,891.3c0,0,0-6-4.8-6s-4.9,6-4.9,6v72.9h9.7V891.3z"/>
		<path class="st9" d="M1478.3,891.3c0,0,0-6-4.8-6s-4.9,6-4.9,6v72.9h9.7V891.3z"/>
		<path class="st9" d="M1491,891.3c0,0,0-6-4.8-6s-4.9,6-4.9,6v72.9h9.7V891.3z"/>
		<path class="st9" d="M1502.6,891.3c0,0,0-6-4.8-6s-4.9,6-4.9,6v72.9h9.7V891.3z"/>
		<path class="st9" d="M1515.2,891.3c0,0,0-6-4.8-6s-4.9,6-4.9,6v72.9h9.7V891.3z"/>
		<path class="st9" d="M1527.9,891.3c0,0-0.1-6-4.8-6s-4.9,6-4.9,6v72.9h9.7V891.3z"/>
		<path class="st9" d="M2148,896c0,0,0-6-4.8-6s-4.9,6-4.9,6v72.9h9.6V896z"/>
		<path class="st9" d="M2135.2,896c0,0,0-6-4.8-6s-4.9,6-4.9,6v72.9h9.6V896z"/>
		<path class="st9" d="M2160.6,896c0,0,0-6-4.8-6s-4.9,6-4.9,6v72.9h9.6V896z"/>
		<path class="st9" d="M2173.3,896c0,0,0-6-4.8-6s-4.9,6-4.9,6v72.9h9.6V896z"/>
		<path class="st9" d="M2186,896c0,0-0.1-6-4.8-6s-4.9,6-4.9,6v72.9h9.7V896z"/>
		<path class="st9" d="M2198.6,896c0,0,0-6-4.8-6s-4.9,6-4.9,6v72.9h9.6V896z"/>
		<path class="st9" d="M2211.3,896c0,0,0-6-4.8-6s-4.9,6-4.9,6v72.9h9.6V896z"/>
		<path class="st9" d="M2224,896c0,0-0.1-6-4.8-6s-4.9,6-4.9,6v72.9h9.6V896z"/>
		<path class="st9" d="M2236.6,896c0,0-0.1-6-4.8-6s-4.9,6-4.9,6v72.9h9.7V896z"/>
		<path class="st9" d="M2249.3,896c0,0,0-6-4.8-6s-4.9,6-4.9,6v72.9h9.6V896z"/>
		<path class="st9" d="M2262,896c0,0-0.1-6-4.8-6s-4.9,6-4.9,6v72.9h9.6V896z"/>
		<path class="st9" d="M2273.6,896c0,0,0-6-4.8-6s-4.9,6-4.9,6v72.9h9.6V896z"/>
		<path class="st9" d="M2286.3,896c0,0-0.1-6-4.8-6s-4.9,6-4.9,6v72.9h9.6V896z"/>
		<path class="st9" d="M2298.9,896c0,0,0-6-4.8-6s-4.9,6-4.9,6v72.9h9.6V896z"/>
		<path class="st9" d="M2311.6,896c0,0,0-6-4.8-6s-4.9,6-4.9,6v72.9h9.6V896z"/>
		<line class="st0" x1="1430.7" y1="896" x2="1430.7" y2="968.9"/>
		<path class="st9" d="M1690,721.5c0,0,0-6-4.8-6s-4.9,6-4.9,6v72.9h9.7V721.5z"/>
		<path class="st9" d="M1702.7,721.5c0,0,0-6-4.8-6s-4.9,6-4.9,6v72.9h9.7V721.5z"/>
		<path class="st9" d="M1715.4,721.5c0,0,0-6-4.8-6s-4.9,6-4.9,6v72.9h9.7V721.5z"/>
		<path class="st9" d="M1728,721.5c0,0,0-6-4.8-6s-4.9,6-4.9,6v72.9h9.7V721.5z"/>
		<path class="st9" d="M1740.7,721.5c0,0,0-6-4.8-6s-4.9,6-4.9,6v72.9h9.7V721.5z"/>
		<path class="st9" d="M1753.4,721.5c0,0-0.1-6-4.8-6s-4.9,6-4.9,6v72.9h9.7V721.5z"/>
		<path class="st9" d="M1766,721.5c0,0,0-6-4.8-6s-4.9,6-4.9,6v72.9h9.7V721.5z"/>
		<path class="st9" d="M1778.7,721.5c0,0,0-6-4.8-6s-4.9,6-4.9,6v72.9h9.7V721.5z"/>
		<path class="st9" d="M1791.4,721.5c0,0-0.1-6-4.8-6s-4.9,6-4.9,6v72.9h9.7V721.5z"/>
		<path class="st9" d="M1804.1,721.5c0,0,0-6-4.8-6s-4.9,6-4.9,6v72.9h9.7V721.5z"/>
		<path class="st9" d="M1816.7,721.5c0,0,0-6-4.8-6s-4.9,6-4.9,6v72.9h9.7V721.5z"/>
		<path class="st9" d="M1829.4,721.5c0,0-0.1-6-4.8-6s-4.9,6-4.9,6v72.9h9.7V721.5z"/>
		<path class="st9" d="M1842.1,721.5c0,0,0-6-4.8-6s-4.9,6-4.9,6v72.9h9.7V721.5z"/>
		<path class="st9" d="M1854.7,721.5c0,0,0-6-4.8-6s-4.9,6-4.9,6v72.9h9.7V721.5z"/>
		<path class="st9" d="M1867.4,721.5c0,0,0-6-4.8-6s-4.9,6-4.9,6v72.9h9.7V721.5z"/>
		<path class="st9" d="M1880.1,721.5c0,0,0-6-4.8-6s-4.9,6-4.9,6v72.9h9.7V721.5z"/>
		<path class="st9" d="M1892.7,721.5c0,0,0-6-4.8-6s-4.9,6-4.9,6v72.9h9.7V721.5z"/>
		<path class="st9" d="M1905.4,721.5c0,0-0.1-6-4.8-6s-4.9,6-4.9,6v72.9h9.7V721.5z"/>
		<path class="st9" d="M1918.1,721.5c0,0,0-6-4.8-6s-4.9,6-4.9,6v72.9h9.7V721.5z"/>
		<path class="st9" d="M1930.7,721.5c0,0,0-6-4.8-6s-4.9,6-4.9,6v72.9h9.7V721.5z"/>
		<path class="st9" d="M1943.4,721.5c0,0-0.1-6-4.8-6s-4.9,6-4.9,6v72.9h9.7V721.5z"/>
		<path class="st9" d="M1956.1,721.5c0,0,0-6-4.8-6s-4.9,6-4.9,6v72.9h9.7V721.5z"/>
		<path class="st9" d="M1968.7,721.5c0,0,0-6-4.8-6s-4.9,6-4.9,6v72.9h9.7V721.5z"/>
		<path class="st9" d="M1981.4,721.5c0,0-0.1-6-4.8-6s-4.9,6-4.9,6v72.9h9.7V721.5z"/>
		<path class="st9" d="M1994.1,721.5c0,0,0-6-4.8-6s-4.9,6-4.9,6v72.9h9.7V721.5z"/>
		<path class="st9" d="M2006.7,721.5c0,0,0-6-4.8-6s-4.9,6-4.9,6v72.9h9.7V721.5z"/>
		<path class="st9" d="M2019.4,721.5c0,0,0-6-4.8-6s-4.9,6-4.9,6v72.9h9.7V721.5z"/>
		<path class="st9" d="M2032.1,721.5c0,0,0-6-4.8-6s-4.9,6-4.9,6v72.9h9.7V721.5z"/>
		<path class="st9" d="M2044.7,721.5c0,0,0-6-4.8-6s-4.9,6-4.9,6v72.9h9.7V721.5z"/>
		<path class="st9" d="M2057.4,721.5c0,0-0.1-6-4.8-6s-4.9,6-4.9,6v72.9h9.7V721.5z"/>
		<path class="st9" d="M2070.1,721.5c0,0,0-6-4.8-6s-4.9,6-4.9,6v72.9h9.6V721.5z"/>
		<path class="st9" d="M2082.7,721.5c0,0,0-6-4.8-6s-4.9,6-4.9,6v72.9h9.6V721.5z"/>
		<path class="st9" d="M2095.4,721.5c0,0-0.1-6-4.8-6s-4.9,6-4.9,6v72.9h9.6V721.5z"/>
		<path class="st9" d="M2120.7,721.5c0,0,0-6-4.8-6s-4.9,6-4.9,6v72.9h9.6V721.5z"/>
		<path class="st9" d="M2126.6,716v78.4h-2.9v-72.9C2123.8,721.5,2123.9,717.5,2126.6,716C2126.6,716,2126.6,716,2126.6,716z"/>
		<path class="st11" d="M1978,1388.1l-0.1,104h-381.4v0h80.7l-0.1-16.8l-0.4-87.2c-0.1-9.5,0.6-17.2,1.6-23.3
			c3.5-20.8,11.6-24.7,11.6-24.7c-23.2-70.1-13.3-121.4-2.4-150.3c6.7-17.8,13.8-27.1,13.8-27.1s16.7-34.3,71.3-56.2
			c11.3-4.5,31-9.7,55.7-10.6c22.4-0.8,46.8,4.4,61.7,10.3c35.3,13.8,55.1,42.9,62.5,57.3c0,0,5.2,9.9,10.9,26.4
			c11.2,32.8,24.2,91.5,1.4,150.3C1964.7,1340,1978.3,1346.6,1978,1388.1z"/>
		<polyline class="st12" points="2070,1492 2070.8,1359.2 2070.9,1351.9 2070.9,1341.4 2071,1334.1 2071.1,1323.7 2071.1,1316.2 
			2071.1,1305.9 2071.2,1298.3 2071.3,1288.2 2071.3,1280.5 2071.4,1270.4 2071.4,1262.6 2071.5,1252.7 2071.5,1244.8 
			2071.6,1234.9 2071.6,1226.9 2071.7,1217.2 2071.7,1209.1 2071.8,1199.4 2071.9,1191.2 2071.9,1189.7 2071.9,1181.6 2072,1173.4 
			2072,1163.8 2072.1,1155.6 2072.1,1146.1 2072.2,1137.8 2072.2,1128.3 2072.3,1119.9 2072.3,1110.5 2072.4,1102.1 2072.4,1092.7 
			2072.5,1084.3 2072.6,1074.9 2072.6,1066.5 2072.7,1057.1 2072.7,1048.7 2072.8,1039.3 2072.8,1030.8 2072.9,1021.5 2072.9,1013 
			2073,1003.7 2073,995.2 2073.1,987.3 2072,987.3 2063.4,987.3 2054.2,987.3 2054.2,987.3 2045.7,987.3 2045.6,987.3 2036.4,987.3 
			2027.8,987.3 2018.6,987.3 2010,987.3 2000.8,987.3 1992.2,987.3 1982.9,987.3 1974.4,987.3 1965.2,987.3 1956.6,987.3 
			1947.3,987.3 1938.8,987.3 1929.5,987.3 1921,987.3 1911.7,987.3 1903.2,987.3 1893.9,987.3 1885.4,987.3 1876.1,987.3 
			1867.6,987.3 1858.3,987.3 1849.8,987.3 1840.5,987.3 1832,987.3 1822.7,987.3 1814.2,987.3 1804.9,987.3 1796.4,987.3 
			1787.1,987.3 1778.6,987.3 1769.3,987.3 1760.8,987.3 1751.5,987.3 1743,987.3 1733.7,987.3 1725.2,987.3 1715.9,987.3 
			1707.4,987.3 1698.1,987.3 1689.6,987.3 1680.3,987.3 1671.8,987.3 1662.5,987.3 1654,987.3 1644.7,987.3 1636.2,987.3 
			1626.9,987.3 1618.3,987.3 1609.1,987.3 1600.5,987.3 1596.5,987.3 1596.5,995.2 1596.5,1003.7 1596.5,1013 1596.5,1021.5 
			1596.5,1030.8 1596.5,1039.3 1596.5,1048.6 1596.5,1057.2 1596.5,1066.4 1596.5,1075 1596.5,1084.2 1596.5,1092.8 1596.5,1102.1 
			1596.5,1110.6 1596.5,1119.8 1596.5,1128.4 1596.5,1137.7 1596.5,1146.2 1596.5,1155.5 1596.5,1164 1596.5,1173.3 1596.5,1181.8 
			1596.5,1189.7 1596.5,1191.1 1596.5,1199.6 1596.5,1208.9 1596.5,1217.4 1596.5,1226.7 1596.5,1235.2 1596.5,1244.5 
			1596.5,1252.1 1596.5,1253 1596.5,1262.3 1596.5,1270.8 1596.5,1280.1 1596.5,1288.6 1596.5,1297.9 1596.5,1306.4 1596.5,1315.7 
			1596.5,1324.2 1596.5,1333.5 1596.5,1342 1596.5,1351.3 1596.5,1359.8 1596.5,1475.3 1596.5,1492 		"/>
		<circle class="st13" cx="1596.5" cy="1355.6" r="4.3"/>
		<circle class="st13" cx="1596.5" cy="1337.8" r="4.3"/>
		<circle class="st13" cx="1596.5" cy="1320" r="4.3"/>
		<circle class="st13" cx="1596.5" cy="1302.2" r="4.3"/>
		<circle class="st13" cx="1596.5" cy="1284.3" r="4.3"/>
		<circle class="st13" cx="1596.5" cy="1266.6" r="4.3"/>
		<circle class="st13" cx="1596.5" cy="1248.7" r="4.3"/>
		<circle class="st13" cx="1596.5" cy="1230.9" r="4.3"/>
		<circle class="st13" cx="1596.5" cy="1213.1" r="4.3"/>
		<circle class="st13" cx="1596.5" cy="1195.3" r="4.3"/>
		<circle class="st13" cx="1596.5" cy="1177.5" r="4.3"/>
		<circle class="st13" cx="1596.5" cy="1159.7" r="4.3"/>
		<circle class="st13" cx="1596.5" cy="1141.9" r="4.3"/>
		<circle class="st13" cx="1596.5" cy="1124.1" r="4.3"/>
		<circle class="st13" cx="1596.5" cy="1106.3" r="4.3"/>
		<circle class="st13" cx="1596.5" cy="1088.5" r="4.3"/>
		<circle class="st13" cx="1596.5" cy="1070.7" r="4.3"/>
		<circle class="st13" cx="1596.5" cy="1052.9" r="4.3"/>
		<circle class="st13" cx="1596.5" cy="1035.1" r="4.3"/>
		<circle class="st13" cx="1596.5" cy="1017.3" r="4.3"/>
		<circle class="st13" cx="1596.5" cy="999.5" r="4.3"/>
		<circle class="st13" cx="2073.1" cy="1355.6" r="4.3"/>
		<circle class="st13" cx="2073.1" cy="1337.8" r="4.3"/>
		<circle class="st13" cx="2073.1" cy="1320" r="4.3"/>
		<circle class="st13" cx="2073.1" cy="1302.2" r="4.3"/>
		<circle class="st13" cx="2073.1" cy="1284.3" r="4.3"/>
		<circle class="st13" cx="2073.1" cy="1266.6" r="4.3"/>
		<circle class="st13" cx="2073.1" cy="1248.7" r="4.3"/>
		<circle class="st13" cx="2073.1" cy="1230.9" r="4.3"/>
		<circle class="st13" cx="2073.1" cy="1213.1" r="4.3"/>
		<circle class="st13" cx="2073.1" cy="1195.3" r="4.3"/>
		<circle class="st13" cx="2073.1" cy="1177.5" r="4.3"/>
		<circle class="st13" cx="2073.1" cy="1159.7" r="4.3"/>
		<circle class="st13" cx="2073.1" cy="1141.9" r="4.3"/>
		<circle class="st13" cx="2073.1" cy="1124.1" r="4.3"/>
		<circle class="st13" cx="2073.1" cy="1106.3" r="4.3"/>
		<circle class="st13" cx="2073.1" cy="1088.5" r="4.3"/>
		<circle class="st13" cx="2073.1" cy="1070.7" r="4.3"/>
		<circle class="st13" cx="2073.1" cy="1052.9" r="4.3"/>
		<circle class="st13" cx="2073.1" cy="1035.1" r="4.3"/>
		<circle class="st13" cx="2073.1" cy="1017.3" r="4.3"/>
		<circle class="st13" cx="2073.1" cy="999.5" r="4.3"/>
		<circle class="st13" cx="1604.8" cy="987.3" r="4.3"/>
		<circle class="st13" cx="1622.6" cy="987.3" r="4.3"/>
		<circle class="st13" cx="1640.4" cy="987.3" r="4.3"/>
		<circle class="st13" cx="1658.2" cy="987.3" r="4.3"/>
		<circle class="st13" cx="1676" cy="987.3" r="4.3"/>
		<circle class="st13" cx="1693.8" cy="987.3" r="4.3"/>
		<circle class="st13" cx="1711.6" cy="987.3" r="4.3"/>
		<circle class="st13" cx="1729.4" cy="987.3" r="4.3"/>
		<circle class="st13" cx="1747.2" cy="987.3" r="4.3"/>
		<circle class="st13" cx="1765" cy="987.3" r="4.3"/>
		<circle class="st13" cx="1782.8" cy="987.3" r="4.3"/>
		<circle class="st13" cx="1800.7" cy="987.3" r="4.3"/>
		<circle class="st13" cx="1818.4" cy="987.3" r="4.3"/>
		<circle class="st13" cx="1836.3" cy="987.3" r="4.3"/>
		<circle class="st13" cx="1854.1" cy="987.3" r="4.3"/>
		<circle class="st13" cx="1871.9" cy="987.3" r="4.3"/>
		<circle class="st13" cx="1889.7" cy="987.3" r="4.3"/>
		<circle class="st13" cx="1907.5" cy="987.3" r="4.3"/>
		<circle class="st13" cx="1925.3" cy="987.3" r="4.3"/>
		<circle class="st13" cx="1943.1" cy="987.3" r="4.3"/>
		<circle class="st13" cx="1960.9" cy="987.3" r="4.3"/>
		<circle class="st13" cx="1978.7" cy="987.3" r="4.3"/>
		<circle class="st13" cx="1996.5" cy="987.3" r="4.3"/>
		<circle class="st13" cx="2014.3" cy="987.3" r="4.3"/>
		<circle class="st13" cx="2032.1" cy="987.3" r="4.3"/>
		<circle class="st13" cx="2049.9" cy="987.3" r="4.3"/>
		<circle class="st13" cx="2067.7" cy="987.3" r="4.3"/>
		<path class="st13" d="M2049.9,991.6c-2.4,0-4.3-1.9-4.3-4.2s1.9-4.3,4.2-4.3c2.4,0,4.3,1.9,4.3,4.2c0,0,0,0,0,0"/>
		<circle class="st14" cx="2144.3" cy="1152.2" r="7"/>
		<circle class="st14" cx="2173.7" cy="1152.2" r="7"/>
		<circle class="st14" cx="2203" cy="1152.2" r="7"/>
		<circle class="st14" cx="2232.4" cy="1152.2" r="7"/>
		<circle class="st14" cx="2261.7" cy="1152.2" r="7"/>
		<circle class="st14" cx="2291" cy="1152.2" r="7"/>
		<line class="st15" x1="2132.9" y1="1138.9" x2="2308.5" y2="1138.9"/>
		<line class="st15" x1="2132.9" y1="1165.4" x2="2308.5" y2="1165.4"/>
		<rect x="1614" y="902.1" class="st16" width="54.7" height="54.7"/>
		<rect x="1707.7" y="902.1" class="st16" width="54.7" height="54.7"/>
		<rect x="1801.4" y="902.1" class="st16" width="54.7" height="54.7"/>
		<rect x="1894.8" y="902.1" class="st16" width="54.7" height="54.7"/>
		<rect x="1988.5" y="902.1" class="st16" width="54.7" height="54.7"/>
		<polygon class="st17" points="1546.8,652.6 1565.5,685 1528.1,685 		"/>
		<polygon class="st17" points="1584.2,652.6 1602.9,685 1565.5,685 		"/>
		<polygon class="st17" points="1621.6,652.6 1640.3,685 1602.9,685 		"/>
		<polygon class="st17" points="1659,652.6 1677.7,685 1640.3,685 		"/>
		<polygon class="st17" points="1696.4,652.6 1715.1,685 1677.7,685 		"/>
		<polygon class="st17" points="1733.8,652.6 1752.5,685 1715.1,685 		"/>
		<polygon class="st17" points="1771.2,652.6 1789.9,685 1752.5,685 		"/>
		<polygon class="st17" points="1808.6,652.6 1827.3,685 1789.9,685 		"/>
		<polygon class="st17" points="1846,652.6 1864.7,685 1827.3,685 		"/>
		<polygon class="st17" points="1883.4,652.6 1902.2,685 1864.7,685 		"/>
		<polygon class="st17" points="1920.8,652.6 1939.6,685 1902.2,685 		"/>
		<polygon class="st17" points="1958.3,652.6 1977,685 1939.6,685 		"/>
		<polygon class="st17" points="1995.7,652.6 2014.4,685 1977,685 		"/>
		<polygon class="st17" points="2033.1,652.6 2051.8,685 2014.4,685 		"/>
		<polygon class="st17" points="2070.5,652.6 2089.2,685 2051.8,685 		"/>
		<polygon class="st17" points="2107.9,652.6 2126.6,685 2089.2,685 		"/>
		<polygon class="st17" points="1354.2,809.2 1336.7,839.5 1371.7,839.5 		"/>
		<polygon class="st17" points="1389.2,809.2 1371.7,839.5 1406.7,839.5 		"/>
		<polygon class="st17" points="1424.2,809.2 1406.7,839.5 1441.7,839.5 		"/>
		<polygon class="st17" points="1459.2,809.2 1441.7,839.5 1476.7,839.5 		"/>
		<polygon class="st17" points="1494.1,809.2 1476.7,839.5 1511.6,839.5 		"/>
		<polygon class="st17" points="1511.6,839.5 1528,839.5 1528,811.1 		"/>
		<polygon class="st17" points="2300.6,809.2 2318.1,839.5 2283.1,839.5 		"/>
		<polygon class="st17" points="2265.6,809.2 2283.1,839.5 2248.1,839.5 		"/>
		<polygon class="st17" points="2230.6,809.2 2248.1,839.5 2213.1,839.5 		"/>
		<polygon class="st17" points="2195.6,809.2 2213.1,839.5 2178.1,839.5 		"/>
		<polygon class="st17" points="2160.6,809.2 2178.1,839.5 2143.1,839.5 		"/>
		<polygon class="st17" points="2143.2,839.5 2126.8,839.5 2126.8,811.1 		"/>
		<path class="st13" d="M1393.4,1365c0-10,2.4-19.8,6.9-28.8c-7.2-7.1-10-17.6-7.2-27.3c4.8-17.7,52.4-43.1,52.4-43.1"/>
		<path class="st13" d="M1495.1,1364.9c0-10-2.4-19.8-6.9-28.7c7.2-7.1,10-17.6,7.2-27.3c-4.8-17.7-52.1-43-52.1-43"/>
		<path class="st17" d="M1412.9,1476.5c0,0-6.2-111.2,8.7-129.1c0,0-13.2-10.8-7.2-27.3s31.5-28.8,31.5-28.8v185.3H1412.9z"/>
		<path class="st17" d="M1478.7,1476.5c0,0,6.2-111.2-8.7-129.1c0,0,13.2-10.8,7.2-27.3s-31.5-28.8-31.5-28.8v185.3H1478.7z"/>
		<rect x="1437.8" y="1306.4" class="st17" width="20.2" height="170.1"/>
		<line class="st18" x1="1495.1" y1="1476.4" x2="1495.1" y2="1365"/>
		<line class="st19" x1="1393.5" y1="1476.4" x2="1393.5" y2="1365"/>
		<line class="st18" x1="1376" y1="1476.4" x2="1376" y2="1365"/>
		<line class="st18" x1="1393.5" y1="1476.4" x2="1393.5" y2="1365"/>
		<line class="st18" x1="1512.7" y1="1476.4" x2="1512.7" y2="1365"/>
		<line class="st18" x1="1358.5" y1="1476.4" x2="1358.5" y2="1365"/>
		<line class="st20" x1="1531.1" y1="798.9" x2="1531.1" y2="1492.2"/>
		<line class="st20" x1="2123.6" y1="797.5" x2="2123.6" y2="1492"/>
		<line class="st21" x1="1339.3" y1="839.5" x2="1339.3" y2="1484.3"/>
		<line class="st21" x1="2315.5" y1="839.6" x2="2315.5" y2="1492.1"/>
		<line class="st22" x1="2126.6" y1="799.7" x2="1528.1" y2="799.7"/>
		<line class="st22" x1="1556.3" y1="799.7" x2="1556.3" y2="834"/>
		<line class="st22" x1="1573.8" y1="799.7" x2="1573.8" y2="834"/>
		<line class="st22" x1="1538.9" y1="799.7" x2="1538.9" y2="834"/>
		<line class="st22" x1="1591.2" y1="799.7" x2="1591.2" y2="834"/>
		<line class="st22" x1="1608.6" y1="799.7" x2="1608.6" y2="834"/>
		<line class="st22" x1="1626" y1="799.7" x2="1626" y2="834"/>
		<line class="st22" x1="1643.4" y1="799.7" x2="1643.4" y2="834"/>
		<line class="st22" x1="1660.9" y1="799.7" x2="1660.9" y2="834"/>
		<line class="st22" x1="1678.3" y1="799.7" x2="1678.3" y2="834"/>
		<line class="st22" x1="1695.7" y1="799.7" x2="1695.7" y2="834"/>
		<line class="st22" x1="1713.1" y1="799.7" x2="1713.1" y2="834"/>
		<line class="st22" x1="1730.6" y1="799.7" x2="1730.6" y2="834"/>
		<line class="st22" x1="1748" y1="799.7" x2="1748" y2="834"/>
		<line class="st22" x1="1765.4" y1="799.7" x2="1765.4" y2="834"/>
		<line class="st22" x1="1782.8" y1="799.7" x2="1782.8" y2="834"/>
		<line class="st22" x1="1800.2" y1="799.7" x2="1800.2" y2="834"/>
		<line class="st22" x1="1817.7" y1="799.7" x2="1817.7" y2="834"/>
		<line class="st22" x1="1835.1" y1="799.7" x2="1835.1" y2="834"/>
		<line class="st22" x1="1852.5" y1="799.7" x2="1852.5" y2="834"/>
		<line class="st22" x1="1869.9" y1="799.7" x2="1869.9" y2="834"/>
		<line class="st22" x1="1887.3" y1="799.7" x2="1887.3" y2="834"/>
		<line class="st22" x1="1904.8" y1="799.7" x2="1904.8" y2="834"/>
		<line class="st22" x1="1922.2" y1="799.7" x2="1922.2" y2="834"/>
		<line class="st22" x1="1939.6" y1="799.7" x2="1939.6" y2="834"/>
		<line class="st22" x1="1957" y1="799.7" x2="1957" y2="834"/>
		<line class="st22" x1="1974.4" y1="799.7" x2="1974.4" y2="834"/>
		<line class="st22" x1="1991.9" y1="799.7" x2="1991.9" y2="834"/>
		<line class="st22" x1="2009.3" y1="799.7" x2="2009.3" y2="834"/>
		<line class="st22" x1="2026.7" y1="799.7" x2="2026.7" y2="834"/>
		<line class="st22" x1="2044.1" y1="799.7" x2="2044.1" y2="834"/>
		<line class="st22" x1="2061.6" y1="799.7" x2="2061.6" y2="834"/>
		<line class="st22" x1="2079" y1="799.7" x2="2079" y2="834"/>
		<line class="st22" x1="2096.4" y1="799.7" x2="2096.4" y2="834"/>
		<line class="st22" x1="2113.8" y1="799.7" x2="2113.8" y2="834"/>
		<polygon class="st5" points="1484.4,1476.4 1484.4,1496.6 1444.2,1514.9 1056.5,1514.9 1056.5,1492 1444.2,1492 		"/>
		<polygon class="st1" points="1056.5,1492 1127.5,1475.9 1484.4,1476.4 1444.2,1492 		"/>
		<polyline class="st0" points="2126.6,705.1 2126.6,705.1 2126.6,716.1 2126.6,794.4 2126.6,799.7 2126.6,807.9 2126.6,807.9 
			2126.6,799.7 2126.6,794.4 2126.6,716 		"/>
		<path class="st2" d="M950,1173.3c8.7-219.1-27.9-294.3-113.1-510.8c108.3,201.4,167,336,186.2,577.2h-27.5v-66.4L950,1173.3z"/>
		<path class="st3" d="M710,1018.4c-2-1.5-22.3-104.6,13.3-192.6c25.9-91.3,105.2-160.3,107.7-160.2c0.4,1.3-28.6-1.7-68.8,16.4
			c-39.3,17.2-89.8,55.6-110.8,119.2c-22.5,63-6.2,124.4,14.3,162.1C686.4,1002.2,711.2,1017.5,710,1018.4z"/>
		<path class="st3" d="M536,806.5c-0.5-2.4,46.7-85.1,122.8-117.7c71.5-41.8,166.1-30.4,167.7-28.5c-0.5,1.2-18.4-21.7-56.3-38.6
			c-36.8-16.8-93.8-27.7-145.6-0.7c-52.5,25.5-77.7,77.7-86.1,117.3C529.5,778.9,537.2,806.8,536,806.5z"/>
		<path class="st3" d="M606.4,582.7c1-1.5,66.9-21.7,122,0c57.4,14.4,99.3,69.1,99.2,71c-0.9,0.4,1.8-21.1-8.8-49.7
			c-10-28-33.2-63.1-73.1-75.3c-39.5-13.3-78.8,1.8-103.2,18.8C617.3,564.5,606.9,583.5,606.4,582.7z"/>
		<path class="st3" d="M1077.1,952.3c1.4-2.1-14.4-106-77.8-176.7C944,698.5,845.9,660.5,843.6,661.4c0.1,1.4,26.3-11.3,70.3-7.9
			c42.8,2.9,103.4,21.9,144.6,74.5c42.5,51.7,48,114.9,41.5,157.3C1093.8,929,1075.8,951.9,1077.1,952.3z"/>
		<path class="st3" d="M1170,662.5c-0.6-2.4-78.5-57.1-161.3-54.1c-82.5-7.3-163.2,43.3-163.9,45.7c1,0.8,7.4-27.4,34.5-58.9
			c26.1-30.9,73-65,131.3-62.7c58.4,0.7,103.4,37.2,127.9,69.5C1164.1,634.7,1169,663.3,1170,662.5z"/>
		<path class="st3" d="M1023.7,499.4c-1.5-1.1-71.5,5.2-116,46.5c-49.4,35.3-69.7,102.6-68.9,104.3c0.9,0-9.2-19.1-9.5-49.9
			c-0.5-30,8.9-71.8,42.5-98.4c32.8-27.5,75.6-28.4,104.9-21.8C1006.9,486.5,1023.6,500.3,1023.7,499.4z"/>
		<path class="st23" d="M758.5,1494c0,0-252.6-51.7-96.2-84.4c0,0-159.5-69.2-80.2-92.6c0,0-179.7,1.6-53.7-55.2
			c0,0-215.5,45.9,38.9-85.6c0,0-193-58.4,28-31.9c0,0-239.6-112,0.8-38.9c0,0-195.3-118.3-11.7-50.6c0,0-142.9-112.7,22.3-20.9
			c0,0-100.6-163.6,19.9-65c0,0-79-161.7,95.5,0.5c0,0,15.3-175.5,86.1-17.1c0,0,39-116.5,69-1.2c0,0,93.2-170.5,49.3,13.1
			c0,0,148.1-107.7,56.5,35.3c0,0,108.2-52.3,9.2,35.6c0,0,216.1,1.7-6.9,67c0,0,201.5,29.2,37.9,53.4c0,0,194.8,34.3,0.6,39.9
			c0,0,233.8,74.3-0.6,44.4c0,0,185.2,114.1-34.3,62.5c0,0,129.3,38.7,18.6,72.3c0,0,59.9,107.7-34,118.8L758.5,1494z"/>
		<circle class="st15" cx="1358.6" cy="1152.5" r="7"/>
		<circle class="st15" cx="1387.9" cy="1152.5" r="7"/>
		<circle class="st15" cx="1417.3" cy="1152.5" r="7"/>
		<circle class="st15" cx="1446.6" cy="1152.5" r="7"/>
		<circle class="st15" cx="1475.9" cy="1152.5" r="7"/>
		<circle class="st15" cx="1505.3" cy="1152.5" r="7"/>
		<line class="st15" x1="1347.1" y1="1139.3" x2="1522.7" y2="1139.3"/>
		<line class="st15" x1="1347.1" y1="1165.7" x2="1522.7" y2="1165.7"/>
	</g>
</g>
</svg>
