<svg xmlns="http://www.w3.org/2000/svg" viewBox="0 0 3656.58 2736.87"><defs><style>.cls-1,.cls-12,.cls-13,.cls-14,.cls-15,.cls-16,.cls-18,.cls-19,.cls-20,.cls-21,.cls-22{fill:none;}.cls-2{fill:#ebdecf;}.cls-3{fill:#5c331e;}.cls-4{fill:#36331b;}.cls-5{fill:#ab8558;}.cls-6{fill:#c0b7ab;}.cls-7{fill:#b7684f;}.cls-8{fill:#1f1710;}.cls-9{fill:#d4b296;}.cls-10{fill:#b4dddc;}.cls-11{fill:#4e6160;}.cls-12{stroke:#b4dddc;}.cls-12,.cls-13,.cls-14,.cls-15,.cls-16,.cls-18,.cls-19,.cls-20,.cls-21,.cls-22{stroke-miterlimit:10;}.cls-12,.cls-14,.cls-20{stroke-width:6px;}.cls-13,.cls-18{stroke:#85361d;}.cls-13,.cls-15,.cls-21,.cls-22{stroke-width:5px;}.cls-14,.cls-15,.cls-16{stroke:#86361d;}.cls-16{stroke-width:8px;}.cls-17{fill:#85361d;}.cls-18{stroke-width:3px;}.cls-19,.cls-22{stroke:#a1565e;}.cls-19{stroke-width:2px;}.cls-20,.cls-21{stroke:#b28e8d;}.cls-23{fill:#585022;}</style></defs><g id="Calque_2" data-name="Calque 2"><g id="Calque_1-2" data-name="Calque 1"><g id="Calque_2-2" data-name="Calque 2"><g id="Calque_2-2-2" data-name="Calque 2-2"><path class="cls-1" d="M2227.14,1189.71v598.86h-800V1189.71h260.44c-7.74,20.53-14.95,52.33-10.19,94.13A278.52,278.52,0,0,0,1690,1340s-8.09,3.88-11.64,24.68l1.94,110.43v.05h-3.14l.09,16.84h-80.69v0h381.4l0-40.48,0-63.5c.28-41.5-13.3-48.08-13.3-48.08,17.46-44.89,14-89.8,6.38-123.1a270.32,270.32,0,0,0-7.75-27.17Z"/><path class="cls-2" d="M0,0V1921.05H3656.58V0ZM1596.54,1492h80.69l-.09-16.84h3.14v-.05l-1.94-110.43c3.55-20.8,11.64-24.68,11.64-24.68a278.52,278.52,0,0,1-12.59-56.16c-4.76-41.8,2.45-73.6,10.19-94.13,6.7-17.82,13.8-27.15,13.8-27.15s16.74-34.34,71.26-56.21c11.33-4.54,31-9.74,55.65-10.62,22.38-.81,46.79,4.45,61.72,10.32,35.27,13.85,55.11,42.9,62.48,57.3a205.17,205.17,0,0,1,10.87,26.36,270.32,270.32,0,0,1,7.75,27.17c7.62,33.3,11.08,78.21-6.38,123.1,0,0,13.58,6.58,13.3,48.08l0,63.5,0,40.48h-381.4Z"/><path class="cls-3" d="M2431.54,783.46c106.12,188.15,170.7,397.51,165.78,604.6,32.54-1.79,51.37-3.58,83.91-5.38C2652.6,1159.76,2564.71,953.37,2431.54,783.46Z"/><path class="cls-4" d="M2372.17,1122.79c-2-1-35.46-90.6-16.43-174.84,9.77-85.8,70.85-159.39,73.09-159.67.55,1.14-25.92,2.65-59.37,24.84-32.73,21.24-72.43,63.15-81.88,123.29-10.88,59.89,12.8,112.54,36.71,143.38C2348.57,1111.75,2373.07,1121.89,2372.17,1122.79Z"/><path class="cls-4" d="M2184.72,958.29c-.81-2.08,29.36-83.3,92.94-123.75,58.05-48,144.6-51.75,146.34-50.34-.3,1.12-19.67-16.74-56.26-26.32-35.52-9.67-88.26-11.06-130.75,20.76-43.36,30.65-58.27,81.25-60,118C2174.84,934.42,2185.88,958.35,2184.72,958.29Z"/><path class="cls-4" d="M2215,746.93c.64-1.53,56.88-29.36,109.49-18,53.64,4.43,99.35,47.42,99.52,49.08-.72.45-1.52-19.19-15.22-43.33-13.11-23.65-39.12-51.79-76.7-56.83-37.42-6.12-70.49,13.24-89.92,32C2222,729,2215.54,747.57,2215,746.93Z"/><path class="cls-4" d="M2692,1009.38c1-2-28.59-93-95.88-147.13-61-61.11-154.62-80.74-156.55-79.57.28,1.24,21.95-14,61.94-17.47,38.84-3.73,96,4.4,140.8,45.61,45.77,40.13,60,96.09,60.43,135.1C2703.56,986.05,2690.69,1009.23,2692,1009.38Z"/><path class="cls-4" d="M2732.67,735.55c-.87-2.07-78.9-39.71-152.77-24.8-75.14,5.6-140.11,62.92-140.38,65.14,1,.6,2.58-25.71,22.31-58,18.91-31.59,56-69.14,108.65-75.65,52.49-8,98.31,18.18,125,43.49C2723.24,711.49,2731.87,736.39,2732.67,735.55Z"/><path class="cls-4" d="M2577.33,610.71c-1.49-.75-63.38,15.2-97.29,58.86-39.17,39-47.42,102.39-46.48,103.78.84-.14-11.12-15.76-15.86-43.41-4.88-26.87-2.55-65.76,23.65-94.57,25.38-29.54,63.7-36.63,91-35.07C2560.33,601.61,2577.3,611.57,2577.33,610.71Z"/><polygon class="cls-5" points="3656.1 1556.23 2318.07 1555.35 2316.94 1360.01 2904.99 1317.88 3656.1 1328.99 3656.1 1556.23"/><polygon class="cls-2" points="3656.1 1658.64 2490.63 1490.83 2766.51 1442.46 3656.1 1511.51 3656.1 1658.64"/><polygon class="cls-6" points="2486.52 1521.81 2904.99 1596.02 3656.1 1729.24 3656.1 1658.64 2490.63 1490.83 2486.52 1521.81"/><path class="cls-4" d="M2715.41,1340.08c2-1,34.4-87.87,15.94-169.57-9.48-83.23-68.72-154.59-70.89-154.87-.53,1.1,25.14,2.57,57.58,24.09,31.75,20.6,70.26,61.25,79.42,119.58,10.55,58.09-12.42,109.15-35.61,139.06C2738.31,1329.37,2714.55,1339.21,2715.41,1340.08Z"/><path class="cls-4" d="M2897.22,1180.54c.78-2-28.47-80.8-90.13-120-56.31-46.6-140.26-50.2-142-48.83.3,1.09,19.09-16.24,54.57-25.53,34.46-9.38,85.6-10.72,126.82,20.14,42,29.72,56.51,78.8,58.19,114.47C2906.8,1157.38,2896.1,1180.59,2897.22,1180.54Z"/><path class="cls-4" d="M2867.87,975.54c-.63-1.49-55.18-28.49-106.2-17.46-52,4.3-96.36,46-96.53,47.61.7.43,1.48-18.62,14.77-42,12.71-22.93,37.94-50.23,74.39-55.12,36.29-5.93,68.37,12.84,87.21,31.08C2861,958.16,2867.33,976.15,2867.87,975.54Z"/><path class="cls-4" d="M2405.26,1230.08c-.92-2,27.73-90.2,93-142.69,59.18-59.28,150-78.31,151.84-77.18-.28,1.2-21.3-13.62-60.08-17-37.67-3.61-93.11,4.27-136.56,44.24-44.4,38.92-58.17,93.2-58.61,131C2394,1207.46,2406.48,1229.94,2405.26,1230.08Z"/><path class="cls-4" d="M2365.77,964.5c.84-2,76.52-38.51,148.16-24.06,72.89,5.43,135.9,61,136.17,63.18-1,.58-2.51-24.93-21.65-56.22-18.33-30.64-54.27-67.06-105.38-73.38-50.91-7.72-95.35,17.64-121.28,42.19C2374.91,941.16,2366.54,965.32,2365.77,964.5Z"/><path class="cls-4" d="M2516.43,843.41c1.45-.73,61.47,14.75,94.37,57.09,38,37.84,46,99.31,45.08,100.66-.82-.14,10.78-15.29,15.38-42.1,4.73-26.06,2.47-63.78-22.94-91.73-24.62-28.65-61.78-35.52-88.23-34C2532.92,834.59,2516.46,844.25,2516.43,843.41Z"/><path class="cls-3" d="M2657.83,1011c-102.93,182.49-152.26,385.55-147.49,586.41l-94.68-5.22C2443.43,1375.94,2528.67,1175.76,2657.83,1011Z"/><polygon class="cls-7" points="2904.99 1217.84 3656.1 1189.65 3656.1 1328.99 2904.99 1317.88 2904.99 1217.84"/><rect class="cls-8" x="3632.61" y="1258.03" width="23.95" height="51.46"/><rect class="cls-8" x="3565.49" y="1258.02" width="36.42" height="51.47"/><rect class="cls-8" x="3498.36" y="1258.02" width="36.42" height="51.47"/><rect class="cls-8" x="3431.22" y="1258.02" width="36.42" height="51.47"/><polygon class="cls-9" points="3656.1 1737.11 3656.1 2736.87 0 2736.87 0 1737.11 1212.39 1514.95 1337.42 1492.04 2318.68 1492.04 2428.68 1512.2 2510.87 1527.26 2665.35 1555.58 2665.43 1555.58 3656.1 1737.11"/><polygon class="cls-2" points="0.06 1496.76 1337.42 1492.04 0 1737.11 0.06 1496.76"/><path class="cls-5" d="M1678.34,1364.68l1.94,110.43h0l-2.54-106.32-2-84.82v-.14h1.7A278.52,278.52,0,0,0,1690,1340S1681.89,1343.88,1678.34,1364.68Z"/><path class="cls-5" d="M1989.73,1216.88v234.68H1978l0-63.5c.28-41.5-13.3-48.08-13.3-48.08,17.46-44.89,14-89.8,6.38-123.1Z"/><path class="cls-5" d="M1680.28,1475.11v.05h-3.14l-80.6.13-65.47.1-18.33,0-17.67,0-16.31,0-20.83,0-12.09,0h-.09l-8,0h-10.64l-14.3,0-19.36,0-17.47,0-17.47,0-19.25,0h-2.57l-57.14.09v0l-.08-124.9L1277,1323.6s-4.38-17.8-16-25.44h0a20.06,20.06,0,0,0-10.74-3.4,21.29,21.29,0,0,0-11.14,2.89l0,0c-12.09,6.86-17.83,23.49-17.83,23.49l-2.4,154.61v0l-30,.13v0l-.71-156.38s-7.85-22.09-27.84-22.06-30,22.06-30,22.06l-2.79,154.76,0,1.63v0L1102.4,1492l-1.3.83H1101l-1,.67h0l0-.67,0-.84-.24-9.86-3-122.82s-3.57-31.2-27.84-31.92c-8.38-.25-14.64,2.06-19.23,5.19l-.16.12c-.49.33-1,.67-1.41,1a31,31,0,0,0-9.9,13.68v1.34h0l-.13,13-1.33,131.28v.46H1036l-556.64,2.59h-.05l0-1.08L475.89,1358s1.38-61.19-36.55-60c-39.46,1.2-33.33,53.86-33.33,53.86l-1.9,143.47v.77H355.41v-.59L354,1337.62s-10.86-34.26-32.59-39.55a23.45,23.45,0,0,0-5-.68,18.63,18.63,0,0,0-9.75,2.4h0c-16.8,9.46-20.87,43.38-20.87,43.38l-4.4,152.59v.33H0V1232.45l254.53-2v22.06H391.36V1216.9H348.75l-.07-10.36h0l-.15-23.41,0-6.22,209.82-3.58h0l29.81-.51V613h82.94V494.61H773.15l1.35,48.33,1.71,61.21H857.7v568.61h138v79.31h675.58l.37,32,4-.09,1.23,0,1.42,80.73Z"/><polygon class="cls-10" points="588.15 1096.59 485.63 1096.59 318.02 1183.12 348.55 1183.12 588.15 1183.12 588.15 1096.59"/><polygon class="cls-11" points="348.7 1206.55 318.02 1183.12 348.55 1183.12 348.7 1206.55"/><path class="cls-8" d="M279.7,1496.61V1340c0-25.79,21.18-46.16,45.36-41.4,18.62,3.66,31.28,23.12,31.28,44v154.06Z"/><path class="cls-8" d="M402.71,1496.61V1338.35c0-26.06,21.19-46.64,45.36-41.83,18.63,3.7,31.29,23.36,31.29,44.42v155.67Z"/><path class="cls-8" d="M1036,1494V1361.77c0-21.78,17.71-39,37.91-35,15.56,3.09,26.15,19.52,26.15,37.12V1494Z"/><path class="cls-8" d="M1281.49,1475.74V1336.07c0-18.89-10.59-36.52-26.15-39.84-20.21-4.32-37.92,14.15-37.92,37.53v142Z"/><path class="cls-8" d="M1127.52,1475.87h64.06V1335.81c0-19-10.59-36.63-26.15-40-20.2-4.32-37.91,14.19-37.91,37.64v142.42Z"/><path class="cls-7" d="M2318,839.51v652.55H1977.94v0l0-40.48,0-63.5c.28-41.5-13.3-48.08-13.3-48.08,17.46-44.89,14-89.8,6.38-123.1a270.32,270.32,0,0,0-7.75-27.17,205.17,205.17,0,0,0-10.87-26.36c-7.37-14.4-27.21-43.45-62.48-57.3-14.93-5.87-39.34-11.13-61.72-10.32-24.65.88-44.32,6.08-55.65,10.62-54.52,21.87-71.26,56.21-71.26,56.21s-7.1,9.33-13.8,27.15c-7.74,20.53-14.95,52.33-10.19,94.13A278.52,278.52,0,0,0,1690,1340s-8.09,3.88-11.64,24.68c-.23,1.3-.43,2.68-.62,4.12a144.14,144.14,0,0,0-1,19.2l.44,87.16.09,16.84H1336.72V839.51h191.35V685h598.58V839.51Z"/><path class="cls-10" d="M2108.07,721.52s-.05-6-4.76-6-4.89,6-4.89,6v72.89h9.65Z"/><path class="cls-10" d="M1538,721.52s0-6-4.76-6-4.89,6-4.89,6v72.89H1538Z"/><path class="cls-10" d="M1550.69,721.52s0-6-4.75-6-4.9,6-4.9,6v72.89h9.65Z"/><path class="cls-10" d="M1563.36,721.52s0-6-4.75-6-4.9,6-4.9,6v72.89h9.65Z"/><path class="cls-10" d="M1576,721.52s0-6-4.75-6-4.9,6-4.9,6v72.89H1576Z"/><path class="cls-10" d="M1588.7,721.52s0-6-4.76-6-4.89,6-4.89,6v72.89h9.65Z"/><path class="cls-10" d="M1601.37,721.52s0-6-4.76-6-4.9,6-4.9,6v72.89h9.66Z"/><path class="cls-10" d="M1614,721.52s0-6-4.75-6-4.9,6-4.9,6v72.89H1614Z"/><path class="cls-10" d="M1626.7,721.52s0-6-4.75-6-4.9,6-4.9,6v72.89h9.65Z"/><path class="cls-10" d="M1639.37,721.52s0-6-4.76-6-4.89,6-4.89,6v72.89h9.65Z"/><path class="cls-10" d="M1652,721.52s0-6-4.76-6-4.9,6-4.9,6v72.89H1652Z"/><path class="cls-10" d="M1664.7,721.52s0-6-4.75-6-4.9,6-4.9,6v72.89h9.65Z"/><path class="cls-10" d="M1677.37,721.52s0-6-4.75-6-4.9,6-4.9,6v72.89h9.65Z"/><path class="cls-10" d="M1377,891.3s0-6-4.75-6-4.9,6-4.9,6v72.9H1377Z"/><path class="cls-10" d="M1389.63,891.3s-.05-6-4.76-6-4.89,6-4.89,6v72.9h9.65Z"/><path class="cls-10" d="M1364.29,891.3s0-6-4.75-6-4.9,6-4.9,6v72.9h9.65Z"/><path class="cls-10" d="M1351.63,891.3s-.05-6-4.76-6-4.9,6-4.9,6v72.9h9.66Z"/><path class="cls-10" d="M1402.3,891.3s0-6-4.76-6-4.9,6-4.9,6v72.9h9.66Z"/><path class="cls-10" d="M1415,891.3s0-6-4.75-6-4.9,6-4.9,6v72.9H1415Z"/><path class="cls-10" d="M1427.63,891.3s-.05-6-4.75-6-4.9,6-4.9,6v72.9h9.65Z"/><path class="cls-10" d="M1440.3,891.3s0-6-4.76-6-4.89,6-4.89,6v72.9h9.65Z"/><path class="cls-10" d="M1453,891.3s0-6-4.76-6-4.89,6-4.89,6v72.9H1453Z"/><path class="cls-10" d="M1465.63,891.3s0-6-4.75-6-4.9,6-4.9,6v72.9h9.65Z"/><path class="cls-10" d="M1478.3,891.3s0-6-4.75-6-4.9,6-4.9,6v72.9h9.65Z"/><path class="cls-10" d="M1491,891.3s0-6-4.76-6-4.89,6-4.89,6v72.9H1491Z"/><path class="cls-10" d="M1502.58,891.3s0-6-4.75-6-4.9,6-4.9,6v72.9h9.65Z"/><path class="cls-10" d="M1515.25,891.3s0-6-4.76-6-4.89,6-4.89,6v72.9h9.65Z"/><path class="cls-10" d="M1527.92,891.3s-.05-6-4.76-6-4.89,6-4.89,6v72.9h9.65Z"/><path class="cls-10" d="M2148,896s0-6-4.75-6-4.9,6-4.9,6v72.89H2148Z"/><path class="cls-10" d="M2135.18,896s0-6-4.76-6-4.89,6-4.89,6v72.89h9.65Z"/><path class="cls-10" d="M2160.64,896s0-6-4.75-6-4.9,6-4.9,6v72.89h9.65Z"/><path class="cls-10" d="M2173.31,896s0-6-4.76-6-4.89,6-4.89,6v72.89h9.65Z"/><path class="cls-10" d="M2186,896s-.05-6-4.76-6-4.9,6-4.9,6v72.89H2186Z"/><path class="cls-10" d="M2198.64,896s0-6-4.75-6-4.9,6-4.9,6v72.89h9.65Z"/><path class="cls-10" d="M2211.31,896s0-6-4.75-6-4.9,6-4.9,6v72.89h9.65Z"/><path class="cls-10" d="M2224,896s-.05-6-4.76-6-4.89,6-4.89,6v72.89H2224Z"/><path class="cls-10" d="M2236.65,896s-.05-6-4.76-6-4.9,6-4.9,6v72.89h9.66Z"/><path class="cls-10" d="M2249.31,896s0-6-4.75-6-4.9,6-4.9,6v72.89h9.65Z"/><path class="cls-10" d="M2262,896s-.05-6-4.75-6-4.9,6-4.9,6v72.89H2262Z"/><path class="cls-10" d="M2273.59,896s0-6-4.75-6-4.9,6-4.9,6v72.89h9.65Z"/><path class="cls-10" d="M2286.26,896s-.05-6-4.75-6-4.9,6-4.9,6v72.89h9.65Z"/><path class="cls-10" d="M2298.93,896s0-6-4.76-6-4.89,6-4.89,6v72.89h9.65Z"/><path class="cls-10" d="M2311.6,896s0-6-4.76-6-4.89,6-4.89,6v72.89h9.65Z"/><line class="cls-1" x1="1430.65" y1="896.02" x2="1430.65" y2="968.91"/><path class="cls-10" d="M1690,721.52s0-6-4.76-6-4.89,6-4.89,6v72.89H1690Z"/><path class="cls-10" d="M1702.71,721.52s0-6-4.76-6-4.9,6-4.9,6v72.89h9.66Z"/><path class="cls-10" d="M1715.37,721.52s0-6-4.75-6-4.9,6-4.9,6v72.89h9.65Z"/><path class="cls-10" d="M1728,721.52s0-6-4.75-6-4.9,6-4.9,6v72.89H1728Z"/><path class="cls-10" d="M1740.71,721.52s0-6-4.76-6-4.89,6-4.89,6v72.89h9.65Z"/><path class="cls-10" d="M1753.38,721.52s-.05-6-4.76-6-4.9,6-4.9,6v72.89h9.66Z"/><path class="cls-10" d="M1766,721.52s0-6-4.75-6-4.9,6-4.9,6v72.89H1766Z"/><path class="cls-10" d="M1778.71,721.52s0-6-4.75-6-4.9,6-4.9,6v72.89h9.65Z"/><path class="cls-10" d="M1791.38,721.52s-.05-6-4.76-6-4.89,6-4.89,6v72.89h9.65Z"/><path class="cls-10" d="M1804.05,721.52s0-6-4.76-6-4.89,6-4.89,6v72.89h9.65Z"/><path class="cls-10" d="M1816.71,721.52s0-6-4.75-6-4.9,6-4.9,6v72.89h9.65Z"/><path class="cls-10" d="M1829.38,721.52s-.05-6-4.75-6-4.9,6-4.9,6v72.89h9.65Z"/><path class="cls-10" d="M1842.05,721.52s0-6-4.76-6-4.89,6-4.89,6v72.89h9.65Z"/><path class="cls-10" d="M1854.72,721.52s0-6-4.76-6-4.89,6-4.89,6v72.89h9.65Z"/><path class="cls-10" d="M1867.38,721.52s0-6-4.75-6-4.9,6-4.9,6v72.89h9.65Z"/><path class="cls-10" d="M1880.05,721.52s0-6-4.75-6-4.9,6-4.9,6v72.89h9.65Z"/><path class="cls-10" d="M1892.72,721.52s0-6-4.76-6-4.89,6-4.89,6v72.89h9.65Z"/><path class="cls-10" d="M1905.39,721.52s-.05-6-4.76-6-4.89,6-4.89,6v72.89h9.65Z"/><path class="cls-10" d="M1918.05,721.52s0-6-4.75-6-4.9,6-4.9,6v72.89h9.65Z"/><path class="cls-10" d="M1930.72,721.52s0-6-4.75-6-4.9,6-4.9,6v72.89h9.65Z"/><path class="cls-10" d="M1943.39,721.52s-.05-6-4.76-6-4.89,6-4.89,6v72.89h9.65Z"/><path class="cls-10" d="M1956.06,721.52s0-6-4.76-6-4.89,6-4.89,6v72.89h9.65Z"/><path class="cls-10" d="M1968.72,721.52s0-6-4.75-6-4.9,6-4.9,6v72.89h9.65Z"/><path class="cls-10" d="M1981.39,721.52s-.05-6-4.75-6-4.9,6-4.9,6v72.89h9.65Z"/><path class="cls-10" d="M1994.06,721.52s0-6-4.76-6-4.89,6-4.89,6v72.89h9.65Z"/><path class="cls-10" d="M2006.73,721.52s0-6-4.76-6-4.89,6-4.89,6v72.89h9.65Z"/><path class="cls-10" d="M2019.39,721.52s0-6-4.75-6-4.9,6-4.9,6v72.89h9.65Z"/><path class="cls-10" d="M2032.06,721.52s0-6-4.75-6-4.9,6-4.9,6v72.89h9.65Z"/><path class="cls-10" d="M2044.73,721.52s0-6-4.76-6-4.89,6-4.89,6v72.89h9.65Z"/><path class="cls-10" d="M2057.4,721.52s-.05-6-4.76-6-4.89,6-4.89,6v72.89h9.65Z"/><path class="cls-10" d="M2070.06,721.52s0-6-4.75-6-4.9,6-4.9,6v72.89h9.65Z"/><path class="cls-10" d="M2082.73,721.52s0-6-4.75-6-4.9,6-4.9,6v72.89h9.65Z"/><path class="cls-10" d="M2095.4,721.52s-.05-6-4.76-6-4.89,6-4.89,6v72.89h9.65Z"/><path class="cls-10" d="M2120.73,721.52s0-6-4.75-6-4.9,6-4.9,6v72.89h9.65Z"/><path class="cls-10" d="M2126.65,716v78.38h-2.88v-72.9s.14-4,2.79-5.43C2126.61,716,2126.61,716,2126.65,716Z"/><polyline class="cls-12" points="2070.03 1492.04 2070.83 1359.18 2070.88 1351.93 2070.94 1341.43 2070.98 1334.05 2071.05 1323.7 2071.09 1316.19 2071.15 1305.94 2071.2 1298.33 2071.26 1288.19 2071.31 1280.47 2071.37 1270.45 2071.42 1262.62 2071.48 1252.68 2071.52 1244.78 2071.58 1234.92 2071.63 1226.94 2071.69 1217.15 2071.74 1209.09 2071.8 1199.4 2071.85 1191.25 2071.86 1189.71 2071.91 1181.62 2071.96 1173.42 2072.01 1163.84 2072.06 1155.59 2072.12 1146.07 2072.17 1137.76 2072.23 1128.28 2072.28 1119.93 2072.34 1110.5 2072.39 1102.11 2072.44 1092.71 2072.49 1084.29 2072.49 1084.28 2072.55 1074.93 2072.6 1066.47 2072.66 1057.14 2072.71 1048.66 2072.77 1039.34 2072.82 1030.84 2072.87 1021.54 2072.92 1013.04 2072.98 1003.74 2073.03 995.22 2073.08 987.34 2071.97 987.34 2063.45 987.34 2054.17 987.34 2054.16 987.34 2045.65 987.34 2045.64 987.34 2036.36 987.34 2027.84 987.34 2018.56 987.34 2010.04 987.34 2000.75 987.34 1992.23 987.34 1982.95 987.34 1974.43 987.34 1965.15 987.34 1956.63 987.34 1947.34 987.34 1938.82 987.34 1929.54 987.34 1921.02 987.34 1911.73 987.34 1903.21 987.34 1893.93 987.34 1885.41 987.34 1876.13 987.34 1867.61 987.34 1858.32 987.34 1849.8 987.34 1840.52 987.34 1832 987.34 1822.71 987.34 1814.19 987.34 1804.91 987.34 1796.39 987.34 1787.11 987.34 1778.59 987.34 1769.3 987.34 1760.78 987.34 1751.5 987.34 1742.98 987.34 1733.69 987.34 1725.17 987.34 1715.89 987.34 1707.37 987.34 1698.08 987.34 1689.56 987.34 1680.28 987.34 1671.76 987.34 1662.48 987.34 1653.96 987.34 1644.67 987.34 1636.15 987.34 1626.87 987.34 1618.35 987.34 1609.06 987.34 1600.54 987.34 1596.54 987.34 1596.54 995.22 1596.54 1003.74 1596.54 1013.03 1596.54 1021.55 1596.54 1030.83 1596.54 1039.35 1596.54 1048.64 1596.54 1057.16 1596.54 1066.44 1596.54 1074.96 1596.54 1084.24 1596.54 1092.76 1596.54 1102.05 1596.54 1110.57 1596.54 1119.85 1596.54 1128.37 1596.54 1137.66 1596.54 1146.18 1596.54 1155.46 1596.54 1163.98 1596.54 1173.27 1596.54 1181.79 1596.54 1189.71 1596.54 1191.07 1596.54 1199.59 1596.54 1208.87 1596.54 1217.39 1596.54 1226.68 1596.54 1235.2 1596.54 1244.48 1596.54 1252.07 1596.54 1253 1596.54 1262.29 1596.54 1270.81 1596.54 1280.09 1596.54 1288.61 1596.54 1297.89 1596.54 1306.41 1596.54 1315.7 1596.54 1324.22 1596.54 1333.5 1596.54 1342.02 1596.54 1351.31 1596.54 1359.83 1596.54 1475.29 1596.54 1492 1596.54 1492.04"/><circle class="cls-13" cx="1596.54" cy="1355.57" r="4.26"/><circle class="cls-13" cx="1596.54" cy="1337.76" r="4.26"/><circle class="cls-13" cx="1596.54" cy="1319.96" r="4.26"/><circle class="cls-13" cx="1596.54" cy="1302.15" r="4.26"/><circle class="cls-13" cx="1596.54" cy="1284.35" r="4.26"/><circle class="cls-13" cx="1596.54" cy="1266.55" r="4.26"/><circle class="cls-13" cx="1596.54" cy="1248.74" r="4.26"/><circle class="cls-13" cx="1596.54" cy="1230.94" r="4.26"/><circle class="cls-13" cx="1596.54" cy="1213.13" r="4.26"/><circle class="cls-13" cx="1596.54" cy="1195.33" r="4.26"/><circle class="cls-13" cx="1596.54" cy="1177.53" r="4.26"/><circle class="cls-13" cx="1596.54" cy="1159.72" r="4.26"/><circle class="cls-13" cx="1596.54" cy="1141.92" r="4.26"/><circle class="cls-13" cx="1596.54" cy="1124.11" r="4.26"/><circle class="cls-13" cx="1596.54" cy="1106.31" r="4.26"/><circle class="cls-13" cx="1596.54" cy="1088.5" r="4.26"/><circle class="cls-13" cx="1596.54" cy="1070.7" r="4.26"/><circle class="cls-13" cx="1596.54" cy="1052.9" r="4.26"/><circle class="cls-13" cx="1596.54" cy="1035.09" r="4.26"/><circle class="cls-13" cx="1596.54" cy="1017.29" r="4.26"/><circle class="cls-13" cx="1596.54" cy="999.48" r="4.26"/><circle class="cls-13" cx="2073.08" cy="1355.57" r="4.26"/><circle class="cls-13" cx="2073.08" cy="1337.76" r="4.26"/><circle class="cls-13" cx="2073.08" cy="1319.96" r="4.26"/><circle class="cls-13" cx="2073.08" cy="1302.15" r="4.26"/><circle class="cls-13" cx="2073.08" cy="1284.35" r="4.26"/><circle class="cls-13" cx="2073.08" cy="1266.55" r="4.26"/><circle class="cls-13" cx="2073.08" cy="1248.74" r="4.26"/><circle class="cls-13" cx="2073.08" cy="1230.94" r="4.26"/><circle class="cls-13" cx="2073.08" cy="1213.13" r="4.26"/><circle class="cls-13" cx="2073.08" cy="1195.33" r="4.26"/><circle class="cls-13" cx="2073.08" cy="1177.53" r="4.26"/><circle class="cls-13" cx="2073.08" cy="1159.72" r="4.26"/><circle class="cls-13" cx="2073.08" cy="1141.92" r="4.26"/><circle class="cls-13" cx="2073.08" cy="1124.11" r="4.26"/><circle class="cls-13" cx="2073.08" cy="1106.31" r="4.26"/><circle class="cls-13" cx="2073.08" cy="1088.5" r="4.26"/><circle class="cls-13" cx="2073.08" cy="1070.7" r="4.26"/><circle class="cls-13" cx="2073.08" cy="1052.9" r="4.26"/><circle class="cls-13" cx="2073.08" cy="1035.09" r="4.26"/><circle class="cls-13" cx="2073.08" cy="1017.29" r="4.26"/><circle class="cls-13" cx="2073.08" cy="999.48" r="4.26"/><circle class="cls-13" cx="1604.8" cy="987.34" r="4.26"/><circle class="cls-13" cx="1622.61" cy="987.34" r="4.26"/><circle class="cls-13" cx="1640.41" cy="987.34" r="4.26"/><circle class="cls-13" cx="1658.22" cy="987.34" r="4.26"/><circle class="cls-13" cx="1676.02" cy="987.34" r="4.26"/><circle class="cls-13" cx="1693.82" cy="987.34" r="4.26"/><circle class="cls-13" cx="1711.63" cy="987.34" r="4.26"/><circle class="cls-13" cx="1729.43" cy="987.34" r="4.26"/><circle class="cls-13" cx="1747.24" cy="987.34" r="4.26"/><circle class="cls-13" cx="1765.04" cy="987.34" r="4.26"/><circle class="cls-13" cx="1782.85" cy="987.34" r="4.26"/><circle class="cls-13" cx="1800.65" cy="987.34" r="4.26"/><circle class="cls-13" cx="1818.45" cy="987.34" r="4.26"/><circle class="cls-13" cx="1836.26" cy="987.34" r="4.26"/><circle class="cls-13" cx="1854.06" cy="987.34" r="4.26"/><circle class="cls-13" cx="1871.87" cy="987.34" r="4.26"/><circle class="cls-13" cx="1889.67" cy="987.34" r="4.26"/><circle class="cls-13" cx="1907.47" cy="987.34" r="4.26"/><circle class="cls-13" cx="1925.28" cy="987.34" r="4.26"/><circle class="cls-13" cx="1943.08" cy="987.34" r="4.26"/><circle class="cls-13" cx="1960.89" cy="987.34" r="4.26"/><circle class="cls-13" cx="1978.69" cy="987.34" r="4.26"/><circle class="cls-13" cx="1996.49" cy="987.34" r="4.26"/><circle class="cls-13" cx="2014.3" cy="987.34" r="4.26"/><circle class="cls-13" cx="2032.1" cy="987.34" r="4.26"/><circle class="cls-13" cx="2049.91" cy="987.34" r="4.26"/><circle class="cls-13" cx="2067.71" cy="987.34" r="4.26"/><path class="cls-13" d="M2049.91,991.6a4.26,4.26,0,1,1,4.25-4.27h0"/><circle class="cls-14" cx="2144.32" cy="1152.15" r="7.02"/><circle class="cls-14" cx="2173.67" cy="1152.15" r="7.02"/><circle class="cls-14" cx="2203.01" cy="1152.15" r="7.02"/><circle class="cls-14" cx="2232.35" cy="1152.15" r="7.02"/><circle class="cls-14" cx="2261.69" cy="1152.15" r="7.02"/><circle class="cls-14" cx="2291.03" cy="1152.15" r="7.02"/><line class="cls-15" x1="2132.88" y1="1138.94" x2="2308.47" y2="1138.94"/><line class="cls-15" x1="2132.88" y1="1165.36" x2="2308.47" y2="1165.36"/><rect class="cls-16" x="1614.03" y="902.14" width="54.68" height="54.68"/><rect class="cls-16" x="1707.72" y="902.14" width="54.68" height="54.68"/><rect class="cls-16" x="1801.42" y="902.14" width="54.68" height="54.68"/><rect class="cls-16" x="1894.85" y="902.14" width="54.68" height="54.68"/><rect class="cls-16" x="1988.54" y="902.14" width="54.68" height="54.68"/><polygon class="cls-17" points="1546.77 652.59 1565.48 684.96 1528.07 684.96 1546.77 652.59"/><polygon class="cls-17" points="1584.18 652.59 1602.89 684.96 1565.48 684.96 1584.18 652.59"/><polygon class="cls-17" points="1621.59 652.59 1640.29 684.96 1602.89 684.96 1621.59 652.59"/><polygon class="cls-17" points="1659 652.59 1677.7 684.96 1640.29 684.96 1659 652.59"/><polygon class="cls-17" points="1696.41 652.59 1715.11 684.96 1677.7 684.96 1696.41 652.59"/><polygon class="cls-17" points="1733.81 652.59 1752.52 684.96 1715.11 684.96 1733.81 652.59"/><polygon class="cls-17" points="1771.22 652.59 1789.93 684.96 1752.52 684.96 1771.22 652.59"/><polygon class="cls-17" points="1808.63 652.59 1827.33 684.96 1789.93 684.96 1808.63 652.59"/><polygon class="cls-17" points="1846.04 652.59 1864.74 684.96 1827.33 684.96 1846.04 652.59"/><polygon class="cls-17" points="1883.45 652.59 1902.15 684.96 1864.74 684.96 1883.45 652.59"/><polygon class="cls-17" points="1920.85 652.59 1939.56 684.96 1902.15 684.96 1920.85 652.59"/><polygon class="cls-17" points="1958.26 652.59 1976.97 684.96 1939.56 684.96 1958.26 652.59"/><polygon class="cls-17" points="1995.67 652.59 2014.37 684.96 1976.97 684.96 1995.67 652.59"/><polygon class="cls-17" points="2033.08 652.59 2051.78 684.96 2014.37 684.96 2033.08 652.59"/><polygon class="cls-17" points="2070.49 652.59 2089.19 684.96 2051.78 684.96 2070.49 652.59"/><polygon class="cls-17" points="2107.89 652.59 2126.6 684.96 2089.19 684.96 2107.89 652.59"/><polygon class="cls-17" points="1354.2 809.23 1336.71 839.53 1371.69 839.53 1354.2 809.23"/><polygon class="cls-17" points="1389.19 809.23 1371.69 839.53 1406.68 839.53 1389.19 809.23"/><polygon class="cls-17" points="1424.17 809.23 1406.68 839.53 1441.67 839.53 1424.17 809.23"/><polygon class="cls-17" points="1459.16 809.23 1441.67 839.53 1476.65 839.53 1459.16 809.23"/><polygon class="cls-17" points="1494.14 809.23 1476.65 839.53 1511.64 839.53 1494.14 809.23"/><polygon class="cls-17" points="1511.62 839.51 1528.02 839.51 1528.02 811.13 1511.62 839.51"/><polygon class="cls-17" points="2300.57 809.23 2318.07 839.53 2283.08 839.53 2300.57 809.23"/><polygon class="cls-17" points="2265.59 809.23 2283.08 839.53 2248.09 839.53 2265.59 809.23"/><polygon class="cls-17" points="2230.6 809.23 2248.09 839.53 2213.11 839.53 2230.6 809.23"/><polygon class="cls-17" points="2195.61 809.23 2213.11 839.53 2178.12 839.53 2195.61 809.23"/><polygon class="cls-17" points="2160.63 809.23 2178.12 839.53 2143.14 839.53 2160.63 809.23"/><polygon class="cls-17" points="2143.16 839.51 2126.75 839.51 2126.75 811.13 2143.16 839.51"/><path class="cls-13" d="M1393.42,1365a64,64,0,0,1,6.89-28.75,27.62,27.62,0,0,1-7.24-27.34c4.84-17.74,52.42-43.1,52.42-43.1"/><path class="cls-13" d="M1495.05,1364.94a63.77,63.77,0,0,0-6.88-28.74,27.64,27.64,0,0,0,7.23-27.34c-4.84-17.74-52.08-43-52.08-43"/><path class="cls-17" d="M1412.89,1476.52s-6.21-111.25,8.69-129.13c0,0-13.2-10.84-7.24-27.34s31.5-28.85,31.5-28.85v185.32Z"/><path class="cls-17" d="M1478.7,1476.52s6.21-111.25-8.69-129.13c0,0,13.2-10.84,7.24-27.34s-31.5-28.85-31.5-28.85v185.32Z"/><rect class="cls-17" x="1437.78" y="1306.41" width="20.15" height="170.11"/><line class="cls-18" x1="1495.07" y1="1476.43" x2="1495.07" y2="1365.03"/><line class="cls-19" x1="1393.48" y1="1476.43" x2="1393.48" y2="1365.03"/><line class="cls-18" x1="1376.01" y1="1476.43" x2="1376.01" y2="1365.03"/><line class="cls-18" x1="1393.48" y1="1476.43" x2="1393.48" y2="1365.03"/><line class="cls-18" x1="1512.74" y1="1476.43" x2="1512.74" y2="1365.03"/><line class="cls-18" x1="1358.54" y1="1476.43" x2="1358.54" y2="1365.03"/><line class="cls-20" x1="1531.07" y1="798.94" x2="1531.07" y2="1492.2"/><line class="cls-20" x1="2123.65" y1="797.54" x2="2123.65" y2="1492.04"/><line class="cls-21" x1="1339.29" y1="839.53" x2="1339.29" y2="1484.29"/><line class="cls-21" x1="2315.49" y1="839.56" x2="2315.49" y2="1492.1"/><line class="cls-22" x1="2126.65" y1="799.71" x2="1528.07" y2="799.71"/><line class="cls-22" x1="1556.34" y1="799.71" x2="1556.34" y2="834.03"/><line class="cls-22" x1="1573.76" y1="799.71" x2="1573.76" y2="834.03"/><line class="cls-22" x1="1538.92" y1="799.71" x2="1538.92" y2="834.03"/><line class="cls-22" x1="1591.18" y1="799.71" x2="1591.18" y2="834.03"/><line class="cls-22" x1="1608.6" y1="799.71" x2="1608.6" y2="834.03"/><line class="cls-22" x1="1626.02" y1="799.71" x2="1626.02" y2="834.03"/><line class="cls-22" x1="1643.44" y1="799.71" x2="1643.44" y2="834.03"/><line class="cls-22" x1="1660.87" y1="799.71" x2="1660.87" y2="834.03"/><line class="cls-22" x1="1678.29" y1="799.71" x2="1678.29" y2="834.03"/><line class="cls-22" x1="1695.71" y1="799.71" x2="1695.71" y2="834.03"/><line class="cls-22" x1="1713.13" y1="799.71" x2="1713.13" y2="834.03"/><line class="cls-22" x1="1730.55" y1="799.71" x2="1730.55" y2="834.03"/><line class="cls-22" x1="1747.97" y1="799.71" x2="1747.97" y2="834.03"/><line class="cls-22" x1="1765.39" y1="799.71" x2="1765.39" y2="834.03"/><line class="cls-22" x1="1782.82" y1="799.71" x2="1782.82" y2="834.03"/><line class="cls-22" x1="1800.24" y1="799.71" x2="1800.24" y2="834.03"/><line class="cls-22" x1="1817.66" y1="799.71" x2="1817.66" y2="834.03"/><line class="cls-22" x1="1835.08" y1="799.71" x2="1835.08" y2="834.03"/><line class="cls-22" x1="1852.5" y1="799.71" x2="1852.5" y2="834.03"/><line class="cls-22" x1="1869.92" y1="799.71" x2="1869.92" y2="834.03"/><line class="cls-22" x1="1887.35" y1="799.71" x2="1887.35" y2="834.03"/><line class="cls-22" x1="1904.77" y1="799.71" x2="1904.77" y2="834.03"/><line class="cls-22" x1="1922.19" y1="799.71" x2="1922.19" y2="834.03"/><line class="cls-22" x1="1939.61" y1="799.71" x2="1939.61" y2="834.03"/><line class="cls-22" x1="1957.03" y1="799.71" x2="1957.03" y2="834.03"/><line class="cls-22" x1="1974.45" y1="799.71" x2="1974.45" y2="834.03"/><line class="cls-22" x1="1991.87" y1="799.71" x2="1991.87" y2="834.03"/><line class="cls-22" x1="2009.3" y1="799.71" x2="2009.3" y2="834.03"/><line class="cls-22" x1="2026.72" y1="799.71" x2="2026.72" y2="834.03"/><line class="cls-22" x1="2044.14" y1="799.71" x2="2044.14" y2="834.03"/><line class="cls-22" x1="2061.56" y1="799.71" x2="2061.56" y2="834.03"/><line class="cls-22" x1="2078.98" y1="799.71" x2="2078.98" y2="834.03"/><line class="cls-22" x1="2096.4" y1="799.71" x2="2096.4" y2="834.03"/><line class="cls-22" x1="2113.82" y1="799.71" x2="2113.82" y2="834.03"/><polygon class="cls-6" points="1484.42 1476.43 1484.42 1496.61 1444.24 1514.95 1056.46 1514.95 1056.46 1492.04 1444.24 1492.04 1484.42 1476.43"/><polygon class="cls-2" points="1056.46 1492.04 1127.52 1475.87 1484.42 1476.43 1444.24 1492.04 1056.46 1492.04"/><polyline class="cls-1" points="2126.65 705.06 2126.56 705.06 2126.56 716.08 2126.56 794.41 2126.56 799.71 2126.56 807.89 2126.65 807.89 2126.65 799.71 2126.65 794.41 2126.65 716.03"/><path class="cls-3" d="M950,1173.27C958.66,954.13,922.07,879,836.94,662.5c108.27,201.4,167,336,186.22,577.19H995.71v-66.42Z"/><path class="cls-4" d="M710,1018.37c-2-1.46-22.33-104.6,13.31-192.59C749.19,734.44,828.54,665.5,831,665.59c.38,1.33-28.6-1.74-68.83,16.37-39.29,17.22-89.82,55.61-110.77,119.16-22.47,63-6.15,124.36,14.29,162.07C686.38,1002.18,711.15,1017.55,710,1018.37Z"/><path class="cls-4" d="M536,806.55c-.5-2.41,46.68-85.14,122.85-117.7,71.53-41.78,166.08-30.39,167.71-28.55-.53,1.17-18.36-21.66-56.34-38.56-36.85-16.82-93.8-27.74-145.57-.74-52.48,25.5-77.65,77.73-86.09,117.32C529.51,778.89,537.22,806.82,536,806.55Z"/><path class="cls-4" d="M606.43,582.66c1-1.55,66.94-21.72,122,0,57.39,14.36,99.32,69.13,99.21,71-.86.36,1.77-21.09-8.79-49.72-10-28-33.22-63.14-73.09-75.3-39.5-13.29-78.83,1.82-103.25,18.75C617.26,564.48,606.93,583.45,606.43,582.66Z"/><path class="cls-4" d="M1077.09,952.28c1.4-2.06-14.45-106-77.81-176.67C944,698.45,845.94,660.5,843.63,661.42c.09,1.39,26.32-11.33,70.3-7.93,42.8,2.88,103.36,21.87,144.62,74.55,42.5,51.68,48,114.91,41.49,157.32C1093.85,929,1075.75,951.89,1077.09,952.28Z"/><path class="cls-4" d="M1170,662.49c-.57-2.4-78.51-57.12-161.3-54.11-82.51-7.3-163.19,43.31-163.88,45.67,1,.83,7.38-27.43,34.53-58.91,26.13-30.9,73-65,131.33-62.72,58.35.72,103.4,37.23,127.89,69.45C1164.08,634.71,1169,663.26,1170,662.49Z"/><path class="cls-4" d="M1023.74,499.41c-1.48-1.08-71.45,5.2-116,46.52-49.43,35.35-69.66,102.63-68.89,104.3.94,0-9.25-19.07-9.48-49.9-.51-30,8.94-71.79,42.5-98.39,32.79-27.52,75.61-28.38,104.91-21.84C1006.92,486.51,1023.56,500.33,1023.74,499.41Z"/><path class="cls-23" d="M758.48,1494s-252.59-51.74-96.19-84.42c0,0-159.51-69.25-80.15-92.59,0,0-179.74,1.55-53.69-55.25,0,0-215.53,45.91,38.91-85.59,0,0-193-58.36,28-31.9,0,0-239.65-112,.78-38.91,0,0-195.31-118.27-11.67-50.57,0,0-142.85-112.65,22.33-20.92,0,0-100.56-163.64,19.86-65,0,0-78.95-161.73,95.45.47,0,0,15.3-175.47,86.11-17.1,0,0,38.95-116.47,69-1.18,0,0,93.2-170.53,49.26,13.1,0,0,148.12-107.74,56.51,35.28,0,0,108.15-52.33,9.16,35.61,0,0,216.14,1.72-6.93,67,0,0,201.46,29.19,37.88,53.41,0,0,194.85,34.26.58,39.87,0,0,233.82,74.27-.58,44.36,0,0,185.19,114.11-34.34,62.46,0,0,129.28,38.65,18.61,72.29,0,0,59.88,107.72-34,118.84Z"/><circle class="cls-15" cx="1358.58" cy="1152.52" r="7.02"/><circle class="cls-15" cx="1387.92" cy="1152.52" r="7.02"/><circle class="cls-15" cx="1417.27" cy="1152.52" r="7.02"/><circle class="cls-15" cx="1446.61" cy="1152.52" r="7.02"/><circle class="cls-15" cx="1475.95" cy="1152.52" r="7.02"/><circle class="cls-15" cx="1505.29" cy="1152.52" r="7.02"/><line class="cls-15" x1="1347.14" y1="1139.3" x2="1522.73" y2="1139.3"/><line class="cls-15" x1="1347.14" y1="1165.73" x2="1522.73" y2="1165.73"/></g></g></g></g></svg>