<svg xmlns="http://www.w3.org/2000/svg" xmlns:xlink="http://www.w3.org/1999/xlink" viewBox="0 0 11048 2738.57"><defs><style>.cls-1{fill:none;}.cls-2{fill:url(#Dégradé_sans_nom_39);}.cls-3{fill:#d77f61;}.cls-4{fill:url(#Dégradé_sans_nom_48);}.cls-5{fill:url(#Dégradé_sans_nom_46);}.cls-6{fill:url(#Dégradé_sans_nom_48-2);}.cls-7{fill:url(#Dégradé_sans_nom_46-2);}.cls-8{fill:url(#Dégradé_sans_nom_46-3);}.cls-9{fill:url(#Dégradé_sans_nom_48-3);}.cls-10{fill:url(#Dégradé_sans_nom_46-4);}.cls-11{fill:url(#Dégradé_sans_nom_48-4);}.cls-12{fill:url(#Dégradé_sans_nom_48-5);}.cls-13{fill:url(#Dégradé_sans_nom_46-5);}.cls-14{fill:url(#Dégradé_sans_nom_48-6);}.cls-15{fill:url(#Dégradé_sans_nom_46-6);}.cls-16{fill:url(#Dégradé_sans_nom_46-7);}.cls-17{fill:url(#Dégradé_sans_nom_48-7);}.cls-18{fill:url(#Dégradé_sans_nom_46-8);}.cls-19{fill:url(#Dégradé_sans_nom_48-8);}.cls-20{fill:url(#Dégradé_sans_nom_46-9);}.cls-21{fill:url(#Dégradé_sans_nom_46-10);}.cls-22{fill:url(#Dégradé_sans_nom_48-9);}.cls-23{fill:url(#Dégradé_sans_nom_46-11);}.cls-24{fill:url(#Dégradé_sans_nom_48-10);}.cls-25{fill:url(#Dégradé_sans_nom_46-12);}.cls-26{fill:url(#Dégradé_sans_nom_48-11);}.cls-27{fill:url(#Dégradé_sans_nom_48-12);}.cls-28{fill:url(#Dégradé_sans_nom_46-13);}.cls-29{fill:url(#Dégradé_sans_nom_48-13);}.cls-30{fill:url(#Dégradé_sans_nom_46-14);}.cls-31{fill:url(#Dégradé_sans_nom_46-15);}.cls-32{fill:url(#Dégradé_sans_nom_48-14);}.cls-33{fill:url(#Dégradé_sans_nom_48-15);}.cls-34{fill:url(#Dégradé_sans_nom_46-16);}.cls-35{fill:url(#Dégradé_sans_nom_48-16);}.cls-36{fill:url(#Dégradé_sans_nom_48-17);}.cls-37{fill:url(#Dégradé_sans_nom_46-17);}.cls-38{fill:url(#Dégradé_sans_nom_7);}</style><linearGradient id="Dégradé_sans_nom_39" x1="5519.7" y1="-32.36" x2="5531.82" y2="3069.98" gradientUnits="userSpaceOnUse"><stop offset="0" stop-color="#4b3142"/><stop offset="0.14" stop-color="#4b3142"/><stop offset="0.24" stop-color="#6a424c"/><stop offset="0.37" stop-color="#905757"/><stop offset="0.4" stop-color="#995c59"/><stop offset="0.44" stop-color="#a4625b"/><stop offset="0.48" stop-color="#a8645c"/><stop offset="0.67" stop-color="#eb8b6a"/></linearGradient><linearGradient id="Dégradé_sans_nom_48" x1="1856.78" y1="2178.01" x2="795.7" y2="1244.19" gradientUnits="userSpaceOnUse"><stop offset="0.34" stop-color="#4d3344"/><stop offset="0.54" stop-color="#814e53"/><stop offset="0.59" stop-color="#965a58"/><stop offset="0.69" stop-color="#c37463"/><stop offset="0.75" stop-color="#d47e67"/><stop offset="0.78" stop-color="#e08e67"/><stop offset="0.84" stop-color="#eb9c68"/><stop offset="0.9" stop-color="#f1a468"/><stop offset="1" stop-color="#f3a768"/></linearGradient><linearGradient id="Dégradé_sans_nom_46" x1="214.31" y1="1576.26" x2="1678.59" y2="1576.26" gradientUnits="userSpaceOnUse"><stop offset="0" stop-color="#6e5665"/><stop offset="0.23" stop-color="#533a4b"/><stop offset="0.39" stop-color="#4d3343"/><stop offset="0.52" stop-color="#4c3343"/><stop offset="0.86" stop-color="#4d3343"/></linearGradient><linearGradient id="Dégradé_sans_nom_48-2" x1="4130.44" y1="2177.42" x2="3125.87" y2="1293.34" xlink:href="#Dégradé_sans_nom_48"/><linearGradient id="Dégradé_sans_nom_46-2" x1="1678.59" y1="1601.46" x2="3924.86" y2="1601.46" xlink:href="#Dégradé_sans_nom_46"/><linearGradient id="Dégradé_sans_nom_46-3" x1="744.68" y1="1576.26" x2="2585.74" y2="1576.26" xlink:href="#Dégradé_sans_nom_46"/><linearGradient id="Dégradé_sans_nom_48-3" x1="3253.61" y1="2249.75" x2="2139.41" y2="1269.19" xlink:href="#Dégradé_sans_nom_48"/><linearGradient id="Dégradé_sans_nom_46-4" x1="3153.42" y1="1597.73" x2="4957.86" y2="1597.73" xlink:href="#Dégradé_sans_nom_46"/><linearGradient id="Dégradé_sans_nom_48-4" x1="5425.74" y1="2283.25" x2="4407.28" y2="1386.94" xlink:href="#Dégradé_sans_nom_48"/><linearGradient id="Dégradé_sans_nom_48-5" x1="7258.78" y1="2158.17" x2="6197.7" y2="1224.35" xlink:href="#Dégradé_sans_nom_48"/><linearGradient id="Dégradé_sans_nom_46-5" x1="4716.14" y1="1565.44" x2="7080.59" y2="1565.44" xlink:href="#Dégradé_sans_nom_46"/><linearGradient id="Dégradé_sans_nom_48-6" x1="9532.44" y1="2157.58" x2="8527.86" y2="1273.49" xlink:href="#Dégradé_sans_nom_48"/><linearGradient id="Dégradé_sans_nom_46-6" x1="7080.59" y1="1581.62" x2="9326.85" y2="1581.62" xlink:href="#Dégradé_sans_nom_46"/><linearGradient id="Dégradé_sans_nom_46-7" x1="6146.67" y1="1556.42" x2="7987.73" y2="1556.42" xlink:href="#Dégradé_sans_nom_46"/><linearGradient id="Dégradé_sans_nom_48-7" x1="8655.6" y1="2229.9" x2="7541.41" y2="1249.35" xlink:href="#Dégradé_sans_nom_48"/><linearGradient id="Dégradé_sans_nom_46-8" x1="8570.77" y1="1577.89" x2="10375.22" y2="1577.89" xlink:href="#Dégradé_sans_nom_46"/><linearGradient id="Dégradé_sans_nom_48-8" x1="10843.1" y1="2263.41" x2="9824.63" y2="1367.1" xlink:href="#Dégradé_sans_nom_48"/><linearGradient id="Dégradé_sans_nom_46-9" x1="3140.08" y1="1554.23" x2="4807.93" y2="1554.23" xlink:href="#Dégradé_sans_nom_46"/><linearGradient id="Dégradé_sans_nom_46-10" x1="1133.93" y1="1616.5" x2="3234.13" y2="1616.5" xlink:href="#Dégradé_sans_nom_46"/><linearGradient id="Dégradé_sans_nom_48-9" x1="3913.21" y1="2543.52" x2="2638.33" y2="1421.55" xlink:href="#Dégradé_sans_nom_48"/><linearGradient id="Dégradé_sans_nom_46-11" x1="4446.53" y1="1570.36" x2="5542.75" y2="1570.36" xlink:href="#Dégradé_sans_nom_46"/><linearGradient id="Dégradé_sans_nom_48-10" x1="6180.69" y1="2506.02" x2="4980.19" y2="1449.51" xlink:href="#Dégradé_sans_nom_48"/><linearGradient id="Dégradé_sans_nom_46-12" x1="830.23" y1="1522.46" x2="2400.61" y2="1522.46" xlink:href="#Dégradé_sans_nom_46"/><linearGradient id="Dégradé_sans_nom_48-11" x1="2935.09" y1="2333.62" x2="1856.1" y2="1097.91" xlink:href="#Dégradé_sans_nom_48"/><linearGradient id="Dégradé_sans_nom_48-12" x1="1577.47" y1="2198.41" x2="471.42" y2="1367.23" xlink:href="#Dégradé_sans_nom_48"/><linearGradient id="Dégradé_sans_nom_46-13" x1="214.31" y1="1595.49" x2="984.58" y2="1595.49" xlink:href="#Dégradé_sans_nom_46"/><linearGradient id="Dégradé_sans_nom_48-13" x1="5174.58" y1="2660.91" x2="4507.96" y2="1346.28" xlink:href="#Dégradé_sans_nom_48"/><linearGradient id="Dégradé_sans_nom_46-14" x1="8546.16" y1="1551.23" x2="10228.5" y2="1551.23" xlink:href="#Dégradé_sans_nom_46"/><linearGradient id="Dégradé_sans_nom_46-15" x1="6540.02" y1="1613.44" x2="8640.21" y2="1613.44" xlink:href="#Dégradé_sans_nom_46"/><linearGradient id="Dégradé_sans_nom_48-14" x1="9319.29" y1="2540.45" x2="8044.41" y2="1418.48" xlink:href="#Dégradé_sans_nom_48"/><linearGradient id="Dégradé_sans_nom_48-15" x1="10580.66" y1="2657.84" x2="9914.04" y2="1343.21" xlink:href="#Dégradé_sans_nom_48"/><linearGradient id="Dégradé_sans_nom_46-16" x1="6236.31" y1="1519.39" x2="8569.5" y2="1519.39" xlink:href="#Dégradé_sans_nom_46"/><linearGradient id="Dégradé_sans_nom_48-16" x1="8341.17" y1="2330.56" x2="7262.18" y2="1094.84" xlink:href="#Dégradé_sans_nom_48"/><linearGradient id="Dégradé_sans_nom_48-17" x1="6702.8" y1="2189.03" x2="5574.09" y2="1340.8" xlink:href="#Dégradé_sans_nom_48"/><linearGradient id="Dégradé_sans_nom_46-17" x1="4690.68" y1="1599.59" x2="6107.97" y2="1599.59" xlink:href="#Dégradé_sans_nom_46"/><linearGradient id="Dégradé_sans_nom_7" y1="2262.86" x2="11047.3" y2="2262.86" gradientUnits="userSpaceOnUse"><stop offset="0" stop-color="#f2a769"/><stop offset="0.52" stop-color="#d47f68"/><stop offset="1" stop-color="#915758"/></linearGradient></defs><g id="Calque_2" data-name="Calque 2"><g id="Calque_1-2" data-name="Calque 1"><rect id="Fond" class="cls-1" x="2.35" width="11045.65" height="2738.57"/><rect id="Ciel" class="cls-2" x="2.35" width="11045.65" height="2738.57"/><g id="d1"><g id="Dunes_fond" data-name="Dunes fond"><polygon class="cls-3" points="6248.76 1500.79 5623.92 1500.79 5623.92 1501.08 4996.42 1500.79 5249.92 1500.79 5123.02 1443.48 5621.26 1217.94 5622.59 1217.34 5623.92 1217.94 6248.76 1500.79"/><polygon class="cls-3" points="5123.02 1443.48 5249.92 1500.79 4996.42 1500.79 5123.02 1443.48"/><polygon class="cls-3" points="5623.92 1216.74 5623.92 1217.94 5622.59 1217.34 5623.92 1216.74"/><polygon class="cls-3" points="5249.92 1500.79 4470.29 1500.79 4865.18 1327.03 5123.02 1443.48 5249.92 1500.79"/><polygon class="cls-3" points="3140.96 1500.78 3666.12 1271.03 4233.48 1500.78 3672.58 1500.78 3140.96 1500.78"/><polygon class="cls-3" points="1347.32 1231 2029.48 1500.78 1305.91 1500.78 632.64 1500.78 1347.32 1231"/><polygon class="cls-3" points="3000.35 1500.78 2546.36 1288.38 2029.48 1500.78 2561.18 1500.78 3000.35 1500.78"/></g><g id="Dunes_fond-2" data-name="Dunes fond"><polygon class="cls-3" points="8547.75 1500.78 9072.91 1271.03 9640.27 1500.78 9079.37 1500.78 8547.75 1500.78"/><polygon class="cls-3" points="6102.91 1268.43 6626.92 1500.78 6103.75 1500.78 5621.26 1500.78 6102.91 1268.43"/><polygon class="cls-3" points="6754.11 1231 7436.27 1500.78 6712.7 1500.78 6039.43 1500.78 6754.11 1231"/><polygon class="cls-3" points="8407.14 1500.78 7953.15 1288.38 7436.27 1500.78 7967.97 1500.78 8407.14 1500.78"/><polygon class="cls-3" points="5622.59 1217.34 5621.26 1217.94 5621.26 1216.74 5622.59 1217.34"/></g></g><g id="d2"><g id="Dunes_2" data-name="Dunes 2"><path class="cls-4" d="M1052.24,1120.89,2127.8,2029.83H1249.09s-544-469.92-456.19-587.15c69.28-92.5,180.07-236.94,228.21-294.79C1034,1132.42,1052.24,1120.89,1052.24,1120.89Z"/><path class="cls-5" d="M577.2,1431.37l475-310.48s-45.51,27.33-12,52.06,10.6,35.32-14.13,38-58.29,9.72-5.3,30.91,58.29,40.63,6.18,63.59-197.82,74.18-121.87,141.3,773.42,584.91,773.42,584.91H214.47l-.16-218.84Z"/><path class="cls-6" d="M3373.81,1171.29l1018.06,860.34H3539.62s-512.95-421.32-425.15-538.55c69.28-92.5,180.07-236.94,228.22-294.79C3355.56,1182.82,3373.81,1171.29,3373.81,1171.29Z"/><path class="cls-7" d="M2986,1390l387.85-218.71s-45.51,27.33-11.95,52.06,10.6,35.32-14.13,38-58.29,9.72-5.3,30.91,58.29,40.63,6.18,63.59-197.82,74.18-121.87,141.3,698.12,534.51,698.12,534.51H1678.59L2536,1617.34Z"/><polygon class="cls-8" points="2267.09 1120.89 744.68 2031.63 2585.74 2029.83 2356.74 1267.37 2267.09 1120.89"/><path class="cls-9" d="M2267.09,1120.89s-27.18,55.86,7.07,98.09c0,0,67.17,53.65-8.65,107.3l320.23,703.55h836Z"/><polygon class="cls-10" points="4601.03 1163.83 3153.42 2029.83 4957.86 2031.63 4690.68 1310.31 4601.03 1163.83"/><path class="cls-11" d="M4601,1163.83s-27.18,55.86,7.06,98.1c0,0,171.46,186.84-25.47,767.9l1041.3,1.8v-62.55Z"/></g><g id="Dunes_2-2" data-name="Dunes 2"><path class="cls-12" d="M6454.23,1101.05,7529.79,2010H6651.08s-544-469.92-456.19-587.15c69.28-92.51,180.08-236.94,228.22-294.79C6436,1112.58,6454.23,1101.05,6454.23,1101.05Z"/><path class="cls-13" d="M7080.59,2011.79S6383.11,1494,6307.16,1426.88s69.77-118.34,121.88-141.3,46.8-42.39-6.19-63.59-19.43-28.26,5.3-30.91,47.69-13.25,14.13-38,11.95-52.06,11.95-52.06L4716.14,2029.83"/><path class="cls-14" d="M8775.81,1151.45l1018.05,860.34H8941.61s-513-421.32-425.14-538.55c69.28-92.51,180.07-236.94,228.21-294.79C8757.55,1163,8775.81,1151.45,8775.81,1151.45Z"/><path class="cls-15" d="M8388,1370.16l387.85-218.71s-45.51,27.33-11.95,52.06,10.59,35.32-14.13,38-58.29,9.72-5.3,30.91,58.28,40.62,6.18,63.59-197.82,74.18-121.87,141.3,698.11,534.51,698.11,534.51H7080.59L7938,1597.5Z"/><polygon class="cls-16" points="7669.09 1101.05 6146.67 2011.79 7987.73 2009.99 7758.73 1247.53 7669.09 1101.05"/><path class="cls-17" d="M7669.09,1101.05s-27.19,55.85,7.06,98.09c0,0,67.18,53.65-8.65,107.3L7987.73,2010h836Z"/><polygon class="cls-18" points="10018.39 1143.99 8570.77 2009.99 10375.22 2011.79 10108.03 1290.47 10018.39 1143.99"/><path class="cls-19" d="M10018.39,1144s-27.18,55.86,7.06,98.09c0,0,171.45,186.85-25.48,767.91l1041.3,1.8v-62.56Z"/></g></g><g id="d3"><g id="Dunes_1" data-name="Dunes 1"><polygon class="cls-20" points="4211.13 1068.9 3140.08 1671.47 3421.7 2027.27 4807.93 2039.56 4211.13 1068.9"/><path class="cls-21" d="M2826.6,1203.94s1061,869.88-240.86,823.33H1133.93"/><path class="cls-22" d="M2826.6,1203.94s131.32,107.93-23.39,169.1c0,0-91.75,7.19,19.79,113.33,0,0,115.13,77.36-30.59,196.09s-439.91,317.54-474,344.81l2018.43,1.8Z"/><path class="cls-23" d="M5161.6,1239.91s1021.58,705.24-280.24,658.69l-434.83-57.9,263.6-388.46Z"/><path class="cls-24" d="M5161.6,1239.91s131.32,107.94-23.39,169.11c0,0-91.75,7.19,19.79,113.33,0,0,115.13,77.36-30.58,196.09s-402.65,292.81-436.74,320.08l933.59-11.25,959.45-10.36Z"/><polygon class="cls-25" points="1901.28 1017.64 830.23 1620.22 1133.93 2027.27 2400.61 2027.27 1901.28 1017.64"/><path class="cls-26" d="M1901.28,1017.64s-101.3,46.77-39.1,100.69c0,0,78.19,34.37-8.89,84.13s-268.34,188.37-161.71,271.9,650,503.08,843.66,554.63l628.17-1.72Z"/><polyline class="cls-27" points="808.44 2027.27 1842.98 2027.27 778.39 1163.72 371.52 1726.34 808.44 2027.27 808.44 2027.27"/><path class="cls-28" d="M214.31,1810.23l564.08-646.51s73.65,105.67-44.83,204.94-269,188.93-204.94,259.38c0,0,283.25,344.79,456,399.23H494.86Z"/><path class="cls-29" d="M4211.12,1068.9s-101.29,46.77-39.09,100.69c0,0,78.19,34.37-8.89,84.13s-268.34,188.37-161.71,271.89,665,450.11,858.67,501.66l601.91,1.8Z"/></g><g id="Dunes_1-2" data-name="Dunes 1"><polygon class="cls-30" points="9617.21 1065.83 8546.16 1668.4 8827.79 2024.2 10228.5 2036.62 9617.21 1065.83"/><path class="cls-31" d="M8232.68,1200.87s1061,869.88-240.86,823.33H6540"/><path class="cls-32" d="M8232.68,1200.87S8364,1308.8,8209.29,1370c0,0-91.74,7.19,19.79,113.33,0,0,115.13,77.36-30.58,196.09s-439.92,317.54-474,344.81l2018.43,1.8Z"/><path class="cls-33" d="M9617.21,1065.83s-101.3,46.77-39.1,100.69c0,0,78.19,34.37-8.88,84.13S9300.88,1439,9407.51,1522.54s665,450.12,858.68,501.66l601.9,1.8Z"/><polygon class="cls-34" points="7307.36 1014.57 6236.31 1617.15 6540.02 2024.2 8569.5 2024.2 7307.36 1014.57"/><path class="cls-35" d="M7307.36,1014.57s-101.29,46.77-39.1,100.69c0,0,78.2,34.37-8.88,84.13s-268.34,188.37-161.72,271.9,629.63,474.3,823.34,525.84l648.5,27.07Z"/><path class="cls-36" d="M5901.78,1160.65,6966.37,2024.2H5931.83S5270.94,1705,5901.78,1160.65Z"/><path class="cls-37" d="M4690.68,2038.52l1211.1-877.87s73.65,105.67-44.83,204.94S5588,1554.52,5652,1625c0,0,283.25,344.79,456,399.23H5618.25Z"/></g></g><path id="sable" class="cls-38" d="M11047.3,1810.29v928.28H0V1810.29S5634.92,1758.24,11047.3,1810.29Z"/></g></g></svg>