<svg xmlns="http://www.w3.org/2000/svg" viewBox="0 0 8449.09 1048.55"><defs><style>.cls-1{fill:none;}.cls-2{fill:#eaddce;}.cls-3{fill:#b6ada2;}.cls-4{fill:#b6684e;}.cls-5{fill:#1d1d1b;}.cls-6{fill:#8c513c;}.cls-7{fill:#84361c;}.cls-8{fill:#d2b195;}</style></defs><g id="Calque_2" data-name="Calque 2"><g id="Calque_1-2" data-name="Calque 1"><rect id="Fond" class="cls-1" y="0.45" width="8449.09" height="1047.11"/><rect id="Ciel" class="cls-2" y="1.45" width="8448.82" height="1047.11"/><g id="Trottoir"><rect class="cls-2" y="462.71" width="8449.09" height="97.24"/><rect class="cls-3" y="543.9" width="8449.09" height="32.11"/></g><g id="Bat"><g id="Batiment"><line class="cls-4" x1="785.38" y1="479.69" x2="785.38" y2="176.93"/><polygon class="cls-4" points="8448.81 494.04 7151.61 494.04 7122.07 479.24 6336.69 479.24 6307.1 494.04 5039.48 494.04 5009.94 479.24 4223.21 479.07 4182.65 494.48 2927.05 494.48 2897.51 479.68 2112.13 479.68 2082.54 494.48 814.92 494.48 785.38 479.68 0 479.68 0 136.1 444.41 136.1 444.41 0.44 580.6 0.44 580.6 176.93 785.38 176.93 785.38 238.54 814.92 253.34 903.22 253.34 903.22 82.27 1211.01 82.27 1211.01 151.82 1335.47 151.82 1335.47 209.91 1519.62 209.91 1519.62 151.82 1795.84 151.82 1795.84 209.91 2112.09 209.89 2112.13 136.1 2556.54 136.1 2556.54 0.44 2692.73 1.06 2692.73 176.93 2897.51 176.93 2897.51 238.54 2927.05 253.34 3015.35 253.34 3015.35 82.27 3323.14 82.27 3323.14 151.82 3447.6 151.82 3447.6 209.91 3631.75 209.91 3631.75 151.82 3907.97 151.82 3907.97 209.91 4182.61 209.89 4224.22 209.89 4224.56 135.65 4668.97 135.65 4668.97 0 4805.16 0 4805.16 176.48 5009.94 176.48 5009.94 238.1 5039.48 252.9 5127.78 252.9 5127.78 81.83 5435.57 81.83 5435.57 151.37 5560.03 151.37 5560.03 209.46 5744.18 209.46 5744.18 151.37 6020.4 151.37 6020.4 209.46 6336.65 209.44 6336.69 135.65 6781.1 135.65 6781.1 0 6917.29 0.61 6917.29 176.48 7122.07 176.48 7122.07 238.1 7151.61 252.9 7239.91 252.9 7239.91 81.83 7547.7 81.83 7547.7 151.37 7672.16 151.37 7672.16 209.46 7856.31 209.46 7856.31 151.37 8132.53 151.37 8132.53 209.46 8448.78 209.44 8448.81 494.04"/><rect class="cls-5" x="250.26" y="219.75" width="49.51" height="49.51"/><rect class="cls-5" x="102.23" y="219.75" width="49.51" height="49.51"/><rect class="cls-5" x="358.13" y="219.75" width="49.51" height="49.51"/><rect class="cls-5" x="479.13" y="19.94" width="49.51" height="49.51"/><path class="cls-5" d="M362.91,377.25V479.69H286.15V377.25a38.38,38.38,0,1,1,76.76,0Z"/><path class="cls-5" d="M961,418.1v76.39H903.78V418.1a28.62,28.62,0,0,1,57.23,0Z"/><rect class="cls-5" x="547.33" y="253.35" width="49.51" height="49.51"/><rect class="cls-5" x="655.2" y="253.35" width="49.51" height="49.51"/><rect class="cls-5" x="853.71" y="314.11" width="49.51" height="49.51"/><rect class="cls-5" x="961.57" y="314.11" width="49.51" height="49.51"/><rect class="cls-5" x="1581.82" y="338.87" width="49.51" height="49.51"/><rect class="cls-5" x="1689.69" y="338.87" width="49.51" height="49.51"/><polyline class="cls-6" points="755.84 162.13 580.61 162.13 580.61 176.93 785.38 176.93 755.84 162.13"/><polygon class="cls-6" points="444.41 0.45 444.41 136.1 0 136.1 0 121.3 414.86 121.3 414.86 0.45 444.41 0.45"/><line class="cls-7" x1="444.41" y1="136.1" x2="414.86" y2="121.3"/><polygon class="cls-6" points="785.38 238.54 873.67 238.54 873.67 67.48 1181.46 67.48 1211.01 82.28 903.22 82.28 903.22 253.34 814.92 253.34 785.38 238.54"/><polygon class="cls-6" points="1335.47 195.11 1335.47 209.91 1519.62 209.91 1519.62 151.82 1795.84 151.82 1766.29 137.02 1490.08 137.02 1490.08 195.11 1335.47 195.11"/><polygon class="cls-6" points="1335.47 151.82 1305.93 137.02 1211.01 137.02 1211.01 151.82 1335.47 151.82"/><polygon class="cls-6" points="2112.13 209.91 1795.84 209.91 1795.84 195.11 2082.55 195.09 2082.55 121.3 2112.13 121.3 2112.13 209.91"/><line class="cls-7" x1="1490.08" y1="195.11" x2="1519.62" y2="209.91"/><line class="cls-7" x1="873.67" y1="238.55" x2="903.22" y2="253.35"/><line class="cls-7" x1="2082.54" y1="195.09" x2="2112.09" y2="209.89"/><line class="cls-7" x1="2082.54" y1="122.37" x2="2112.09" y2="137.17"/></g><g id="Batiment-2" data-name="Batiment"><rect class="cls-5" x="2362.39" y="219.75" width="49.51" height="49.51"/><rect class="cls-5" x="2214.36" y="219.75" width="49.51" height="49.51"/><rect class="cls-5" x="2470.26" y="219.75" width="49.51" height="49.51"/><rect class="cls-5" x="2591.25" y="19.94" width="49.51" height="49.51"/><path class="cls-5" d="M2475,377.25V479.69h-76.76V377.25a38.38,38.38,0,1,1,76.76,0Z"/><path class="cls-5" d="M3073.14,418.1v76.39h-57.23V418.1a28.62,28.62,0,0,1,57.23,0Z"/><rect class="cls-5" x="2659.46" y="253.35" width="49.51" height="49.51"/><rect class="cls-5" x="2767.33" y="253.35" width="49.51" height="49.51"/><rect class="cls-5" x="2965.84" y="314.11" width="49.51" height="49.51"/><rect class="cls-5" x="3073.7" y="314.11" width="49.51" height="49.51"/><rect class="cls-5" x="3693.95" y="338.87" width="49.51" height="49.51"/><rect class="cls-5" x="3801.82" y="338.87" width="49.51" height="49.51"/><polyline class="cls-6" points="2867.97 162.13 2692.73 162.13 2692.73 176.93 2897.51 176.93 2867.97 162.13"/><polygon class="cls-6" points="2556.54 0.45 2556.54 136.1 2112.13 136.1 2112.13 121.3 2526.99 121.3 2526.99 0.45 2556.54 0.45"/><line class="cls-7" x1="2526.99" y1="121.3" x2="2556.54" y2="136.1"/><polygon class="cls-6" points="2897.51 238.54 2985.8 238.54 2985.8 67.48 3293.59 67.48 3323.14 82.28 3015.35 82.28 3015.35 253.34 2927.05 253.34 2897.51 238.54"/><polygon class="cls-6" points="3447.6 195.11 3447.6 209.91 3631.75 209.91 3631.75 151.82 3907.97 151.82 3878.42 137.02 3602.2 137.02 3602.2 195.11 3447.6 195.11"/><polygon class="cls-6" points="3447.6 151.82 3418.06 137.02 3323.14 137.02 3323.14 151.82 3447.6 151.82"/><polygon class="cls-6" points="4224.26 209.91 3907.97 209.91 3907.97 195.11 4194.67 195.09 4194.67 121.3 4639.42 120.86 4639.42 0 4668.97 0 4668.97 135.66 4224.56 135.66 4224.26 209.91"/><line class="cls-7" x1="3602.21" y1="195.11" x2="3631.75" y2="209.91"/><line class="cls-7" x1="2985.8" y1="238.55" x2="3015.35" y2="253.35"/><line class="cls-7" x1="4194.67" y1="195.09" x2="4224.22" y2="209.89"/><line class="cls-7" x1="4194.67" y1="122.37" x2="4224.22" y2="137.17"/></g></g><g id="Bat-2" data-name="Bat"><g id="Batiment-3" data-name="Batiment"><line class="cls-4" x1="5009.94" y1="479.24" x2="5009.94" y2="176.49"/><rect class="cls-5" x="4474.82" y="219.3" width="49.51" height="49.51"/><rect class="cls-5" x="4326.79" y="219.3" width="49.51" height="49.51"/><rect class="cls-5" x="4582.69" y="219.3" width="49.51" height="49.51"/><rect class="cls-5" x="4703.69" y="19.49" width="49.51" height="49.51"/><path class="cls-5" d="M4587.47,376.8V479.24h-76.76V376.8a38.38,38.38,0,1,1,76.76,0Z"/><path class="cls-5" d="M5185.57,417.66V494h-57.23V417.66a28.62,28.62,0,1,1,57.23,0Z"/><rect class="cls-5" x="4771.89" y="252.9" width="49.51" height="49.51"/><rect class="cls-5" x="4879.76" y="252.9" width="49.51" height="49.51"/><rect class="cls-5" x="5078.27" y="313.67" width="49.51" height="49.51"/><rect class="cls-5" x="5186.13" y="313.67" width="49.51" height="49.51"/><rect class="cls-5" x="5806.38" y="338.42" width="49.51" height="49.51"/><rect class="cls-5" x="5914.25" y="338.42" width="49.51" height="49.51"/><polyline class="cls-6" points="4980.4 161.69 4805.16 161.69 4805.16 176.49 5009.94 176.49 4980.4 161.69"/><line class="cls-7" x1="4639.42" y1="120.86" x2="4668.97" y2="135.66"/><polygon class="cls-6" points="5009.94 238.1 5098.23 238.1 5098.23 67.03 5406.02 67.03 5435.57 81.83 5127.78 81.83 5127.78 252.9 5039.48 252.9 5009.94 238.1"/><polygon class="cls-6" points="5560.03 194.66 5560.03 209.47 5744.18 209.47 5744.18 151.38 6020.4 151.38 5990.85 136.58 5714.64 136.58 5714.64 194.66 5560.03 194.66"/><polygon class="cls-6" points="5560.03 151.38 5530.49 136.58 5435.57 136.58 5435.57 151.38 5560.03 151.38"/><polygon class="cls-6" points="6336.69 209.47 6020.4 209.47 6020.4 194.66 6307.1 194.64 6307.1 120.86 6336.69 120.86 6336.69 209.47"/><line class="cls-7" x1="5714.64" y1="194.66" x2="5744.18" y2="209.46"/><line class="cls-7" x1="5098.23" y1="238.1" x2="5127.78" y2="252.9"/><line class="cls-7" x1="6307.1" y1="194.64" x2="6336.65" y2="209.44"/><line class="cls-7" x1="6307.1" y1="121.93" x2="6336.65" y2="136.73"/></g><g id="Batiment-4" data-name="Batiment"><rect class="cls-5" x="6586.95" y="219.3" width="49.51" height="49.51"/><rect class="cls-5" x="6438.92" y="219.3" width="49.51" height="49.51"/><rect class="cls-5" x="6694.82" y="219.3" width="49.51" height="49.51"/><rect class="cls-5" x="6815.81" y="19.49" width="49.51" height="49.51"/><path class="cls-5" d="M6699.6,376.8V479.24h-76.76V376.8a38.38,38.38,0,1,1,76.76,0Z"/><path class="cls-5" d="M7297.7,417.66V494h-57.23V417.66a28.62,28.62,0,1,1,57.23,0Z"/><rect class="cls-5" x="6884.02" y="252.9" width="49.51" height="49.51"/><rect class="cls-5" x="6991.89" y="252.9" width="49.51" height="49.51"/><rect class="cls-5" x="7190.4" y="313.67" width="49.51" height="49.51"/><rect class="cls-5" x="7298.26" y="313.67" width="49.51" height="49.51"/><rect class="cls-5" x="7918.51" y="338.42" width="49.51" height="49.51"/><rect class="cls-5" x="8026.38" y="338.42" width="49.51" height="49.51"/><polyline class="cls-6" points="7092.52 161.69 6917.29 161.69 6917.29 176.49 7122.07 176.49 7092.52 161.69"/><polygon class="cls-6" points="6781.1 0 6781.1 135.66 6336.69 135.66 6336.69 120.86 6751.55 120.86 6751.55 0 6781.1 0"/><line class="cls-7" x1="6751.55" y1="120.86" x2="6781.1" y2="135.66"/><polygon class="cls-6" points="7122.07 238.1 7210.36 238.1 7210.36 67.03 7518.15 67.03 7547.69 81.83 7239.91 81.83 7239.91 252.9 7151.61 252.9 7122.07 238.1"/><polygon class="cls-6" points="7672.16 194.66 7672.16 209.47 7856.31 209.47 7856.31 151.38 8132.53 151.38 8102.98 136.58 7826.77 136.58 7826.77 194.66 7672.16 194.66"/><polygon class="cls-6" points="7672.16 151.38 7642.62 136.58 7547.69 136.58 7547.69 151.38 7672.16 151.38"/><polygon class="cls-6" points="8448.82 209.47 8132.53 209.47 8132.53 194.66 8419.23 194.64 8419.23 120.86 8448.82 120.86 8448.82 209.47"/><line class="cls-7" x1="7826.77" y1="194.66" x2="7856.31" y2="209.46"/><line class="cls-7" x1="7210.36" y1="238.1" x2="7239.91" y2="252.9"/><line class="cls-7" x1="8419.23" y1="194.64" x2="8448.78" y2="209.44"/><line class="cls-7" x1="8419.23" y1="121.93" x2="8448.78" y2="136.73"/></g></g><rect id="Sable" class="cls-8" y="576" width="8449.09" height="471.55"/></g></g></svg>