<svg xmlns="http://www.w3.org/2000/svg" viewBox="0 0 12921.6 2738.62"><defs><style>.cls-1{fill:#c4cada;}.cls-2{fill:#ebdecf;}.cls-3{fill:#bfa489;}.cls-4{fill:#64260f;}.cls-5{fill:#c4a890;}.cls-6{fill:#772f1c;}.cls-7{fill:#86361d;}.cls-13,.cls-8{fill:none;}.cls-8{stroke:#ebdecf;stroke-miterlimit:10;stroke-width:6px;}.cls-9{fill:#0c0d0d;}.cls-10{fill:#d8ccc0;}.cls-11{fill:#b7684f;}.cls-12{fill:#752e1b;}.cls-14{fill:#ab624d;}.cls-15{fill:#a95f4a;}.cls-16{fill:#b29880;}.cls-17{fill:#b56237;}.cls-18{fill:#a75e41;}.cls-19{fill:#cfa047;}.cls-20{fill:#53706d;}</style></defs><g id="Calque_2" data-name="Calque 2"><g id="Calque_1-2" data-name="Calque 1"><rect id="ciel" class="cls-1" x="1.18" y="0.05" width="11045.65" height="1262.24"/><g id="sol"><path class="cls-2" d="M12921.6,1812.31l-11.25.44v923.76h-227.87v-924.2Z"/><rect id="sol-2" data-name="sol" class="cls-2" x="1.18" y="0.05" width="12907.64" height="2738.57"/></g><g id="bat"><polygon class="cls-3" points="560.7 1023.12 425.85 984.24 425.85 643.05 560.7 681.93 560.7 1023.12"/><polygon class="cls-3" points="920.97 1122.08 786.12 1083.21 786.12 742.01 920.97 780.89 920.97 1122.08"/><rect class="cls-3" x="1327.23" y="441.74" width="103.89" height="24.34"/><polygon class="cls-3" points="1272.5 1410.41 1495.75 1580.63 0 1550.75 0 1312.66 1272.5 1410.41"/><rect class="cls-3" x="1512.48" y="441.74" width="103.88" height="24.34"/><rect class="cls-3" x="1697.72" y="441.74" width="103.89" height="24.34"/><rect class="cls-3" x="1882.96" y="441.74" width="103.89" height="24.34"/><rect class="cls-3" x="2068.21" y="441.74" width="103.88" height="24.34"/><path class="cls-3" d="M2230.12,1213.41a345.74,345.74,0,0,1,101.58,245.24v659.58H1638.07V1458.65c0-191.53,155.28-346.81,346.82-346.81A345.78,345.78,0,0,1,2230.12,1213.41Z"/><rect class="cls-3" x="2253.45" y="441.74" width="103.89" height="24.34"/><rect class="cls-3" x="2438.69" y="441.74" width="103.89" height="24.34"/><rect class="cls-3" x="3008.45" y="977.52" width="213.17" height="391.81"/><rect class="cls-3" x="3421.46" y="977.52" width="213.17" height="391.81"/><rect class="cls-3" x="3834.47" y="977.52" width="213.17" height="391.81"/><polygon class="cls-4" points="1495.75 1580.63 0 1550.75 0 1312.66 1272.5 1410.41 1495.75 1580.63"/><polygon class="cls-4" points="920.97 780.89 920.97 1122.08 786.12 1083.21 786.12 742.01 920.97 780.89"/><polygon class="cls-4" points="560.7 681.93 560.7 1023.12 425.85 984.24 425.85 643.05 560.7 681.93"/><path class="cls-4" d="M2331.7,1458.65v659.58H1638.07V1458.65c0-191.53,155.28-346.81,346.82-346.81a346.8,346.8,0,0,1,346.81,346.81Z"/><rect class="cls-4" x="3834.47" y="977.52" width="213.17" height="391.81"/><polygon class="cls-5" points="2630.84 51.12 3142.01 0.05 6059.28 0.05 6059.28 106.24 6059.28 106.24 5811.45 173.47 2630.84 51.12"/><polygon class="cls-5" points="4579.54 307.28 6059.28 307.28 5811.45 441.74 4425.25 441.74 4579.54 307.28"/><rect id="Fond" class="cls-1" x="6712.11" y="961.66" width="415.24" height="349.45"/><polygon class="cls-3" points="6973.64 1120.8 6974.14 1430.68 7215.27 1564.22 7232.51 1181.84 6973.64 1120.8"/><polygon class="cls-6" points="6904.72 1223.22 6863.3 1195.67 6863.3 1402.92 6904.72 1382.92 6904.72 1223.22"/><polygon class="cls-3" points="6878.38 1120.8 6878.38 1395.64 6700.1 1481.71 6700.1 1159.24 6878.38 1120.8"/><polygon class="cls-7" points="6974.14 1222.54 6974.14 1383.92 6904.72 1382.92 6904.72 1223.22 6974.14 1222.54"/><polygon class="cls-8" points="6750.19 1180.45 6750.19 1244.64 6793.34 1262.29 6793.34 1155.1 6750.19 1180.45"/><line class="cls-8" x1="6748.57" y1="1207.96" x2="6793.88" y2="1227.15"/><line class="cls-8" x1="6791.72" y1="1189.73" x2="6755.52" y2="1174.32"/><rect class="cls-9" x="7066.08" y="1165.91" width="78.95" height="62.68"/><path class="cls-7" d="M7077.58,1145.3l-103.94-24.51,0,16.23a438.47,438.47,0,0,1,59.95,15.65,255.1,255.1,0,0,1,32.46,13.24h42.69A267.66,267.66,0,0,0,7077.58,1145.3Zm173,117-3.92-335.39L7241,442.8l-41.08-.15-511.35-1.8-47-.17,7.77,446.14,6.55,375.47,3.4,195.24.37,38.06,9.05,1.25,42.33,5.85h.09V1267a45.41,45.41,0,0,1-.18-4.68,82.15,82.15,0,0,1,1.1-12.76c2.65-16.28,11.27-41,38.08-61.27a124.54,124.54,0,0,1,15.13-9.77c.58-.33,1.17-.64,1.76-1,8.57-4.57,17.27-9.21,26.26-13.69,25-12.47,52.24-23.74,85-29,27.27-4.36,58.39-4.56,95.29,2.17a438.47,438.47,0,0,1,59.95,15.65,255.1,255.1,0,0,1,32.46,13.24c27.4,13.53,47.11,30.06,61.27,47a158.72,158.72,0,0,1,11.56,15.67,155.81,155.81,0,0,1,16.45,33.7c9.06,26.14,8.08,45.83,8.08,45.83l0,227.41v29.57l-452.28-62.4,452.28,62.51,36.47,5,32.57,4.5,21.82,5.25Z"/><path class="cls-2" d="M7235.07,1137.18v91.41c-74.4-95.39-177.3-159.22-319.38-160.87-102.25-1.19-183.63,37-248.39,99.13v-72.61c68.1-50.79,150-81.24,248.39-81.24C7050.69,1013,7154.82,1061.1,7235.07,1137.18Z"/><path d="M7235.07,1184.24l-19.8,380-29.7-16.18,2.34-254.19c-13-103.33-126.1-187.73-268.18-189.38-102.25-1.19-236,76.59-236,135.72l-16.42-98.89q15.87-11.83,32.74-22.16l-9.88-12.71,32.12-19.79,11,14.27q15.49-7.58,31.79-13.85l-8.61-20,36.64-13.83,10.83,21.15q11.36-3.08,23.08-5.49l-4.61-24.43,39.89-7.32,4.63,25.48q11.76-1.28,23.87-1.93v-26.81h39.89l-1.79,26.31q12.26.29,24.18,1.11l3.66-25.16,39.07,4.88-4.37,24.39q13.2,1.92,26,4.54l7.73-22,41.52,12.46-8.94,19.73q11.9,3.58,23.36,7.77l9.18-15.66,38.27,19.1-8.74,12.84q11,5.27,21.57,11.12l6.89-12.75,33.38,22-7.17,11q12,8.05,23.39,16.85,18,13.9,34.68,29.5C7233.37,1182.63,7234.22,1183.43,7235.07,1184.24Z"/><path d="M7232.71,1173l-.2.14q-16.65-15.57-34.68-29.49l8-7.28Z"/><polygon class="cls-6" points="6688.59 926.9 6688.59 1487.27 6625.45 1517.75 6624.86 861.71 6688.59 926.9"/><polygon class="cls-10" points="6624.86 861.71 6625.4 254.97 6688.59 386.36 6688.59 926.9 6624.86 861.71"/><polygon class="cls-11" points="6625.45 1630.72 6284.03 1836.56 6284.03 106.24 6625.4 254.97 6625.45 1630.72"/><polygon class="cls-2" points="7286.68 926.9 6787.77 926.9 6688.59 926.9 6688.59 386.36 7286.68 386.36 7286.68 926.9"/><polygon class="cls-12" points="7762.77 264.25 7762.77 2118.23 7199.94 1692.63 7199.94 331.67 7762.77 264.25"/><path class="cls-13" d="M6958.28,861.71v1.54l4-1.54Zm-38.55,0,2.82.77v-.77Zm-32.32-192.25v.77h1.65Z"/><rect x="6887.41" y="670.23" width="107.83" height="191.48"/><path class="cls-7" d="M6878.38,662.32v207.1h125.89V662.32Zm83.92,199.39,7.45-2.85,25.49-9.75v12.6H6962.3l-4,1.54v-1.54h-35.73v.77l-2.82-.77h-32.32V852.9l19,5.19,13.28,3.62h2.82V685.89l-33.49-15.66h-1.65v-.77l1.65.77h106.18l-37,15.51v176Z"/><polygon class="cls-7" points="6962.3 861.71 6958.28 863.25 6958.28 861.71 6962.3 861.71"/><polygon class="cls-7" points="6887.41 669.46 6889.06 670.23 6887.41 670.23 6887.41 669.46"/><polygon class="cls-7" points="6922.55 861.71 6922.55 862.48 6919.73 861.71 6922.55 861.71"/><polygon class="cls-7" points="6556.25 1159.03 6485.63 1123.08 6485.63 904.8 6556.25 940.75 6556.25 1159.03"/><polygon class="cls-2" points="7308.66 1071.72 7381.85 1051.17 7381.85 825.19 7308.66 845.74 7308.66 1071.72"/><path class="cls-14" d="M7511.31,1931.82s-38.44,21.22-92.61-21.07c-45.93-35.86-102.83-83.44-102.83-83.44s-10.81-9.83-3.27-29.67l199.2,117.48Z"/><path class="cls-2" d="M7493.66,1464.15l-101.42-1.38c4.11-18.3,24.81-90.59,88.62-51.57v-16.34l-12.6-4.49-7.52-2.67-22.44-8-33.22,13.78-10.63,4.41-6.44,20.33a.05.05,0,0,1,0,0l-3.77,11.92-6.3,19.89-2.1,6.61v335.67l8.13,5.28,3.67-162.53,50.19,12.58-3,183,9.06,5.88,3.63-186.44,39.26,9.84,3.87,1v-10.49l-3.51-.81-39.44-9.07,3.25-166.85h46.12v-9.51ZM7438,1638.32l-50.17-11.54,3.45-153.07h49.39Z"/><path class="cls-15" d="M7381.74,1473.71s-2.31-96.41,86.78-83.3c0,0-.86-24.29-59.45-14.79C7409.07,1375.62,7364.63,1412.4,7381.74,1473.71Z"/><path class="cls-11" d="M7439.39,1364.37c-36.63,0-68.32,33.17-68.32,71.62l-.54,25.16-7.4,342.52,126.35,79.87a59.84,59.84,0,0,0,.54-8l13.66-339.7,3.53-87.73C7507.21,1409.63,7476,1364.37,7439.39,1364.37Zm-57.45,102.76v0l.38-20.12a76,76,0,0,1,5.67-28.72.05.05,0,0,0,0,0,69.4,69.4,0,0,1,17.07-24.74c9.4-8.59,21-13.78,33.22-13.78,7.92,0,15.53,3,22.44,8,.91.65,1.8,1.35,2.68,2.08a77.21,77.21,0,0,1,17.44,21.42c8.07,14.18,13,31.28,13,47.14l-.2,5.81-.34,9.56-6.17,175.92-.36,10.33-7,199.89-35.88-23.29-9.06-5.88-50.89-33-8.13-5.28Z"/><path class="cls-11" d="M7515,1287l-.17,0-142.82,13.5-23.54,2.23-5.62,290.45-.08,4.2-3.72,192.1a75.11,75.11,0,0,0-10.68.27c-6.83.69-14.63,2.64-15.83,7.92-1,4.45,2.65,11.25,15.52,21.64,40.82,33,116.19,87.93,116.19,87.93s26.32,18.49,55.41,12a55.4,55.4,0,0,0,12.1-4.18l25.13-630.37Zm-11.36,248.8L7488.25,1879l-120.9-83.21,3.18-334.64,1.34-141.51,142.05-11.52Z"/><path class="cls-9" d="M6446.31,1362.84c-59.38-9.67-60.17,13.24-60.17,13.24v254.64L6492.21,1580S6487.4,1369.53,6446.31,1362.84Z"/><path class="cls-6" d="M6530.78,1687.8l-44.69-29.72s12.41-277.15-70.87-288.75c0,0,25-32,63.59-29s63.6,42.4,63.6,42.4Z"/><path class="cls-7" d="M6449.9,1353.18s-57.57,11.89-60.18,81.44l8.19,333.28-35,21.08-9-348s-.14-60.56,31-88.35c0,0,65.54-56.27,141-14.85,0,0,35.46,23,35.07,55.1-.46,38.42,0,276.71,0,276.71l-30.15,18.18,1-288.36S6530.3,1336.34,6449.9,1353.18Z"/><polygon class="cls-2" points="6899.38 1300.02 6885.51 1292.82 6885.51 1262.29 6899.38 1269.48 6899.38 1300.02"/><path class="cls-8" d="M6948.57,1383.57l.72-46.58c-.14-29.08,5-47.24,24.85-47.3"/><line class="cls-8" x1="6974.17" y1="1333.76" x2="6949.09" y2="1333.76"/><path class="cls-9" d="M6800.42,1328.42v104.85l-50.23,24.26V1328.42a25.12,25.12,0,1,1,50.23,0Z"/><polygon class="cls-9" points="7066.07 1481.71 7066.07 1347.98 7129.31 1347.98 7129.31 1516.81 7066.07 1481.71"/><polygon class="cls-7" points="6522.42 1534.93 6522.43 1538.44 6517.17 1536.47 6522.42 1534.93"/><polygon class="cls-7" points="7345.26 1593.56 7254.42 1736.17 7254.33 1580 7345.26 1593.56"/><path class="cls-3" d="M6065,1262.29l-5.73-1156V.05L5811.45,12.54,3122.68,2,2630.84.05V441.74h-88.26V307.28H2438.69V441.74h-81.35V307.28H2253.45V441.74h-81.36V307.28H2068.21V441.74h-81.36V307.28H1883V441.74h-81.35V307.28H1697.72V441.74h-81.36V307.28H1512.48V441.74h-81.36V307.28H1327.23V441.74h-62.57L1.18.46,0,.05V1312.66l1.18.09,1271.32,97.66,223.25,170.22L1.18,1550.77l-1.18,0V2738.61l1.18-.57,1278.93-619.81h358V1458.65A345.19,345.19,0,0,1,1699,1262.29c62.53-90.87,167.26-150.45,285.91-150.45a346.72,346.72,0,0,1,346.81,346.81v659.58H5811.45l247.83-281.67h8.57ZM786.12,742,921,780.89v341.19l-134.85-38.87Zm-360.27-99L560.7,681.93v341.19L425.85,984.24Z"/><polygon class="cls-16" points="5811.45 2118.23 5811.45 0.04 6059.28 0.05 6059.28 1836.56 5811.45 2118.23"/><polygon class="cls-12" points="9407 86.76 9407 441.74 8785.05 321.62 8785.05 108.76 9407 86.76"/><polygon class="cls-7" points="12910.14 0 12910.14 2118.23 7762.77 2118.23 7762.77 264.25 9407 264.25 9407 86.76 11046.83 86.76 11046.83 0.05 12910.14 0"/><polygon class="cls-7" points="11051.69 264.25 11051.22 441.74 11049.03 264.25 11051.69 264.25"/><rect class="cls-14" x="6059.28" y="106.24" width="224.75" height="1730.32"/><rect class="cls-2" x="8185.74" y="865.37" width="166.17" height="166.17"/><rect class="cls-2" x="8714.55" y="865.37" width="166.17" height="166.17"/><path class="cls-17" d="M8751.09,1663v455.28H8315.37V1663c0-132.2,97.54-239.39,217.86-239.39,60.18,0,114.62,26.81,154.05,70.11S8751.09,1596.85,8751.09,1663Z"/><path class="cls-4" d="M12370.45,1603.2v515.21h-527.24V1603.2c0-149.61,118-270.9,263.62-270.9,72.81,0,138.69,30.33,186.41,79.33S12370.45,1528.4,12370.45,1603.2Z"/><path class="cls-18" d="M4255.36,1788.44v329.79H3939.73V1788.44c0-95.76,70.66-173.4,157.82-173.4,43.58,0,83,19.41,111.58,50.78S4255.36,1740.56,4255.36,1788.44Z"/><path class="cls-4" d="M10687.22,1788.44v329.79H10371.6V1788.44c0-95.76,70.66-173.4,157.81-173.4,43.59,0,83,19.41,111.59,50.78S10687.22,1740.56,10687.22,1788.44Z"/><path class="cls-4" d="M798.24,2122.68v221.66L586.1,2448.69v-326c0-64.36,47.49-116.55,106.07-116.55,29.3,0,55.81,13,75,34.14S798.24,2090.5,798.24,2122.68Z"/><rect class="cls-4" x="10664.91" y="784.05" width="168.58" height="185.93"/><polygon class="cls-2" points="10635.16 883.21 10687.22 821.23 10635.16 744.38 10831.01 744.38 10903.07 821.23 10833.49 898.08 10897.64 821.23 10694.73 821.23 10635.16 883.21"/><polygon class="cls-2" points="10635.16 744.38 10635.16 883.21 10687.22 821.23 10635.16 744.38"/><polygon class="cls-2" points="10833.49 898.08 10897.64 821.23 10833.49 821.23 10833.49 898.08"/><rect class="cls-4" x="10240.86" y="786.53" width="168.58" height="185.93"/><polygon class="cls-2" points="10211.11 885.69 10263.17 823.71 10211.11 746.86 10406.96 746.86 10479.03 823.71 10409.44 900.56 10473.59 823.71 10270.68 823.71 10211.11 885.69"/><polygon class="cls-2" points="10211.11 746.86 10211.11 885.69 10263.17 823.71 10211.11 746.86"/><polygon class="cls-2" points="10409.44 900.56 10473.59 823.71 10409.44 823.71 10409.44 900.56"/><rect class="cls-19" x="4579.79" y="698.56" width="312.98" height="456.67"/><rect class="cls-19" x="3941.06" y="698.56" width="312.98" height="456.67"/><rect class="cls-20" x="12244.34" y="360.94" width="312.98" height="338.86"/><rect class="cls-20" x="11605.6" y="360.94" width="312.98" height="338.86"/><rect class="cls-19" x="3302.32" y="698.56" width="312.98" height="456.67"/><path d="M12326.07,1636.78v481.45h-435.73V1636.78c0-139.8,97.54-253.14,217.87-253.14,60.17,0,114.61,28.34,154.05,74.13S12326.07,1566.88,12326.07,1636.78Z"/></g><polygon id="sol-3" data-name="sol" class="cls-2" points="6711.19 1492.6 6711.01 1511.74 7163.47 1576.76 7163.47 1552.8 6711.19 1492.6"/></g></g></svg>