<svg xmlns="http://www.w3.org/2000/svg" xmlns:xlink="http://www.w3.org/1999/xlink" viewBox="0 0 5524.02 2739.64"><defs><style>.cls-1{fill:url(#Dégradé_sans_nom_38);}.cls-2{fill:#b6684e;}.cls-3{fill:#1e1e1c;}.cls-4{fill:#8d523d;}.cls-5{fill:#85361c;}.cls-6{fill:url(#Dégradé_sans_nom_35);}.cls-20,.cls-21,.cls-22,.cls-23,.cls-24,.cls-26,.cls-28,.cls-29,.cls-30,.cls-7{fill:none;}.cls-8{fill:#b7684f;}.cls-9{fill:#1d1d1b;}.cls-10{fill:#8d513c;}.cls-11{fill:#ebdecf;}.cls-12{fill:#b7aea3;}.cls-13{fill:#ab8558;}.cls-14{fill:#b4dddc;}.cls-15{fill:#4e6160;}.cls-16{fill:#1f1710;}.cls-17{fill:#5c331e;}.cls-18{fill:#36331b;}.cls-19{fill:#585022;}.cls-20{stroke:#b4dddc;}.cls-20,.cls-21,.cls-22,.cls-23,.cls-24,.cls-26,.cls-27,.cls-28,.cls-29,.cls-30{stroke-miterlimit:10;}.cls-20,.cls-22,.cls-28{stroke-width:6px;}.cls-21,.cls-26{stroke:#85361d;}.cls-21,.cls-23,.cls-29,.cls-30{stroke-width:5px;}.cls-22,.cls-23,.cls-24{stroke:#86361d;}.cls-24{stroke-width:8px;}.cls-25{fill:#85361d;}.cls-26{stroke-width:3px;}.cls-27{fill:#f6f8e5;stroke-width:2px;}.cls-27,.cls-30{stroke:#a1565e;}.cls-28,.cls-29{stroke:#b28e8d;}</style><linearGradient id="Dégradé_sans_nom_38" x1="2756.58" y1="-21.49" x2="2768.61" y2="3056.79" gradientUnits="userSpaceOnUse"><stop offset="0" stop-color="#faea29"/><stop offset="0.14" stop-color="#fac61e"/><stop offset="0.15" stop-color="#fac41d"/><stop offset="0.22" stop-color="#fab91a"/><stop offset="0.3" stop-color="#fab519"/><stop offset="0.47" stop-color="#ee770f"/><stop offset="0.6" stop-color="#e46f11"/><stop offset="0.78" stop-color="#ce5f16"/></linearGradient><linearGradient id="Dégradé_sans_nom_35" x1="5552.12" y1="2263.27" x2="11071.7" y2="2263.27" gradientTransform="matrix(-1, 0, 0, 1, 11071.7, 0)" gradientUnits="userSpaceOnUse"><stop offset="0" stop-color="#82471b"/><stop offset="0.13" stop-color="#aa6b30"/><stop offset="0.49" stop-color="#c27d34"/><stop offset="0.78" stop-color="#d7934e"/><stop offset="1" stop-color="#d7934e"/></linearGradient></defs><g id="Calque_2" data-name="Calque 2"><g id="Calque_1-2" data-name="Calque 1"><rect id="Ciel" class="cls-1" x="0.02" width="5523.99" height="2738.57"/><g id="Bat"><g id="Batiment"><line class="cls-2" x1="671.58" y1="1795.1" x2="671.58" y2="1746.67"/><polygon class="cls-2" points="1897.44 1797.4 1689.94 1797.4 1685.21 1795.03 1559.58 1795.03 1554.85 1797.4 1352.08 1797.4 1347.35 1795.03 1221.5 1795 1215.01 1797.47 1014.16 1797.47 1009.44 1795.1 883.81 1795.1 879.08 1797.47 676.3 1797.47 671.58 1795.1 545.95 1795.1 545.95 1740.14 617.04 1740.14 617.04 1718.44 638.82 1718.44 638.82 1746.67 671.58 1746.67 671.58 1756.53 676.3 1758.89 690.43 1758.89 690.43 1731.53 739.66 1731.53 739.66 1742.65 759.57 1742.65 759.57 1751.95 789.03 1751.95 789.03 1742.65 833.21 1742.65 833.21 1751.95 883.8 1751.94 883.81 1740.14 954.9 1740.14 954.9 1718.44 976.68 1718.54 976.68 1746.67 1009.44 1746.67 1009.44 1756.53 1014.16 1758.89 1028.29 1758.89 1028.29 1731.53 1077.53 1731.53 1077.53 1742.65 1097.43 1742.65 1097.43 1751.95 1126.89 1751.95 1126.89 1742.65 1171.08 1742.65 1171.08 1751.95 1215.01 1751.94 1221.66 1751.94 1221.72 1740.07 1292.81 1740.07 1292.81 1718.37 1314.59 1718.37 1314.59 1746.6 1347.35 1746.6 1347.35 1756.46 1352.08 1758.82 1366.2 1758.82 1366.2 1731.46 1415.43 1731.46 1415.43 1742.58 1435.34 1742.58 1435.34 1751.88 1464.8 1751.88 1464.8 1742.58 1508.98 1742.58 1508.98 1751.88 1559.57 1751.87 1559.58 1740.07 1630.67 1740.07 1630.67 1718.37 1652.45 1718.47 1652.45 1746.6 1685.21 1746.6 1685.21 1756.46 1689.94 1758.82 1704.06 1758.82 1704.06 1731.46 1753.3 1731.46 1753.3 1742.58 1773.2 1742.58 1773.2 1751.88 1802.66 1751.88 1802.66 1742.58 1846.85 1742.58 1846.85 1751.88 1897.43 1751.87 1897.44 1797.4"/><rect class="cls-3" x="585.98" y="1753.52" width="7.92" height="7.92"/><rect class="cls-3" x="562.3" y="1753.52" width="7.92" height="7.92"/><rect class="cls-3" x="603.23" y="1753.52" width="7.92" height="7.92"/><rect class="cls-3" x="622.59" y="1721.56" width="7.92" height="7.92"/><path class="cls-3" d="M604,1778.71v16.39H591.72v-16.39a6.14,6.14,0,0,1,12.28,0Z"/><path class="cls-3" d="M699.67,1785.25v12.22h-9.15v-12.22a4.58,4.58,0,1,1,9.15,0Z"/><rect class="cls-3" x="633.5" y="1758.89" width="7.92" height="7.92"/><rect class="cls-3" x="650.75" y="1758.89" width="7.92" height="7.92"/><rect class="cls-3" x="682.51" y="1768.61" width="7.92" height="7.92"/><rect class="cls-3" x="699.76" y="1768.61" width="7.92" height="7.92"/><rect class="cls-3" x="798.98" y="1772.57" width="7.92" height="7.92"/><rect class="cls-3" x="816.23" y="1772.57" width="7.92" height="7.92"/><polyline class="cls-4" points="666.85 1744.3 638.82 1744.3 638.82 1746.67 671.58 1746.67 666.85 1744.3"/><polygon class="cls-4" points="617.04 1718.44 617.04 1740.14 545.95 1740.14 545.95 1737.77 612.31 1737.77 612.31 1718.44 617.04 1718.44"/><line class="cls-5" x1="617.04" y1="1740.14" x2="612.31" y2="1737.77"/><polygon class="cls-4" points="671.58 1756.53 685.7 1756.53 685.7 1729.16 734.94 1729.16 739.66 1731.53 690.43 1731.53 690.43 1758.89 676.3 1758.89 671.58 1756.53"/><polygon class="cls-4" points="759.57 1749.58 759.57 1751.95 789.03 1751.95 789.03 1742.65 833.21 1742.65 828.49 1740.29 784.3 1740.29 784.3 1749.58 759.57 1749.58"/><polygon class="cls-4" points="759.57 1742.65 754.85 1740.29 739.66 1740.29 739.66 1742.65 759.57 1742.65"/><polygon class="cls-4" points="883.81 1751.95 833.21 1751.95 833.21 1749.58 879.08 1749.58 879.08 1737.77 883.81 1737.77 883.81 1751.95"/><line class="cls-5" x1="784.3" y1="1749.58" x2="789.03" y2="1751.95"/><line class="cls-5" x1="685.7" y1="1756.53" x2="690.43" y2="1758.89"/><line class="cls-5" x1="879.08" y1="1749.58" x2="883.8" y2="1751.94"/><line class="cls-5" x1="879.08" y1="1737.94" x2="883.8" y2="1740.31"/></g><g id="Batiment-2" data-name="Batiment"><rect class="cls-3" x="923.84" y="1753.52" width="7.92" height="7.92"/><rect class="cls-3" x="900.16" y="1753.52" width="7.92" height="7.92"/><rect class="cls-3" x="941.1" y="1753.52" width="7.92" height="7.92"/><rect class="cls-3" x="960.45" y="1721.56" width="7.92" height="7.92"/><path class="cls-3" d="M941.86,1778.71v16.39H929.58v-16.39a6.14,6.14,0,0,1,12.28,0Z"/><path class="cls-3" d="M1037.53,1785.25v12.22h-9.15v-12.22a4.58,4.58,0,0,1,4.58-4.58,4.58,4.58,0,0,1,4.57,4.58Z"/><rect class="cls-3" x="971.36" y="1758.89" width="7.92" height="7.92"/><rect class="cls-3" x="988.62" y="1758.89" width="7.92" height="7.92"/><rect class="cls-3" x="1020.37" y="1768.61" width="7.92" height="7.92"/><rect class="cls-3" x="1037.62" y="1768.61" width="7.92" height="7.92"/><rect class="cls-3" x="1136.84" y="1772.57" width="7.92" height="7.92"/><rect class="cls-3" x="1154.1" y="1772.57" width="7.92" height="7.92"/><polyline class="cls-4" points="1004.71 1744.3 976.68 1744.3 976.68 1746.67 1009.44 1746.67 1004.71 1744.3"/><polygon class="cls-4" points="954.9 1718.44 954.9 1740.14 883.81 1740.14 883.81 1737.77 950.17 1737.77 950.17 1718.44 954.9 1718.44"/><line class="cls-5" x1="950.17" y1="1737.77" x2="954.9" y2="1740.14"/><polygon class="cls-4" points="1009.44 1756.53 1023.56 1756.53 1023.56 1729.16 1072.8 1729.16 1077.52 1731.53 1028.29 1731.53 1028.29 1758.89 1014.17 1758.89 1009.44 1756.53"/><polygon class="cls-4" points="1097.43 1749.58 1097.43 1751.95 1126.89 1751.95 1126.89 1742.65 1171.08 1742.65 1166.35 1740.29 1122.16 1740.29 1122.16 1749.58 1097.43 1749.58"/><polygon class="cls-4" points="1097.43 1742.65 1092.71 1740.29 1077.52 1740.29 1077.52 1742.65 1097.43 1742.65"/><polygon class="cls-4" points="1221.67 1751.95 1171.08 1751.95 1171.08 1749.58 1216.94 1749.58 1216.94 1737.77 1288.08 1737.7 1288.08 1718.37 1292.81 1718.37 1292.81 1740.07 1221.72 1740.07 1221.67 1751.95"/><line class="cls-5" x1="1122.16" y1="1749.58" x2="1126.89" y2="1751.95"/><line class="cls-5" x1="1023.56" y1="1756.53" x2="1028.29" y2="1758.89"/><line class="cls-5" x1="1216.94" y1="1749.58" x2="1221.66" y2="1751.94"/><line class="cls-5" x1="1216.94" y1="1737.94" x2="1221.66" y2="1740.31"/></g></g><g id="Bat-2" data-name="Bat"><g id="Batiment-3" data-name="Batiment"><line class="cls-2" x1="1347.35" y1="1795.03" x2="1347.35" y2="1746.6"/><rect class="cls-3" x="1261.75" y="1753.45" width="7.92" height="7.92"/><rect class="cls-3" x="1238.07" y="1753.45" width="7.92" height="7.92"/><rect class="cls-3" x="1279.01" y="1753.45" width="7.92" height="7.92"/><rect class="cls-3" x="1298.36" y="1721.49" width="7.92" height="7.92"/><path class="cls-3" d="M1279.77,1778.64V1795h-12.28v-16.39a6.14,6.14,0,0,1,12.28,0Z"/><path class="cls-3" d="M1375.44,1785.18v12.22h-9.15v-12.22a4.58,4.58,0,1,1,9.15,0Z"/><rect class="cls-3" x="1309.27" y="1758.82" width="7.92" height="7.92"/><rect class="cls-3" x="1326.53" y="1758.82" width="7.92" height="7.92"/><rect class="cls-3" x="1358.28" y="1768.54" width="7.92" height="7.92"/><rect class="cls-3" x="1375.53" y="1768.54" width="7.92" height="7.92"/><rect class="cls-3" x="1474.75" y="1772.5" width="7.92" height="7.92"/><rect class="cls-3" x="1492" y="1772.5" width="7.92" height="7.92"/><polyline class="cls-4" points="1342.62 1744.23 1314.59 1744.23 1314.59 1746.6 1347.35 1746.6 1342.62 1744.23"/><line class="cls-5" x1="1288.08" y1="1737.7" x2="1292.81" y2="1740.07"/><polygon class="cls-4" points="1347.35 1756.45 1361.47 1756.45 1361.47 1729.09 1410.71 1729.09 1415.43 1731.46 1366.2 1731.46 1366.2 1758.82 1352.08 1758.82 1347.35 1756.45"/><polygon class="cls-4" points="1435.34 1749.51 1435.34 1751.88 1464.8 1751.88 1464.8 1742.58 1508.98 1742.58 1504.26 1740.22 1460.07 1740.22 1460.07 1749.51 1435.34 1749.51"/><polygon class="cls-4" points="1435.34 1742.58 1430.62 1740.22 1415.43 1740.22 1415.43 1742.58 1435.34 1742.58"/><polygon class="cls-4" points="1559.58 1751.88 1508.98 1751.88 1508.98 1749.51 1554.85 1749.5 1554.85 1737.7 1559.58 1737.7 1559.58 1751.88"/><line class="cls-5" x1="1460.07" y1="1749.51" x2="1464.8" y2="1751.88"/><line class="cls-5" x1="1361.47" y1="1756.46" x2="1366.2" y2="1758.82"/><line class="cls-5" x1="1554.85" y1="1749.5" x2="1559.57" y2="1751.87"/><line class="cls-5" x1="1554.85" y1="1737.87" x2="1559.57" y2="1740.24"/></g><g id="Batiment-4" data-name="Batiment"><rect class="cls-3" x="1599.61" y="1753.45" width="7.92" height="7.92"/><rect class="cls-3" x="1575.93" y="1753.45" width="7.92" height="7.92"/><rect class="cls-3" x="1616.87" y="1753.45" width="7.92" height="7.92"/><rect class="cls-3" x="1636.22" y="1721.49" width="7.92" height="7.92"/><path class="cls-3" d="M1617.63,1778.64V1795h-12.28v-16.39a6.14,6.14,0,0,1,12.28,0Z"/><path class="cls-3" d="M1713.3,1785.18v12.22h-9.15v-12.22a4.58,4.58,0,0,1,4.58-4.58,4.58,4.58,0,0,1,4.57,4.58Z"/><rect class="cls-3" x="1647.13" y="1758.82" width="7.92" height="7.92"/><rect class="cls-3" x="1664.39" y="1758.82" width="7.92" height="7.92"/><rect class="cls-3" x="1696.14" y="1768.54" width="7.92" height="7.92"/><rect class="cls-3" x="1713.39" y="1768.54" width="7.92" height="7.92"/><rect class="cls-3" x="1812.61" y="1772.5" width="7.92" height="7.92"/><rect class="cls-3" x="1829.87" y="1772.5" width="7.92" height="7.92"/><polyline class="cls-4" points="1680.48 1744.23 1652.45 1744.23 1652.45 1746.6 1685.21 1746.6 1680.48 1744.23"/><polygon class="cls-4" points="1630.67 1718.37 1630.67 1740.07 1559.58 1740.07 1559.58 1737.7 1625.94 1737.7 1625.94 1718.37 1630.67 1718.37"/><line class="cls-5" x1="1625.94" y1="1737.7" x2="1630.67" y2="1740.07"/><polygon class="cls-4" points="1685.21 1756.45 1699.33 1756.45 1699.33 1729.09 1748.57 1729.09 1753.3 1731.46 1704.06 1731.46 1704.06 1758.82 1689.94 1758.82 1685.21 1756.45"/><polygon class="cls-4" points="1773.2 1749.51 1773.2 1751.88 1802.66 1751.88 1802.66 1742.58 1846.85 1742.58 1842.12 1740.22 1797.93 1740.22 1797.93 1749.51 1773.2 1749.51"/><polygon class="cls-4" points="1773.2 1742.58 1768.48 1740.22 1753.3 1740.22 1753.3 1742.58 1773.2 1742.58"/><polygon class="cls-4" points="1897.44 1751.88 1846.85 1751.88 1846.85 1749.51 1892.71 1749.5 1897.44 1751.88"/><line class="cls-5" x1="1797.94" y1="1749.51" x2="1802.66" y2="1751.88"/><line class="cls-5" x1="1699.33" y1="1756.46" x2="1704.06" y2="1758.82"/><line class="cls-5" x1="1892.71" y1="1749.5" x2="1897.43" y2="1751.87"/></g></g><path id="sable" class="cls-6" d="M0,1810.07v929.57H5519.57V1810.07S2704.2,1758,0,1810.07Z"/><g id="Bat-3" data-name="Bat"><g id="Batiment-5" data-name="Batiment"><line class="cls-7" x1="663.66" y1="1787.23" x2="663.66" y2="1743.98"/><polygon class="cls-8" points="718.49 1740.51 719.01 1756.39 719.01 1790.11 667.88 1789.34 663.66 1787.23 551.46 1787.23 551.46 1738.15 614.95 1738.15 614.95 1718.77 634.41 1718.77 634.41 1743.98 663.66 1743.98 663.66 1752.78 667.88 1754.89 680.5 1754.89 680.5 1730.46 718.49 1730.57 718.49 1740.51"/><rect class="cls-9" x="587.22" y="1750.1" width="7.07" height="7.07"/><rect class="cls-9" x="566.07" y="1750.1" width="7.07" height="7.07"/><rect class="cls-9" x="602.63" y="1750.1" width="7.07" height="7.07"/><rect class="cls-9" x="619.91" y="1721.55" width="7.07" height="7.07"/><path class="cls-9" d="M603.31,1772.6v14.63h-11V1772.6a5.49,5.49,0,0,1,11,0Z"/><path class="cls-9" d="M688.75,1778.43v10.91h-8.17v-10.91a4.09,4.09,0,1,1,8.17,0Z"/><rect class="cls-9" x="629.66" y="1754.89" width="7.07" height="7.07"/><rect class="cls-9" x="645.07" y="1754.89" width="7.07" height="7.07"/><rect class="cls-9" x="673.42" y="1763.58" width="7.07" height="7.07"/><rect class="cls-9" x="688.83" y="1763.58" width="7.07" height="7.07"/><polygon class="cls-10" points="659.44 1741.86 634.41 1741.86 634.41 1743.98 663.66 1743.98 659.44 1741.86 659.44 1741.86"/><polygon class="cls-10" points="614.95 1718.77 614.95 1738.15 551.46 1738.15 551.46 1736.03 610.73 1736.03 610.73 1718.77 614.95 1718.77"/><line class="cls-7" x1="614.95" y1="1738.15" x2="610.73" y2="1736.03"/><polygon class="cls-10" points="663.66 1752.78 676.28 1752.78 676.28 1728.34 714.79 1728.34 719.01 1730.46 680.5 1730.46 680.5 1754.89 667.88 1754.89 663.66 1752.78"/><line class="cls-7" x1="676.28" y1="1752.78" x2="680.5" y2="1754.89"/></g></g><g id="Trottoir"><rect class="cls-11" x="554.44" y="1787.23" width="105.01" height="6.65"/><rect class="cls-12" x="554.44" y="1792.78" width="105.01" height="2.2"/></g><g id="Bat-4" data-name="Bat"><path class="cls-13" d="M0,1722.75l84.34-.67v7.31h45.33v-11.8H115.57l-.09-13.26,79.41-1.36V1517.49h27.48v-39.23H256.2l1,36.3h27V1703h45.73v26.28l216.63.25,3,73.91L424,1803.36l0-41.39-.83-9s-2.32-9.42-8.86-9.56-9.6,8.75-9.6,8.75l-.8,51.23-9.94.05-.23-51.83s-2.6-7.32-9.23-7.31-9.93,7.31-9.93,7.31l-.94,51.83-9.09,5.84-1.09-44.46s-1.18-10.34-9.23-10.58a10.1,10.1,0,0,0-10.17,6.63l-.48,48.41-184.72.86-1.14-45.75s.46-20.28-12.11-19.9c-13.08.4-11.05,17.85-11.05,17.85l-.63,47.8H117.78l-.48-52.51s-4.15-13.1-12.46-13.33-10.15,15.17-10.15,15.17l-1.46,50.67H0Z"/><polygon class="cls-14" points="194.9 1677.73 160.93 1677.73 105.39 1706.4 115.5 1706.4 194.9 1706.4 194.9 1677.73"/><polygon class="cls-15" points="115.55 1714.16 105.39 1706.4 115.5 1706.4 115.55 1714.16"/><path class="cls-16" d="M92.69,1810.28v-51.9c0-8.54,7-15.29,15-13.72,6.17,1.22,10.37,7.66,10.37,14.57v51"/><path class="cls-16" d="M133.45,1810.28v-52.44c0-8.63,7-15.45,15-13.86,6.17,1.23,10.37,7.74,10.37,14.72v51.58"/><path class="cls-16" d="M343.31,1809.42V1765.6c0-7.22,5.87-12.92,12.56-11.59,5.16,1,8.67,6.47,8.67,12.3v43.11"/><path class="cls-16" d="M424.67,1803.36l0-46.94c0-6.26-3.51-12.1-8.66-13.2-6.7-1.43-12.57,4.69-12.57,12.43v47.72"/><path class="cls-16" d="M394.87,1803.4l0-46.94c0-6.26-3.51-12.1-8.66-13.2-6.7-1.43-12.57,4.69-12.57,12.44v47.71"/></g><g id="Arbres"><path class="cls-17" d="M805.72,1574c35.17,62.35,56.57,131.72,54.94,200.34,10.78-.59,17-1.19,27.8-1.78A405.43,405.43,0,0,0,805.72,1574Z"/><path class="cls-18" d="M786.05,1686.41c-.67-.33-11.75-30-5.44-57.93,3.24-28.44,23.47-52.82,24.22-52.91.18.38-8.59.88-19.68,8.23-10.84,7-24,20.93-27.13,40.85-3.6,19.85,4.24,37.29,12.17,47.51C778.23,1682.75,786.35,1686.11,786.05,1686.41Z"/><path class="cls-18" d="M723.94,1631.9c-.27-.69,9.72-27.6,30.79-41,19.24-15.92,47.92-17.15,48.5-16.68-.1.37-6.52-5.55-18.65-8.73-11.77-3.2-29.24-3.66-43.32,6.88-14.37,10.16-19.31,26.93-19.88,39.11C720.67,1624,724.32,1631.92,723.94,1631.9Z"/><path class="cls-18" d="M734,1561.87c.21-.51,18.85-9.73,36.28-6,17.77,1.47,32.92,15.72,33,16.27-.24.15-.51-6.36-5.05-14.36-4.34-7.84-13-17.16-25.41-18.83-12.4-2-23.36,4.39-29.8,10.62C736.3,1555.93,734.15,1562.08,734,1561.87Z"/><path class="cls-18" d="M892,1648.83c.32-.68-9.47-30.81-31.77-48.75-20.22-20.25-51.23-26.75-51.87-26.37.09.41,7.27-4.65,20.52-5.79,12.87-1.23,31.81,1.46,46.66,15.12,15.17,13.29,19.87,31.84,20,44.77C895.86,1641.1,891.6,1648.78,892,1648.83Z"/><path class="cls-18" d="M905.51,1558.1c-.29-.69-26.15-13.16-50.62-8.22-24.91,1.85-46.43,20.85-46.52,21.58.33.2.85-8.52,7.39-19.21,6.27-10.46,18.54-22.91,36-25.06,17.4-2.64,32.58,6,41.44,14.41C902.38,1550.12,905.24,1558.38,905.51,1558.1Z"/><path class="cls-18" d="M854,1516.73c-.49-.25-21,5-32.24,19.5-13,12.93-15.71,33.93-15.4,34.39.28,0-3.68-5.22-5.25-14.38-1.62-8.91-.85-21.79,7.83-31.34,8.42-9.79,21.11-12.14,30.15-11.62C848.4,1513.71,854,1517,854,1516.73Z"/><path class="cls-18" d="M899.79,1758.41c.65-.32,11.39-29.11,5.28-56.19-3.14-27.57-22.77-51.22-23.49-51.32-.18.37,8.33.86,19.08,8,10.52,6.83,23.28,20.3,26.32,39.62,3.49,19.25-4.12,36.17-11.8,46.08C907.37,1754.86,899.5,1758.12,899.79,1758.41Z"/><path class="cls-18" d="M960,1705.55c.26-.68-9.43-26.78-29.87-39.78-18.65-15.44-46.47-16.63-47-16.18.1.37,6.32-5.38,18.08-8.45,11.42-3.11,28.37-3.56,42,6.67,13.93,9.85,18.72,26.11,19.28,37.93C963.21,1697.87,959.66,1705.56,960,1705.55Z"/><path class="cls-18" d="M950.31,1637.62c-.21-.5-18.29-9.44-35.2-5.79-17.23,1.43-31.93,15.25-32,15.78.23.14.49-6.17,4.89-13.93,4.22-7.6,12.58-16.64,24.65-18.26,12-2,22.66,4.25,28.9,10.3C948,1631.86,950.13,1637.82,950.31,1637.62Z"/><path class="cls-18" d="M797,1722c-.31-.65,9.18-29.88,30.81-47.28,19.61-19.64,49.69-26,50.31-25.57-.09.39-7-4.52-19.9-5.62-12.49-1.2-30.86,1.42-45.25,14.66-14.71,12.9-19.28,30.88-19.43,43.42C793.28,1714.47,797.42,1721.92,797,1722Z"/><path class="cls-18" d="M783.93,1634c.28-.66,25.36-12.76,49.1-8,24.15,1.8,45,20.22,45.11,20.93-.32.2-.82-8.26-7.17-18.63-6.07-10.15-18-22.22-34.92-24.31-16.87-2.56-31.59,5.84-40.18,14C787,1626.23,784.19,1634.23,783.93,1634Z"/><path class="cls-18" d="M833.85,1593.84c.48-.24,20.37,4.88,31.27,18.91,12.59,12.54,15.24,32.91,14.94,33.36-.27,0,3.57-5.07,5.1-13.95,1.57-8.64.82-21.14-7.6-30.4-8.16-9.49-20.48-11.77-29.24-11.27C839.32,1590.91,833.86,1594.11,833.85,1593.84Z"/><path class="cls-17" d="M880.71,1649.36a377.42,377.42,0,0,0-48.88,194.31l-31.37-1.73A393.2,393.2,0,0,1,880.71,1649.36Z"/><path class="cls-17" d="M314.81,1703.14c2.86-72.62-9.26-97.51-37.47-169.25,35.87,66.73,55.33,111.33,61.7,191.26H330v-22Z"/><path class="cls-18" d="M235.28,1651.81c-.67-.48-7.4-34.66,4.41-63.82,8.58-30.26,34.87-53.11,35.69-53.08.13.45-9.47-.57-22.8,5.43-13,5.7-29.77,18.43-36.71,39.48-7.44,20.89-2,41.21,4.74,53.71C227.45,1646.45,235.66,1651.54,235.28,1651.81Z"/><path class="cls-18" d="M177.61,1581.62c-.17-.8,15.46-28.21,40.7-39,23.71-13.84,55-10.07,55.58-9.46-.18.39-6.09-7.18-18.67-12.78-12.2-5.57-31.07-9.18-48.23-.25-17.39,8.46-25.73,25.77-28.52,38.88C175.47,1572.46,178,1581.71,177.61,1581.62Z"/><path class="cls-18" d="M201,1507.44c.32-.52,22.18-7.2,40.42,0,19,4.75,32.91,22.91,32.87,23.51-.28.12.59-7-2.91-16.47-3.32-9.28-11-20.93-24.22-25-13.09-4.41-26.12.6-34.21,6.21C204.54,1501.41,201.12,1507.7,201,1507.44Z"/><path class="cls-18" d="M356.91,1629.91c.47-.68-4.78-35.11-25.78-58.54-18.33-25.57-50.81-38.14-51.58-37.84,0,.46,8.72-3.75,23.3-2.62,14.18.95,34.25,7.24,47.92,24.7,14.08,17.12,15.89,38.07,13.75,52.12C362.46,1622.21,356.47,1629.78,356.91,1629.91Z"/><path class="cls-18" d="M387.71,1533.89c-.19-.8-26-18.93-53.45-17.93-27.34-2.42-54.08,14.35-54.31,15.13.33.27,2.45-9.09,11.45-19.52,8.65-10.24,24.19-21.55,43.51-20.78,19.34.23,34.27,12.33,42.38,23C385.74,1524.68,387.37,1534.14,387.71,1533.89Z"/><path class="cls-18" d="M339.24,1479.85c-.5-.36-23.68,1.72-38.45,15.41-16.38,11.72-23.08,34-22.83,34.56.31,0-3.06-6.32-3.14-16.53-.17-10,3-23.79,14.08-32.6,10.87-9.12,25.06-9.41,34.77-7.24C333.66,1475.58,339.17,1480.15,339.24,1479.85Z"/><path class="cls-19" d="M251.34,1809.42s-83.7-17.14-31.88-28c0,0-52.85-23-26.55-30.68,0,0-59.56.51-17.79-18.31,0,0-71.42,15.21,12.89-28.36,0,0-63.94-19.34,9.28-10.57,0,0-79.41-37.13.26-12.89,0,0-64.72-39.19-3.87-16.76,0,0-47.33-37.33,7.4-6.93,0,0-33.32-54.23,6.58-21.53,0,0-26.16-53.59,31.63.16,0,0,5.07-58.15,28.53-5.67,0,0,12.91-38.59,22.88-.39,0,0,30.89-56.51,16.33,4.34,0,0,49.08-35.7,18.72,11.69,0,0,35.84-17.34,3,11.8,0,0,71.62.57-2.3,22.19,0,0,66.76,9.67,12.55,17.7,0,0,64.57,11.35.2,13.21,0,0,77.47,24.61-.2,14.7,0,0,61.37,37.81-11.38,20.7,0,0,42.84,12.8,6.17,24,0,0,19.84,35.69-11.28,39.38Z"/></g><g id="Porte"><path class="cls-8" d="M506.35,1541.33v51.21H443v216.23H555.77l-.17-34.47c-.1-13.75,4.4-15.93,4.4-15.93-12.4-37.53,3.78-58.79,3.78-58.79s5.54-11.38,23.61-18.63a57.12,57.12,0,0,1,18.44-3.52,55.57,55.57,0,0,1,20.45,3.42c11.69,4.59,18.27,14.22,20.7,19,0,0,15.44,29.27,4.06,58.53,0,0,4.5,2.18,4.41,15.93l0,34.47H768.1V1592.55H704.7v-51.22"/><path class="cls-14" d="M698.54,1553.45s0-2-1.58-2-1.62,2-1.62,2v24.15h3.2Z"/><path class="cls-14" d="M509.65,1553.45s0-2-1.58-2-1.62,2-1.62,2v24.15h3.2Z"/><path class="cls-14" d="M513.85,1553.45s0-2-1.58-2-1.62,2-1.62,2v24.15h3.2Z"/><path class="cls-14" d="M518,1553.45s0-2-1.57-2-1.62,2-1.62,2v24.15H518Z"/><path class="cls-14" d="M522.24,1553.45s0-2-1.57-2-1.63,2-1.63,2v24.15h3.2Z"/><path class="cls-14" d="M526.44,1553.45s0-2-1.58-2-1.62,2-1.62,2v24.15h3.2Z"/><path class="cls-14" d="M530.64,1553.45s0-2-1.58-2-1.62,2-1.62,2v24.15h3.2Z"/><path class="cls-14" d="M534.83,1553.45s0-2-1.57-2-1.62,2-1.62,2v24.15h3.19Z"/><path class="cls-14" d="M539,1553.45s0-2-1.57-2-1.63,2-1.63,2v24.15H539Z"/><path class="cls-14" d="M543.23,1553.45s0-2-1.58-2-1.62,2-1.62,2v24.15h3.2Z"/><path class="cls-14" d="M547.43,1553.45s0-2-1.58-2-1.62,2-1.62,2v24.15h3.2Z"/><path class="cls-14" d="M551.62,1553.45s0-2-1.57-2-1.62,2-1.62,2v24.15h3.19Z"/><path class="cls-14" d="M555.82,1553.45s0-2-1.57-2-1.63,2-1.63,2v24.15h3.2Z"/><path class="cls-14" d="M456.28,1609.71s0-2-1.58-2-1.62,2-1.62,2v24.15h3.2Z"/><path class="cls-14" d="M460.48,1609.71s0-2-1.58-2-1.62,2-1.62,2v24.15h3.2Z"/><path class="cls-14" d="M452.08,1609.71s0-2-1.58-2-1.62,2-1.62,2v24.15h3.2Z"/><path class="cls-14" d="M447.88,1609.71s0-2-1.57-2-1.63,2-1.63,2v24.15h3.2Z"/><path class="cls-14" d="M464.67,1609.71s0-2-1.57-2-1.62,2-1.62,2v24.15h3.19Z"/><path class="cls-14" d="M468.87,1609.71s0-2-1.58-2-1.62,2-1.62,2v24.15h3.2Z"/><path class="cls-14" d="M473.07,1609.71s0-2-1.58-2-1.62,2-1.62,2v24.15h3.2Z"/><path class="cls-14" d="M477.27,1609.71s0-2-1.58-2-1.62,2-1.62,2v24.15h3.2Z"/><path class="cls-14" d="M481.46,1609.71s0-2-1.57-2-1.62,2-1.62,2v24.15h3.19Z"/><path class="cls-14" d="M485.66,1609.71s0-2-1.57-2-1.63,2-1.63,2v24.15h3.2Z"/><path class="cls-14" d="M489.86,1609.71s0-2-1.58-2-1.62,2-1.62,2v24.15h3.2Z"/><path class="cls-14" d="M494.06,1609.71s0-2-1.58-2-1.62,2-1.62,2v24.15h3.2Z"/><path class="cls-14" d="M497.9,1609.71s0-2-1.57-2-1.62,2-1.62,2v24.15h3.19Z"/><path class="cls-14" d="M502.1,1609.71s0-2-1.57-2-1.63,2-1.63,2v24.15h3.2Z"/><path class="cls-14" d="M506.3,1609.71s0-2-1.58-2-1.62,2-1.62,2v24.15h3.2Z"/><path class="cls-14" d="M711.76,1611.27s0-2-1.57-2-1.63,2-1.63,2v24.15h3.2Z"/><path class="cls-14" d="M707.52,1611.27s0-2-1.57-2-1.63,2-1.63,2v24.15h3.2Z"/><path class="cls-14" d="M716,1611.27s0-2-1.58-2-1.62,2-1.62,2v24.15H716Z"/><path class="cls-14" d="M720.16,1611.27s0-2-1.58-2-1.62,2-1.62,2v24.15h3.2Z"/><path class="cls-14" d="M724.35,1611.27s0-2-1.57-2-1.62,2-1.62,2v24.15h3.19Z"/><path class="cls-14" d="M728.55,1611.27s0-2-1.57-2-1.63,2-1.63,2v24.15h3.2Z"/><path class="cls-14" d="M732.75,1611.27s0-2-1.58-2-1.62,2-1.62,2v24.15h3.2Z"/><path class="cls-14" d="M737,1611.27s0-2-1.58-2-1.62,2-1.62,2v24.15H737Z"/><path class="cls-14" d="M741.14,1611.27s0-2-1.57-2-1.62,2-1.62,2v24.15h3.19Z"/><path class="cls-14" d="M745.34,1611.27s0-2-1.57-2-1.63,2-1.63,2v24.15h3.2Z"/><path class="cls-14" d="M749.54,1611.27s0-2-1.58-2-1.62,2-1.62,2v24.15h3.2Z"/><path class="cls-14" d="M753.39,1611.27s0-2-1.58-2-1.62,2-1.62,2v24.15h3.2Z"/><path class="cls-14" d="M757.58,1611.27s0-2-1.57-2-1.62,2-1.62,2v24.15h3.19Z"/><path class="cls-14" d="M761.78,1611.27s0-2-1.57-2-1.63,2-1.63,2v24.15h3.2Z"/><path class="cls-14" d="M766,1611.27s0-2-1.58-2-1.62,2-1.62,2v24.15H766Z"/><line class="cls-7" x1="474.07" y1="1611.27" x2="474.07" y2="1635.42"/><path class="cls-14" d="M560,1553.45s0-2-1.58-2-1.62,2-1.62,2v24.15H560Z"/><path class="cls-14" d="M564.22,1553.45s0-2-1.58-2-1.62,2-1.62,2v24.15h3.2Z"/><path class="cls-14" d="M568.41,1553.45s0-2-1.57-2-1.62,2-1.62,2v24.15h3.19Z"/><path class="cls-14" d="M572.61,1553.45s0-2-1.57-2-1.63,2-1.63,2v24.15h3.2Z"/><path class="cls-14" d="M576.81,1553.45s0-2-1.58-2-1.62,2-1.62,2v24.15h3.2Z"/><path class="cls-14" d="M581,1553.45s0-2-1.58-2-1.62,2-1.62,2v24.15H581Z"/><path class="cls-14" d="M585.2,1553.45s0-2-1.57-2-1.62,2-1.62,2v24.15h3.19Z"/><path class="cls-14" d="M589.4,1553.45s0-2-1.57-2-1.63,2-1.63,2v24.15h3.2Z"/><path class="cls-14" d="M593.6,1553.45s0-2-1.58-2-1.62,2-1.62,2v24.15h3.2Z"/><path class="cls-14" d="M597.8,1553.45s0-2-1.58-2-1.62,2-1.62,2v24.15h3.2Z"/><path class="cls-14" d="M602,1553.45s0-2-1.57-2-1.62,2-1.62,2v24.15H602Z"/><path class="cls-14" d="M606.19,1553.45s0-2-1.57-2-1.63,2-1.63,2v24.15h3.2Z"/><path class="cls-14" d="M610.39,1553.45s0-2-1.58-2-1.62,2-1.62,2v24.15h3.2Z"/><path class="cls-14" d="M614.59,1553.45s0-2-1.58-2-1.62,2-1.62,2v24.15h3.2Z"/><path class="cls-14" d="M618.78,1553.45s0-2-1.57-2-1.62,2-1.62,2v24.15h3.19Z"/><path class="cls-14" d="M623,1553.45s0-2-1.57-2-1.63,2-1.63,2v24.15H623Z"/><path class="cls-14" d="M627.18,1553.45s0-2-1.58-2-1.62,2-1.62,2v24.15h3.2Z"/><path class="cls-14" d="M631.38,1553.45s0-2-1.58-2-1.62,2-1.62,2v24.15h3.2Z"/><path class="cls-14" d="M635.57,1553.45s0-2-1.57-2-1.62,2-1.62,2v24.15h3.19Z"/><path class="cls-14" d="M639.77,1553.45s0-2-1.57-2-1.63,2-1.63,2v24.15h3.2Z"/><path class="cls-14" d="M644,1553.45s0-2-1.58-2-1.62,2-1.62,2v24.15H644Z"/><path class="cls-14" d="M648.17,1553.45s0-2-1.58-2-1.62,2-1.62,2v24.15h3.2Z"/><path class="cls-14" d="M652.37,1553.45s0-2-1.58-2-1.62,2-1.62,2v24.15h3.2Z"/><path class="cls-14" d="M656.56,1553.45s0-2-1.57-2-1.63,2-1.63,2v24.15h3.2Z"/><path class="cls-14" d="M660.76,1553.45s0-2-1.58-2-1.62,2-1.62,2v24.15h3.2Z"/><path class="cls-14" d="M665,1553.45s0-2-1.58-2-1.62,2-1.62,2v24.15H665Z"/><path class="cls-14" d="M669.16,1553.45s0-2-1.58-2-1.62,2-1.62,2v24.15h3.2Z"/><path class="cls-14" d="M673.35,1553.45s0-2-1.57-2-1.63,2-1.63,2v24.15h3.2Z"/><path class="cls-14" d="M677.55,1553.45s0-2-1.58-2-1.62,2-1.62,2v24.15h3.2Z"/><path class="cls-14" d="M681.75,1553.45s0-2-1.58-2-1.62,2-1.62,2v24.15h3.2Z"/><path class="cls-14" d="M686,1553.45s0-2-1.58-2-1.62,2-1.62,2v24.15H686Z"/><path class="cls-14" d="M690.14,1553.45s0-2-1.57-2-1.63,2-1.63,2v24.15h3.2Z"/><path class="cls-14" d="M694.34,1553.45s0-2-1.58-2-1.62,2-1.62,2v24.15h3.2Z"/><path class="cls-14" d="M702.74,1553.45s0-2-1.58-2-1.62,2-1.62,2v24.15h3.2Z"/><path class="cls-14" d="M704.7,1551.63v26h-1v-24.16a2.32,2.32,0,0,1,.93-1.8Z"/><polyline class="cls-20" points="529.04 1808.77 529.04 1641.53 686.95 1641.53 685.93 1808.77"/><circle class="cls-21" cx="529.04" cy="1763.54" r="1.41"/><circle class="cls-21" cx="529.04" cy="1757.64" r="1.41"/><circle class="cls-21" cx="529.04" cy="1751.75" r="1.41"/><circle class="cls-21" cx="529.04" cy="1745.85" r="1.41"/><circle class="cls-21" cx="529.04" cy="1739.95" r="1.41"/><circle class="cls-21" cx="529.04" cy="1734.05" r="1.41"/><circle class="cls-21" cx="529.04" cy="1728.15" r="1.41"/><circle class="cls-21" cx="529.04" cy="1722.25" r="1.41"/><circle class="cls-21" cx="529.04" cy="1716.35" r="1.41"/><circle class="cls-21" cx="529.04" cy="1710.45" r="1.41"/><circle class="cls-21" cx="529.04" cy="1704.55" r="1.41"/><circle class="cls-21" cx="529.04" cy="1698.65" r="1.41"/><circle class="cls-21" cx="529.04" cy="1692.75" r="1.41"/><circle class="cls-21" cx="529.04" cy="1686.85" r="1.41"/><circle class="cls-21" cx="529.04" cy="1680.95" r="1.41"/><circle class="cls-21" cx="529.04" cy="1675.05" r="1.41"/><circle class="cls-21" cx="529.04" cy="1669.15" r="1.41"/><circle class="cls-21" cx="529.04" cy="1663.25" r="1.41"/><circle class="cls-21" cx="529.04" cy="1657.35" r="1.41"/><circle class="cls-21" cx="529.04" cy="1651.45" r="1.41"/><circle class="cls-21" cx="529.04" cy="1645.55" r="1.41"/><circle class="cls-21" cx="686.94" cy="1763.54" r="1.41"/><circle class="cls-21" cx="686.94" cy="1757.64" r="1.41"/><circle class="cls-21" cx="686.94" cy="1751.75" r="1.41"/><circle class="cls-21" cx="686.94" cy="1745.85" r="1.41"/><circle class="cls-21" cx="686.94" cy="1739.95" r="1.41"/><circle class="cls-21" cx="686.94" cy="1734.05" r="1.41"/><circle class="cls-21" cx="686.94" cy="1728.15" r="1.41"/><circle class="cls-21" cx="686.94" cy="1722.25" r="1.41"/><circle class="cls-21" cx="686.94" cy="1716.35" r="1.41"/><circle class="cls-21" cx="686.94" cy="1710.45" r="1.41"/><circle class="cls-21" cx="686.94" cy="1704.55" r="1.41"/><circle class="cls-21" cx="686.94" cy="1698.65" r="1.41"/><circle class="cls-21" cx="686.94" cy="1692.75" r="1.41"/><circle class="cls-21" cx="686.94" cy="1686.85" r="1.41"/><circle class="cls-21" cx="686.94" cy="1680.95" r="1.41"/><circle class="cls-21" cx="686.94" cy="1675.05" r="1.41"/><circle class="cls-21" cx="686.94" cy="1669.15" r="1.41"/><circle class="cls-21" cx="686.94" cy="1663.25" r="1.41"/><circle class="cls-21" cx="686.94" cy="1657.35" r="1.41"/><circle class="cls-21" cx="686.94" cy="1651.45" r="1.41"/><circle class="cls-21" cx="686.94" cy="1645.55" r="1.41"/><circle class="cls-21" cx="531.78" cy="1641.53" r="1.41"/><circle class="cls-21" cx="537.68" cy="1641.53" r="1.41"/><circle class="cls-21" cx="543.58" cy="1641.53" r="1.41"/><circle class="cls-21" cx="549.48" cy="1641.53" r="1.41"/><circle class="cls-21" cx="555.37" cy="1641.53" r="1.41"/><circle class="cls-21" cx="561.27" cy="1641.53" r="1.41"/><circle class="cls-21" cx="567.17" cy="1641.53" r="1.41"/><circle class="cls-21" cx="573.07" cy="1641.53" r="1.41"/><circle class="cls-21" cx="578.97" cy="1641.53" r="1.41"/><circle class="cls-21" cx="584.87" cy="1641.53" r="1.41"/><circle class="cls-21" cx="590.77" cy="1641.53" r="1.41"/><circle class="cls-21" cx="596.67" cy="1641.53" r="1.41"/><circle class="cls-21" cx="602.57" cy="1641.53" r="1.41"/><circle class="cls-21" cx="608.47" cy="1641.53" r="1.41"/><circle class="cls-21" cx="614.37" cy="1641.53" r="1.41"/><circle class="cls-21" cx="620.27" cy="1641.53" r="1.41"/><circle class="cls-21" cx="626.17" cy="1641.53" r="1.41"/><circle class="cls-21" cx="632.07" cy="1641.53" r="1.41"/><circle class="cls-21" cx="637.97" cy="1641.53" r="1.41"/><circle class="cls-21" cx="643.87" cy="1641.53" r="1.41"/><circle class="cls-21" cx="649.77" cy="1641.53" r="1.41"/><circle class="cls-21" cx="655.67" cy="1641.53" r="1.41"/><circle class="cls-21" cx="661.57" cy="1641.53" r="1.41"/><circle class="cls-21" cx="667.47" cy="1641.53" r="1.41"/><circle class="cls-21" cx="673.37" cy="1641.53" r="1.41"/><circle class="cls-21" cx="679.27" cy="1641.53" r="1.41"/><circle class="cls-21" cx="685.17" cy="1641.53" r="1.41"/><path class="cls-21" d="M679.27,1642.94a1.41,1.41,0,1,1,1.41-1.41"/><circle class="cls-22" cx="710.55" cy="1696.14" r="2.32"/><circle class="cls-22" cx="720.27" cy="1696.14" r="2.32"/><circle class="cls-22" cx="730" cy="1696.14" r="2.32"/><circle class="cls-22" cx="739.72" cy="1696.14" r="2.32"/><circle class="cls-22" cx="749.44" cy="1696.14" r="2.32"/><circle class="cls-22" cx="759.17" cy="1696.14" r="2.32"/><line class="cls-23" x1="706.76" y1="1691.76" x2="764.94" y2="1691.76"/><line class="cls-23" x1="706.76" y1="1700.52" x2="764.94" y2="1700.52"/><rect class="cls-24" x="534.83" y="1613.3" width="18.12" height="18.12"/><rect class="cls-24" x="565.88" y="1613.3" width="18.12" height="18.12"/><rect class="cls-24" x="596.93" y="1613.3" width="18.12" height="18.12"/><rect class="cls-24" x="627.89" y="1613.3" width="18.12" height="18.12"/><rect class="cls-24" x="658.93" y="1613.3" width="18.12" height="18.12"/><polygon class="cls-25" points="512.55 1530.61 518.75 1541.33 506.35 1541.33 512.55 1530.61"/><polygon class="cls-25" points="524.94 1530.61 531.14 1541.33 518.75 1541.33 524.94 1530.61"/><polygon class="cls-25" points="537.34 1530.61 543.54 1541.33 531.14 1541.33 537.34 1530.61"/><polygon class="cls-25" points="549.73 1530.61 555.93 1541.33 543.54 1541.33 549.73 1530.61"/><polygon class="cls-25" points="562.13 1530.61 568.33 1541.33 555.93 1541.33 562.13 1530.61"/><polygon class="cls-25" points="574.52 1530.61 580.72 1541.33 568.33 1541.33 574.52 1530.61"/><polygon class="cls-25" points="586.92 1530.61 593.12 1541.33 580.72 1541.33 586.92 1530.61"/><polygon class="cls-25" points="599.32 1530.61 605.51 1541.33 593.12 1541.33 599.32 1530.61"/><polygon class="cls-25" points="611.71 1530.61 617.91 1541.33 605.51 1541.33 611.71 1530.61"/><polygon class="cls-25" points="624.11 1530.61 630.3 1541.33 617.91 1541.33 624.11 1530.61"/><polygon class="cls-25" points="636.5 1530.61 642.7 1541.33 630.3 1541.33 636.5 1530.61"/><polygon class="cls-25" points="648.9 1530.61 655.1 1541.33 642.7 1541.33 648.9 1530.61"/><polygon class="cls-25" points="661.29 1530.61 667.49 1541.33 655.1 1541.33 661.29 1530.61"/><polygon class="cls-25" points="673.69 1530.61 679.89 1541.33 667.49 1541.33 673.69 1530.61"/><polygon class="cls-25" points="686.09 1530.61 692.28 1541.33 679.89 1541.33 686.09 1530.61"/><polygon class="cls-25" points="698.48 1530.61 704.68 1541.33 692.28 1541.33 698.48 1530.61"/><polygon class="cls-25" points="448.74 1582.51 442.94 1592.55 454.53 1592.55 448.74 1582.51"/><polygon class="cls-25" points="460.33 1582.51 454.53 1592.55 466.13 1592.55 460.33 1582.51"/><polygon class="cls-25" points="471.92 1582.51 466.13 1592.55 477.72 1592.55 471.92 1582.51"/><polygon class="cls-25" points="483.51 1582.51 477.72 1592.55 489.31 1592.55 483.51 1582.51"/><polygon class="cls-25" points="495.11 1582.51 489.31 1592.55 500.9 1592.55 495.11 1582.51"/><polygon class="cls-25" points="500.9 1592.55 506.33 1592.55 506.33 1583.14 500.9 1592.55"/><polygon class="cls-25" points="762.33 1582.51 768.12 1592.55 756.53 1592.55 762.33 1582.51"/><polygon class="cls-25" points="750.73 1582.51 756.53 1592.55 744.94 1592.55 750.73 1582.51"/><polygon class="cls-25" points="739.14 1582.51 744.94 1592.55 733.34 1592.55 739.14 1582.51"/><polygon class="cls-25" points="727.55 1582.51 733.34 1592.55 721.75 1592.55 727.55 1582.51"/><polygon class="cls-25" points="715.95 1582.51 721.75 1592.55 710.16 1592.55 715.95 1582.51"/><polygon class="cls-25" points="710.16 1592.55 704.73 1592.55 704.73 1583.14 710.16 1592.55"/><path class="cls-21" d="M461.73,1766.68a21.31,21.31,0,0,1,2.28-9.53,9.17,9.17,0,0,1-2.39-9.06c1.6-5.87,17.37-14.28,17.37-14.28"/><path class="cls-21" d="M495.41,1766.65a21.1,21.1,0,0,0-2.28-9.52,9.16,9.16,0,0,0,2.4-9.06c-1.61-5.88-17.26-14.26-17.26-14.26"/><path class="cls-25" d="M490,1808.77H468.18s-2.05-42,2.88-47.94a8.38,8.38,0,0,1-2.4-9.06c1.91-5.27,9.86-9.27,10.41-9.54h0c.55.27,8.5,4.27,10.41,9.54a8.36,8.36,0,0,1-2.4,9.06C492.05,1766.76,490,1808.77,490,1808.77Z"/><path class="cls-25" d="M479.1,1742.22h0Z"/><path class="cls-25" d="M479.09,1742.23h0Z"/><line class="cls-26" x1="495.41" y1="1808.77" x2="495.41" y2="1766.68"/><line class="cls-27" x1="461.75" y1="1803.6" x2="461.75" y2="1766.68"/><line class="cls-26" x1="455.96" y1="1808.77" x2="455.96" y2="1766.68"/><line class="cls-26" x1="461.75" y1="1808.77" x2="461.75" y2="1766.68"/><line class="cls-26" x1="501.27" y1="1808.77" x2="501.27" y2="1766.68"/><path class="cls-21" d="M715.87,1766.48a21.1,21.1,0,0,1,2.28-9.52,9.16,9.16,0,0,1-2.4-9.06c1.6-5.88,17.37-14.28,17.37-14.28"/><path class="cls-21" d="M749.54,1766.46a21.13,21.13,0,0,0-2.28-9.53,9.16,9.16,0,0,0,2.4-9.06c-1.61-5.88-17.26-14.25-17.26-14.25"/><path class="cls-25" d="M744.12,1808.77h-21.8s-2.06-42.21,2.88-48.13a8.36,8.36,0,0,1-2.4-9.06c1.9-5.28,9.86-9.27,10.41-9.54h0c.56.27,8.51,4.26,10.41,9.54a8.36,8.36,0,0,1-2.4,9.06C746.18,1766.56,744.12,1808.77,744.12,1808.77Z"/><line class="cls-26" x1="749.35" y1="1808.77" x2="749.55" y2="1766.48"/><line class="cls-26" x1="755.4" y1="1808.77" x2="755.4" y2="1766.68"/><line class="cls-26" x1="761.07" y1="1808.77" x2="761.26" y2="1766.87"/><line class="cls-26" x1="709.82" y1="1808.77" x2="710.01" y2="1766.66"/><line class="cls-26" x1="715.61" y1="1808.77" x2="715.88" y2="1766.48"/><line class="cls-26" x1="450.18" y1="1808.77" x2="450.18" y2="1771.85"/><line class="cls-28" x1="507.34" y1="1579.1" x2="507.34" y2="1808.82"/><line class="cls-28" x1="703.7" y1="1578.64" x2="703.7" y2="1808.77"/><line class="cls-29" x1="443.8" y1="1592.55" x2="443.8" y2="1806.2"/><line class="cls-29" x1="767.27" y1="1592.56" x2="767.27" y2="1808.79"/><line class="cls-30" x1="704.7" y1="1579.36" x2="506.35" y2="1579.35"/><line class="cls-30" x1="515.72" y1="1579.35" x2="515.72" y2="1590.73"/><line class="cls-30" x1="521.49" y1="1579.35" x2="521.49" y2="1590.73"/><line class="cls-30" x1="509.94" y1="1579.35" x2="509.94" y2="1590.73"/><line class="cls-30" x1="527.26" y1="1579.35" x2="527.26" y2="1590.73"/><line class="cls-30" x1="533.03" y1="1579.35" x2="533.03" y2="1590.73"/><line class="cls-30" x1="538.81" y1="1579.35" x2="538.81" y2="1590.73"/><line class="cls-30" x1="544.58" y1="1579.35" x2="544.58" y2="1590.73"/><line class="cls-30" x1="550.35" y1="1579.35" x2="550.35" y2="1590.73"/><line class="cls-30" x1="556.13" y1="1579.35" x2="556.13" y2="1590.73"/><line class="cls-30" x1="561.9" y1="1579.35" x2="561.9" y2="1590.73"/><line class="cls-30" x1="567.67" y1="1579.35" x2="567.67" y2="1590.73"/><line class="cls-30" x1="573.44" y1="1579.35" x2="573.44" y2="1590.73"/><line class="cls-30" x1="579.22" y1="1579.35" x2="579.22" y2="1590.73"/><line class="cls-30" x1="584.99" y1="1579.35" x2="584.99" y2="1590.73"/><line class="cls-30" x1="590.76" y1="1579.35" x2="590.76" y2="1590.73"/><line class="cls-30" x1="596.54" y1="1579.35" x2="596.54" y2="1590.73"/><line class="cls-30" x1="602.31" y1="1579.35" x2="602.31" y2="1590.73"/><line class="cls-30" x1="608.08" y1="1579.35" x2="608.08" y2="1590.73"/><line class="cls-30" x1="613.85" y1="1579.35" x2="613.85" y2="1590.73"/><line class="cls-30" x1="619.63" y1="1579.35" x2="619.63" y2="1590.73"/><line class="cls-30" x1="625.4" y1="1579.35" x2="625.4" y2="1590.73"/><line class="cls-30" x1="631.17" y1="1579.35" x2="631.17" y2="1590.73"/><line class="cls-30" x1="636.94" y1="1579.35" x2="636.94" y2="1590.73"/><line class="cls-30" x1="642.72" y1="1579.35" x2="642.72" y2="1590.73"/><line class="cls-30" x1="648.49" y1="1579.35" x2="648.49" y2="1590.73"/><line class="cls-30" x1="654.26" y1="1579.35" x2="654.26" y2="1590.73"/><line class="cls-30" x1="660.04" y1="1579.35" x2="660.04" y2="1590.73"/><line class="cls-30" x1="665.81" y1="1579.35" x2="665.81" y2="1590.73"/><line class="cls-30" x1="671.58" y1="1579.35" x2="671.58" y2="1590.73"/><line class="cls-30" x1="677.35" y1="1579.35" x2="677.35" y2="1590.73"/><line class="cls-30" x1="683.13" y1="1579.35" x2="683.13" y2="1590.73"/><line class="cls-30" x1="688.9" y1="1579.35" x2="688.9" y2="1590.73"/><line class="cls-30" x1="694.67" y1="1579.35" x2="694.67" y2="1590.73"/><line class="cls-30" x1="700.45" y1="1579.35" x2="700.45" y2="1590.73"/><polyline class="cls-7" points="704.7 1547.99 704.67 1547.99 704.67 1551.64 704.67 1577.6 704.67 1579.36 704.67 1582.07 704.7 1582.07 704.7 1579.36 704.7 1577.6 704.7 1551.63"/><circle class="cls-23" cx="450.19" cy="1696.26" r="2.32"/><circle class="cls-23" cx="459.91" cy="1696.26" r="2.32"/><circle class="cls-23" cx="469.63" cy="1696.26" r="2.32"/><circle class="cls-23" cx="479.36" cy="1696.26" r="2.32"/><circle class="cls-23" cx="489.08" cy="1696.26" r="2.32"/><circle class="cls-23" cx="498.8" cy="1696.26" r="2.32"/><line class="cls-23" x1="446.4" y1="1691.88" x2="504.58" y2="1691.88"/><line class="cls-23" x1="446.4" y1="1700.64" x2="504.58" y2="1700.64"/></g></g></g></svg>