<svg xmlns="http://www.w3.org/2000/svg" xmlns:xlink="http://www.w3.org/1999/xlink" viewBox="0 0 11048 2738.57"><defs><style>.cls-1{fill:none;}.cls-2{fill:url(#Dégradé_sans_nom_24);}.cls-3{opacity:0.66;}.cls-4{fill:#fff;}.cls-5{opacity:0.3;}.cls-6{fill:#1d1d1b;}.cls-7{opacity:0.59;}.cls-8{opacity:0.26;}.cls-9{opacity:0.14;}.cls-10{opacity:0.21;}.cls-11{fill:#84648b;}.cls-12{fill:#d77f61;}.cls-13{fill:url(#Dégradé_sans_nom_104);}.cls-14{fill:#30242e;}.cls-15{fill:url(#Dégradé_sans_nom_104-2);}.cls-16{fill:url(#Dégradé_sans_nom_104-3);}.cls-17{fill:url(#Dégradé_sans_nom_104-4);}.cls-18{fill:url(#Dégradé_sans_nom_104-5);}.cls-19{fill:url(#Dégradé_sans_nom_104-6);}.cls-20{fill:url(#Dégradé_sans_nom_104-7);}.cls-21{fill:url(#Dégradé_sans_nom_104-8);}.cls-22{fill:url(#Dégradé_sans_nom_104-9);}.cls-23{fill:url(#Dégradé_sans_nom_104-10);}.cls-24{fill:url(#Dégradé_sans_nom_104-11);}.cls-25{fill:url(#Dégradé_sans_nom_104-12);}.cls-26{fill:url(#Dégradé_sans_nom_107);}.cls-27{fill:url(#Dégradé_sans_nom_104-13);}.cls-28{fill:url(#Dégradé_sans_nom_104-14);}.cls-29{fill:url(#Dégradé_sans_nom_104-15);}.cls-30{fill:url(#Dégradé_sans_nom_104-16);}.cls-31{fill:url(#Dégradé_sans_nom_119);}</style><linearGradient id="Dégradé_sans_nom_24" x1="5519.7" y1="-32.36" x2="5531.82" y2="3069.98" gradientUnits="userSpaceOnUse"><stop offset="0" stop-color="#1a181e"/><stop offset="0.11" stop-color="#191821"/><stop offset="0.15" stop-color="#1d1c27"/><stop offset="0.2" stop-color="#292836"/><stop offset="0.25" stop-color="#3c3b50"/><stop offset="0.25" stop-color="#3c3b51"/><stop offset="0.29" stop-color="#413e54"/><stop offset="0.33" stop-color="#50485e"/><stop offset="0.38" stop-color="#69586e"/><stop offset="0.39" stop-color="#735f75"/><stop offset="0.6" stop-color="#776278"/><stop offset="0.69" stop-color="#7c667c"/></linearGradient><linearGradient id="Dégradé_sans_nom_104" x1="1856.78" y1="2178.01" x2="795.7" y2="1244.19" gradientUnits="userSpaceOnUse"><stop offset="0" stop-color="#261c28"/><stop offset="0.13" stop-color="#261e2c"/><stop offset="0.25" stop-color="#272437"/><stop offset="0.37" stop-color="#292e4b"/><stop offset="0.48" stop-color="#2b3a63"/><stop offset="0.72" stop-color="#393f6c"/><stop offset="0.83" stop-color="#444471"/><stop offset="0.87" stop-color="#4a4773"/><stop offset="0.96" stop-color="#4a456e"/><stop offset="1" stop-color="#4a436a"/></linearGradient><linearGradient id="Dégradé_sans_nom_104-2" x1="4130.44" y1="2177.42" x2="3125.87" y2="1293.34" xlink:href="#Dégradé_sans_nom_104"/><linearGradient id="Dégradé_sans_nom_104-3" x1="3253.61" y1="2249.75" x2="2139.41" y2="1269.19" xlink:href="#Dégradé_sans_nom_104"/><linearGradient id="Dégradé_sans_nom_104-4" x1="5425.74" y1="2283.25" x2="4407.28" y2="1386.94" xlink:href="#Dégradé_sans_nom_104"/><linearGradient id="Dégradé_sans_nom_104-5" x1="7258.78" y1="2158.17" x2="6197.7" y2="1224.35" xlink:href="#Dégradé_sans_nom_104"/><linearGradient id="Dégradé_sans_nom_104-6" x1="9532.44" y1="2157.58" x2="8527.86" y2="1273.49" xlink:href="#Dégradé_sans_nom_104"/><linearGradient id="Dégradé_sans_nom_104-7" x1="8655.6" y1="2229.9" x2="7541.41" y2="1249.35" xlink:href="#Dégradé_sans_nom_104"/><linearGradient id="Dégradé_sans_nom_104-8" x1="10843.1" y1="2263.41" x2="9824.63" y2="1367.1" xlink:href="#Dégradé_sans_nom_104"/><linearGradient id="Dégradé_sans_nom_104-9" x1="3913.21" y1="2543.52" x2="2638.33" y2="1421.55" xlink:href="#Dégradé_sans_nom_104"/><linearGradient id="Dégradé_sans_nom_104-10" x1="6180.69" y1="2506.02" x2="4980.19" y2="1449.51" xlink:href="#Dégradé_sans_nom_104"/><linearGradient id="Dégradé_sans_nom_104-11" x1="2935.09" y1="2333.62" x2="1856.1" y2="1097.91" xlink:href="#Dégradé_sans_nom_104"/><linearGradient id="Dégradé_sans_nom_104-12" x1="1577.47" y1="2198.41" x2="471.42" y2="1367.23" xlink:href="#Dégradé_sans_nom_104"/><linearGradient id="Dégradé_sans_nom_107" x1="5041.15" y1="2087.37" x2="3985.28" y2="1031.5" gradientUnits="userSpaceOnUse"><stop offset="0" stop-color="#261c28"/><stop offset="0.13" stop-color="#261e2c"/><stop offset="0.25" stop-color="#272437"/><stop offset="0.37" stop-color="#292e4b"/><stop offset="0.48" stop-color="#2b3a63"/><stop offset="0.72" stop-color="#393f6c"/><stop offset="0.83" stop-color="#444471"/><stop offset="0.87" stop-color="#4a4773"/></linearGradient><linearGradient id="Dégradé_sans_nom_104-13" x1="9319.29" y1="2540.45" x2="8044.41" y2="1418.48" xlink:href="#Dégradé_sans_nom_104"/><linearGradient id="Dégradé_sans_nom_104-14" x1="10580.66" y1="2657.84" x2="9914.04" y2="1343.21" xlink:href="#Dégradé_sans_nom_104"/><linearGradient id="Dégradé_sans_nom_104-15" x1="8341.17" y1="2330.56" x2="7262.18" y2="1094.84" xlink:href="#Dégradé_sans_nom_104"/><linearGradient id="Dégradé_sans_nom_104-16" x1="6702.8" y1="2189.03" x2="5574.09" y2="1340.8" xlink:href="#Dégradé_sans_nom_104"/><linearGradient id="Dégradé_sans_nom_119" y1="2262.86" x2="11047.3" y2="2262.86" gradientUnits="userSpaceOnUse"><stop offset="0" stop-color="#f2a769"/><stop offset="0" stop-color="#915758"/><stop offset="0.01" stop-color="#8a5758"/><stop offset="0.02" stop-color="#835657"/><stop offset="0.06" stop-color="#815657"/><stop offset="0.08" stop-color="#7a5356"/><stop offset="0.13" stop-color="#694b53"/><stop offset="0.2" stop-color="#5c4551"/><stop offset="0.29" stop-color="#55424f"/><stop offset="0.5" stop-color="#53414f"/><stop offset="0.51" stop-color="#53414f"/><stop offset="0.68" stop-color="#574553"/><stop offset="1" stop-color="#2f3045"/></linearGradient></defs><g id="Calque_2" data-name="Calque 2"><g id="Calque_1-2" data-name="Calque 1"><rect id="fond" class="cls-1" x="1.49" width="11046.51" height="2738.57"/><rect id="Ciel" class="cls-2" x="2.35" width="11045.65" height="2738.57"/><g id="Etoiles"><g id="étoiles"><g class="cls-3"><ellipse class="cls-4" cx="556.9" cy="628.15" rx="22.82" ry="25.56"/></g><g class="cls-3"><ellipse class="cls-4" cx="1389.71" cy="1000.16" rx="22.82" ry="25.56"/></g><g class="cls-3"><ellipse class="cls-4" cx="1705.07" cy="742.56" rx="22.82" ry="25.56"/></g><g class="cls-3"><ellipse class="cls-4" cx="2433.11" cy="1477.2" rx="22.82" ry="25.56"/></g><g class="cls-3"><ellipse class="cls-4" cx="2552.92" cy="742.56" rx="22.82" ry="25.56"/></g><g class="cls-3"><ellipse class="cls-4" cx="2863.84" cy="1219.6" rx="22.82" ry="25.56"/></g><g class="cls-3"><ellipse class="cls-4" cx="3190.27" cy="509.54" rx="22.82" ry="25.56"/></g><g class="cls-3"><ellipse class="cls-4" cx="3582.59" cy="1234.64" rx="22.82" ry="25.56"/></g><g class="cls-3"><ellipse class="cls-4" cx="3877.54" cy="904.75" rx="22.82" ry="25.56"/></g><g class="cls-3"><ellipse class="cls-4" cx="4073.56" cy="475.42" rx="22.82" ry="25.56"/></g><g class="cls-3"><ellipse class="cls-4" cx="4746.47" cy="1439.04" rx="22.82" ry="25.56"/></g><g class="cls-3"><ellipse class="cls-4" cx="4759.9" cy="713.94" rx="22.82" ry="25.56"/></g><g class="cls-5"><path class="cls-6" d="M3965.14,592.41c3.22,0,3.23-5,0-5s-3.22,5,0,5Z"/></g><g class="cls-5"><path class="cls-4" d="M533.71,468.38c3.22,0,3.23-5,0-5s-3.22,5,0,5Z"/></g><g class="cls-5"><path class="cls-4" d="M1078.57,573.33c3.22,0,3.22-5,0-5s-3.22,5,0,5Z"/></g><g class="cls-7"><path class="cls-4" d="M2261,718.94a5,5,0,1,0-5-5,5.05,5.05,0,0,0,5,5Z"/></g><g class="cls-8"><path class="cls-4" d="M2863.84,1005.16a5,5,0,1,0-5-5,5.05,5.05,0,0,0,5,5Z"/></g><g class="cls-8"><path class="cls-4" d="M1635,1052.87a5,5,0,1,0-5-5,5.06,5.06,0,0,0,5,5Z"/></g><g class="cls-8"><path class="cls-4" d="M3084.1,394.55a5,5,0,1,0-5-5,5.05,5.05,0,0,0,5,5Z"/></g><g class="cls-8"><path class="cls-4" d="M3466.66,1033.79a5,5,0,1,0-5-5,5.05,5.05,0,0,0,5,5Z"/></g><g class="cls-8"><path class="cls-4" d="M4185.41,413.63a5,5,0,1,0-5-5,5.06,5.06,0,0,0,5,5Z"/></g><g class="cls-8"><path class="cls-4" d="M4185.41,1072a5,5,0,1,0-5-5,5.06,5.06,0,0,0,5,5Z"/></g><g class="cls-8"><path class="cls-4" d="M5182.38,909.75a5,5,0,1,0-5-5,5.05,5.05,0,0,0,5,5Z"/></g><g class="cls-8"><path class="cls-4" d="M5020.08,480.42a5,5,0,1,0-5-5,5.06,5.06,0,0,0,5,5Z"/></g><g class="cls-8"><path class="cls-4" d="M4568,795.27a5,5,0,1,0-5-5,5.05,5.05,0,0,0,5,5Z"/></g><g class="cls-8"><path class="cls-4" d="M3431.88,614a5,5,0,1,0-5-5,5.05,5.05,0,0,0,5,5Z"/></g><g class="cls-8"><path class="cls-4" d="M3582.59,1444a5,5,0,1,0-5-5,5.06,5.06,0,0,0,5,5Z"/></g><g class="cls-8"><path class="cls-4" d="M1623.43,1482.2a5,5,0,1,0-5-5,5.06,5.06,0,0,0,5,5Z"/></g><g class="cls-8"><path class="cls-4" d="M858.31,1300.93a5,5,0,1,0-5-5,5.06,5.06,0,0,0,5,5Z"/></g><g class="cls-8"><path class="cls-4" d="M1194.5,785.72a5,5,0,1,0-5-5,5.06,5.06,0,0,0,5,5Z"/></g><g class="cls-8"><path class="cls-4" d="M383,1043.33a5,5,0,1,0-5-5,5.05,5.05,0,0,0,5,5Z"/></g><g class="cls-8"><path class="cls-4" d="M556.9,490a5,5,0,1,0-5-5,5.05,5.05,0,0,0,5,5Z"/></g><g class="cls-8"><path class="cls-4" d="M916.27,890.67a5,5,0,1,0-5-5,5.05,5.05,0,0,0,5,5Z"/></g><g class="cls-8"><path class="cls-4" d="M916.27,356.39a5,5,0,1,0-5-5,5.05,5.05,0,0,0,5,5Z"/></g><g class="cls-8"><path class="cls-4" d="M1808.91,814.35a5,5,0,1,0-5-5,5.06,5.06,0,0,0,5,5Z"/></g><g class="cls-9"><path class="cls-4" d="M835.12,893.17c3.93,0,7.69-3.45,7.5-7.5a7.63,7.63,0,0,0-7.5-7.5c-3.92,0-7.68,3.45-7.5,7.5a7.63,7.63,0,0,0,7.5,7.5Z"/></g><g class="cls-9"><path class="cls-4" d="M580.09,864.55c3.92,0,7.68-3.45,7.5-7.5a7.64,7.64,0,0,0-7.5-7.5c-3.93,0-7.69,3.45-7.5,7.5a7.63,7.63,0,0,0,7.5,7.5Z"/></g><g class="cls-9"><path class="cls-4" d="M1484.31,1303.43c3.93,0,7.69-3.45,7.5-7.5a7.62,7.62,0,0,0-7.5-7.5c-3.92,0-7.68,3.45-7.5,7.5a7.64,7.64,0,0,0,7.5,7.5Z"/></g><g class="cls-9"><path class="cls-4" d="M2064,1150.78c3.92,0,7.68-3.45,7.5-7.5a7.63,7.63,0,0,0-7.5-7.5c-3.93,0-7.68,3.44-7.5,7.5a7.63,7.63,0,0,0,7.5,7.5Z"/></g><g class="cls-9"><path class="cls-4" d="M1565.46,480.42a5,5,0,1,0-5-5,5.05,5.05,0,0,0,5,5Z"/></g><g class="cls-9"><path class="cls-4" d="M2516.06,492.46c3.92,0,7.68-3.45,7.5-7.5a7.63,7.63,0,0,0-7.5-7.5c-3.92,0-7.68,3.45-7.5,7.5a7.63,7.63,0,0,0,7.5,7.5Z"/></g><g class="cls-9"><path class="cls-4" d="M2666.77,1017.2c3.92,0,7.68-3.45,7.5-7.5a7.64,7.64,0,0,0-7.5-7.5c-3.93,0-7.69,3.45-7.5,7.5a7.62,7.62,0,0,0,7.5,7.5Z"/></g><g class="cls-9"><path class="cls-4" d="M3489.85,1017.2c3.92,0,7.68-3.45,7.5-7.5a7.64,7.64,0,0,0-7.5-7.5c-3.93,0-7.69,3.45-7.5,7.5a7.62,7.62,0,0,0,7.5,7.5Z"/></g><g class="cls-9"><path class="cls-4" d="M3489.85,616.49c3.92,0,7.68-3.45,7.5-7.5a7.64,7.64,0,0,0-7.5-7.5c-3.93,0-7.69,3.45-7.5,7.5a7.63,7.63,0,0,0,7.5,7.5Z"/></g><g class="cls-9"><path class="cls-4" d="M4312.93,597.41c3.92,0,7.68-3.45,7.5-7.5a7.63,7.63,0,0,0-7.5-7.5c-3.93,0-7.69,3.45-7.5,7.5a7.63,7.63,0,0,0,7.5,7.5Z"/></g><g class="cls-9"><path class="cls-4" d="M4452,988.58c3.92,0,7.68-3.45,7.5-7.5a7.63,7.63,0,0,0-7.5-7.5c-3.93,0-7.68,3.45-7.5,7.5a7.62,7.62,0,0,0,7.5,7.5Z"/></g><g class="cls-9"><path class="cls-4" d="M5159.19,1370.21c3.92,0,7.68-3.45,7.5-7.5a7.63,7.63,0,0,0-7.5-7.5c-3.92,0-7.68,3.45-7.5,7.5a7.63,7.63,0,0,0,7.5,7.5Z"/></g><g class="cls-9"><path class="cls-4" d="M4312.93,1580.11c3.92,0,7.68-3.45,7.5-7.5a7.64,7.64,0,0,0-7.5-7.5c-3.93,0-7.69,3.45-7.5,7.5a7.62,7.62,0,0,0,7.5,7.5Z"/></g><g class="cls-9"><path class="cls-4" d="M3385.51,1303.43c3.92,0,7.68-3.45,7.5-7.5a7.62,7.62,0,0,0-7.5-7.5c-3.92,0-7.68,3.45-7.5,7.5a7.63,7.63,0,0,0,7.5,7.5Z"/></g><g class="cls-9"><path class="cls-4" d="M2678.36,1332.05c3.92,0,7.68-3.45,7.5-7.5a7.63,7.63,0,0,0-7.5-7.5c-3.92,0-7.68,3.45-7.5,7.5a7.63,7.63,0,0,0,7.5,7.5Z"/></g><g class="cls-9"><path class="cls-4" d="M3176.84,654.65c3.93,0,7.68-3.45,7.5-7.5a7.63,7.63,0,0,0-7.5-7.5c-3.92,0-7.68,3.45-7.5,7.5a7.63,7.63,0,0,0,7.5,7.5Z"/></g><g class="cls-9"><path class="cls-4" d="M4011.52,750.06c3.92,0,7.68-3.45,7.5-7.5a7.64,7.64,0,0,0-7.5-7.5c-3.93,0-7.69,3.45-7.5,7.5a7.63,7.63,0,0,0,7.5,7.5Z"/></g><g class="cls-9"><path class="cls-4" d="M3802.85,406.59c3.92,0,7.68-3.45,7.5-7.5a7.63,7.63,0,0,0-7.5-7.5c-3.93,0-7.68,3.45-7.5,7.5a7.62,7.62,0,0,0,7.5,7.5Z"/></g><g class="cls-9"><path class="cls-4" d="M2805.88,654.65c3.92,0,7.68-3.45,7.5-7.5a7.63,7.63,0,0,0-7.5-7.5c-3.93,0-7.68,3.45-7.5,7.5a7.62,7.62,0,0,0,7.5,7.5Z"/></g><g class="cls-9"><path class="cls-4" d="M2504.47,263.48c3.92,0,7.68-3.45,7.5-7.5a7.63,7.63,0,0,0-7.5-7.5c-3.92,0-7.68,3.45-7.5,7.5a7.63,7.63,0,0,0,7.5,7.5Z"/></g><g class="cls-9"><path class="cls-4" d="M2029.17,454.3c3.92,0,7.68-3.45,7.5-7.5a7.63,7.63,0,0,0-7.5-7.5c-3.92,0-7.68,3.45-7.5,7.5a7.63,7.63,0,0,0,7.5,7.5Z"/></g><g class="cls-9"><path class="cls-4" d="M1507.5,893.17c3.92,0,7.68-3.45,7.5-7.5a7.63,7.63,0,0,0-7.5-7.5c-3.92,0-7.68,3.45-7.5,7.5a7.62,7.62,0,0,0,7.5,7.5Z"/></g><g class="cls-9"><path class="cls-4" d="M1171.31,435.21c3.92,0,7.68-3.45,7.5-7.5a7.63,7.63,0,0,0-7.5-7.5c-3.92,0-7.68,3.45-7.5,7.5a7.63,7.63,0,0,0,7.5,7.5Z"/></g><g class="cls-9"><path class="cls-4" d="M325.05,225.32c3.92,0,7.68-3.45,7.5-7.5a7.63,7.63,0,0,0-7.5-7.5c-3.93,0-7.68,3.45-7.5,7.5a7.63,7.63,0,0,0,7.5,7.5Z"/></g><g class="cls-9"><path class="cls-4" d="M325.05,845.47c3.92,0,7.68-3.45,7.5-7.5a7.64,7.64,0,0,0-7.5-7.5c-3.93,0-7.68,3.45-7.5,7.5a7.63,7.63,0,0,0,7.5,7.5Z"/></g><g class="cls-9"><path class="cls-4" d="M1067,1332.05c3.92,0,7.68-3.45,7.5-7.5a7.63,7.63,0,0,0-7.5-7.5c-3.93,0-7.68,3.45-7.5,7.5a7.63,7.63,0,0,0,7.5,7.5Z"/></g><g class="cls-9"><path class="cls-4" d="M2921.8,1666c3.93,0,7.69-3.45,7.5-7.5a7.63,7.63,0,0,0-7.5-7.5c-3.92,0-7.68,3.45-7.5,7.5a7.64,7.64,0,0,0,7.5,7.5Z"/></g><g class="cls-9"><path class="cls-4" d="M4115.85,1446.54c3.92,0,7.68-3.45,7.5-7.5a7.63,7.63,0,0,0-7.5-7.5c-3.92,0-7.68,3.45-7.5,7.5a7.63,7.63,0,0,0,7.5,7.5Z"/></g><g class="cls-9"><path class="cls-4" d="M4834.6,1227.1c3.92,0,7.68-3.45,7.5-7.5a7.64,7.64,0,0,0-7.5-7.5c-3.93,0-7.69,3.45-7.5,7.5a7.62,7.62,0,0,0,7.5,7.5Z"/></g><g class="cls-9"><path class="cls-4" d="M3988.33,502c3.92,0,7.68-3.45,7.5-7.5a7.63,7.63,0,0,0-7.5-7.5c-3.92,0-7.68,3.45-7.5,7.5a7.63,7.63,0,0,0,7.5,7.5Z"/></g><g class="cls-9"><path class="cls-4" d="M4915.74,502c3.93,0,7.69-3.45,7.5-7.5a7.63,7.63,0,0,0-7.5-7.5c-3.92,0-7.68,3.45-7.5,7.5a7.64,7.64,0,0,0,7.5,7.5Z"/></g><path class="cls-4" d="M1838.58,1357.8c3.21,0,3.22-5,0-5s-3.23,5,0,5Z"/><path class="cls-4" d="M2037.65,1473.45c3.21,0,3.22-5,0-5s-3.23,5,0,5Z"/><path class="cls-4" d="M363.12,1242.15c3.21,0,3.22-5,0-5s-3.23,5,0,5Z"/><g class="cls-10"><path class="cls-4" d="M1405.31,1500.22c5.23,0,10.24-4.6,10-10a10.19,10.19,0,0,0-10-10c-5.24,0-10.25,4.6-10,10a10.17,10.17,0,0,0,10,10Z"/></g><g class="cls-10"><path class="cls-4" d="M936.91,1037.63c5.23,0,10.24-4.6,10-10a10.18,10.18,0,0,0-10-10c-5.24,0-10.25,4.6-10,10a10.17,10.17,0,0,0,10,10Z"/></g><g class="cls-10"><path class="cls-4" d="M2119.62,1278.56c5.23,0,10.24-4.6,10-10a10.19,10.19,0,0,0-10-10c-5.23,0-10.25,4.6-10,10a10.17,10.17,0,0,0,10,10Z"/></g><g class="cls-10"><path class="cls-4" d="M4063.48,1471.31c5.23,0,10.24-4.6,10-10a10.18,10.18,0,0,0-10-10c-5.23,0-10.24,4.6-10,10a10.17,10.17,0,0,0,10,10Z"/></g><g class="cls-10"><path class="cls-4" d="M5199.35,1317.11c5.23,0,10.24-4.6,10-10a10.19,10.19,0,0,0-10-10c-5.23,0-10.24,4.6-10,10a10.17,10.17,0,0,0,10,10Z"/></g><g class="cls-10"><path class="cls-4" d="M5328.16,420.84c5.23,0,10.24-4.6,10-10a10.18,10.18,0,0,0-10-10c-5.23,0-10.24,4.6-10,10a10.17,10.17,0,0,0,10,10Z"/></g><g class="cls-10"><path class="cls-4" d="M5375,970.17c5.23,0,10.24-4.6,10-10a10.18,10.18,0,0,0-10-10c-5.23,0-10.24,4.6-10,10a10.17,10.17,0,0,0,10,10Z"/></g><g class="cls-10"><path class="cls-4" d="M1862,1572.32a5,5,0,1,0-5-5,5.06,5.06,0,0,0,5,5Z"/></g><g class="cls-10"><path class="cls-4" d="M351.41,1302.48a5,5,0,1,0-5-5,5.06,5.06,0,0,0,5,5Z"/></g><g class="cls-10"><path class="cls-4" d="M3466.27,1572.32a5,5,0,1,0-5-5,5.06,5.06,0,0,0,5,5Z"/></g><g class="cls-10"><path class="cls-4" d="M3442.85,791.7a5,5,0,1,0-5-5,5.06,5.06,0,0,0,5,5Z"/></g><g class="cls-10"><path class="cls-4" d="M3513.11,280.91a5,5,0,1,0-5-5,5.06,5.06,0,0,0,5,5Z"/></g><g class="cls-10"><path class="cls-4" d="M4508.46,1235a5,5,0,1,0-5-5,5.05,5.05,0,0,0,5,5Z"/></g><g class="cls-10"><path class="cls-4" d="M5281.32,656.77a5,5,0,1,0-5-5,5.06,5.06,0,0,0,5,5Z"/></g><g class="cls-10"><path class="cls-4" d="M4496.75,319.46a5,5,0,1,0-5-5,5.06,5.06,0,0,0,5,5Z"/></g></g><g id="étoiles-2" data-name="étoiles"><g class="cls-3"><ellipse class="cls-4" cx="5904.86" cy="718.78" rx="22.82" ry="25.56"/></g><g class="cls-3"><ellipse class="cls-4" cx="6737.66" cy="1090.8" rx="22.82" ry="25.56"/></g><g class="cls-3"><ellipse class="cls-4" cx="7053.02" cy="833.2" rx="22.82" ry="25.56"/></g><g class="cls-3"><ellipse class="cls-4" cx="7781.07" cy="1567.84" rx="22.82" ry="25.56"/></g><g class="cls-3"><ellipse class="cls-4" cx="7900.87" cy="833.2" rx="22.82" ry="25.56"/></g><g class="cls-3"><ellipse class="cls-4" cx="8211.8" cy="1310.24" rx="22.82" ry="25.56"/></g><g class="cls-3"><ellipse class="cls-4" cx="8538.22" cy="600.17" rx="22.82" ry="25.56"/></g><g class="cls-3"><ellipse class="cls-4" cx="8930.54" cy="1325.28" rx="22.82" ry="25.56"/></g><g class="cls-3"><ellipse class="cls-4" cx="9225.5" cy="995.39" rx="22.82" ry="25.56"/></g><g class="cls-3"><ellipse class="cls-4" cx="9421.51" cy="566.06" rx="22.82" ry="25.56"/></g><g class="cls-3"><ellipse class="cls-4" cx="10094.43" cy="1529.68" rx="22.82" ry="25.56"/></g><g class="cls-3"><ellipse class="cls-4" cx="10107.85" cy="804.58" rx="22.82" ry="25.56"/></g><g class="cls-5"><path class="cls-6" d="M9313.1,683.05c3.22,0,3.22-5,0-5s-3.22,5,0,5Z"/></g><g class="cls-5"><path class="cls-4" d="M5881.67,559c3.22,0,3.22-5,0-5s-3.22,5,0,5Z"/></g><g class="cls-5"><path class="cls-4" d="M6426.53,664c3.21,0,3.22-5,0-5s-3.23,5,0,5Z"/></g><g class="cls-7"><path class="cls-4" d="M7609,809.58a5,5,0,1,0-5-5,5.06,5.06,0,0,0,5,5Z"/></g><g class="cls-8"><path class="cls-4" d="M8211.8,1095.8a5,5,0,1,0-5-5,5.06,5.06,0,0,0,5,5Z"/></g><g class="cls-8"><path class="cls-4" d="M6983,1143.5a5,5,0,1,0-5-5,5,5,0,0,0,5,5Z"/></g><g class="cls-8"><path class="cls-4" d="M8432.06,485.19a5,5,0,1,0-5-5,5.06,5.06,0,0,0,5,5Z"/></g><g class="cls-8"><path class="cls-4" d="M8814.62,1124.42a5,5,0,1,0-5-5,5.06,5.06,0,0,0,5,5Z"/></g><g class="cls-8"><path class="cls-4" d="M9533.36,504.27a5,5,0,1,0-5-5,5.05,5.05,0,0,0,5,5Z"/></g><g class="cls-8"><path class="cls-4" d="M9533.36,1162.59a5,5,0,1,0-5-5,5.05,5.05,0,0,0,5,5Z"/></g><g class="cls-8"><path class="cls-4" d="M10530.33,1000.39a5,5,0,1,0-5-5,5.05,5.05,0,0,0,5,5Z"/></g><g class="cls-8"><path class="cls-4" d="M10368,571.06a5,5,0,1,0-5-5,5.05,5.05,0,0,0,5,5Z"/></g><g class="cls-8"><path class="cls-4" d="M9915.92,885.9a5,5,0,1,0-5-5,5.06,5.06,0,0,0,5,5Z"/></g><g class="cls-8"><path class="cls-4" d="M8779.84,704.63a5,5,0,1,0-5-5,5.06,5.06,0,0,0,5,5Z"/></g><g class="cls-8"><path class="cls-4" d="M8930.54,1534.68a5,5,0,1,0-5-5,5.05,5.05,0,0,0,5,5Z"/></g><g class="cls-8"><path class="cls-4" d="M6971.38,1572.84a5,5,0,1,0-5-5,5.05,5.05,0,0,0,5,5Z"/></g><g class="cls-8"><path class="cls-4" d="M6206.27,1391.57a5,5,0,1,0-5-5,5.06,5.06,0,0,0,5,5Z"/></g><g class="cls-8"><path class="cls-4" d="M6542.45,876.36a5,5,0,1,0-5-5,5.05,5.05,0,0,0,5,5Z"/></g><g class="cls-8"><path class="cls-4" d="M5731,1134a5,5,0,1,0-5-5,5.06,5.06,0,0,0,5,5Z"/></g><g class="cls-8"><path class="cls-4" d="M5904.86,580.6a5,5,0,1,0-5-5,5.06,5.06,0,0,0,5,5Z"/></g><g class="cls-8"><path class="cls-4" d="M6264.23,981.31a5,5,0,1,0-5-5,5.06,5.06,0,0,0,5,5Z"/></g><g class="cls-8"><path class="cls-4" d="M6264.23,447a5,5,0,1,0-5-5,5.06,5.06,0,0,0,5,5Z"/></g><g class="cls-8"><path class="cls-4" d="M7156.86,905a5,5,0,1,0-5-5,5.05,5.05,0,0,0,5,5Z"/></g><g class="cls-9"><path class="cls-4" d="M6183.08,983.81c3.92,0,7.68-3.45,7.5-7.5a7.63,7.63,0,0,0-7.5-7.5c-3.92,0-7.68,3.45-7.5,7.5a7.63,7.63,0,0,0,7.5,7.5Z"/></g><g class="cls-9"><path class="cls-4" d="M5928,955.19c3.92,0,7.68-3.45,7.5-7.5a7.63,7.63,0,0,0-7.5-7.5c-3.92,0-7.68,3.45-7.5,7.5a7.63,7.63,0,0,0,7.5,7.5Z"/></g><g class="cls-9"><path class="cls-4" d="M6832.27,1394.07c3.92,0,7.68-3.45,7.5-7.5a7.63,7.63,0,0,0-7.5-7.5c-3.92,0-7.68,3.45-7.5,7.5a7.63,7.63,0,0,0,7.5,7.5Z"/></g><g class="cls-9"><path class="cls-4" d="M7411.9,1241.41c3.93,0,7.68-3.45,7.5-7.5a7.63,7.63,0,0,0-7.5-7.5c-3.92,0-7.68,3.45-7.5,7.5a7.63,7.63,0,0,0,7.5,7.5Z"/></g><g class="cls-9"><path class="cls-4" d="M6913.42,571.06a5,5,0,1,0-5-5,5.06,5.06,0,0,0,5,5Z"/></g><g class="cls-9"><path class="cls-4" d="M7864,583.1c3.92,0,7.68-3.45,7.5-7.5a7.63,7.63,0,0,0-7.5-7.5c-3.93,0-7.68,3.45-7.5,7.5a7.63,7.63,0,0,0,7.5,7.5Z"/></g><g class="cls-9"><path class="cls-4" d="M8014.72,1107.84c3.92,0,7.68-3.45,7.5-7.5a7.63,7.63,0,0,0-7.5-7.5c-3.92,0-7.68,3.45-7.5,7.5a7.63,7.63,0,0,0,7.5,7.5Z"/></g><g class="cls-9"><path class="cls-4" d="M8837.8,1107.84c3.92,0,7.68-3.45,7.5-7.5a7.63,7.63,0,0,0-7.5-7.5c-3.92,0-7.68,3.45-7.5,7.5a7.63,7.63,0,0,0,7.5,7.5Z"/></g><g class="cls-9"><path class="cls-4" d="M8837.8,707.13c3.92,0,7.68-3.45,7.5-7.5a7.62,7.62,0,0,0-7.5-7.5c-3.92,0-7.68,3.45-7.5,7.5a7.63,7.63,0,0,0,7.5,7.5Z"/></g><g class="cls-9"><path class="cls-4" d="M9660.88,688.05c3.92,0,7.68-3.45,7.5-7.5a7.62,7.62,0,0,0-7.5-7.5c-3.92,0-7.68,3.45-7.5,7.5a7.63,7.63,0,0,0,7.5,7.5Z"/></g><g class="cls-9"><path class="cls-4" d="M9800,1079.22c3.93,0,7.68-3.45,7.5-7.5a7.63,7.63,0,0,0-7.5-7.5c-3.92,0-7.68,3.45-7.5,7.5a7.63,7.63,0,0,0,7.5,7.5Z"/></g><g class="cls-9"><path class="cls-4" d="M10507.15,1460.85c3.92,0,7.68-3.45,7.5-7.5a7.64,7.64,0,0,0-7.5-7.5c-3.93,0-7.69,3.45-7.5,7.5a7.62,7.62,0,0,0,7.5,7.5Z"/></g><g class="cls-9"><path class="cls-4" d="M9660.88,1670.75c3.92,0,7.68-3.45,7.5-7.5a7.63,7.63,0,0,0-7.5-7.5c-3.92,0-7.68,3.45-7.5,7.5a7.63,7.63,0,0,0,7.5,7.5Z"/></g><g class="cls-9"><path class="cls-4" d="M8733.47,1394.07c3.92,0,7.68-3.45,7.5-7.5a7.63,7.63,0,0,0-7.5-7.5c-3.93,0-7.68,3.45-7.5,7.5a7.63,7.63,0,0,0,7.5,7.5Z"/></g><g class="cls-9"><path class="cls-4" d="M8026.31,1422.69c3.93,0,7.69-3.45,7.5-7.5a7.62,7.62,0,0,0-7.5-7.5c-3.92,0-7.68,3.45-7.5,7.5a7.64,7.64,0,0,0,7.5,7.5Z"/></g><g class="cls-9"><path class="cls-4" d="M8524.8,745.29c3.92,0,7.68-3.45,7.5-7.5a7.63,7.63,0,0,0-7.5-7.5c-3.92,0-7.68,3.45-7.5,7.5a7.63,7.63,0,0,0,7.5,7.5Z"/></g><g class="cls-9"><path class="cls-4" d="M9359.47,840.7c3.92,0,7.68-3.45,7.5-7.5a7.63,7.63,0,0,0-7.5-7.5c-3.92,0-7.68,3.45-7.5,7.5a7.63,7.63,0,0,0,7.5,7.5Z"/></g><g class="cls-9"><path class="cls-4" d="M9150.8,497.23c3.93,0,7.68-3.45,7.5-7.5a7.63,7.63,0,0,0-7.5-7.5c-3.92,0-7.68,3.45-7.5,7.5a7.64,7.64,0,0,0,7.5,7.5Z"/></g><g class="cls-9"><path class="cls-4" d="M8153.83,745.29c3.93,0,7.69-3.45,7.5-7.5a7.63,7.63,0,0,0-7.5-7.5c-3.92,0-7.68,3.45-7.5,7.5a7.64,7.64,0,0,0,7.5,7.5Z"/></g><g class="cls-9"><path class="cls-4" d="M7852.42,354.12c3.93,0,7.69-3.45,7.5-7.5a7.62,7.62,0,0,0-7.5-7.5c-3.92,0-7.68,3.45-7.5,7.5a7.64,7.64,0,0,0,7.5,7.5Z"/></g><g class="cls-9"><path class="cls-4" d="M7377.12,544.93c3.93,0,7.69-3.45,7.5-7.5a7.63,7.63,0,0,0-7.5-7.5c-3.92,0-7.68,3.45-7.5,7.5a7.63,7.63,0,0,0,7.5,7.5Z"/></g><g class="cls-9"><path class="cls-4" d="M6855.45,983.81c3.93,0,7.69-3.45,7.5-7.5a7.63,7.63,0,0,0-7.5-7.5c-3.92,0-7.68,3.45-7.5,7.5a7.64,7.64,0,0,0,7.5,7.5Z"/></g><g class="cls-9"><path class="cls-4" d="M6519.27,525.85c3.92,0,7.68-3.45,7.5-7.5a7.63,7.63,0,0,0-7.5-7.5c-3.93,0-7.68,3.45-7.5,7.5a7.62,7.62,0,0,0,7.5,7.5Z"/></g><g class="cls-9"><path class="cls-4" d="M5673,316c3.93,0,7.68-3.45,7.5-7.5a7.63,7.63,0,0,0-7.5-7.5c-3.92,0-7.68,3.45-7.5,7.5a7.63,7.63,0,0,0,7.5,7.5Z"/></g><g class="cls-9"><path class="cls-4" d="M5673,936.11c3.93,0,7.68-3.45,7.5-7.5a7.62,7.62,0,0,0-7.5-7.5c-3.92,0-7.68,3.45-7.5,7.5a7.63,7.63,0,0,0,7.5,7.5Z"/></g><g class="cls-9"><path class="cls-4" d="M6414.93,1422.69c3.93,0,7.68-3.45,7.5-7.5a7.62,7.62,0,0,0-7.5-7.5c-3.92,0-7.68,3.45-7.5,7.5a7.64,7.64,0,0,0,7.5,7.5Z"/></g><g class="cls-9"><path class="cls-4" d="M8269.76,1756.62c3.92,0,7.68-3.45,7.5-7.5a7.63,7.63,0,0,0-7.5-7.5c-3.92,0-7.68,3.45-7.5,7.5a7.63,7.63,0,0,0,7.5,7.5Z"/></g><g class="cls-9"><path class="cls-4" d="M9463.81,1537.18c3.92,0,7.68-3.45,7.5-7.5a7.63,7.63,0,0,0-7.5-7.5c-3.93,0-7.69,3.45-7.5,7.5a7.63,7.63,0,0,0,7.5,7.5Z"/></g><g class="cls-9"><path class="cls-4" d="M10182.55,1317.74c3.92,0,7.68-3.45,7.5-7.5a7.63,7.63,0,0,0-7.5-7.5c-3.92,0-7.68,3.45-7.5,7.5a7.63,7.63,0,0,0,7.5,7.5Z"/></g><g class="cls-9"><path class="cls-4" d="M9336.29,592.64c3.92,0,7.68-3.45,7.5-7.5a7.63,7.63,0,0,0-7.5-7.5c-3.93,0-7.69,3.45-7.5,7.5a7.63,7.63,0,0,0,7.5,7.5Z"/></g><g class="cls-9"><path class="cls-4" d="M10263.7,592.64c3.92,0,7.68-3.45,7.5-7.5a7.63,7.63,0,0,0-7.5-7.5c-3.92,0-7.68,3.45-7.5,7.5a7.63,7.63,0,0,0,7.5,7.5Z"/></g><path class="cls-4" d="M7186.53,1448.44c3.22,0,3.22-5,0-5s-3.22,5,0,5Z"/><path class="cls-4" d="M7385.6,1564.09c3.22,0,3.22-5,0-5s-3.22,5,0,5Z"/><path class="cls-4" d="M5711.07,1332.79c3.22,0,3.22-5,0-5s-3.22,5,0,5Z"/><g class="cls-10"><path class="cls-4" d="M6753.26,1590.86c5.23,0,10.24-4.6,10-10a10.17,10.17,0,0,0-10-10c-5.23,0-10.24,4.6-10,10a10.18,10.18,0,0,0,10,10Z"/></g><g class="cls-10"><path class="cls-4" d="M6284.86,1128.27c5.23,0,10.24-4.6,10-10a10.17,10.17,0,0,0-10-10c-5.23,0-10.24,4.6-10,10a10.17,10.17,0,0,0,10,10Z"/></g><g class="cls-10"><path class="cls-4" d="M7467.57,1369.2c5.23,0,10.24-4.6,10-10a10.17,10.17,0,0,0-10-10c-5.23,0-10.24,4.6-10,10a10.18,10.18,0,0,0,10,10Z"/></g><g class="cls-10"><path class="cls-4" d="M9411.43,1562c5.23,0,10.24-4.6,10-10a10.17,10.17,0,0,0-10-10c-5.23,0-10.24,4.6-10,10a10.18,10.18,0,0,0,10,10Z"/></g><g class="cls-10"><path class="cls-4" d="M10547.3,1407.75c5.23,0,10.25-4.6,10-10a10.17,10.17,0,0,0-10-10c-5.23,0-10.24,4.6-10,10a10.18,10.18,0,0,0,10,10Z"/></g><g class="cls-10"><path class="cls-4" d="M10676.11,511.48c5.23,0,10.25-4.6,10-10a10.17,10.17,0,0,0-10-10c-5.23,0-10.24,4.59-10,10a10.19,10.19,0,0,0,10,10Z"/></g><g class="cls-10"><path class="cls-4" d="M10723,1060.81c5.23,0,10.25-4.6,10-10a10.17,10.17,0,0,0-10-10c-5.23,0-10.24,4.6-10,10a10.19,10.19,0,0,0,10,10Z"/></g><g class="cls-10"><path class="cls-4" d="M7210,1663a5,5,0,1,0-5-5,5.05,5.05,0,0,0,5,5Z"/></g><g class="cls-10"><path class="cls-4" d="M5699.36,1393.11a5,5,0,1,0-5-5,5.05,5.05,0,0,0,5,5Z"/></g><g class="cls-10"><path class="cls-4" d="M8814.22,1663a5,5,0,1,0-5-5,5.05,5.05,0,0,0,5,5Z"/></g><g class="cls-10"><path class="cls-4" d="M8790.8,882.33a5,5,0,1,0-5-5,5.05,5.05,0,0,0,5,5Z"/></g><g class="cls-10"><path class="cls-4" d="M8861.06,371.55a5,5,0,1,0-5-5,5.05,5.05,0,0,0,5,5Z"/></g><g class="cls-10"><path class="cls-4" d="M9856.41,1325.65a5,5,0,1,0-5-5,5.05,5.05,0,0,0,5,5Z"/></g><g class="cls-10"><path class="cls-4" d="M10629.27,747.41a5,5,0,1,0-5-5,5.05,5.05,0,0,0,5,5Z"/></g><g class="cls-10"><path class="cls-4" d="M9844.7,410.1a5,5,0,1,0-5-5,5.05,5.05,0,0,0,5,5Z"/></g></g></g><g id="d1"><g id="Dunes_fond" data-name="Dunes fond"><polygon class="cls-11" points="6248.76 1500.79 5623.92 1500.79 5623.92 1501.08 4996.42 1500.79 5249.92 1500.79 5123.02 1443.48 5621.26 1217.94 5622.59 1217.34 5623.92 1217.94 6248.76 1500.79"/><polygon class="cls-12" points="5123.02 1443.48 5249.92 1500.79 4996.42 1500.79 5123.02 1443.48"/><polygon class="cls-12" points="5623.92 1216.74 5623.92 1217.94 5622.59 1217.34 5623.92 1216.74"/><polygon class="cls-11" points="5249.92 1500.79 4470.29 1500.79 4865.18 1327.03 5123.02 1443.48 5249.92 1500.79"/><polygon class="cls-11" points="3140.96 1500.78 3666.12 1271.03 4233.48 1500.78 3672.58 1500.78 3140.96 1500.78"/><polygon class="cls-11" points="1347.32 1231 2029.48 1500.78 1305.91 1500.78 632.64 1500.78 1347.32 1231"/><polygon class="cls-11" points="3000.35 1500.78 2546.36 1288.38 2029.48 1500.78 2561.18 1500.78 3000.35 1500.78"/></g><g id="Dunes_fond-2" data-name="Dunes fond"><polygon class="cls-11" points="8547.75 1500.78 9072.91 1271.03 9640.27 1500.78 9079.37 1500.78 8547.75 1500.78"/><polygon class="cls-11" points="6102.91 1268.43 6626.92 1500.78 6103.75 1500.78 5621.26 1500.78 6102.91 1268.43"/><polygon class="cls-11" points="6754.11 1231 7436.27 1500.78 6712.7 1500.78 6039.43 1500.78 6754.11 1231"/><polygon class="cls-11" points="8407.14 1500.78 7953.15 1288.38 7436.27 1500.78 7967.97 1500.78 8407.14 1500.78"/><polygon class="cls-12" points="5622.59 1217.34 5621.26 1217.94 5621.26 1216.74 5622.59 1217.34"/></g></g><g id="d2"><g id="Dunes_2" data-name="Dunes 2"><path class="cls-13" d="M1052.24,1120.89,2127.8,2029.83H1249.09s-544-469.92-456.19-587.15c69.28-92.5,180.07-236.94,228.21-294.79C1034,1132.42,1052.24,1120.89,1052.24,1120.89Z"/><path class="cls-14" d="M577.2,1431.37l475-310.48s-45.51,27.33-12,52.06,10.6,35.32-14.13,38-58.29,9.72-5.3,30.91,58.29,40.63,6.18,63.59-197.82,74.18-121.87,141.3,773.42,584.91,773.42,584.91H214.47l-.16-218.84Z"/><path class="cls-15" d="M3373.81,1171.29l1018.06,860.34H3539.62s-512.95-421.32-425.15-538.55c69.28-92.5,180.07-236.94,228.22-294.79C3355.56,1182.82,3373.81,1171.29,3373.81,1171.29Z"/><path class="cls-14" d="M2986,1390l387.85-218.71s-45.51,27.33-11.95,52.06,10.6,35.32-14.13,38-58.29,9.72-5.3,30.91,58.29,40.63,6.18,63.59-197.82,74.18-121.87,141.3,698.12,534.51,698.12,534.51H1678.59L2536,1617.34Z"/><polygon class="cls-14" points="2267.09 1120.89 744.68 2031.63 2585.74 2029.83 2356.74 1267.37 2267.09 1120.89"/><path class="cls-16" d="M2267.09,1120.89s-27.18,55.86,7.07,98.09c0,0,67.17,53.65-8.65,107.3l320.23,703.55h836Z"/><polygon class="cls-14" points="4601.03 1163.83 3153.42 2029.83 4957.86 2031.63 4690.68 1310.31 4601.03 1163.83"/><path class="cls-17" d="M4601,1163.83s-27.18,55.86,7.06,98.1c0,0,171.46,186.84-25.47,767.9l1041.3,1.8v-62.55Z"/></g><g id="Dunes_2-2" data-name="Dunes 2"><path class="cls-18" d="M6454.23,1101.05,7529.79,2010H6651.08s-544-469.92-456.19-587.15c69.28-92.51,180.08-236.94,228.22-294.79C6436,1112.58,6454.23,1101.05,6454.23,1101.05Z"/><path class="cls-14" d="M7080.59,2011.79S6383.11,1494,6307.16,1426.88s69.77-118.34,121.88-141.3,46.8-42.39-6.19-63.59-19.43-28.26,5.3-30.91,47.69-13.25,14.13-38,11.95-52.06,11.95-52.06L4716.14,2029.83"/><path class="cls-19" d="M8775.81,1151.45l1018.05,860.34H8941.61s-513-421.32-425.14-538.55c69.28-92.51,180.07-236.94,228.21-294.79C8757.55,1163,8775.81,1151.45,8775.81,1151.45Z"/><path class="cls-14" d="M8388,1370.16l387.85-218.71s-45.51,27.33-11.95,52.06,10.59,35.32-14.13,38-58.29,9.72-5.3,30.91,58.28,40.62,6.18,63.59-197.82,74.18-121.87,141.3,698.11,534.51,698.11,534.51H7080.59L7938,1597.5Z"/><polygon class="cls-14" points="7669.09 1101.05 6146.67 2011.79 7987.73 2009.99 7758.73 1247.53 7669.09 1101.05"/><path class="cls-20" d="M7669.09,1101.05s-27.19,55.85,7.06,98.09c0,0,67.18,53.65-8.65,107.3L7987.73,2010h836Z"/><polygon class="cls-14" points="10018.39 1143.99 8570.77 2009.99 10375.22 2011.79 10108.03 1290.47 10018.39 1143.99"/><path class="cls-21" d="M10018.39,1144s-27.18,55.86,7.06,98.09c0,0,171.45,186.85-25.48,767.91l1041.3,1.8v-62.56Z"/></g></g><g id="d3"><g id="Dunes_1" data-name="Dunes 1"><polygon class="cls-14" points="4211.13 1068.9 3140.08 1671.47 3421.7 2027.27 4807.93 2039.56 4211.13 1068.9"/><path class="cls-14" d="M2826.6,1203.94s1061,869.88-240.86,823.33H1133.93"/><path class="cls-22" d="M2826.6,1203.94s131.32,107.93-23.39,169.1c0,0-91.75,7.19,19.79,113.33,0,0,115.13,77.36-30.59,196.09s-439.91,317.54-474,344.81l2018.43,1.8Z"/><path class="cls-14" d="M5161.6,1239.91s1021.58,705.24-280.24,658.69l-434.83-57.9,263.6-388.46Z"/><path class="cls-23" d="M5161.6,1239.91s131.32,107.94-23.39,169.11c0,0-91.75,7.19,19.79,113.33,0,0,115.13,77.36-30.58,196.09s-402.65,292.81-436.74,320.08l933.59-11.25,959.45-10.36Z"/><polygon class="cls-14" points="1901.28 1017.64 830.23 1620.22 1133.93 2027.27 2400.61 2027.27 1901.28 1017.64"/><path class="cls-24" d="M1901.28,1017.64s-101.3,46.77-39.1,100.69c0,0,78.19,34.37-8.89,84.13s-268.34,188.37-161.71,271.9,650,503.08,843.66,554.63l628.17-1.72Z"/><polyline class="cls-25" points="808.44 2027.27 1842.98 2027.27 778.39 1163.72 371.52 1726.34 808.44 2027.27 808.44 2027.27"/><path class="cls-14" d="M214.31,1810.23l564.08-646.51s73.65,105.67-44.83,204.94-269,188.93-204.94,259.38c0,0,283.25,344.79,456,399.23H494.86Z"/><path class="cls-26" d="M4211.12,1068.9s-101.29,46.77-39.09,100.69c0,0,78.19,34.37-8.89,84.13s-268.34,188.37-161.71,271.89,665,450.11,858.67,501.66l601.91,1.8Z"/></g><g id="Dunes_1-2" data-name="Dunes 1"><polygon class="cls-14" points="9617.21 1065.83 8546.16 1668.4 8827.79 2024.2 10228.5 2036.62 9617.21 1065.83"/><path class="cls-14" d="M8232.68,1200.87s1061,869.88-240.86,823.33H6540"/><path class="cls-27" d="M8232.68,1200.87S8364,1308.8,8209.29,1370c0,0-91.74,7.19,19.79,113.33,0,0,115.13,77.36-30.58,196.09s-439.92,317.54-474,344.81l2018.43,1.8Z"/><path class="cls-28" d="M9617.21,1065.83s-101.3,46.77-39.1,100.69c0,0,78.19,34.37-8.88,84.13S9300.88,1439,9407.51,1522.54s665,450.12,858.68,501.66l601.9,1.8Z"/><polygon class="cls-14" points="7307.36 1014.57 6236.31 1617.15 6540.02 2024.2 8569.5 2024.2 7307.36 1014.57"/><path class="cls-29" d="M7307.36,1014.57s-101.29,46.77-39.1,100.69c0,0,78.2,34.37-8.88,84.13s-268.34,188.37-161.72,271.9,629.63,474.3,823.34,525.84l648.5,27.07Z"/><path class="cls-30" d="M5901.78,1160.65,6966.37,2024.2H5931.83S5270.94,1705,5901.78,1160.65Z"/><path class="cls-14" d="M4690.68,2038.52l1211.1-877.87s73.65,105.67-44.83,204.94S5588,1554.52,5652,1625c0,0,283.25,344.79,456,399.23H5618.25Z"/></g></g><path id="sable" class="cls-31" d="M11047.3,1810.29v928.28H0V1810.29S5634.92,1758.24,11047.3,1810.29Z"/></g></g></svg>