<svg xmlns="http://www.w3.org/2000/svg" viewBox="0 0 2488.89 2739.64"><defs><style>.cls-1,.cls-2{fill:none;}.cls-1{stroke:#fff;stroke-miterlimit:10;stroke-width:4px;}</style></defs><g id="Calque_2" data-name="Calque 2"><g id="Calque_2-2" data-name="Calque 2"><path class="cls-1" d="M1938.25,2188.22s90.06,11.1,117.2-85.13l11.11-45.65s27.14,7.4,19.74-30.84c0,0,11.1-1.23,12.33-17.27l16-14.81s39.48,8.64,45.65-16c0,0,13.57-13.57-25.91-38.24l-28.37,4.93s-27.15,6.17-39.48-4.93l-11.11,6.17-13.52-12.38-7.4,14.8,3.7,12.34s-24.67,28.38-14.81,56.75c0,0-18.5,90.07-61.68,81.43l-29.61-24.68L1913.58,2050l-17.27-7.4s2.47-21-24.68-29.61c0,0-1.23-39.48-22.2-39.48,0,0-14.81,23.44-9.87,32.08l-28.38,4.93-27.14,3.7-32.08-4.93s-3.7-22.21-19.74-12.34l3.7-8.64L1690.27,1976s-6.16-58-34.54-58l2.47-12.34s18.5-16,4.93-28.37v-9.87s0-27.15-35.78-7.41c0,0-13.57,11.11-4.93,19.74l-12.34,7.41,21,25.9s-33.32,0-24.68,28.38c0,0-22.21,42-7.4,59.22l-13.57,53h-22.24l-18.51-4.93s-4.93-12.34-13.57-11.11l1.24,6.17H1520l-7.4-7.4-6.17,14.8-22.21,22.21s-16,13.57-9.87,33.31c0,0-24.67,50.59-65.39,38.25,0,0-27.14-1.24-42-23.44,0,0-11.1-23.44-23.44-23.44l-24.69-18.5s-13.57-19.74-22.21-17.27v-11.11h-6.17s4.94-37-22.2-46.88c0,0-14.81,3.7,3.7,44.42l-23.44,2.46s-25.91-13.57-34.55-8.63c0,0,2.47-48.12-21-43.18,0,0-18.51,14.8,1.23,43.18,0,0-53,13.57-54.28,21l-12.34,1.23s-4.94-55.51-34.55-44.41c0,0-9.87,22.21,9.87,50.58l-11.1,2.47-8.64,17.27-22.2,17.28-3.7,7.4-35.78,30.84-13.57,9.87,1.23,12.34L1024,2171l-6.16,11.1,2.46,6.17-16,21-11.1,8.64-12.3,6.11H968.53l-8.64,8.63-3.7,13.57L947.55,2261l-4.93,6.17,13.57-4.94,13.57-11.1,7.4-11.1s21-2.47,34.55-27.15l9.87-2.46L996.89,2261l13.57,7.4s-4.93,21-39.48,49.35c0,0-6.17,2.47,0,28.38l-9.87,69.09s-9.87,12.33-6.17,16h-14.8s-13.57,25.9,4.94,35.77c0,0,9.86,6.17,17.27-11.1l-1.24-9.87,12.34-13.57s6.17-74,16-82.66l6.17-16s34.54-42,50.58-42l7.4-4.93s-2.46,43.18-16,74c0,0,33.31,77.73,32.07,97.47l4.94,1.23,2.47,11.11,7.4,12.33,29.61,3.7s12.34,0,12.34-7.4l-12.34-19.74-21-6.17s-18.5-4.93-24.67-65.38v-40.72s13.57-19.74,13.57-54.28c0,0,17.62-2.14,25.91-45.65,0,0,6.17,0,8.64-12.34l29.6,1.24,18.51,6.16v7.41s8.64,3.7,14.81-3.71l48.11,3.71s0,19.74,12.34,16l12.34-12.33s-14.81,76.49-23.44,80.19c0,0-4.94,66.62-17.28,88.83s0,23.44,0,23.44l-4.93,14.81,3.7,14.8,28.38,1.23s18.5,2.47,7.4-17.27c0,0,2.47-3.7-12.34-8.63l-6.17-6.17s1.24-16-1.23-19.74l13.57-53.05s18.51-13.57,13.57-37l40.71-86.36,19.74-4.93,1.24,9.87,9.87,8.63,14.8,62.92s-3.7,37,11.11,46.89c0,0,17.27,43.18,17.27,59.22l11.1,13.57-6.17,16,6.17,12.33,28.38,2.47s22.21-9.87,9.87-24.67l-21-7.41s-27.14-49.35-29.61-71.55c0,0,4.94-33.31-3.7-41.95l-2.46-56.75s4.93-34.55-1.24-38.25c0,0,16-4.93,16-18.5,0,0,79,22.2,133.24-70.33l7.41-1.23-2.47,8.63s25.91-17.27,24.67-40.71h16s4.94,8.64,8.64-1.23l6.17-2.47s-13.57,33.31-4.94,50.58l-7.4,30.85h6.17v21s-8.64,59.22-18.51,65.39l-32.07,44.41h-6.17s13.57,96.23,7.4,120.91l7.4,12.34,7.4,16,22.21,7.4,30.85-2.47s-6.17-18.51-19.74-19.74c0,0-6.17-9.87-13.58-6.17l-17.27-18.5-2.47-62.92s3.71,6.16,16-44.42c0,0,23.44-22.21,32.08-45.65,0,0,34.55-17.27,35.78-27.14,0,0,22.21,64.15,13.57,95,0,0,55.52,58,61.69,90.06,0,0,2.46,11.1,13.57,9.87,0,0-7.4,17.27-1.24,22.21,0,0,11.11,9.87,22.21,9.87s28.38-2.47,28.38-2.47-26.69-26.56-39.48-43.18c-12.34-16-44.42-66.62-44.42-66.62l-7.4-34.55s0-49.35-2.47-51.81v-22.21s11.11-35.78-1.23-41.95l13.57-3.7s29.61,32.08,46.88,27.14l-2.46,9.87h7.4l2.47-7.4s56.75,12.34,81.42,1.23c0,0,14.81,6.17,35.78,3.7,0,0,11.1,9.87,11.1,17.28l-6.16,55.52-6.17,22.2,4.93,49.35-7.4,7.41s-1.23,0-13.57-8.64-32.08,38.24-32.08,38.24,12.34,12.34,19.74,1.24l9.87-11.11,24.68-1.23v28.44l6.16,12.33,3.71,16,16,11.11,44.42-1.24s-4.94-22.2-16-25.91l-18.51-2.46-13.43-11.05s-12.33-38.24-6.17-40.71l28.38-24.67,13.57-13.58s43.18-8.63,21-46.88l-32.07-62.94,9.87-28.37,12.34-3.71S1937,2211.66,1938.25,2188.22Z"/><path class="cls-1" d="M313.41,2458.44l42.74,2.37s-4.75-19-26.12-19L318.15,2411l2.38-95s40.37-95,57-90.23c0,0,14.25,76,7.12,106.85L444,2420.43l16.62,23.75,35.62,2.37s-14.25-14.24-23.75-14.24l-45.11-64.12s-4.75-54.61-9.5-64.11l2.37-64.11s19-49.87,9.5-61.74c0,0,40.37-23.75,85.49,9.49,0,0,97.35,16.63,128.22,4.75,0,0,30.87,4.75,26.12,21.37,0,0-14.24,47.5-7.12,64.12l-16.59,30.86s-4.75,35.62,4.75,35.62l-2.38,80.73,2.38,16.62s9.5,7.13,19,7.13H691s-9.49-23.75-16.62-23.75l-4.8-40.35,2.38-54.61,9.5-21.37,4.75-23.75,14.24-40.37H710l26.12,40.37s2.38,38-11.87,73.61l-16.62,35.62s4.75,21.37,19,23.75,11.88-28.5,11.88-28.5v-26.12l33.24-68.86s28.5-16.62-47.49-71.24L719.47,2202s16.62-4.75,16.62-30.87c0,0,21.37-2.37,21.37-21.37,0,0,111.61,45.12,130.61-47.49l33.24,2.37,16.58-23.74,4.75-42.74s33.24,0,26.12-33.25c0,0,57-16.62,42.74-42.74,0,0-2.37-42.74-64.11-21.37,0,0-40.37-30.87-61.74-2.38l-2.37,23.75s-47.5,21.37-30.87,59.36c0,0-9.5,0-16.63,30.87,0,0-54.61,26.12-78.36-11.87,0,0-23.74-30.87-28.49-30.87l-4.75-33.24-26.12-33.25-21.34-2.33-11.83-16.66V1917l16.63-4.75s-2.38-23.74-28.5-19l-19-16.63v-19l-33.24-64.12-7.12-14.24s26.12-33.25,11.87-57c0,0-54.62-23.75-54.62,30.87l-9.49,21.37L520,1803l-7.15,109.26s-90.23-9.5-102.11,80.74l-33.26,4.8,4.75,40.37s-49.87,28.49-49.87,45.11c0,0-28.49,35.62-11.87,149.6l-35.64,37.92s-9.5,21.38,11.87,80.74l2.38,66.49Z"/><rect class="cls-2" width="2488.89" height="2739.64"/></g></g></svg>