<svg xmlns="http://www.w3.org/2000/svg" viewBox="0 0 10383.75 2738.57"><defs><style>.cls-1{fill:none;}.cls-2{fill:#ebdecf;}.cls-3{fill:#d4b296;}.cls-4{fill:#b7aea3;}.cls-5{fill:#b7684f;}.cls-6{fill:#1d1d1b;}.cls-7{fill:#8d513c;}</style></defs><g id="Calque_2" data-name="Calque 2"><g id="Calque_1-2" data-name="Calque 1"><rect id="Fond" class="cls-1" width="5524" height="2738.57"/><rect id="Ciel" class="cls-2" width="5524" height="2738.57"/><rect id="Sol" class="cls-3" y="1463.31" width="5524" height="1275.26"/><g id="Trottoir"><rect class="cls-2" y="1209" width="5524" height="254.31"/><rect class="cls-4" y="1421.33" width="5524" height="83.97"/></g><g id="Batiment"><rect class="cls-5" y="354.79" width="1253.09" height="898.59"/><rect class="cls-5" x="1253.09" y="461.58" width="800.97" height="791.81"/><rect class="cls-5" x="2131.33" y="661.42" width="630.67" height="630.67"/><polygon class="cls-5" points="2054.06 1253.38 2131.33 1292.09 2131.33 661.42 2054.06 622.71 2054.06 1253.38"/><rect class="cls-5" x="2762" y="395.91" width="730.76" height="896.18"/><rect class="cls-5" x="2362.25" y="214.02" width="804.98" height="447.41"/><rect class="cls-5" x="3492.76" y="547.83" width="2031.24" height="744.27"/><rect class="cls-5" x="3974.37" y="395.91" width="722.41" height="151.92"/><rect class="cls-5" x="1162.29" width="356.2" height="461.58"/><rect class="cls-6" x="654.53" y="573.55" width="129.49" height="129.49"/><rect class="cls-6" x="267.37" y="573.55" width="129.49" height="129.49"/><rect class="cls-6" x="936.64" y="573.55" width="129.49" height="129.49"/><rect class="cls-6" x="1253.09" y="50.98" width="129.49" height="129.49"/><path class="cls-6" d="M949.14,985.47v267.92H748.4V985.47a100.37,100.37,0,0,1,200.74,0Z"/><path class="cls-6" d="M2513.4,1092.32v199.77H2363.72V1092.32a74.84,74.84,0,1,1,149.68-.13Z"/><rect class="cls-6" x="1431.48" y="661.42" width="129.49" height="129.49"/><rect class="cls-6" x="1713.59" y="661.42" width="129.49" height="129.49"/><rect class="cls-6" x="2232.76" y="820.35" width="129.49" height="129.49"/><rect class="cls-6" x="2514.87" y="820.35" width="129.49" height="129.49"/><rect class="cls-6" x="4137.06" y="885.1" width="129.49" height="129.49"/><rect class="cls-6" x="4419.16" y="885.1" width="129.49" height="129.49"/><polyline class="cls-7" points="1976.79 422.87 1518.5 422.87 1518.5 461.58 2054.06 461.58 1976.79 422.87"/><polygon class="cls-7" points="1162.29 0 1162.29 354.79 0 354.79 0 316.09 1085.02 316.09 1085.02 0 1162.29 0"/><line class="cls-1" x1="1085.02" y1="316.09" x2="1162.29" y2="354.79"/><polygon class="cls-7" points="2054.06 622.71 2284.98 622.71 2284.98 175.31 3089.96 175.31 3167.23 214.01 2362.25 214.01 2362.25 661.42 2131.33 661.42 2054.06 622.71"/><polygon class="cls-7" points="3492.76 509.12 3492.76 547.83 3974.37 547.83 3974.37 395.91 4696.78 395.91 4619.52 357.2 3897.1 357.2 3897.1 509.12 3492.76 509.12"/><polygon class="cls-7" points="3492.76 395.91 3415.49 357.2 3167.23 357.2 3167.23 395.91 3492.76 395.91"/><polygon class="cls-7" points="5524 547.83 4696.78 547.83 4696.78 509.12 5446.63 509.07 5446.63 316.09 5524 316.09 5524 547.83"/><line class="cls-1" x1="3897.1" y1="509.12" x2="3974.37" y2="547.83"/><line class="cls-1" x1="2284.98" y1="622.71" x2="2362.25" y2="661.42"/><line class="cls-1" x1="5446.63" y1="509.07" x2="5523.9" y2="547.77"/><line class="cls-1" x1="5446.63" y1="318.89" x2="5523.9" y2="357.59"/></g><rect id="Fond-2" data-name="Fond" class="cls-1" x="4859.75" width="5524" height="2738.57"/><rect id="Ciel-2" data-name="Ciel" class="cls-2" x="4859.75" width="5524" height="2738.57"/><rect id="Sol-2" data-name="Sol" class="cls-3" x="4859.75" y="1463.31" width="5524" height="1275.26"/><g id="Trottoir-2" data-name="Trottoir"><rect class="cls-2" x="4859.75" y="1209" width="5524" height="254.31"/><rect class="cls-4" x="4859.75" y="1421.33" width="5524" height="83.97"/></g><g id="Batiment-2" data-name="Batiment"><rect class="cls-5" x="4859.75" y="354.79" width="1253.09" height="898.59"/><rect class="cls-5" x="6112.84" y="461.58" width="800.97" height="791.81"/><rect class="cls-5" x="6991.08" y="661.42" width="630.67" height="630.67"/><polygon class="cls-5" points="6913.81 1253.38 6991.08 1292.09 6991.08 661.42 6913.81 622.71 6913.81 1253.38"/><rect class="cls-5" x="7621.75" y="395.91" width="730.76" height="896.18"/><rect class="cls-5" x="7222" y="214.02" width="804.98" height="447.41"/><rect class="cls-5" x="8352.51" y="547.83" width="2031.24" height="744.27"/><rect class="cls-5" x="8834.12" y="395.91" width="722.41" height="151.92"/><rect class="cls-5" x="6022.04" width="356.2" height="461.58"/><rect class="cls-6" x="5514.28" y="573.55" width="129.49" height="129.49"/><rect class="cls-6" x="5127.12" y="573.55" width="129.49" height="129.49"/><rect class="cls-6" x="5796.39" y="573.55" width="129.49" height="129.49"/><rect class="cls-6" x="6112.84" y="50.98" width="129.49" height="129.49"/><path class="cls-6" d="M5808.89,985.47v267.92H5608.15V985.47a100.37,100.37,0,0,1,200.74,0Z"/><path class="cls-6" d="M7373.15,1092.32v199.77H7223.47V1092.32a74.84,74.84,0,1,1,149.68-.13Z"/><rect class="cls-6" x="6291.23" y="661.42" width="129.49" height="129.49"/><rect class="cls-6" x="6573.34" y="661.42" width="129.49" height="129.49"/><rect class="cls-6" x="7092.51" y="820.35" width="129.49" height="129.49"/><rect class="cls-6" x="7374.62" y="820.35" width="129.49" height="129.49"/><rect class="cls-6" x="8996.81" y="885.1" width="129.49" height="129.49"/><rect class="cls-6" x="9278.91" y="885.1" width="129.49" height="129.49"/><polyline class="cls-7" points="6836.54 422.87 6378.25 422.87 6378.25 461.58 6913.81 461.58 6836.54 422.87"/><polygon class="cls-7" points="6022.04 0 6022.04 354.79 4859.75 354.79 4859.75 316.09 5944.77 316.09 5944.77 0 6022.04 0"/><line class="cls-1" x1="5944.77" y1="316.09" x2="6022.04" y2="354.79"/><polygon class="cls-7" points="6913.81 622.71 7144.73 622.71 7144.73 175.31 7949.71 175.31 8026.98 214.01 7222 214.01 7222 661.42 6991.08 661.42 6913.81 622.71"/><polygon class="cls-7" points="8352.51 509.12 8352.51 547.83 8834.12 547.83 8834.12 395.91 9556.53 395.91 9479.27 357.2 8756.85 357.2 8756.85 509.12 8352.51 509.12"/><polygon class="cls-7" points="8352.51 395.91 8275.24 357.2 8026.98 357.2 8026.98 395.91 8352.51 395.91"/><polygon class="cls-7" points="10383.75 547.83 9556.53 547.83 9556.53 509.12 10306.38 509.07 10306.38 316.09 10383.75 316.09 10383.75 547.83"/><line class="cls-1" x1="8756.85" y1="509.12" x2="8834.12" y2="547.83"/><line class="cls-1" x1="7144.73" y1="622.71" x2="7222" y2="661.42"/><line class="cls-1" x1="10306.38" y1="509.07" x2="10383.65" y2="547.77"/><line class="cls-1" x1="10306.38" y1="318.89" x2="10383.65" y2="357.59"/></g></g></g></svg>