<svg xmlns="http://www.w3.org/2000/svg" viewBox="0 0 2488.89 2739.64"><defs><style>.cls-1,.cls-2{fill:none;}.cls-1{stroke:#fff;stroke-miterlimit:10;stroke-width:4px;}</style></defs><g id="Calque_2" data-name="Calque 2"><g id="Calque_1-2" data-name="Calque 1"><path class="cls-1" d="M661.79,1507l548.66-321.23s548.68,389,667.09,413.17l60,518.72L1614,2078.46l-51.7-450.87s-13.34-78.41-56.7-58.81L1457.28,1605s-245.15,64.84-266.83,49.76l-43.36,7.54,15,168.89v30.16l-15-39.21s-10,51.27,11.68,84.44c0,0-8.34,31.67-38.36,48.26,0,0,6.67,173.41,43.36,188.49,0,0-10,39.2-98.4,19.6,0,0-73.37,13.57-73.37,43.73,0,0-61.71,39.21-125.08,15.08l-51.7,18.09-55-12.06-158.47,107s-3.33-182.46,21.68-187l33.36-268.41S690.14,1528.06,661.79,1507Z"/><path class="cls-1" d="M623.45,2147.82l-48.36-86-16.68-28.65-35,10.55-55-39.2,95-455.34L661.79,1507s359.62-104,540.87-314.37"/><path class="cls-1" d="M1120.45,1954.81l-45,28.65-1.67-18.1-20,4.53-18.34-161.35,20-40.72s31.68-135.71,63.37-129.68l383.57-76.9,24.55,4.82"/><path class="cls-1" d="M1570.69,1620.05s103.4-31.67,306.86-21.11l375.23,612.21"/><path class="cls-1" d="M1022.55,1344.58s47.83,198.56,21.14,221.18-33.35,67.86-33.35,67.86,35,42.22,16.68,95l10,441.82"/><path class="cls-1" d="M1210.45,1185.77l120.08,309.12s33.35,87.46,5,104"/><polyline class="cls-1" points="1546.07 1416.24 1649.07 1603.46 1694.97 2091.55"/><polyline class="cls-1" points="376.61 2369.49 661.79 1506.95 1027.02 1576.32 1123.74 1594.41 1118.74 1638.14"/><path class="cls-1" d="M304.45,1976.86s-34.34-2.53-33.54,34.29l-14,88.82s0,28.16,27.55,32.85l2,22s-19.16,15.52-2,26.36c0,0,20,25.27,85.44,12.63,0,0,48.31-11.19,26-36.82l-2.79-26.36s30.74-7.94,26.75-36.82l-12-95.67s-6.78-25.27-32.74-22c0,0-4.44-5.46-5.19-11.56l-1.59-8.66s27.54-10.11-15.58-18.77c0,0-50.7-.37-49.91,10.83,0,0,.8,5.41,11.18,8.66l-1.19,5.42S302.1,1962.78,304.45,1976.86Z"/><path class="cls-1" d="M305.29,2121.27s-42.72-6.86-25.15-34.3l13.17-79.79s.8-15.52,12.78-11.55c0,0-22,10.47,6.79,18l-4.8,6.14-2.79,6.14s-7.19,1.8-4.39,7.94c0,0-29.55,46.21,2,72.56,0,0-1.19,8,4,8.67S305.29,2121.27,305.29,2121.27Z"/><path class="cls-1" d="M379.55,2117.29s25.56-1.08,19.57-32.13l-12-79.42s-2.39-14.08-12-10.83l7.59,9.39s-5.19,9.38-16.37,10.83l11.18,12.63,1.2,7.58s27.55,43.69-5.19,72.57-2.8,0-2.8,0Z"/><path class="cls-1" d="M326.87,1937.94s-9.6-23.54,12-29.68c0,0,22.76,4,14,28.89"/><path class="cls-1" d="M272.55,1997.07s-6.39-2.52,2.4-48.37l2.79-50.54s-1.6-37.91,49.11-35.75c0,0,4.79-14.8,14-14.8,0,0,16.37,1.09,16.37,14.08,0,0,49.11-4,49.9,35.74l2.4,89.54s2,12.27-1.6,11.19"/><path class="cls-1" d="M305.29,2121.27s44.32,10.1,74.26-4"/><path class="cls-1" d="M299.3,2041.48s31.94,23.83,81,0"/><rect class="cls-2" width="2488.89" height="2739.64"/></g></g></svg>