<svg xmlns="http://www.w3.org/2000/svg" viewBox="0 0 5524 2738.57"><defs><style>.cls-1{fill:#ebdecf;}.cls-2{fill:#d4b296;}.cls-3{fill:#b7aea3;}.cls-4{fill:#b7684f;}.cls-5{fill:#1d1d1b;}.cls-6{fill:#8d513c;}.cls-7{fill:#85361d;}</style></defs><g id="Calque_2" data-name="Calque 2"><g id="Calque_1-2" data-name="Calque 1"><rect class="cls-1" width="5524" height="726.17"/><rect class="cls-1" y="1209" width="5524" height="254.31"/><rect class="cls-2" y="1463.31" width="5524" height="1275.26"/><rect class="cls-3" y="1421.33" width="5524" height="83.97"/><rect class="cls-4" y="354.79" width="1253.09" height="898.59"/><rect class="cls-4" x="1253.09" y="461.58" width="800.97" height="791.81"/><rect class="cls-4" x="2131.33" y="661.42" width="630.67" height="630.67"/><polygon class="cls-4" points="2054.06 1253.38 2131.33 1292.09 2131.33 661.42 2054.06 622.71 2054.06 1253.38"/><rect class="cls-4" x="2762" y="395.91" width="730.76" height="896.18"/><rect class="cls-4" x="2362.25" y="214.02" width="804.98" height="447.41"/><rect class="cls-4" x="3492.76" y="547.83" width="2031.24" height="744.27"/><rect class="cls-4" x="3974.37" y="395.91" width="722.41" height="151.92"/><rect class="cls-4" x="1162.29" width="356.2" height="461.58"/><rect class="cls-5" x="654.53" y="573.55" width="129.49" height="129.49"/><rect class="cls-5" x="267.37" y="573.55" width="129.49" height="129.49"/><rect class="cls-5" x="936.64" y="573.55" width="129.49" height="129.49"/><rect class="cls-5" x="1253.09" y="50.98" width="129.49" height="129.49"/><path class="cls-5" d="M949.14,985.47v267.92H748.4V985.47a100.37,100.37,0,0,1,200.74,0Z"/><path class="cls-5" d="M2513.4,1092.32v199.77H2363.72V1092.32a74.84,74.84,0,1,1,149.68,0Z"/><rect class="cls-5" x="1431.48" y="661.42" width="129.49" height="129.49"/><rect class="cls-5" x="1713.59" y="661.42" width="129.49" height="129.49"/><rect class="cls-5" x="2232.76" y="820.35" width="129.49" height="129.49"/><rect class="cls-5" x="2514.87" y="820.35" width="129.49" height="129.49"/><rect class="cls-5" x="4137.06" y="885.1" width="129.49" height="129.49"/><rect class="cls-5" x="4419.16" y="885.1" width="129.49" height="129.49"/><polyline class="cls-6" points="1976.79 422.87 1518.5 422.87 1518.5 461.58 2054.06 461.58 1976.79 422.87"/><polygon class="cls-6" points="1162.29 0 1162.29 354.79 0 354.79 0 316.09 1085.02 316.09 1085.02 0 1162.29 0"/><line class="cls-7" x1="1085.02" y1="316.09" x2="1162.29" y2="354.79"/><polygon class="cls-6" points="2054.06 622.71 2284.98 622.71 2284.98 175.31 3089.96 175.31 3167.23 214.01 2362.25 214.01 2362.25 661.42 2131.33 661.42 2054.06 622.71"/><polygon class="cls-6" points="3492.76 509.12 3492.76 547.83 3974.37 547.83 3974.37 395.91 4696.78 395.91 4619.52 357.2 3897.1 357.2 3897.1 509.12 3492.76 509.12"/><polygon class="cls-6" points="3492.76 395.91 3415.49 357.2 3167.23 357.2 3167.23 395.91 3492.76 395.91"/><rect class="cls-6" x="4696.78" y="509.12" width="827.22" height="38.71"/><line class="cls-7" x1="3897.1" y1="509.12" x2="3974.37" y2="547.83"/><line class="cls-7" x1="2284.98" y1="622.71" x2="2362.25" y2="661.42"/></g></g></svg>