<svg xmlns="http://www.w3.org/2000/svg" xmlns:xlink="http://www.w3.org/1999/xlink" viewBox="0 0 11048.01 2739"><defs><style>.cls-1{fill:none;}.cls-2{fill:url(#Dégradé_sans_nom_38);}.cls-3{fill:#956327;}.cls-4{fill:url(#Dégradé_sans_nom_7);}.cls-5{fill:#3e2316;}.cls-6{fill:url(#Dégradé_sans_nom_7-2);}.cls-7{fill:url(#Dégradé_sans_nom_7-3);}.cls-8{fill:url(#Dégradé_sans_nom_7-4);}.cls-9{fill:url(#Dégradé_sans_nom_7-5);}.cls-10{fill:url(#Dégradé_sans_nom_7-6);}.cls-11{fill:url(#Dégradé_sans_nom_7-7);}.cls-12{fill:url(#Dégradé_sans_nom_7-8);}.cls-13{fill:url(#Dégradé_sans_nom_7-9);}.cls-14{fill:url(#Dégradé_sans_nom_7-10);}.cls-15{fill:url(#Dégradé_sans_nom_7-11);}.cls-16{fill:url(#Dégradé_sans_nom_7-12);}.cls-17{fill:url(#Dégradé_sans_nom_7-13);}.cls-18{fill:url(#Dégradé_sans_nom_7-14);}.cls-19{fill:url(#Dégradé_sans_nom_7-15);}.cls-20{fill:url(#Dégradé_sans_nom_7-16);}.cls-21{fill:url(#Dégradé_sans_nom_7-17);}.cls-22{fill:url(#Dégradé_sans_nom_8);}</style><linearGradient id="Dégradé_sans_nom_38" x1="5518.53" y1="-32.36" x2="5530.65" y2="3069.99" gradientUnits="userSpaceOnUse"><stop offset="0" stop-color="#faea29"/><stop offset="0.14" stop-color="#fac61e"/><stop offset="0.15" stop-color="#fac41d"/><stop offset="0.22" stop-color="#fab91a"/><stop offset="0.3" stop-color="#fab519"/><stop offset="0.47" stop-color="#ee770f"/><stop offset="0.6" stop-color="#e46f11"/><stop offset="0.78" stop-color="#ce5f16"/></linearGradient><linearGradient id="Dégradé_sans_nom_7" x1="1856.78" y1="2178.22" x2="795.7" y2="1244.41" gradientUnits="userSpaceOnUse"><stop offset="0" stop-color="#82491b"/><stop offset="0.13" stop-color="#aa6c31"/><stop offset="0.49" stop-color="#c07d31"/><stop offset="0.78" stop-color="#d6924d"/><stop offset="1" stop-color="#d6924d"/></linearGradient><linearGradient id="Dégradé_sans_nom_7-2" x1="4130.44" y1="2177.63" x2="3125.87" y2="1293.55" xlink:href="#Dégradé_sans_nom_7"/><linearGradient id="Dégradé_sans_nom_7-3" x1="3253.61" y1="2249.96" x2="2139.41" y2="1269.4" xlink:href="#Dégradé_sans_nom_7"/><linearGradient id="Dégradé_sans_nom_7-4" x1="5425.74" y1="2283.46" x2="4407.28" y2="1387.15" xlink:href="#Dégradé_sans_nom_7"/><linearGradient id="Dégradé_sans_nom_7-5" x1="7258.78" y1="2158.38" x2="6197.7" y2="1224.57" xlink:href="#Dégradé_sans_nom_7"/><linearGradient id="Dégradé_sans_nom_7-6" x1="9532.44" y1="2157.79" x2="8527.86" y2="1273.71" xlink:href="#Dégradé_sans_nom_7"/><linearGradient id="Dégradé_sans_nom_7-7" x1="8655.6" y1="2230.12" x2="7541.41" y2="1249.56" xlink:href="#Dégradé_sans_nom_7"/><linearGradient id="Dégradé_sans_nom_7-8" x1="10921.15" y1="2183.82" x2="10006.55" y2="1378.92" xlink:href="#Dégradé_sans_nom_7"/><linearGradient id="Dégradé_sans_nom_7-9" x1="3913.21" y1="2543.74" x2="2638.33" y2="1421.76" xlink:href="#Dégradé_sans_nom_7"/><linearGradient id="Dégradé_sans_nom_7-10" x1="6180.69" y1="2506.23" x2="4980.19" y2="1449.73" xlink:href="#Dégradé_sans_nom_7"/><linearGradient id="Dégradé_sans_nom_7-11" x1="2935.09" y1="2333.84" x2="1856.1" y2="1098.12" xlink:href="#Dégradé_sans_nom_7"/><linearGradient id="Dégradé_sans_nom_7-12" x1="1366.01" y1="2198.63" x2="259.96" y2="1367.44" xlink:href="#Dégradé_sans_nom_7"/><linearGradient id="Dégradé_sans_nom_7-13" x1="5174.58" y1="2661.12" x2="4507.96" y2="1346.49" xlink:href="#Dégradé_sans_nom_7"/><linearGradient id="Dégradé_sans_nom_7-14" x1="9319.29" y1="2540.67" x2="8044.41" y2="1418.7" xlink:href="#Dégradé_sans_nom_7"/><linearGradient id="Dégradé_sans_nom_7-15" x1="10580.66" y1="2658.05" x2="9914.04" y2="1343.42" xlink:href="#Dégradé_sans_nom_7"/><linearGradient id="Dégradé_sans_nom_7-16" x1="8341.17" y1="2330.77" x2="7262.18" y2="1095.05" xlink:href="#Dégradé_sans_nom_7"/><linearGradient id="Dégradé_sans_nom_7-17" x1="6702.8" y1="2189.24" x2="5574.09" y2="1341.02" xlink:href="#Dégradé_sans_nom_7"/><linearGradient id="Dégradé_sans_nom_8" y1="2263.08" x2="11047.3" y2="2263.08" gradientUnits="userSpaceOnUse"><stop offset="0" stop-color="#82481b"/><stop offset="0.13" stop-color="#aa6c31"/><stop offset="0.49" stop-color="#c17d33"/><stop offset="0.78" stop-color="#d6924e"/><stop offset="1" stop-color="#f3a669"/></linearGradient></defs><g id="Calque_2" data-name="Calque 2"><g id="Calque_1-2" data-name="Calque 1"><rect id="Fond" class="cls-1" width="11048" height="2739"/><rect id="Ciel" class="cls-2" width="11048" height="2738.57"/><g id="d1"><g id="Dunes_fond" data-name="Dunes fond"><polygon class="cls-3" points="5623.92 1216.95 4996.42 1501 5623.92 1501.29 5623.92 1216.95"/><polygon class="cls-3" points="4470.29 1501 4865.18 1327.24 5249.92 1501 4873.8 1501 4470.29 1501"/><polygon class="cls-3" points="3140.96 1501 3666.12 1271.24 4233.48 1501 3672.58 1501 3140.96 1501"/><polygon class="cls-3" points="1347.32 1231.22 2029.48 1501 1305.91 1501 632.64 1501 1347.32 1231.22"/><polygon class="cls-3" points="3000.35 1501 2546.36 1288.6 2029.48 1501 2561.18 1501 3000.35 1501"/></g><g id="Dunes_fond-2" data-name="Dunes fond"><polygon class="cls-3" points="8547.75 1501 9072.91 1271.24 9640.27 1501 9079.37 1501 8547.75 1501"/><polygon class="cls-3" points="6102.91 1268.64 6626.92 1501 6103.75 1501 5621.26 1501 6102.91 1268.64"/><polygon class="cls-3" points="6754.11 1231.22 7436.27 1501 6712.7 1501 6039.43 1501 6754.11 1231.22"/><polygon class="cls-3" points="8407.14 1501 7953.15 1288.6 7436.27 1501 7967.97 1501 8407.14 1501"/><polygon class="cls-3" points="5621.26 1216.95 6248.76 1501 5621.26 1501 5621.26 1216.95"/></g></g><g id="d2"><g id="Dunes_2" data-name="Dunes 2"><path class="cls-4" d="M1052.24,1121.11,2127.8,2030H1249.09s-544-469.91-456.19-587.15C862.18,1350.39,973,1206,1021.11,1148.1,1034,1132.64,1052.24,1121.11,1052.24,1121.11Z"/><path class="cls-5" d="M577.2,1431.59l475-310.48s-45.51,27.33-12,52.05,10.6,35.33-14.13,38-58.29,9.71-5.3,30.91,58.29,40.62,6.18,63.58-197.82,74.19-121.87,141.31,773.42,584.91,773.42,584.91H214.47L214.31,1813Z"/><path class="cls-6" d="M3373.81,1171.51l1018.06,860.34H3539.62s-512.95-421.32-425.15-538.56c69.28-92.5,180.07-236.94,228.22-294.79C3355.56,1183,3373.81,1171.51,3373.81,1171.51Z"/><path class="cls-5" d="M2986,1390.22l387.85-218.71s-45.51,27.33-11.95,52,10.6,35.33-14.13,38-58.29,9.71-5.3,30.91,58.29,40.62,6.18,63.58-197.82,74.19-121.87,141.31,698.12,534.51,698.12,534.51H1678.59L2536,1617.56Z"/><polygon class="cls-5" points="2267.09 1121.11 744.68 2031.85 2585.74 2030.04 2356.74 1267.58 2267.09 1121.11"/><path class="cls-7" d="M2267.09,1121.11s-27.18,55.85,7.07,98.09c0,0,67.17,53.65-8.65,107.3L2585.74,2030h836Z"/><polygon class="cls-5" points="4601.03 1164.05 3153.42 2030.04 4957.86 2031.85 4690.68 1310.53 4601.03 1164.05"/><path class="cls-8" d="M4601,1164.05s-27.18,55.85,7.06,98.09c0,0,171.46,186.85-25.47,767.9l1041.3,1.81v-62.56Z"/></g><g id="Dunes_2-2" data-name="Dunes 2"><path class="cls-9" d="M6454.23,1101.26,7529.79,2010.2H6651.08s-544-469.92-456.19-587.15c69.28-92.5,180.08-236.94,228.22-294.79C6436,1112.79,6454.23,1101.26,6454.23,1101.26Z"/><path class="cls-5" d="M7080.59,2012s-697.48-517.79-773.43-584.91,69.77-118.34,121.88-141.3,46.8-42.39-6.19-63.58-19.43-28.27,5.3-30.91,47.69-13.25,14.13-38,11.95-52.06,11.95-52.06L4716.14,2030"/><path class="cls-10" d="M8775.81,1151.66,9793.86,2012H8941.61s-513-421.32-425.14-538.55c69.28-92.5,180.07-236.94,228.21-294.79C8757.55,1163.19,8775.81,1151.66,8775.81,1151.66Z"/><path class="cls-5" d="M8388,1370.37l387.85-218.71s-45.51,27.33-11.95,52.06,10.59,35.33-14.13,38-58.29,9.71-5.3,30.91,58.28,40.62,6.18,63.58-197.82,74.18-121.87,141.3S9326.85,2012,9326.85,2012H7080.59L7938,1597.71Z"/><polygon class="cls-5" points="7669.09 1101.26 6146.67 2012 7987.73 2010.2 7758.73 1247.74 7669.09 1101.26"/><path class="cls-11" d="M7669.09,1101.26s-27.19,55.86,7.06,98.09c0,0,67.18,53.65-8.65,107.3l320.23,703.55h836Z"/><polygon class="cls-5" points="10202.48 1153.65 8754.87 2019.64 10559.32 2021.44 10292.13 1300.12 10202.48 1153.65"/><path class="cls-12" d="M10202.48,1153.65s-27.18,55.85,7.07,98.09c0,0,171.45,186.85-25.48,767.9L11048,2016V1811Z"/></g></g><polygon class="cls-5" points="4211.13 1069.11 3140.08 1671.69 3421.7 2027.48 4807.93 2039.78 4211.13 1069.11"/><path class="cls-5" d="M2826.6,1204.15s1061,869.88-240.86,823.33H1133.93"/><path class="cls-13" d="M2826.6,1204.15s131.32,107.94-23.39,169.1c0,0-91.75,7.2,19.79,113.34,0,0,115.13,77.35-30.59,196.08s-439.91,317.54-474,344.81l2018.43,1.81Z"/><path class="cls-5" d="M5161.6,1240.13s1021.58,705.23-280.24,658.68l-434.83-57.89,263.6-388.47Z"/><path class="cls-14" d="M5161.6,1240.13s131.32,107.94-23.39,169.1c0,0-91.75,7.2,19.79,113.33,0,0,115.13,77.36-30.58,196.09s-402.65,292.82-436.74,320.09l933.59-11.26,959.45-10.36Z"/><polygon class="cls-5" points="1901.28 1017.86 830.23 1620.43 1133.93 2027.48 2400.61 2027.48 1901.28 1017.86"/><path class="cls-15" d="M1901.28,1017.86s-101.3,46.76-39.1,100.68c0,0,78.19,34.38-8.89,84.13s-268.34,188.38-161.71,271.9,650,503.09,843.66,554.63l628.17-1.72Z"/><polyline class="cls-16" points="596.98 2027.48 1631.52 2027.48 566.93 1163.93 160.05 1726.56 596.98 2027.48 596.98 2027.48"/><path class="cls-5" d="M0,1810.5l566.93-646.57s73.65,105.68-44.83,205-269,188.93-205,259.38c0,0,283.26,344.79,456,399.22H283.4Z"/><path class="cls-17" d="M4211.12,1069.11s-101.29,46.77-39.09,100.69c0,0,78.19,34.37-8.89,84.13s-268.34,188.37-161.71,271.9,665,450.11,858.67,501.65l601.91,1.81Z"/><g id="Dunes_1" data-name="Dunes 1"><polygon class="cls-5" points="9617.21 1066.05 8546.16 1668.62 8827.79 2024.42 10228.5 2036.84 9617.21 1066.05"/><path class="cls-5" d="M8232.68,1201.08s1061,869.88-240.86,823.34H6540"/><path class="cls-18" d="M8232.68,1201.08S8364,1309,8209.29,1370.18c0,0-91.74,7.2,19.79,113.34,0,0,115.13,77.35-30.58,196.08s-439.92,317.54-474,344.82l2018.43,1.8Z"/><path class="cls-19" d="M9617.21,1066.05s-101.3,46.76-39.1,100.68c0,0,78.19,34.37-8.88,84.13s-268.35,188.38-161.72,271.9,665,450.11,858.68,501.66l601.9,1.8Z"/><polygon class="cls-5" points="7307.36 1014.79 6236.31 1617.36 6540.02 2024.42 8569.5 2024.42 7307.36 1014.79"/><path class="cls-20" d="M7307.36,1014.79s-101.29,46.77-39.1,100.69c0,0,78.2,34.37-8.88,84.13S6991,1388,7097.66,1471.5s629.63,474.3,823.34,525.85l648.5,27.07Z"/><path class="cls-21" d="M5901.78,1160.86l1064.59,863.55H5931.83S5270.94,1705.24,5901.78,1160.86Z"/><path class="cls-5" d="M4690.68,2038.74l1211.1-877.88s73.65,105.68-44.83,205S5588,1554.74,5652,1625.19c0,0,283.25,344.79,456,399.23H5618.25Z"/></g><path id="sable" class="cls-22" d="M11047.3,1810.5v928.29H0V1810.5S5634.92,1758.46,11047.3,1810.5Z"/></g></g></svg>