<?xml version="1.0" encoding="UTF-8" standalone="no"?>
<!DOCTYPE svg PUBLIC "-//W3C//DTD SVG 1.1//EN" "http://www.w3.org/Graphics/SVG/1.1/DTD/svg11.dtd">
<svg width="100%" height="100%" viewBox="0 0 23017 11411" version="1.1" xmlns="http://www.w3.org/2000/svg" xmlns:xlink="http://www.w3.org/1999/xlink" xml:space="preserve" xmlns:serif="http://www.serif.com/" style="fill-rule:evenodd;clip-rule:evenodd;stroke-miterlimit:10;">
    <g id="Calque-1" serif:id="Calque 1" transform="matrix(4.16667,0,0,4.16667,0,0)">
        <g transform="matrix(3078.3,-7.10543e-14,-7.10543e-14,-3078.3,1371.22,1369.29)">
            <rect x="-0.445" y="-0.445" width="1.794" height="0.89" style="fill:url(#_Linear1);"/>
        </g>
        <g transform="matrix(1,0,0,1,2619.02,1774.07)">
            <path d="M0,48.429L0,0L0,48.429Z" style="fill:rgb(182,105,79);fill-rule:nonzero;"/>
        </g>
        <g transform="matrix(1,0,0,1,3844.88,1745.83)">
            <path d="M0,78.958L-207.503,78.958L-212.229,76.59L-337.86,76.59L-342.593,78.958L-545.365,78.958L-550.09,76.59L-675.937,76.562L-682.425,79.028L-883.274,79.028L-887.999,76.66L-1013.63,76.66L-1018.36,79.028L-1221.13,79.028L-1225.86,76.66L-1351.49,76.66L-1351.49,21.7L-1280.4,21.7L-1280.4,-0L-1258.62,-0L-1258.62,28.232L-1225.86,28.232L-1225.86,38.087L-1221.13,40.455L-1207.01,40.455L-1207.01,13.09L-1157.78,13.09L-1157.78,24.215L-1137.87,24.215L-1137.87,33.508L-1108.41,33.508L-1108.41,24.215L-1064.22,24.215L-1064.22,33.508L-1013.64,33.504L-1013.63,21.7L-942.542,21.7L-942.542,-0L-920.756,0.1L-920.756,28.232L-887.999,28.232L-887.999,38.087L-883.274,40.455L-869.149,40.455L-869.149,13.09L-819.915,13.09L-819.915,24.215L-800.006,24.215L-800.006,33.508L-770.549,33.508L-770.549,24.215L-726.364,24.215L-726.364,33.508L-682.432,33.504L-675.776,33.504L-675.721,21.629L-604.632,21.629L-604.632,-0.07L-582.847,-0.07L-582.847,28.16L-550.09,28.16L-550.09,38.017L-545.365,40.385L-531.24,40.385L-531.24,13.02L-482.005,13.02L-482.005,24.144L-462.096,24.144L-462.096,33.436L-432.639,33.436L-432.639,24.144L-388.454,24.144L-388.454,33.436L-337.866,33.433L-337.86,21.629L-266.771,21.629L-266.771,-0.07L-244.986,0.027L-244.986,28.16L-212.229,28.16L-212.229,38.017L-207.503,40.385L-193.378,40.385L-193.378,13.02L-144.144,13.02L-144.144,24.144L-124.235,24.144L-124.235,33.436L-94.778,33.436L-94.778,24.144L-50.593,24.144L-50.593,33.436L-0.005,33.433L0,78.958Z" style="fill:rgb(182,105,79);fill-rule:nonzero;"/>
        </g>
        <g transform="matrix(-1,0,0,1,3127.3,803.785)">
            <rect x="585.96" y="977.13" width="7.92" height="7.92" style="fill:rgb(30,30,28);"/>
        </g>
        <g transform="matrix(-1,0,0,1,3079.94,803.785)">
            <rect x="562.28" y="977.13" width="7.92" height="7.92" style="fill:rgb(30,30,28);"/>
        </g>
        <g transform="matrix(-1,0,0,1,3161.81,803.785)">
            <rect x="603.214" y="977.13" width="7.92" height="7.92" style="fill:rgb(30,30,28);"/>
        </g>
        <g transform="matrix(-1,0,0,1,3200.52,739.861)">
            <rect x="622.569" y="1009.09" width="7.92" height="7.92" style="fill:rgb(30,30,28);"/>
        </g>
        <g transform="matrix(1,0,0,1,2551.44,1816.36)">
            <path d="M0,-10.248L0,6.139L-12.278,6.139L-12.278,-10.248C-12.278,-13.639 -9.529,-16.387 -6.139,-16.387C-4.444,-16.387 -2.909,-15.699 -1.798,-14.589C-0.687,-13.477 0,-11.942 0,-10.248" style="fill:rgb(30,30,28);fill-rule:nonzero;"/>
        </g>
        <g transform="matrix(1,0,0,1,2647.11,1820.29)">
            <path d="M0,-7.642L0,4.577L-9.155,4.577L-9.155,-7.642C-9.155,-10.169 -7.105,-12.219 -4.577,-12.219C-3.313,-12.219 -2.169,-11.706 -1.341,-10.878C-0.512,-10.05 0,-8.906 0,-7.642" style="fill:rgb(30,30,28);fill-rule:nonzero;"/>
        </g>
        <g transform="matrix(-1,0,0,1,3222.34,814.533)">
            <rect x="633.48" y="971.756" width="7.92" height="7.92" style="fill:rgb(30,30,28);"/>
        </g>
        <g transform="matrix(-1,0,0,1,3256.85,814.533)">
            <rect x="650.734" y="971.756" width="7.92" height="7.92" style="fill:rgb(30,30,28);"/>
        </g>
        <g transform="matrix(-1,0,0,1,3320.36,833.975)">
            <rect x="682.488" y="962.035" width="7.92" height="7.92" style="fill:rgb(30,30,28);"/>
        </g>
        <g transform="matrix(-1,0,0,1,3354.87,833.975)">
            <rect x="699.742" y="962.035" width="7.92" height="7.92" style="fill:rgb(30,30,28);"/>
        </g>
        <g transform="matrix(-1,0,0,1,3553.3,841.895)">
            <rect x="798.959" y="958.075" width="7.92" height="7.92" style="fill:rgb(30,30,28);"/>
        </g>
        <g transform="matrix(-1,0,0,1,3587.81,841.895)">
            <rect x="816.214" y="958.075" width="7.92" height="7.92" style="fill:rgb(30,30,28);"/>
        </g>
        <g transform="matrix(-1,0,0,1,2590.99,1774.07)">
            <path d="M-23.304,-2.368L4.726,-2.368L4.726,0L-28.03,0L-23.304,-2.368Z" style="fill:rgb(140,83,61);fill-rule:nonzero;"/>
        </g>
        <g transform="matrix(1,0,0,1,2564.48,1767.54)">
            <path d="M0,-21.7L0,0L-71.089,0L-71.089,-2.368L-4.726,-2.368L-4.726,-21.7L0,-21.7Z" style="fill:rgb(140,83,61);fill-rule:nonzero;"/>
        </g>
        <g transform="matrix(-0.894049,-0.44797,-0.44797,0.894049,2560.53,1764.23)">
            <path d="M-5.006,1.184L0.28,1.184" style="fill:none;fill-rule:nonzero;"/>
        </g>
        <g transform="matrix(1,0,0,1,2619.02,1758.92)">
            <path d="M0,24.998L14.124,24.998L14.124,-2.367L63.358,-2.367L68.084,0.001L18.85,0.001L18.85,27.365L4.726,27.365L0,24.998Z" style="fill:rgb(140,83,61);fill-rule:nonzero;"/>
        </g>
        <g transform="matrix(1,0,0,1,2707.01,1770.05)">
            <path d="M0,6.925L0,9.292L29.456,9.292L29.456,0.001L73.641,0.001L68.915,-2.367L24.73,-2.367L24.73,6.925L0,6.925Z" style="fill:rgb(140,83,61);fill-rule:nonzero;"/>
        </g>
        <g transform="matrix(-0.894049,-0.44797,-0.44797,0.894049,2688.69,1763.35)">
            <path d="M-19.386,-2.217L-14.1,-2.217L-0.524,4.585L-1.585,6.702L-19.386,-2.217Z" style="fill:rgb(140,83,61);fill-rule:nonzero;"/>
        </g>
        <g transform="matrix(1,0,0,1,2831.25,1765.17)">
            <path d="M0,14.174L-50.594,14.174L-50.594,11.807L-4.732,11.804L-4.732,0L0,0L0,14.174Z" style="fill:rgb(140,83,61);fill-rule:nonzero;"/>
        </g>
        <g transform="matrix(0.894124,0.447819,0.447819,-0.894124,2732.53,1776.04)">
            <path d="M-0.28,-1.184L5.006,-1.184" style="fill:none;fill-rule:nonzero;"/>
        </g>
        <g transform="matrix(0.894124,0.447819,0.447819,-0.894124,2633.92,1782.99)">
            <path d="M-0.28,-1.184L5.006,-1.184" style="fill:none;fill-rule:nonzero;"/>
        </g>
        <g transform="matrix(0.894124,0.447819,0.447819,-0.894124,2827.3,1776.04)">
            <path d="M-0.28,-1.184L5.006,-1.184" style="fill:none;fill-rule:nonzero;"/>
        </g>
        <g transform="matrix(0.894124,0.447819,0.447819,-0.894124,2827.3,1764.41)">
            <path d="M-0.28,-1.184L5.006,-1.184" style="fill:none;fill-rule:nonzero;"/>
        </g>
        <g transform="matrix(-1,0,0,1,3803.02,803.785)">
            <rect x="923.821" y="977.13" width="7.92" height="7.92" style="fill:rgb(30,30,28);"/>
        </g>
        <g transform="matrix(-1,0,0,1,3755.67,803.785)">
            <rect x="900.142" y="977.13" width="7.92" height="7.92" style="fill:rgb(30,30,28);"/>
        </g>
        <g transform="matrix(-1,0,0,1,3837.53,803.785)">
            <rect x="941.075" y="977.13" width="7.92" height="7.92" style="fill:rgb(30,30,28);"/>
        </g>
        <g transform="matrix(-1,0,0,1,3876.24,739.861)">
            <rect x="960.43" y="1009.09" width="7.92" height="7.92" style="fill:rgb(30,30,28);"/>
        </g>
        <g transform="matrix(1,0,0,1,2889.3,1816.36)">
            <path d="M0,-10.248L0,6.139L-12.278,6.139L-12.278,-10.248C-12.278,-13.639 -9.529,-16.387 -6.139,-16.387C-4.444,-16.387 -2.909,-15.699 -1.798,-14.589C-0.687,-13.477 0,-11.942 0,-10.248" style="fill:rgb(30,30,28);fill-rule:nonzero;"/>
        </g>
        <g transform="matrix(1,0,0,1,2984.98,1820.29)">
            <path d="M0,-7.642L0,4.577L-9.155,4.577L-9.155,-7.642C-9.155,-10.169 -7.106,-12.219 -4.577,-12.219C-3.313,-12.219 -2.169,-11.706 -1.341,-10.878C-0.513,-10.05 0,-8.906 0,-7.642" style="fill:rgb(30,30,28);fill-rule:nonzero;"/>
        </g>
        <g transform="matrix(-1,0,0,1,3898.06,814.533)">
            <rect x="971.341" y="971.756" width="7.92" height="7.92" style="fill:rgb(30,30,28);"/>
        </g>
        <g transform="matrix(-1,0,0,1,3932.57,814.533)">
            <rect x="988.596" y="971.756" width="7.92" height="7.92" style="fill:rgb(30,30,28);"/>
        </g>
        <g transform="matrix(-1,0,0,1,3996.08,833.975)">
            <rect x="1020.35" y="962.035" width="7.92" height="7.92" style="fill:rgb(30,30,28);"/>
        </g>
        <g transform="matrix(-1,0,0,1,4030.59,833.975)">
            <rect x="1037.6" y="962.035" width="7.92" height="7.92" style="fill:rgb(30,30,28);"/>
        </g>
        <g transform="matrix(-1,0,0,1,4229.02,841.895)">
            <rect x="1136.82" y="958.075" width="7.92" height="7.92" style="fill:rgb(30,30,28);"/>
        </g>
        <g transform="matrix(-1,0,0,1,4263.53,841.895)">
            <rect x="1154.08" y="958.075" width="7.92" height="7.92" style="fill:rgb(30,30,28);"/>
        </g>
        <g transform="matrix(-1,0,0,1,2928.85,1774.07)">
            <path d="M-23.305,-2.368L4.726,-2.368L4.726,0L-28.031,0L-23.305,-2.368Z" style="fill:rgb(140,83,61);fill-rule:nonzero;"/>
        </g>
        <g transform="matrix(1,0,0,1,2902.34,1767.54)">
            <path d="M0,-21.7L0,0L-71.089,0L-71.089,-2.368L-4.726,-2.368L-4.726,-21.7L0,-21.7Z" style="fill:rgb(140,83,61);fill-rule:nonzero;"/>
        </g>
        <g transform="matrix(0.894049,0.44797,0.44797,-0.894049,2898.39,1764.23)">
            <path d="M-0.28,-1.184L5.006,-1.184" style="fill:none;fill-rule:nonzero;"/>
        </g>
        <g transform="matrix(1,0,0,1,2956.88,1758.92)">
            <path d="M0,24.998L14.124,24.998L14.124,-2.367L63.358,-2.367L68.084,0.001L18.85,0.001L18.85,27.365L4.726,27.365L0,24.998Z" style="fill:rgb(140,83,61);fill-rule:nonzero;"/>
        </g>
        <g transform="matrix(1,0,0,1,3044.88,1770.05)">
            <path d="M0,6.925L0,9.292L29.456,9.292L29.456,0.001L73.641,0.001L68.915,-2.367L24.73,-2.367L24.73,6.925L0,6.925Z" style="fill:rgb(140,83,61);fill-rule:nonzero;"/>
        </g>
        <g transform="matrix(-0.894049,-0.44797,-0.44797,0.894049,3026.55,1763.35)">
            <path d="M-19.386,-2.217L-14.1,-2.217L-0.524,4.585L-1.585,6.702L-19.386,-2.217Z" style="fill:rgb(140,83,61);fill-rule:nonzero;"/>
        </g>
        <g transform="matrix(1,0,0,1,3169.11,1745.76)">
            <path d="M0,33.577L-50.595,33.577L-50.595,31.21L-4.732,31.207L-4.732,19.403L66.411,19.332L66.411,0L71.137,0L71.137,21.7L0.048,21.7L0,33.577Z" style="fill:rgb(140,83,61);fill-rule:nonzero;"/>
        </g>
        <g transform="matrix(0.894124,0.447819,0.447819,-0.894124,3070.39,1776.04)">
            <path d="M-0.28,-1.184L5.006,-1.184" style="fill:none;fill-rule:nonzero;"/>
        </g>
        <g transform="matrix(0.894124,0.447819,0.447819,-0.894124,2971.79,1782.99)">
            <path d="M-0.28,-1.184L5.006,-1.184" style="fill:none;fill-rule:nonzero;"/>
        </g>
        <g transform="matrix(0.894124,0.447819,0.447819,-0.894124,3165.16,1776.04)">
            <path d="M-0.28,-1.184L5.006,-1.184" style="fill:none;fill-rule:nonzero;"/>
        </g>
        <g transform="matrix(0.894124,0.447819,0.447819,-0.894124,3165.16,1764.41)">
            <path d="M-0.28,-1.184L5.006,-1.184" style="fill:none;fill-rule:nonzero;"/>
        </g>
        <g transform="matrix(-1,0,0,1,4478.84,803.642)">
            <rect x="1261.73" y="977.201" width="7.92" height="7.921" style="fill:rgb(30,30,28);"/>
        </g>
        <g transform="matrix(-1,0,0,1,4431.48,803.642)">
            <rect x="1238.05" y="977.201" width="7.92" height="7.921" style="fill:rgb(30,30,28);"/>
        </g>
        <g transform="matrix(-1,0,0,1,4513.35,803.642)">
            <rect x="1278.99" y="977.201" width="7.92" height="7.921" style="fill:rgb(30,30,28);"/>
        </g>
        <g transform="matrix(-1,0,0,1,4552.06,739.717)">
            <rect x="1298.34" y="1009.16" width="7.92" height="7.92" style="fill:rgb(30,30,28);"/>
        </g>
        <g transform="matrix(1,0,0,1,3227.21,1816.29)">
            <path d="M0,-10.248L0,6.139L-12.278,6.139L-12.278,-10.248C-12.278,-13.639 -9.529,-16.387 -6.139,-16.387C-4.444,-16.387 -2.909,-15.7 -1.798,-14.589C-0.687,-13.477 0,-11.942 0,-10.248" style="fill:rgb(30,30,28);fill-rule:nonzero;"/>
        </g>
        <g transform="matrix(1,0,0,1,3322.89,1820.21)">
            <path d="M0,-7.642L0,4.577L-9.155,4.577L-9.155,-7.642C-9.155,-10.17 -7.105,-12.219 -4.577,-12.219C-3.313,-12.219 -2.169,-11.707 -1.341,-10.878C-0.512,-10.05 0,-8.906 0,-7.642" style="fill:rgb(30,30,28);fill-rule:nonzero;"/>
        </g>
        <g transform="matrix(-1,0,0,1,4573.88,814.391)">
            <rect x="1309.25" y="971.827" width="7.92" height="7.92" style="fill:rgb(30,30,28);"/>
        </g>
        <g transform="matrix(-1,0,0,1,4608.39,814.391)">
            <rect x="1326.51" y="971.827" width="7.92" height="7.92" style="fill:rgb(30,30,28);"/>
        </g>
        <g transform="matrix(-1,0,0,1,4671.9,833.833)">
            <rect x="1358.26" y="962.106" width="7.92" height="7.92" style="fill:rgb(30,30,28);"/>
        </g>
        <g transform="matrix(-1,0,0,1,4706.41,833.833)">
            <rect x="1375.51" y="962.106" width="7.92" height="7.92" style="fill:rgb(30,30,28);"/>
        </g>
        <g transform="matrix(-1,0,0,1,4904.84,841.753)">
            <rect x="1474.73" y="958.146" width="7.92" height="7.92" style="fill:rgb(30,30,28);"/>
        </g>
        <g transform="matrix(-1,0,0,1,4939.35,841.753)">
            <rect x="1491.99" y="958.146" width="7.92" height="7.92" style="fill:rgb(30,30,28);"/>
        </g>
        <g transform="matrix(-1,0,0,1,3266.76,1774)">
            <path d="M-23.304,-2.368L4.726,-2.368L4.726,0L-28.03,0L-23.304,-2.368Z" style="fill:rgb(140,83,61);fill-rule:nonzero;"/>
        </g>
        <g transform="matrix(0.894049,0.44797,0.44797,-0.894049,3236.3,1764.16)">
            <path d="M-0.28,-1.184L5.006,-1.184" style="fill:none;fill-rule:nonzero;"/>
        </g>
        <g transform="matrix(1,0,0,1,3294.79,1758.85)">
            <path d="M0,24.996L14.124,24.996L14.124,-2.368L63.358,-2.368L68.084,-0.001L18.85,-0.001L18.85,27.364L4.726,27.364L0,24.996Z" style="fill:rgb(140,83,61);fill-rule:nonzero;"/>
        </g>
        <g transform="matrix(1,0,0,1,3382.79,1769.98)">
            <path d="M0,6.925L0,9.292L29.456,9.292L29.456,-0L73.641,-0L68.915,-2.367L24.73,-2.367L24.73,6.925L0,6.925Z" style="fill:rgb(140,83,61);fill-rule:nonzero;"/>
        </g>
        <g transform="matrix(-0.894124,-0.447819,-0.447819,0.894124,3364.46,1763.28)">
            <path d="M-19.386,-2.216L-14.1,-2.216L-0.524,4.583L-1.584,6.7L-19.386,-2.216Z" style="fill:rgb(140,83,61);fill-rule:nonzero;"/>
        </g>
        <g transform="matrix(1,0,0,1,3507.02,1765.1)">
            <path d="M0,14.174L-50.595,14.174L-50.595,11.807L-4.732,11.804L-4.732,0L0,0L0,14.174Z" style="fill:rgb(140,83,61);fill-rule:nonzero;"/>
        </g>
        <g transform="matrix(0.894124,0.447819,0.447819,-0.894124,3408.3,1775.97)">
            <path d="M-0.28,-1.184L5.006,-1.184" style="fill:none;fill-rule:nonzero;"/>
        </g>
        <g transform="matrix(0.894049,0.44797,0.44797,-0.894049,3309.7,1782.92)">
            <path d="M-0.28,-1.184L5.006,-1.184" style="fill:none;fill-rule:nonzero;"/>
        </g>
        <g transform="matrix(0.894124,0.447819,0.447819,-0.894124,3503.07,1775.97)">
            <path d="M-0.28,-1.184L5.006,-1.184" style="fill:none;fill-rule:nonzero;"/>
        </g>
        <g transform="matrix(0.894124,0.447819,0.447819,-0.894124,3503.07,1764.34)">
            <path d="M-0.28,-1.184L5.006,-1.184" style="fill:none;fill-rule:nonzero;"/>
        </g>
        <g transform="matrix(-1,0,0,1,5154.57,803.642)">
            <rect x="1599.59" y="977.201" width="7.92" height="7.921" style="fill:rgb(30,30,28);"/>
        </g>
        <g transform="matrix(-1,0,0,1,5107.21,803.642)">
            <rect x="1575.91" y="977.201" width="7.92" height="7.921" style="fill:rgb(30,30,28);"/>
        </g>
        <g transform="matrix(-1,0,0,1,5189.07,803.642)">
            <rect x="1616.85" y="977.201" width="7.92" height="7.921" style="fill:rgb(30,30,28);"/>
        </g>
        <g transform="matrix(-1,0,0,1,5227.78,739.717)">
            <rect x="1636.2" y="1009.16" width="7.92" height="7.92" style="fill:rgb(30,30,28);"/>
        </g>
        <g transform="matrix(1,0,0,1,3565.07,1816.29)">
            <path d="M0,-10.248L0,6.139L-12.278,6.139L-12.278,-10.248C-12.278,-13.639 -9.529,-16.387 -6.139,-16.387C-4.444,-16.387 -2.909,-15.7 -1.798,-14.589C-0.687,-13.477 0,-11.942 0,-10.248" style="fill:rgb(30,30,28);fill-rule:nonzero;"/>
        </g>
        <g transform="matrix(1,0,0,1,3660.75,1820.21)">
            <path d="M0,-7.642L0,4.577L-9.155,4.577L-9.155,-7.642C-9.155,-10.17 -7.105,-12.219 -4.577,-12.219C-3.313,-12.219 -2.169,-11.707 -1.341,-10.878C-0.512,-10.05 0,-8.906 0,-7.642" style="fill:rgb(30,30,28);fill-rule:nonzero;"/>
        </g>
        <g transform="matrix(-1,0,0,1,5249.61,814.391)">
            <rect x="1647.11" y="971.827" width="7.92" height="7.92" style="fill:rgb(30,30,28);"/>
        </g>
        <g transform="matrix(-1,0,0,1,5284.11,814.391)">
            <rect x="1664.37" y="971.827" width="7.92" height="7.92" style="fill:rgb(30,30,28);"/>
        </g>
        <g transform="matrix(-1,0,0,1,5347.62,833.833)">
            <rect x="1696.12" y="962.106" width="7.92" height="7.92" style="fill:rgb(30,30,28);"/>
        </g>
        <g transform="matrix(-1,0,0,1,5382.13,833.833)">
            <rect x="1713.37" y="962.106" width="7.92" height="7.92" style="fill:rgb(30,30,28);"/>
        </g>
        <g transform="matrix(-1,0,0,1,5580.56,841.753)">
            <rect x="1812.59" y="958.146" width="7.92" height="7.92" style="fill:rgb(30,30,28);"/>
        </g>
        <g transform="matrix(-1,0,0,1,5615.07,841.753)">
            <rect x="1829.85" y="958.146" width="7.92" height="7.92" style="fill:rgb(30,30,28);"/>
        </g>
        <g transform="matrix(-1,0,0,1,3604.62,1774)">
            <path d="M-23.305,-2.368L4.726,-2.368L4.726,0L-28.031,0L-23.305,-2.368Z" style="fill:rgb(140,83,61);fill-rule:nonzero;"/>
        </g>
        <g transform="matrix(1,0,0,1,3578.11,1767.46)">
            <path d="M0,-21.7L0,0L-71.089,0L-71.089,-2.368L-4.726,-2.368L-4.726,-21.7L0,-21.7Z" style="fill:rgb(140,83,61);fill-rule:nonzero;"/>
        </g>
        <g transform="matrix(0.894049,0.44797,0.44797,-0.894049,3574.16,1764.16)">
            <path d="M-0.28,-1.184L5.006,-1.184" style="fill:none;fill-rule:nonzero;"/>
        </g>
        <g transform="matrix(1,0,0,1,3632.65,1758.85)">
            <path d="M0,24.996L14.124,24.996L14.124,-2.368L63.358,-2.368L68.084,-0.001L18.85,-0.001L18.85,27.364L4.726,27.364L0,24.996Z" style="fill:rgb(140,83,61);fill-rule:nonzero;"/>
        </g>
        <g transform="matrix(1,0,0,1,3720.65,1769.98)">
            <path d="M0,6.925L0,9.292L29.456,9.292L29.456,-0L73.641,-0L68.915,-2.367L24.73,-2.367L24.73,6.925L0,6.925Z" style="fill:rgb(140,83,61);fill-rule:nonzero;"/>
        </g>
        <g transform="matrix(-0.894124,-0.447819,-0.447819,0.894124,3702.32,1763.28)">
            <path d="M-19.386,-2.216L-14.1,-2.216L-0.524,4.583L-1.584,6.7L-19.386,-2.216Z" style="fill:rgb(140,83,61);fill-rule:nonzero;"/>
        </g>
        <g transform="matrix(-1,0,0,1,3794.29,1776.9)">
            <path d="M-50.594,2.37L0,2.37L0,0.003L-45.862,0L-50.594,2.37Z" style="fill:rgb(140,83,61);fill-rule:nonzero;"/>
        </g>
        <g transform="matrix(0.894124,0.447819,0.447819,-0.894124,3746.16,1775.97)">
            <path d="M-0.28,-1.184L5.006,-1.184" style="fill:none;fill-rule:nonzero;"/>
        </g>
        <g transform="matrix(0.894049,0.44797,0.44797,-0.894049,3647.56,1782.92)">
            <path d="M-0.28,-1.184L5.006,-1.184" style="fill:none;fill-rule:nonzero;"/>
        </g>
        <g transform="matrix(0.894124,0.447819,0.447819,-0.894124,3840.93,1775.97)">
            <path d="M-0.28,-1.184L5.006,-1.184" style="fill:none;fill-rule:nonzero;"/>
        </g>
        <g transform="matrix(-5519.57,-2e-07,2e-07,-5519.57,5519.55,2262.2)">
            <path d="M1,0.082L1,-0.086L0,-0.086L0,0.082C0,0.082 0.227,0.086 0.523,0.086C0.671,0.086 0.837,0.085 1,0.082Z" style="fill:url(#_Linear2);fill-rule:nonzero;"/>
        </g>
        <g transform="matrix(1,0,0,1,2665.93,1795.76)">
            <path d="M0,-27.857L0.525,-11.971L0.525,21.743L-50.603,20.979L-54.824,18.865L-167.023,18.865L-167.023,-30.219L-103.535,-30.219L-103.535,-49.6L-84.078,-49.6L-84.078,-24.387L-54.824,-24.387L-54.824,-15.585L-50.603,-13.471L-37.989,-13.471L-37.989,-37.91L0,-37.793L0,-27.857Z" style="fill:rgb(183,104,79);fill-rule:nonzero;"/>
        </g>
        <g transform="matrix(-1,0,0,1,3128.93,796.09)">
            <rect x="587.196" y="981.401" width="7.073" height="7.073" style="fill:rgb(29,29,27);"/>
        </g>
        <g transform="matrix(-1,0,0,1,3086.63,796.09)">
            <rect x="566.048" y="981.401" width="7.073" height="7.073" style="fill:rgb(29,29,27);"/>
        </g>
        <g transform="matrix(-1,0,0,1,3159.75,796.09)">
            <rect x="602.606" y="981.401" width="7.073" height="7.073" style="fill:rgb(29,29,27);"/>
        </g>
        <g transform="matrix(-1,0,0,1,3194.32,739)">
            <rect x="619.891" y="1009.95" width="7.073" height="7.073" style="fill:rgb(29,29,27);"/>
        </g>
        <g transform="matrix(1,0,0,1,2550.75,1809.14)">
            <path d="M0,-9.153L0,5.482L-10.965,5.482L-10.965,-9.153C-10.965,-12.181 -8.51,-14.635 -5.482,-14.635C-3.969,-14.635 -2.598,-14.022 -1.606,-13.03C-0.614,-12.038 0,-10.667 0,-9.153" style="fill:rgb(29,29,27);fill-rule:nonzero;"/>
        </g>
        <g transform="matrix(1,0,0,1,2636.2,1812.65)">
            <path d="M0,-6.823L0,4.089L-8.176,4.089L-8.176,-6.823C-8.176,-9.081 -6.346,-10.912 -4.088,-10.912C-2.959,-10.912 -1.937,-10.454 -1.198,-9.714C-0.458,-8.974 0,-7.952 0,-6.823" style="fill:rgb(29,29,27);fill-rule:nonzero;"/>
        </g>
        <g transform="matrix(-1,0,0,1,3213.81,805.69)">
            <rect x="629.636" y="976.601" width="7.073" height="7.073" style="fill:rgb(29,29,27);"/>
        </g>
        <g transform="matrix(-1,0,0,1,3244.62,805.69)">
            <rect x="645.045" y="976.601" width="7.073" height="7.073" style="fill:rgb(29,29,27);"/>
        </g>
        <g transform="matrix(-1,0,0,1,3301.34,823.05)">
            <rect x="673.404" y="967.921" width="7.073" height="7.073" style="fill:rgb(29,29,27);"/>
        </g>
        <g transform="matrix(-1,0,0,1,3332.16,823.05)">
            <rect x="688.814" y="967.921" width="7.073" height="7.073" style="fill:rgb(29,29,27);"/>
        </g>
        <g transform="matrix(-1,0,0,1,2586.07,1771.37)">
            <path d="M-20.813,-2.114L4.221,-2.114L4.221,0L-25.034,0L-20.813,-2.114Z" style="fill:rgb(141,82,61);fill-rule:nonzero;"/>
        </g>
        <g transform="matrix(1,0,0,1,2562.39,1765.54)">
            <path d="M0,-19.38L0,0L-63.489,0L-63.489,-2.114L-4.221,-2.114L-4.221,-19.38L0,-19.38Z" style="fill:rgb(141,82,61);fill-rule:nonzero;"/>
        </g>
        <g transform="matrix(1,0,0,1,2611.1,1757.85)">
            <path d="M0,22.323L12.614,22.323L12.614,-2.115L51.128,-2.115L55.349,-0.001L16.834,-0.001L16.834,24.438L4.221,24.438L0,22.323Z" style="fill:rgb(141,82,61);fill-rule:nonzero;"/>
        </g>
        <g transform="matrix(-1,0,0,1,3161.3,869.94)">
            <rect x="554.417" y="944.686" width="105.007" height="6.653" style="fill:rgb(235,222,207);"/>
        </g>
        <g transform="matrix(-1,0,0,1,3161.3,876.592)">
            <rect x="554.417" y="943.588" width="105.007" height="2.197" style="fill:rgb(182,174,163);"/>
        </g>
        <g transform="matrix(1,0,0,1,1947.46,1593.01)">
            <path d="M0,157.128L84.342,156.459L84.342,163.77L129.669,163.77L129.669,151.971L115.551,151.971L115.463,138.706L194.871,137.35L194.871,-48.126L222.353,-48.126L222.353,-87.364L256.179,-87.364L257.193,-51.063L284.194,-51.063L284.194,137.35L329.92,137.35L329.918,163.631L546.553,163.882L549.535,237.791L423.983,237.744L423.957,196.346L423.132,187.317C423.132,187.317 420.811,177.897 414.266,177.761C407.722,177.624 404.666,186.508 404.666,186.508L403.869,237.744L393.933,237.787L393.697,185.957C393.697,185.957 391.095,178.637 384.472,178.648C377.849,178.657 374.537,185.957 374.537,185.957L373.602,237.787L364.51,243.635L363.42,199.167C363.42,199.167 362.237,188.828 354.195,188.592C346.152,188.356 344.023,195.215 344.023,195.215L343.536,243.633L158.822,244.492L157.679,198.741C157.679,198.741 158.136,178.463 145.568,178.844C132.493,179.24 134.523,196.689 134.523,196.689L133.889,244.492L117.755,244.492L117.279,191.979C117.279,191.979 113.127,178.883 104.822,178.648C96.517,178.412 94.671,193.821 94.671,193.821L93.208,244.492L0,244.492L0,157.128Z" style="fill:rgb(170,133,88);fill-rule:nonzero;"/>
        </g>
        <g transform="matrix(1,0,0,1,2142.34,1733.8)">
            <path d="M0,-28.672L-33.974,-28.672L-89.512,0L0,0L0,-28.672Z" style="fill:rgb(180,221,220);fill-rule:nonzero;"/>
        </g>
        <g transform="matrix(1,0,0,1,2063,1733.8)">
            <path d="M0,7.763L-10.167,0L-0.052,0L0,7.763Z" style="fill:rgb(78,97,96);fill-rule:nonzero;"/>
        </g>
        <g transform="matrix(0,-1,-1,0,2086.42,1816.78)">
            <path d="M-20.897,46.295L31,46.295C39.546,46.295 46.295,39.274 44.718,31.264C43.505,25.095 37.059,20.897 30.153,20.897L-20.897,20.897" style="fill:rgb(31,23,16);fill-rule:nonzero;"/>
        </g>
        <g transform="matrix(0,-1,-1,0,2127.54,1816.43)">
            <path d="M-21.248,46.646L31.191,46.646C39.827,46.646 46.646,39.625 45.053,31.616C43.826,25.445 37.314,21.248 30.335,21.248L-21.248,21.248" style="fill:rgb(31,23,16);fill-rule:nonzero;"/>
        </g>
        <g transform="matrix(0,-1,-1,0,2329.73,1819.06)">
            <path d="M-17.755,38.983L26.068,38.983C33.284,38.983 38.983,33.115 37.652,26.42C36.627,21.263 31.184,17.755 25.352,17.755L-17.755,17.755" style="fill:rgb(31,23,16);fill-rule:nonzero;"/>
        </g>
        <g transform="matrix(-0.000575202,-1,-1,0.000575202,2392.26,1789.33)">
            <path d="M-41.419,20.175L5.521,20.175C11.782,20.172 17.627,23.676 18.731,28.833C20.163,35.526 14.05,41.398 6.303,41.403L-41.409,41.43" style="fill:rgb(31,23,16);fill-rule:nonzero;"/>
        </g>
        <g transform="matrix(-0.000575202,-1,-1,0.000575202,2362.46,1789.37)">
            <path d="M-41.419,20.176L5.521,20.176C11.782,20.172 17.627,23.677 18.732,28.833C20.164,35.526 14.049,41.399 6.302,41.403L-41.41,41.431" style="fill:rgb(31,23,16);fill-rule:nonzero;"/>
        </g>
        <g transform="matrix(1,0,0,1,2753.16,1801.71)">
            <path d="M0,-200.343C35.166,-137.997 56.565,-68.623 54.935,0C65.717,-0.594 71.955,-1.189 82.737,-1.782C73.251,-75.649 44.129,-144.041 0,-200.343" style="fill:rgb(92,51,30);fill-rule:nonzero;"/>
        </g>
        <g transform="matrix(1,0,0,1,2733.49,1602.96)">
            <path d="M0,110.845C-0.67,110.51 -11.751,80.824 -5.445,52.91C-2.207,24.477 18.031,0.096 18.775,0C18.956,0.378 10.184,0.88 -0.899,8.232C-11.745,15.27 -24.901,29.158 -28.031,49.085C-31.637,68.93 -23.789,86.377 -15.865,96.595C-7.822,107.186 0.296,110.547 0,110.845" style="fill:rgb(54,51,27);fill-rule:nonzero;"/>
        </g>
        <g transform="matrix(1,0,0,1,2671.38,1589.25)">
            <path d="M0,70.053C-0.268,69.361 9.727,42.45 30.794,29.045C50.031,13.125 78.712,11.898 79.288,12.365C79.188,12.737 72.768,6.817 60.645,3.644C48.874,0.438 31.401,-0.02 17.318,10.524C2.952,20.678 -1.989,37.445 -2.562,49.63C-3.273,62.142 0.384,70.073 0,70.053" style="fill:rgb(54,51,27);fill-rule:nonzero;"/>
        </g>
        <g transform="matrix(1,0,0,1,2681.41,1574.8)">
            <path d="M0,14.467C0.213,13.957 18.851,4.736 36.283,8.503C54.058,9.972 69.204,24.219 69.26,24.769C69.022,24.915 68.756,18.407 64.217,10.408C59.871,2.574 51.252,-6.752 38.801,-8.422C26.402,-10.448 15.441,-4.035 9.004,2.196C2.333,8.529 0.185,14.677 0,14.467" style="fill:rgb(54,51,27);fill-rule:nonzero;"/>
        </g>
        <g transform="matrix(1,0,0,1,2839.45,1594.08)">
            <path d="M0,82.144C0.317,81.464 -9.471,51.328 -31.771,33.392C-51.991,13.142 -83.003,6.638 -83.645,7.026C-83.551,7.435 -76.371,2.372 -63.12,1.235C-50.249,0 -31.309,2.693 -16.464,16.349C-1.297,29.645 3.408,48.188 3.56,61.118C3.849,74.414 -0.417,82.095 0,82.144" style="fill:rgb(54,51,27);fill-rule:nonzero;"/>
        </g>
        <g transform="matrix(1,0,0,1,2852.95,1565.51)">
            <path d="M0,19.98C-0.287,19.296 -26.142,6.824 -50.62,11.762C-75.521,13.619 -97.047,32.611 -97.138,33.347C-96.809,33.546 -96.283,24.829 -89.744,14.139C-83.48,3.67 -71.202,-8.77 -53.742,-10.929C-36.349,-13.566 -21.166,-4.905 -12.308,3.484C-3.124,12.009 -0.264,20.261 0,19.98" style="fill:rgb(54,51,27);fill-rule:nonzero;"/>
        </g>
        <g transform="matrix(1,0,0,1,2801.47,1594.05)">
            <path d="M0,-49.927C-0.494,-50.177 -21.001,-44.891 -32.239,-30.424C-45.219,-17.496 -47.95,3.505 -47.641,3.965C-47.36,3.92 -51.323,-1.257 -52.896,-10.417C-54.514,-19.321 -53.741,-32.208 -45.059,-41.757C-36.647,-51.544 -23.952,-53.892 -14.917,-53.378C-5.634,-52.942 -0.01,-49.643 0,-49.927" style="fill:rgb(54,51,27);fill-rule:nonzero;"/>
        </g>
        <g transform="matrix(1,0,0,1,2847.23,1678.3)">
            <path d="M0,107.509C0.65,107.184 11.397,78.391 5.281,51.318C2.141,23.74 -17.488,0.093 -18.209,0C-18.385,0.367 -9.877,0.854 0.872,7.984C11.391,14.811 24.152,28.281 27.187,47.608C30.685,66.856 23.073,83.777 15.388,93.687C7.587,103.959 -0.287,107.22 0,107.509" style="fill:rgb(54,51,27);fill-rule:nonzero;"/>
        </g>
        <g transform="matrix(1,0,0,1,2907.47,1665)">
            <path d="M0,67.944C0.26,67.273 -9.434,41.173 -29.867,28.172C-48.526,12.73 -76.343,11.54 -76.902,11.993C-76.805,12.353 -70.578,6.612 -58.82,3.534C-47.403,0.425 -30.456,-0.02 -16.797,10.208C-2.864,20.055 1.929,36.317 2.484,48.136C3.174,60.271 -0.373,67.964 0,67.944" style="fill:rgb(54,51,27);fill-rule:nonzero;"/>
        </g>
        <g transform="matrix(1,0,0,1,2897.75,1650.98)">
            <path d="M0,14.03C-0.207,13.536 -18.283,4.592 -35.191,8.246C-52.43,9.671 -67.121,23.488 -67.175,24.022C-66.944,24.165 -66.687,17.852 -62.283,10.093C-58.069,2.496 -49.709,-6.55 -37.633,-8.169C-25.607,-10.135 -14.977,-3.914 -8.733,2.129C-2.263,8.27 -0.179,14.234 0,14.03" style="fill:rgb(54,51,27);fill-rule:nonzero;"/>
        </g>
        <g transform="matrix(1,0,0,1,2744.46,1669.69)">
            <path d="M0,79.671C-0.307,79.012 9.186,49.782 30.814,32.387C50.426,12.746 80.505,6.438 81.127,6.814C81.036,7.211 74.072,2.3 61.22,1.197C48.737,0 30.366,2.611 15.969,15.856C1.258,28.752 -3.306,46.737 -3.452,59.277C-3.733,72.173 0.404,79.623 0,79.671" style="fill:rgb(54,51,27);fill-rule:nonzero;"/>
        </g>
        <g transform="matrix(1,0,0,1,2731.37,1641.97)">
            <path d="M0,19.38C0.278,18.716 25.355,6.619 49.096,11.409C73.248,13.21 94.125,31.631 94.214,32.345C93.894,32.537 93.385,24.082 87.042,13.715C80.967,3.562 69.058,-8.505 52.124,-10.599C35.254,-13.157 20.529,-4.756 11.937,3.38C3.03,11.649 0.256,19.652 0,19.38" style="fill:rgb(54,51,27);fill-rule:nonzero;"/>
        </g>
        <g transform="matrix(1,0,0,1,2781.3,1669.66)">
            <path d="M0,-48.423C0.479,-48.665 20.369,-43.538 31.269,-29.507C43.858,-16.969 46.506,3.4 46.207,3.846C45.935,3.803 49.779,-1.218 51.303,-10.103C52.873,-18.738 52.123,-31.237 43.703,-40.499C35.544,-49.991 23.231,-52.269 14.468,-51.771C5.464,-51.347 0.01,-48.148 0,-48.423" style="fill:rgb(54,51,27);fill-rule:nonzero;"/>
        </g>
        <g transform="matrix(1,0,0,1,2828.15,1871.06)">
            <path d="M0,-194.313C-34.108,-133.843 -50.456,-66.558 -48.875,0C-59.332,-0.577 -69.789,-1.153 -80.246,-1.73C-71.046,-73.373 -42.801,-139.706 0,-194.313" style="fill:rgb(92,51,30);fill-rule:nonzero;"/>
        </g>
        <g transform="matrix(1,0,0,1,2262.25,1583.3)">
            <path d="M0,147.237C2.865,74.623 -9.259,49.731 -37.47,-22.01C-1.592,44.724 17.869,89.315 24.236,169.247L15.141,169.247L15.141,147.237L0,147.237Z" style="fill:rgb(92,51,30);fill-rule:nonzero;"/>
        </g>
        <g transform="matrix(1,0,0,1,2182.72,1561.73)">
            <path d="M0,117.473C-0.668,116.991 -7.401,82.815 4.409,53.659C12.984,23.392 39.278,0.547 40.102,0.576C40.231,1.019 30.626,0 17.295,6.002C4.277,11.706 -12.467,24.43 -19.411,45.487C-26.856,66.372 -21.448,86.696 -14.673,99.19C-7.833,112.111 0.374,117.202 0,117.473" style="fill:rgb(54,51,27);fill-rule:nonzero;"/>
        </g>
        <g transform="matrix(1,0,0,1,2125.05,1538.68)">
            <path d="M0,70.332C-0.167,69.533 15.466,42.122 40.706,31.332C64.408,17.487 95.738,21.263 96.28,21.872C96.105,22.258 90.195,14.692 77.609,9.092C65.411,3.519 46.539,-0.09 29.385,8.841C11.994,17.298 3.649,34.605 0.858,47.723C-2.142,61.168 0.413,70.422 0,70.332" style="fill:rgb(54,51,27);fill-rule:nonzero;"/>
        </g>
        <g transform="matrix(1,0,0,1,2148.4,1536.13)">
            <path d="M0,-1.298C0.322,-1.813 22.181,-8.498 40.42,-1.307C59.44,3.451 73.333,21.602 73.296,22.209C73.012,22.326 73.882,15.219 70.382,5.733C67.063,-3.539 59.374,-15.19 46.164,-19.218C33.076,-23.624 20.044,-18.618 11.952,-13.006C3.588,-7.324 0.163,-1.037 0,-1.298" style="fill:rgb(54,51,27);fill-rule:nonzero;"/>
        </g>
        <g transform="matrix(1,0,0,1,2304.36,1557.17)">
            <path d="M0,100.132C0.464,99.451 -4.787,65.018 -25.783,41.592C-44.112,16.026 -76.594,3.448 -77.36,3.754C-77.331,4.215 -68.64,0 -54.064,1.127C-39.883,2.079 -19.816,8.372 -6.145,25.829C7.94,42.953 9.743,63.905 7.605,77.957C5.551,92.431 -0.443,100.004 0,100.132" style="fill:rgb(54,51,27);fill-rule:nonzero;"/>
        </g>
        <g transform="matrix(1,0,0,1,2335.15,1517.67)">
            <path d="M0,43.608C-0.189,42.814 -26.016,24.681 -53.447,25.68C-80.789,23.26 -107.521,40.03 -107.751,40.812C-107.429,41.087 -105.307,31.724 -96.31,21.293C-87.651,11.052 -72.117,-0.257 -52.794,0.509C-33.456,0.746 -18.529,12.845 -10.413,23.521C-1.969,34.405 -0.336,43.865 0,43.608" style="fill:rgb(54,51,27);fill-rule:nonzero;"/>
        </g>
        <g transform="matrix(1,0,0,1,2286.68,1548.66)">
            <path d="M0,-41.414C-0.491,-41.772 -23.678,-39.689 -38.444,-25.998C-54.826,-14.285 -61.527,8.01 -61.274,8.563C-60.962,8.565 -64.339,2.243 -64.413,-7.974C-64.583,-17.92 -61.451,-31.762 -50.333,-40.574C-39.466,-49.693 -25.276,-49.979 -15.567,-47.813C-5.574,-45.686 -0.062,-41.107 0,-41.414" style="fill:rgb(54,51,27);fill-rule:nonzero;"/>
        </g>
        <g transform="matrix(1,0,0,1,2198.78,1600.41)">
            <path d="M0,236.407C0,236.407 -83.699,219.263 -31.875,208.435C-31.875,208.435 -84.731,185.488 -58.432,177.753C-58.432,177.753 -117.991,178.268 -76.222,159.447C-76.222,159.447 -147.642,174.659 -63.331,131.086C-63.331,131.086 -127.273,111.748 -54.049,120.514C-54.049,120.514 -133.461,83.386 -53.791,107.623C-53.791,107.623 -118.507,68.432 -57.658,90.864C-57.658,90.864 -104.992,53.538 -50.256,83.932C-50.256,83.932 -83.58,29.71 -43.678,62.408C-43.678,62.408 -69.838,8.817 -12.048,62.562C-12.048,62.562 -6.98,4.421 16.486,56.896C16.486,56.896 29.392,18.304 39.366,56.506C39.366,56.506 70.249,0 55.687,60.846C55.687,60.846 104.769,25.146 74.414,72.539C74.414,72.539 110.249,55.197 77.447,84.339C77.447,84.339 149.069,84.906 75.151,106.526C75.151,106.526 141.908,116.197 87.703,124.224C87.703,124.224 152.269,135.577 87.897,137.434C87.897,137.434 165.374,162.043 87.703,152.134C87.703,152.134 149.069,189.946 76.325,172.832C76.325,172.832 119.165,185.636 82.492,196.783C82.492,196.783 102.334,232.479 71.213,236.164L0,236.407Z" style="fill:rgb(88,80,34);fill-rule:nonzero;"/>
        </g>
        <g transform="matrix(1,0,0,1,2453.79,1836.16)">
            <path d="M0,-267.428L0,-216.217L-63.405,-216.217L-63.405,0.004L49.424,0.004L49.249,-34.466C49.148,-48.211 53.65,-50.389 53.65,-50.389C41.246,-87.925 57.429,-109.186 57.429,-109.186C57.429,-109.186 62.975,-120.565 81.042,-127.812C84.794,-129.317 91.323,-131.038 99.481,-131.331C106.897,-131.598 114.985,-129.855 119.933,-127.911C131.619,-123.323 138.195,-113.697 140.635,-108.924C140.635,-108.924 156.066,-79.652 144.693,-50.394C144.693,-50.394 149.191,-48.213 149.1,-34.463L149.069,0.004L261.753,0.004L261.753,-216.216L198.347,-216.216L198.347,-267.432" style="fill:rgb(183,104,79);fill-rule:nonzero;"/>
        </g>
        <g transform="matrix(1,0,0,1,2645.98,1603.02)">
            <path d="M0,-22.174C0,-22.174 -0.016,-24.153 -1.576,-24.153C-3.135,-24.153 -3.198,-22.174 -3.198,-22.174L-3.198,1.979L0,1.979L0,-22.174Z" style="fill:rgb(180,221,220);fill-rule:nonzero;"/>
        </g>
        <g transform="matrix(1,0,0,1,2457.09,1603.02)">
            <path d="M0,-22.174C0,-22.174 -0.016,-24.153 -1.576,-24.153C-3.136,-24.153 -3.198,-22.174 -3.198,-22.174L-3.198,1.979L0,1.979L0,-22.174Z" style="fill:rgb(180,221,220);fill-rule:nonzero;"/>
        </g>
        <g transform="matrix(1,0,0,1,2461.29,1603.02)">
            <path d="M0,-22.174C0,-22.174 -0.016,-24.153 -1.576,-24.153C-3.136,-24.153 -3.198,-22.174 -3.198,-22.174L-3.198,1.979L0,1.979L0,-22.174Z" style="fill:rgb(180,221,220);fill-rule:nonzero;"/>
        </g>
        <g transform="matrix(1,0,0,1,2465.49,1603.02)">
            <path d="M0,-22.174C0,-22.174 -0.016,-24.153 -1.576,-24.153C-3.135,-24.153 -3.198,-22.174 -3.198,-22.174L-3.198,1.979L0,1.979L0,-22.174Z" style="fill:rgb(180,221,220);fill-rule:nonzero;"/>
        </g>
        <g transform="matrix(1,0,0,1,2469.68,1603.02)">
            <path d="M0,-22.174C0,-22.174 -0.016,-24.153 -1.576,-24.153C-3.135,-24.153 -3.198,-22.174 -3.198,-22.174L-3.198,1.979L0,1.979L0,-22.174Z" style="fill:rgb(180,221,220);fill-rule:nonzero;"/>
        </g>
        <g transform="matrix(1,0,0,1,2473.88,1603.02)">
            <path d="M0,-22.174C0,-22.174 -0.016,-24.153 -1.576,-24.153C-3.135,-24.153 -3.198,-22.174 -3.198,-22.174L-3.198,1.979L0,1.979L0,-22.174Z" style="fill:rgb(180,221,220);fill-rule:nonzero;"/>
        </g>
        <g transform="matrix(1,0,0,1,2478.08,1603.02)">
            <path d="M0,-22.174C0,-22.174 -0.016,-24.153 -1.575,-24.153C-3.135,-24.153 -3.198,-22.174 -3.198,-22.174L-3.198,1.979L0,1.979L0,-22.174Z" style="fill:rgb(180,221,220);fill-rule:nonzero;"/>
        </g>
        <g transform="matrix(1,0,0,1,2482.28,1603.02)">
            <path d="M0,-22.174C0,-22.174 -0.016,-24.153 -1.575,-24.153C-3.135,-24.153 -3.198,-22.174 -3.198,-22.174L-3.198,1.979L0,1.979L0,-22.174Z" style="fill:rgb(180,221,220);fill-rule:nonzero;"/>
        </g>
        <g transform="matrix(1,0,0,1,2486.47,1603.02)">
            <path d="M0,-22.174C0,-22.174 -0.016,-24.153 -1.575,-24.153C-3.135,-24.153 -3.198,-22.174 -3.198,-22.174L-3.198,1.979L0,1.979L0,-22.174Z" style="fill:rgb(180,221,220);fill-rule:nonzero;"/>
        </g>
        <g transform="matrix(1,0,0,1,2490.67,1603.02)">
            <path d="M0,-22.174C0,-22.174 -0.016,-24.153 -1.575,-24.153C-3.135,-24.153 -3.198,-22.174 -3.198,-22.174L-3.198,1.979L0,1.979L0,-22.174Z" style="fill:rgb(180,221,220);fill-rule:nonzero;"/>
        </g>
        <g transform="matrix(1,0,0,1,2494.87,1603.02)">
            <path d="M0,-22.174C0,-22.174 -0.016,-24.153 -1.576,-24.153C-3.136,-24.153 -3.198,-22.174 -3.198,-22.174L-3.198,1.979L0,1.979L0,-22.174Z" style="fill:rgb(180,221,220);fill-rule:nonzero;"/>
        </g>
        <g transform="matrix(1,0,0,1,2499.07,1603.02)">
            <path d="M0,-22.174C0,-22.174 -0.016,-24.153 -1.576,-24.153C-3.136,-24.153 -3.198,-22.174 -3.198,-22.174L-3.198,1.979L0,1.979L0,-22.174Z" style="fill:rgb(180,221,220);fill-rule:nonzero;"/>
        </g>
        <g transform="matrix(1,0,0,1,2503.26,1603.02)">
            <path d="M0,-22.174C0,-22.174 -0.016,-24.153 -1.576,-24.153C-3.136,-24.153 -3.198,-22.174 -3.198,-22.174L-3.198,1.979L0,1.979L0,-22.174Z" style="fill:rgb(180,221,220);fill-rule:nonzero;"/>
        </g>
        <g transform="matrix(1,0,0,1,2403.72,1659.28)">
            <path d="M0,-22.174C0,-22.174 -0.016,-24.153 -1.576,-24.153C-3.135,-24.153 -3.198,-22.174 -3.198,-22.174L-3.198,1.979L0,1.979L0,-22.174Z" style="fill:rgb(180,221,220);fill-rule:nonzero;"/>
        </g>
        <g transform="matrix(1,0,0,1,2407.92,1659.28)">
            <path d="M0,-22.174C0,-22.174 -0.016,-24.153 -1.576,-24.153C-3.135,-24.153 -3.198,-22.174 -3.198,-22.174L-3.198,1.979L0,1.979L0,-22.174Z" style="fill:rgb(180,221,220);fill-rule:nonzero;"/>
        </g>
        <g transform="matrix(1,0,0,1,2399.52,1659.28)">
            <path d="M0,-22.174C0,-22.174 -0.016,-24.153 -1.576,-24.153C-3.136,-24.153 -3.198,-22.174 -3.198,-22.174L-3.198,1.979L0,1.979L0,-22.174Z" style="fill:rgb(180,221,220);fill-rule:nonzero;"/>
        </g>
        <g transform="matrix(1,0,0,1,2395.32,1659.28)">
            <path d="M0,-22.174C0,-22.174 -0.016,-24.153 -1.576,-24.153C-3.136,-24.153 -3.198,-22.174 -3.198,-22.174L-3.198,1.979L0,1.979L0,-22.174Z" style="fill:rgb(180,221,220);fill-rule:nonzero;"/>
        </g>
        <g transform="matrix(1,0,0,1,2412.11,1659.28)">
            <path d="M0,-22.174C0,-22.174 -0.016,-24.153 -1.576,-24.153C-3.135,-24.153 -3.198,-22.174 -3.198,-22.174L-3.198,1.979L0,1.979L0,-22.174Z" style="fill:rgb(180,221,220);fill-rule:nonzero;"/>
        </g>
        <g transform="matrix(1,0,0,1,2416.31,1659.28)">
            <path d="M0,-22.174C0,-22.174 -0.016,-24.153 -1.576,-24.153C-3.136,-24.153 -3.198,-22.174 -3.198,-22.174L-3.198,1.979L0,1.979L0,-22.174Z" style="fill:rgb(180,221,220);fill-rule:nonzero;"/>
        </g>
        <g transform="matrix(1,0,0,1,2420.51,1659.28)">
            <path d="M0,-22.174C0,-22.174 -0.016,-24.153 -1.576,-24.153C-3.136,-24.153 -3.198,-22.174 -3.198,-22.174L-3.198,1.979L0,1.979L0,-22.174Z" style="fill:rgb(180,221,220);fill-rule:nonzero;"/>
        </g>
        <g transform="matrix(1,0,0,1,2424.71,1659.28)">
            <path d="M0,-22.174C0,-22.174 -0.016,-24.153 -1.576,-24.153C-3.136,-24.153 -3.198,-22.174 -3.198,-22.174L-3.198,1.979L0,1.979L0,-22.174Z" style="fill:rgb(180,221,220);fill-rule:nonzero;"/>
        </g>
        <g transform="matrix(1,0,0,1,2428.9,1659.28)">
            <path d="M0,-22.174C0,-22.174 -0.016,-24.153 -1.576,-24.153C-3.135,-24.153 -3.198,-22.174 -3.198,-22.174L-3.198,1.979L0,1.979L0,-22.174Z" style="fill:rgb(180,221,220);fill-rule:nonzero;"/>
        </g>
        <g transform="matrix(1,0,0,1,2433.1,1659.28)">
            <path d="M0,-22.174C0,-22.174 -0.016,-24.153 -1.576,-24.153C-3.135,-24.153 -3.198,-22.174 -3.198,-22.174L-3.198,1.979L0,1.979L0,-22.174Z" style="fill:rgb(180,221,220);fill-rule:nonzero;"/>
        </g>
        <g transform="matrix(1,0,0,1,2437.3,1659.28)">
            <path d="M0,-22.174C0,-22.174 -0.016,-24.153 -1.576,-24.153C-3.135,-24.153 -3.198,-22.174 -3.198,-22.174L-3.198,1.979L0,1.979L0,-22.174Z" style="fill:rgb(180,221,220);fill-rule:nonzero;"/>
        </g>
        <g transform="matrix(1,0,0,1,2441.5,1659.28)">
            <path d="M0,-22.174C0,-22.174 -0.016,-24.153 -1.576,-24.153C-3.136,-24.153 -3.198,-22.174 -3.198,-22.174L-3.198,1.979L0,1.979L0,-22.174Z" style="fill:rgb(180,221,220);fill-rule:nonzero;"/>
        </g>
        <g transform="matrix(1,0,0,1,2445.35,1659.28)">
            <path d="M0,-22.174C0,-22.174 -0.016,-24.153 -1.576,-24.153C-3.136,-24.153 -3.198,-22.174 -3.198,-22.174L-3.198,1.979L0,1.979L0,-22.174Z" style="fill:rgb(180,221,220);fill-rule:nonzero;"/>
        </g>
        <g transform="matrix(1,0,0,1,2449.54,1659.28)">
            <path d="M0,-22.174C0,-22.174 -0.016,-24.153 -1.576,-24.153C-3.136,-24.153 -3.198,-22.174 -3.198,-22.174L-3.198,1.979L0,1.979L0,-22.174Z" style="fill:rgb(180,221,220);fill-rule:nonzero;"/>
        </g>
        <g transform="matrix(1,0,0,1,2453.74,1659.28)">
            <path d="M0,-22.174C0,-22.174 -0.016,-24.153 -1.576,-24.153C-3.136,-24.153 -3.198,-22.174 -3.198,-22.174L-3.198,1.979L0,1.979L0,-22.174Z" style="fill:rgb(180,221,220);fill-rule:nonzero;"/>
        </g>
        <g transform="matrix(1,0,0,1,2659.2,1660.84)">
            <path d="M0,-22.174C0,-22.174 -0.016,-24.153 -1.576,-24.153C-3.135,-24.153 -3.198,-22.174 -3.198,-22.174L-3.198,1.979L0,1.979L0,-22.174Z" style="fill:rgb(180,221,220);fill-rule:nonzero;"/>
        </g>
        <g transform="matrix(1,0,0,1,2654.96,1660.84)">
            <path d="M0,-22.174C0,-22.174 -0.016,-24.153 -1.575,-24.153C-3.135,-24.153 -3.198,-22.174 -3.198,-22.174L-3.198,1.979L0,1.979L0,-22.174Z" style="fill:rgb(180,221,220);fill-rule:nonzero;"/>
        </g>
        <g transform="matrix(1,0,0,1,2663.4,1660.84)">
            <path d="M0,-22.174C0,-22.174 -0.016,-24.153 -1.576,-24.153C-3.135,-24.153 -3.198,-22.174 -3.198,-22.174L-3.198,1.979L0,1.979L0,-22.174Z" style="fill:rgb(180,221,220);fill-rule:nonzero;"/>
        </g>
        <g transform="matrix(1,0,0,1,2667.6,1660.84)">
            <path d="M0,-22.174C0,-22.174 -0.016,-24.153 -1.576,-24.153C-3.135,-24.153 -3.198,-22.174 -3.198,-22.174L-3.198,1.979L0,1.979L0,-22.174Z" style="fill:rgb(180,221,220);fill-rule:nonzero;"/>
        </g>
        <g transform="matrix(1,0,0,1,2671.8,1660.84)">
            <path d="M0,-22.174C0,-22.174 -0.016,-24.153 -1.576,-24.153C-3.135,-24.153 -3.198,-22.174 -3.198,-22.174L-3.198,1.979L0,1.979L0,-22.174Z" style="fill:rgb(180,221,220);fill-rule:nonzero;"/>
        </g>
        <g transform="matrix(1,0,0,1,2675.99,1660.84)">
            <path d="M0,-22.174C0,-22.174 -0.016,-24.153 -1.576,-24.153C-3.135,-24.153 -3.198,-22.174 -3.198,-22.174L-3.198,1.979L0,1.979L0,-22.174Z" style="fill:rgb(180,221,220);fill-rule:nonzero;"/>
        </g>
        <g transform="matrix(1,0,0,1,2680.19,1660.84)">
            <path d="M0,-22.174C0,-22.174 -0.016,-24.153 -1.575,-24.153C-3.135,-24.153 -3.198,-22.174 -3.198,-22.174L-3.198,1.979L0,1.979L0,-22.174Z" style="fill:rgb(180,221,220);fill-rule:nonzero;"/>
        </g>
        <g transform="matrix(1,0,0,1,2684.39,1660.84)">
            <path d="M0,-22.174C0,-22.174 -0.016,-24.153 -1.575,-24.153C-3.135,-24.153 -3.198,-22.174 -3.198,-22.174L-3.198,1.979L0,1.979L0,-22.174Z" style="fill:rgb(180,221,220);fill-rule:nonzero;"/>
        </g>
        <g transform="matrix(1,0,0,1,2688.59,1660.84)">
            <path d="M0,-22.174C0,-22.174 -0.016,-24.153 -1.575,-24.153C-3.135,-24.153 -3.198,-22.174 -3.198,-22.174L-3.198,1.979L0,1.979L0,-22.174Z" style="fill:rgb(180,221,220);fill-rule:nonzero;"/>
        </g>
        <g transform="matrix(1,0,0,1,2692.78,1660.84)">
            <path d="M0,-22.174C0,-22.174 -0.016,-24.153 -1.576,-24.153C-3.136,-24.153 -3.198,-22.174 -3.198,-22.174L-3.198,1.979L0,1.979L0,-22.174Z" style="fill:rgb(180,221,220);fill-rule:nonzero;"/>
        </g>
        <g transform="matrix(1,0,0,1,2696.98,1660.84)">
            <path d="M0,-22.174C0,-22.174 -0.016,-24.153 -1.576,-24.153C-3.136,-24.153 -3.198,-22.174 -3.198,-22.174L-3.198,1.979L0,1.979L0,-22.174Z" style="fill:rgb(180,221,220);fill-rule:nonzero;"/>
        </g>
        <g transform="matrix(1,0,0,1,2700.83,1660.84)">
            <path d="M0,-22.174C0,-22.174 -0.016,-24.153 -1.576,-24.153C-3.136,-24.153 -3.198,-22.174 -3.198,-22.174L-3.198,1.979L0,1.979L0,-22.174Z" style="fill:rgb(180,221,220);fill-rule:nonzero;"/>
        </g>
        <g transform="matrix(1,0,0,1,2705.03,1660.84)">
            <path d="M0,-22.174C0,-22.174 -0.016,-24.153 -1.576,-24.153C-3.136,-24.153 -3.198,-22.174 -3.198,-22.174L-3.198,1.979L0,1.979L0,-22.174Z" style="fill:rgb(180,221,220);fill-rule:nonzero;"/>
        </g>
        <g transform="matrix(1,0,0,1,2709.22,1660.84)">
            <path d="M0,-22.174C0,-22.174 -0.016,-24.153 -1.576,-24.153C-3.136,-24.153 -3.198,-22.174 -3.198,-22.174L-3.198,1.979L0,1.979L0,-22.174Z" style="fill:rgb(180,221,220);fill-rule:nonzero;"/>
        </g>
        <g transform="matrix(1,0,0,1,2713.42,1660.84)">
            <path d="M0,-22.174C0,-22.174 -0.016,-24.153 -1.576,-24.153C-3.136,-24.153 -3.198,-22.174 -3.198,-22.174L-3.198,1.979L0,1.979L0,-22.174Z" style="fill:rgb(180,221,220);fill-rule:nonzero;"/>
        </g>
        <g transform="matrix(1,0,0,1,2507.46,1603.02)">
            <path d="M0,-22.174C0,-22.174 -0.016,-24.153 -1.576,-24.153C-3.136,-24.153 -3.198,-22.174 -3.198,-22.174L-3.198,1.979L0,1.979L0,-22.174Z" style="fill:rgb(180,221,220);fill-rule:nonzero;"/>
        </g>
        <g transform="matrix(1,0,0,1,2511.66,1603.02)">
            <path d="M0,-22.174C0,-22.174 -0.016,-24.153 -1.576,-24.153C-3.136,-24.153 -3.198,-22.174 -3.198,-22.174L-3.198,1.979L0,1.979L0,-22.174Z" style="fill:rgb(180,221,220);fill-rule:nonzero;"/>
        </g>
        <g transform="matrix(1,0,0,1,2515.86,1603.02)">
            <path d="M0,-22.174C0,-22.174 -0.016,-24.153 -1.576,-24.153C-3.135,-24.153 -3.198,-22.174 -3.198,-22.174L-3.198,1.979L0,1.979L0,-22.174Z" style="fill:rgb(180,221,220);fill-rule:nonzero;"/>
        </g>
        <g transform="matrix(1,0,0,1,2520.05,1603.02)">
            <path d="M0,-22.174C0,-22.174 -0.016,-24.153 -1.576,-24.153C-3.135,-24.153 -3.198,-22.174 -3.198,-22.174L-3.198,1.979L0,1.979L0,-22.174Z" style="fill:rgb(180,221,220);fill-rule:nonzero;"/>
        </g>
        <g transform="matrix(1,0,0,1,2524.25,1603.02)">
            <path d="M0,-22.174C0,-22.174 -0.016,-24.153 -1.576,-24.153C-3.135,-24.153 -3.198,-22.174 -3.198,-22.174L-3.198,1.979L0,1.979L0,-22.174Z" style="fill:rgb(180,221,220);fill-rule:nonzero;"/>
        </g>
        <g transform="matrix(1,0,0,1,2528.45,1603.02)">
            <path d="M0,-22.174C0,-22.174 -0.016,-24.153 -1.576,-24.153C-3.135,-24.153 -3.198,-22.174 -3.198,-22.174L-3.198,1.979L0,1.979L0,-22.174Z" style="fill:rgb(180,221,220);fill-rule:nonzero;"/>
        </g>
        <g transform="matrix(1,0,0,1,2532.65,1603.02)">
            <path d="M0,-22.174C0,-22.174 -0.016,-24.153 -1.576,-24.153C-3.135,-24.153 -3.198,-22.174 -3.198,-22.174L-3.198,1.979L0,1.979L0,-22.174Z" style="fill:rgb(180,221,220);fill-rule:nonzero;"/>
        </g>
        <g transform="matrix(1,0,0,1,2536.84,1603.02)">
            <path d="M0,-22.174C0,-22.174 -0.016,-24.153 -1.575,-24.153C-3.135,-24.153 -3.198,-22.174 -3.198,-22.174L-3.198,1.979L0,1.979L0,-22.174Z" style="fill:rgb(180,221,220);fill-rule:nonzero;"/>
        </g>
        <g transform="matrix(1,0,0,1,2541.04,1603.02)">
            <path d="M0,-22.174C0,-22.174 -0.016,-24.153 -1.575,-24.153C-3.135,-24.153 -3.198,-22.174 -3.198,-22.174L-3.198,1.979L0,1.979L0,-22.174Z" style="fill:rgb(180,221,220);fill-rule:nonzero;"/>
        </g>
        <g transform="matrix(1,0,0,1,2545.24,1603.02)">
            <path d="M0,-22.174C0,-22.174 -0.016,-24.153 -1.575,-24.153C-3.135,-24.153 -3.198,-22.174 -3.198,-22.174L-3.198,1.979L0,1.979L0,-22.174Z" style="fill:rgb(180,221,220);fill-rule:nonzero;"/>
        </g>
        <g transform="matrix(1,0,0,1,2549.44,1603.02)">
            <path d="M0,-22.174C0,-22.174 -0.016,-24.153 -1.575,-24.153C-3.135,-24.153 -3.198,-22.174 -3.198,-22.174L-3.198,1.979L0,1.979L0,-22.174Z" style="fill:rgb(180,221,220);fill-rule:nonzero;"/>
        </g>
        <g transform="matrix(1,0,0,1,2553.63,1603.02)">
            <path d="M0,-22.174C0,-22.174 -0.016,-24.153 -1.575,-24.153C-3.135,-24.153 -3.198,-22.174 -3.198,-22.174L-3.198,1.979L0,1.979L0,-22.174Z" style="fill:rgb(180,221,220);fill-rule:nonzero;"/>
        </g>
        <g transform="matrix(1,0,0,1,2557.83,1603.02)">
            <path d="M0,-22.174C0,-22.174 -0.016,-24.153 -1.576,-24.153C-3.136,-24.153 -3.198,-22.174 -3.198,-22.174L-3.198,1.979L0,1.979L0,-22.174Z" style="fill:rgb(180,221,220);fill-rule:nonzero;"/>
        </g>
        <g transform="matrix(1,0,0,1,2562.03,1603.02)">
            <path d="M0,-22.174C0,-22.174 -0.016,-24.153 -1.576,-24.153C-3.136,-24.153 -3.198,-22.174 -3.198,-22.174L-3.198,1.979L0,1.979L0,-22.174Z" style="fill:rgb(180,221,220);fill-rule:nonzero;"/>
        </g>
        <g transform="matrix(1,0,0,1,2566.23,1603.02)">
            <path d="M0,-22.174C0,-22.174 -0.016,-24.153 -1.576,-24.153C-3.136,-24.153 -3.198,-22.174 -3.198,-22.174L-3.198,1.979L0,1.979L0,-22.174Z" style="fill:rgb(180,221,220);fill-rule:nonzero;"/>
        </g>
        <g transform="matrix(1,0,0,1,2570.42,1603.02)">
            <path d="M0,-22.174C0,-22.174 -0.016,-24.153 -1.576,-24.153C-3.136,-24.153 -3.198,-22.174 -3.198,-22.174L-3.198,1.979L0,1.979L0,-22.174Z" style="fill:rgb(180,221,220);fill-rule:nonzero;"/>
        </g>
        <g transform="matrix(1,0,0,1,2574.62,1603.02)">
            <path d="M0,-22.174C0,-22.174 -0.016,-24.153 -1.576,-24.153C-3.136,-24.153 -3.198,-22.174 -3.198,-22.174L-3.198,1.979L0,1.979L0,-22.174Z" style="fill:rgb(180,221,220);fill-rule:nonzero;"/>
        </g>
        <g transform="matrix(1,0,0,1,2578.82,1603.02)">
            <path d="M0,-22.174C0,-22.174 -0.016,-24.153 -1.576,-24.153C-3.135,-24.153 -3.198,-22.174 -3.198,-22.174L-3.198,1.979L0,1.979L0,-22.174Z" style="fill:rgb(180,221,220);fill-rule:nonzero;"/>
        </g>
        <g transform="matrix(1,0,0,1,2583.02,1603.02)">
            <path d="M0,-22.174C0,-22.174 -0.016,-24.153 -1.576,-24.153C-3.135,-24.153 -3.198,-22.174 -3.198,-22.174L-3.198,1.979L0,1.979L0,-22.174Z" style="fill:rgb(180,221,220);fill-rule:nonzero;"/>
        </g>
        <g transform="matrix(1,0,0,1,2587.21,1603.02)">
            <path d="M0,-22.174C0,-22.174 -0.016,-24.153 -1.576,-24.153C-3.135,-24.153 -3.198,-22.174 -3.198,-22.174L-3.198,1.979L0,1.979L0,-22.174Z" style="fill:rgb(180,221,220);fill-rule:nonzero;"/>
        </g>
        <g transform="matrix(1,0,0,1,2591.41,1603.02)">
            <path d="M0,-22.174C0,-22.174 -0.016,-24.153 -1.576,-24.153C-3.135,-24.153 -3.198,-22.174 -3.198,-22.174L-3.198,1.979L0,1.979L0,-22.174Z" style="fill:rgb(180,221,220);fill-rule:nonzero;"/>
        </g>
        <g transform="matrix(1,0,0,1,2595.61,1603.02)">
            <path d="M0,-22.174C0,-22.174 -0.016,-24.153 -1.576,-24.153C-3.135,-24.153 -3.198,-22.174 -3.198,-22.174L-3.198,1.979L0,1.979L0,-22.174Z" style="fill:rgb(180,221,220);fill-rule:nonzero;"/>
        </g>
        <g transform="matrix(1,0,0,1,2599.81,1603.02)">
            <path d="M0,-22.174C0,-22.174 -0.016,-24.153 -1.575,-24.153C-3.135,-24.153 -3.198,-22.174 -3.198,-22.174L-3.198,1.979L0,1.979L0,-22.174Z" style="fill:rgb(180,221,220);fill-rule:nonzero;"/>
        </g>
        <g transform="matrix(1,0,0,1,2604,1603.02)">
            <path d="M0,-22.174C0,-22.174 -0.016,-24.153 -1.575,-24.153C-3.135,-24.153 -3.198,-22.174 -3.198,-22.174L-3.198,1.979L0,1.979L0,-22.174Z" style="fill:rgb(180,221,220);fill-rule:nonzero;"/>
        </g>
        <g transform="matrix(1,0,0,1,2608.2,1603.02)">
            <path d="M0,-22.174C0,-22.174 -0.016,-24.153 -1.575,-24.153C-3.135,-24.153 -3.198,-22.174 -3.198,-22.174L-3.198,1.979L0,1.979L0,-22.174Z" style="fill:rgb(180,221,220);fill-rule:nonzero;"/>
        </g>
        <g transform="matrix(1,0,0,1,2612.4,1603.02)">
            <path d="M0,-22.174C0,-22.174 -0.016,-24.153 -1.575,-24.153C-3.135,-24.153 -3.198,-22.174 -3.198,-22.174L-3.198,1.979L0,1.979L0,-22.174Z" style="fill:rgb(180,221,220);fill-rule:nonzero;"/>
        </g>
        <g transform="matrix(1,0,0,1,2616.6,1603.02)">
            <path d="M0,-22.174C0,-22.174 -0.016,-24.153 -1.575,-24.153C-3.135,-24.153 -3.198,-22.174 -3.198,-22.174L-3.198,1.979L0,1.979L0,-22.174Z" style="fill:rgb(180,221,220);fill-rule:nonzero;"/>
        </g>
        <g transform="matrix(1,0,0,1,2620.79,1603.02)">
            <path d="M0,-22.174C0,-22.174 -0.016,-24.153 -1.576,-24.153C-3.136,-24.153 -3.198,-22.174 -3.198,-22.174L-3.198,1.979L0,1.979L0,-22.174Z" style="fill:rgb(180,221,220);fill-rule:nonzero;"/>
        </g>
        <g transform="matrix(1,0,0,1,2624.99,1603.02)">
            <path d="M0,-22.174C0,-22.174 -0.016,-24.153 -1.576,-24.153C-3.136,-24.153 -3.198,-22.174 -3.198,-22.174L-3.198,1.979L0,1.979L0,-22.174Z" style="fill:rgb(180,221,220);fill-rule:nonzero;"/>
        </g>
        <g transform="matrix(1,0,0,1,2629.19,1603.02)">
            <path d="M0,-22.174C0,-22.174 -0.016,-24.153 -1.576,-24.153C-3.136,-24.153 -3.198,-22.174 -3.198,-22.174L-3.198,1.979L0,1.979L0,-22.174Z" style="fill:rgb(180,221,220);fill-rule:nonzero;"/>
        </g>
        <g transform="matrix(1,0,0,1,2633.39,1603.02)">
            <path d="M0,-22.174C0,-22.174 -0.016,-24.153 -1.576,-24.153C-3.136,-24.153 -3.198,-22.174 -3.198,-22.174L-3.198,1.979L0,1.979L0,-22.174Z" style="fill:rgb(180,221,220);fill-rule:nonzero;"/>
        </g>
        <g transform="matrix(1,0,0,1,2637.58,1603.02)">
            <path d="M0,-22.174C0,-22.174 -0.016,-24.153 -1.576,-24.153C-3.136,-24.153 -3.198,-22.174 -3.198,-22.174L-3.198,1.979L0,1.979L0,-22.174Z" style="fill:rgb(180,221,220);fill-rule:nonzero;"/>
        </g>
        <g transform="matrix(1,0,0,1,2641.78,1603.02)">
            <path d="M0,-22.174C0,-22.174 -0.016,-24.153 -1.576,-24.153C-3.135,-24.153 -3.198,-22.174 -3.198,-22.174L-3.198,1.979L0,1.979L0,-22.174Z" style="fill:rgb(180,221,220);fill-rule:nonzero;"/>
        </g>
        <g transform="matrix(1,0,0,1,2650.18,1603.02)">
            <path d="M0,-22.174C0,-22.174 -0.016,-24.153 -1.576,-24.153C-3.135,-24.153 -3.198,-22.174 -3.198,-22.174L-3.198,1.979L0,1.979L0,-22.174Z" style="fill:rgb(180,221,220);fill-rule:nonzero;"/>
        </g>
        <g transform="matrix(1,0,0,1,2652.14,1604.99)">
            <path d="M0,-25.971L0,0L-0.954,0L-0.954,-24.155C-0.954,-24.155 -0.909,-25.487 -0.031,-25.956C-0.015,-25.971 -0.015,-25.971 0,-25.971" style="fill:rgb(180,221,220);fill-rule:nonzero;"/>
        </g>
        <g transform="matrix(1,0,0,1,2476.48,1668.93)">
            <path d="M0,167.235L0,0L157.907,0L156.897,167.235" style="fill:none;fill-rule:nonzero;stroke:rgb(180,221,220);stroke-width:6px;"/>
        </g>
        <g transform="matrix(-1,0,0,1,2476.48,1792.35)">
            <ellipse cx="0" cy="-1.41" rx="1.411" ry="1.41" style="fill:none;stroke:rgb(133,54,29);stroke-width:5px;"/>
        </g>
        <g transform="matrix(-1,0,0,1,2476.48,1786.45)">
            <ellipse cx="0" cy="-1.41" rx="1.411" ry="1.41" style="fill:none;stroke:rgb(133,54,29);stroke-width:5px;"/>
        </g>
        <g transform="matrix(-1,0,0,1,2476.48,1780.55)">
            <ellipse cx="0" cy="-1.41" rx="1.411" ry="1.41" style="fill:none;stroke:rgb(133,54,29);stroke-width:5px;"/>
        </g>
        <g transform="matrix(-1,0,0,1,2476.48,1774.65)">
            <circle cx="0" cy="-1.411" r="1.411" style="fill:none;stroke:rgb(133,54,29);stroke-width:5px;"/>
        </g>
        <g transform="matrix(-1,0,0,1,2476.48,1768.75)">
            <ellipse cx="0" cy="-1.41" rx="1.411" ry="1.41" style="fill:none;stroke:rgb(133,54,29);stroke-width:5px;"/>
        </g>
        <g transform="matrix(-1,0,0,1,2476.48,1762.85)">
            <ellipse cx="0" cy="-1.41" rx="1.411" ry="1.41" style="fill:none;stroke:rgb(133,54,29);stroke-width:5px;"/>
        </g>
        <g transform="matrix(-1,0,0,1,2476.48,1756.95)">
            <ellipse cx="0" cy="-1.41" rx="1.411" ry="1.41" style="fill:none;stroke:rgb(133,54,29);stroke-width:5px;"/>
        </g>
        <g transform="matrix(-1,0,0,1,2476.48,1751.05)">
            <ellipse cx="0" cy="-1.41" rx="1.411" ry="1.41" style="fill:none;stroke:rgb(133,54,29);stroke-width:5px;"/>
        </g>
        <g transform="matrix(-1,0,0,1,2476.48,1745.15)">
            <ellipse cx="0" cy="-1.41" rx="1.411" ry="1.41" style="fill:none;stroke:rgb(133,54,29);stroke-width:5px;"/>
        </g>
        <g transform="matrix(-1,0,0,1,2476.48,1739.25)">
            <circle cx="0" cy="-1.411" r="1.411" style="fill:none;stroke:rgb(133,54,29);stroke-width:5px;"/>
        </g>
        <g transform="matrix(-1,0,0,1,2476.48,1733.35)">
            <ellipse cx="0" cy="-1.41" rx="1.411" ry="1.41" style="fill:none;stroke:rgb(133,54,29);stroke-width:5px;"/>
        </g>
        <g transform="matrix(-1,0,0,1,2476.48,1727.45)">
            <ellipse cx="0" cy="-1.41" rx="1.411" ry="1.41" style="fill:none;stroke:rgb(133,54,29);stroke-width:5px;"/>
        </g>
        <g transform="matrix(-1,0,0,1,2476.48,1721.55)">
            <ellipse cx="0" cy="-1.41" rx="1.411" ry="1.41" style="fill:none;stroke:rgb(133,54,29);stroke-width:5px;"/>
        </g>
        <g transform="matrix(-1,0,0,1,2476.48,1715.66)">
            <ellipse cx="0" cy="-1.41" rx="1.411" ry="1.41" style="fill:none;stroke:rgb(133,54,29);stroke-width:5px;"/>
        </g>
        <g transform="matrix(-1,0,0,1,2476.48,1709.76)">
            <ellipse cx="0" cy="-1.41" rx="1.411" ry="1.41" style="fill:none;stroke:rgb(133,54,29);stroke-width:5px;"/>
        </g>
        <g transform="matrix(-1,0,0,1,2476.48,1703.86)">
            <circle cx="0" cy="-1.411" r="1.411" style="fill:none;stroke:rgb(133,54,29);stroke-width:5px;"/>
        </g>
        <g transform="matrix(-1,0,0,1,2476.48,1697.96)">
            <ellipse cx="0" cy="-1.41" rx="1.411" ry="1.41" style="fill:none;stroke:rgb(133,54,29);stroke-width:5px;"/>
        </g>
        <g transform="matrix(-1,0,0,1,2476.48,1692.06)">
            <ellipse cx="0" cy="-1.41" rx="1.411" ry="1.41" style="fill:none;stroke:rgb(133,54,29);stroke-width:5px;"/>
        </g>
        <g transform="matrix(-1,0,0,1,2476.48,1686.16)">
            <ellipse cx="0" cy="-1.41" rx="1.411" ry="1.41" style="fill:none;stroke:rgb(133,54,29);stroke-width:5px;"/>
        </g>
        <g transform="matrix(-1,0,0,1,2476.48,1680.26)">
            <ellipse cx="0" cy="-1.41" rx="1.411" ry="1.41" style="fill:none;stroke:rgb(133,54,29);stroke-width:5px;"/>
        </g>
        <g transform="matrix(-1,0,0,1,2476.48,1674.36)">
            <ellipse cx="0" cy="-1.41" rx="1.411" ry="1.41" style="fill:none;stroke:rgb(133,54,29);stroke-width:5px;"/>
        </g>
        <g transform="matrix(-1,0,0,1,2634.39,1792.35)">
            <ellipse cx="0" cy="-1.41" rx="1.411" ry="1.41" style="fill:none;stroke:rgb(133,54,29);stroke-width:5px;"/>
        </g>
        <g transform="matrix(-1,0,0,1,2634.39,1786.45)">
            <ellipse cx="0" cy="-1.41" rx="1.411" ry="1.41" style="fill:none;stroke:rgb(133,54,29);stroke-width:5px;"/>
        </g>
        <g transform="matrix(-1,0,0,1,2634.39,1780.55)">
            <ellipse cx="0" cy="-1.41" rx="1.411" ry="1.41" style="fill:none;stroke:rgb(133,54,29);stroke-width:5px;"/>
        </g>
        <g transform="matrix(-1,0,0,1,2634.39,1774.65)">
            <circle cx="0" cy="-1.411" r="1.411" style="fill:none;stroke:rgb(133,54,29);stroke-width:5px;"/>
        </g>
        <g transform="matrix(-1,0,0,1,2634.39,1768.75)">
            <ellipse cx="0" cy="-1.41" rx="1.411" ry="1.41" style="fill:none;stroke:rgb(133,54,29);stroke-width:5px;"/>
        </g>
        <g transform="matrix(-1,0,0,1,2634.39,1762.85)">
            <ellipse cx="0" cy="-1.41" rx="1.411" ry="1.41" style="fill:none;stroke:rgb(133,54,29);stroke-width:5px;"/>
        </g>
        <g transform="matrix(-1,0,0,1,2634.39,1756.95)">
            <ellipse cx="0" cy="-1.41" rx="1.411" ry="1.41" style="fill:none;stroke:rgb(133,54,29);stroke-width:5px;"/>
        </g>
        <g transform="matrix(-1,0,0,1,2634.39,1751.05)">
            <ellipse cx="0" cy="-1.41" rx="1.411" ry="1.41" style="fill:none;stroke:rgb(133,54,29);stroke-width:5px;"/>
        </g>
        <g transform="matrix(-1,0,0,1,2634.39,1745.15)">
            <ellipse cx="0" cy="-1.41" rx="1.411" ry="1.41" style="fill:none;stroke:rgb(133,54,29);stroke-width:5px;"/>
        </g>
        <g transform="matrix(-1,0,0,1,2634.39,1739.25)">
            <circle cx="0" cy="-1.411" r="1.411" style="fill:none;stroke:rgb(133,54,29);stroke-width:5px;"/>
        </g>
        <g transform="matrix(-1,0,0,1,2634.39,1733.35)">
            <ellipse cx="0" cy="-1.41" rx="1.411" ry="1.41" style="fill:none;stroke:rgb(133,54,29);stroke-width:5px;"/>
        </g>
        <g transform="matrix(-1,0,0,1,2634.39,1727.45)">
            <ellipse cx="0" cy="-1.41" rx="1.411" ry="1.41" style="fill:none;stroke:rgb(133,54,29);stroke-width:5px;"/>
        </g>
        <g transform="matrix(-1,0,0,1,2634.39,1721.55)">
            <ellipse cx="0" cy="-1.41" rx="1.411" ry="1.41" style="fill:none;stroke:rgb(133,54,29);stroke-width:5px;"/>
        </g>
        <g transform="matrix(-1,0,0,1,2634.39,1715.66)">
            <ellipse cx="0" cy="-1.41" rx="1.411" ry="1.41" style="fill:none;stroke:rgb(133,54,29);stroke-width:5px;"/>
        </g>
        <g transform="matrix(-1,0,0,1,2634.39,1709.76)">
            <ellipse cx="0" cy="-1.41" rx="1.411" ry="1.41" style="fill:none;stroke:rgb(133,54,29);stroke-width:5px;"/>
        </g>
        <g transform="matrix(-1,0,0,1,2634.39,1703.86)">
            <circle cx="0" cy="-1.411" r="1.411" style="fill:none;stroke:rgb(133,54,29);stroke-width:5px;"/>
        </g>
        <g transform="matrix(-1,0,0,1,2634.39,1697.96)">
            <ellipse cx="0" cy="-1.41" rx="1.411" ry="1.41" style="fill:none;stroke:rgb(133,54,29);stroke-width:5px;"/>
        </g>
        <g transform="matrix(-1,0,0,1,2634.39,1692.06)">
            <ellipse cx="0" cy="-1.41" rx="1.411" ry="1.41" style="fill:none;stroke:rgb(133,54,29);stroke-width:5px;"/>
        </g>
        <g transform="matrix(-1,0,0,1,2634.39,1686.16)">
            <ellipse cx="0" cy="-1.41" rx="1.411" ry="1.41" style="fill:none;stroke:rgb(133,54,29);stroke-width:5px;"/>
        </g>
        <g transform="matrix(-1,0,0,1,2634.39,1680.26)">
            <ellipse cx="0" cy="-1.41" rx="1.411" ry="1.41" style="fill:none;stroke:rgb(133,54,29);stroke-width:5px;"/>
        </g>
        <g transform="matrix(-1,0,0,1,2634.39,1674.36)">
            <ellipse cx="0" cy="-1.41" rx="1.411" ry="1.41" style="fill:none;stroke:rgb(133,54,29);stroke-width:5px;"/>
        </g>
        <g transform="matrix(0,-1,-1,0,2479.22,1667.51)">
            <circle cx="-1.41" cy="0" r="1.41" style="fill:none;stroke:rgb(133,54,29);stroke-width:5px;"/>
        </g>
        <g transform="matrix(0,-1,-1,0,2485.12,1667.51)">
            <circle cx="-1.41" cy="0" r="1.41" style="fill:none;stroke:rgb(133,54,29);stroke-width:5px;"/>
        </g>
        <g transform="matrix(0,-1,-1,0,2491.02,1667.51)">
            <ellipse cx="-1.411" cy="0" rx="1.41" ry="1.411" style="fill:none;stroke:rgb(133,54,29);stroke-width:5px;"/>
        </g>
        <g transform="matrix(0,-1,-1,0,2496.92,1667.51)">
            <circle cx="-1.41" cy="0" r="1.41" style="fill:none;stroke:rgb(133,54,29);stroke-width:5px;"/>
        </g>
        <g transform="matrix(0,-1,-1,0,2502.82,1667.51)">
            <circle cx="-1.41" cy="0" r="1.41" style="fill:none;stroke:rgb(133,54,29);stroke-width:5px;"/>
        </g>
        <g transform="matrix(0,-1,-1,0,2508.72,1667.51)">
            <ellipse cx="-1.411" cy="0" rx="1.41" ry="1.411" style="fill:none;stroke:rgb(133,54,29);stroke-width:5px;"/>
        </g>
        <g transform="matrix(0,-1,-1,0,2514.62,1667.51)">
            <circle cx="-1.41" cy="0" r="1.41" style="fill:none;stroke:rgb(133,54,29);stroke-width:5px;"/>
        </g>
        <g transform="matrix(0,-1,-1,0,2520.52,1667.51)">
            <circle cx="-1.41" cy="0" r="1.41" style="fill:none;stroke:rgb(133,54,29);stroke-width:5px;"/>
        </g>
        <g transform="matrix(0,-1,-1,0,2526.42,1667.51)">
            <ellipse cx="-1.411" cy="0" rx="1.41" ry="1.411" style="fill:none;stroke:rgb(133,54,29);stroke-width:5px;"/>
        </g>
        <g transform="matrix(0,-1,-1,0,2532.31,1667.51)">
            <circle cx="-1.41" cy="0" r="1.41" style="fill:none;stroke:rgb(133,54,29);stroke-width:5px;"/>
        </g>
        <g transform="matrix(0,-1,-1,0,2538.21,1667.51)">
            <circle cx="-1.41" cy="0" r="1.41" style="fill:none;stroke:rgb(133,54,29);stroke-width:5px;"/>
        </g>
        <g transform="matrix(0,-1,-1,0,2544.11,1667.51)">
            <ellipse cx="-1.411" cy="0" rx="1.41" ry="1.411" style="fill:none;stroke:rgb(133,54,29);stroke-width:5px;"/>
        </g>
        <g transform="matrix(0,-1,-1,0,2550.01,1667.51)">
            <circle cx="-1.41" cy="0" r="1.41" style="fill:none;stroke:rgb(133,54,29);stroke-width:5px;"/>
        </g>
        <g transform="matrix(0,-1,-1,0,2555.91,1667.51)">
            <circle cx="-1.41" cy="0" r="1.41" style="fill:none;stroke:rgb(133,54,29);stroke-width:5px;"/>
        </g>
        <g transform="matrix(0,-1,-1,0,2561.81,1667.51)">
            <ellipse cx="-1.411" cy="0" rx="1.41" ry="1.411" style="fill:none;stroke:rgb(133,54,29);stroke-width:5px;"/>
        </g>
        <g transform="matrix(0,-1,-1,0,2567.71,1667.51)">
            <circle cx="-1.41" cy="0" r="1.41" style="fill:none;stroke:rgb(133,54,29);stroke-width:5px;"/>
        </g>
        <g transform="matrix(0,-1,-1,0,2573.61,1667.51)">
            <circle cx="-1.41" cy="0" r="1.41" style="fill:none;stroke:rgb(133,54,29);stroke-width:5px;"/>
        </g>
        <g transform="matrix(0,-1,-1,0,2579.51,1667.51)">
            <ellipse cx="-1.411" cy="0" rx="1.41" ry="1.411" style="fill:none;stroke:rgb(133,54,29);stroke-width:5px;"/>
        </g>
        <g transform="matrix(0,-1,-1,0,2585.41,1667.51)">
            <circle cx="-1.41" cy="0" r="1.41" style="fill:none;stroke:rgb(133,54,29);stroke-width:5px;"/>
        </g>
        <g transform="matrix(0,-1,-1,0,2591.31,1667.51)">
            <circle cx="-1.41" cy="0" r="1.41" style="fill:none;stroke:rgb(133,54,29);stroke-width:5px;"/>
        </g>
        <g transform="matrix(0,-1,-1,0,2597.21,1667.51)">
            <ellipse cx="-1.411" cy="0" rx="1.41" ry="1.411" style="fill:none;stroke:rgb(133,54,29);stroke-width:5px;"/>
        </g>
        <g transform="matrix(0,-1,-1,0,2603.11,1667.51)">
            <circle cx="-1.41" cy="0" r="1.41" style="fill:none;stroke:rgb(133,54,29);stroke-width:5px;"/>
        </g>
        <g transform="matrix(0,-1,-1,0,2609.01,1667.51)">
            <circle cx="-1.41" cy="0" r="1.41" style="fill:none;stroke:rgb(133,54,29);stroke-width:5px;"/>
        </g>
        <g transform="matrix(0,-1,-1,0,2614.91,1667.51)">
            <ellipse cx="-1.411" cy="0" rx="1.41" ry="1.411" style="fill:none;stroke:rgb(133,54,29);stroke-width:5px;"/>
        </g>
        <g transform="matrix(0,-1,-1,0,2620.81,1667.51)">
            <circle cx="-1.41" cy="0" r="1.41" style="fill:none;stroke:rgb(133,54,29);stroke-width:5px;"/>
        </g>
        <g transform="matrix(0,-1,-1,0,2626.71,1667.51)">
            <circle cx="-1.41" cy="0" r="1.41" style="fill:none;stroke:rgb(133,54,29);stroke-width:5px;"/>
        </g>
        <g transform="matrix(0,-1,-1,0,2632.61,1667.51)">
            <ellipse cx="-1.411" cy="0" rx="1.41" ry="1.411" style="fill:none;stroke:rgb(133,54,29);stroke-width:5px;"/>
        </g>
        <g transform="matrix(1,0,0,1,2626.71,1667.51)">
            <path d="M0,2.821C-0.779,2.821 -1.411,2.19 -1.411,1.411C-1.411,0.632 -0.779,0 0,0C0.779,0 1.411,0.632 1.411,1.411" style="fill:none;fill-rule:nonzero;stroke:rgb(133,54,29);stroke-width:5px;"/>
        </g>
        <g transform="matrix(0,-1,-1,0,2657.99,1721.21)">
            <circle cx="-2.325" cy="0" r="2.325" style="fill:none;stroke:rgb(133,54,29);stroke-width:6px;"/>
        </g>
        <g transform="matrix(0,-1,-1,0,2667.72,1721.21)">
            <circle cx="-2.325" cy="0" r="2.325" style="fill:none;stroke:rgb(133,54,29);stroke-width:6px;"/>
        </g>
        <g transform="matrix(0,-1,-1,0,2677.44,1721.21)">
            <circle cx="-2.325" cy="0" r="2.325" style="fill:none;stroke:rgb(133,54,29);stroke-width:6px;"/>
        </g>
        <g transform="matrix(0,-1,-1,0,2687.16,1721.21)">
            <circle cx="-2.325" cy="0" r="2.325" style="fill:none;stroke:rgb(133,54,29);stroke-width:6px;"/>
        </g>
        <g transform="matrix(0,-1,-1,0,2696.88,1721.21)">
            <circle cx="-2.325" cy="0" r="2.325" style="fill:none;stroke:rgb(133,54,29);stroke-width:6px;"/>
        </g>
        <g transform="matrix(0,-1,-1,0,2706.61,1721.21)">
            <circle cx="-2.325" cy="0" r="2.325" style="fill:none;stroke:rgb(133,54,29);stroke-width:6px;"/>
        </g>
        <g transform="matrix(1,0,0,1,2654.2,1719.16)">
            <path d="M0,0L58.185,0" style="fill:none;fill-rule:nonzero;stroke:rgb(133,54,29);stroke-width:5px;"/>
        </g>
        <g transform="matrix(1,0,0,1,2654.2,1727.91)">
            <path d="M0,0L58.185,0" style="fill:none;fill-rule:nonzero;stroke:rgb(133,54,29);stroke-width:5px;"/>
        </g>
        <g transform="matrix(-1,0,0,1,3035.21,533.538)">
            <rect x="534.814" y="1107.15" width="18.119" height="18.119" style="fill:none;stroke:rgb(133,54,29);stroke-width:8px;"/>
        </g>
        <g transform="matrix(-1,0,0,1,3097.3,533.538)">
            <rect x="565.86" y="1107.15" width="18.119" height="18.119" style="fill:none;stroke:rgb(133,54,29);stroke-width:8px;"/>
        </g>
        <g transform="matrix(-1,0,0,1,3159.39,533.538)">
            <rect x="596.906" y="1107.15" width="18.119" height="18.119" style="fill:none;stroke:rgb(133,54,29);stroke-width:8px;"/>
        </g>
        <g transform="matrix(-1,0,0,1,3221.31,533.538)">
            <rect x="627.865" y="1107.15" width="18.119" height="18.119" style="fill:none;stroke:rgb(133,54,29);stroke-width:8px;"/>
        </g>
        <g transform="matrix(-1,0,0,1,3283.4,533.538)">
            <rect x="658.911" y="1107.15" width="18.119" height="18.119" style="fill:none;stroke:rgb(133,54,29);stroke-width:8px;"/>
        </g>
        <g transform="matrix(1,0,0,1,2459.99,1568.73)">
            <path d="M0,-10.729L6.198,0L-6.198,0L0,-10.729Z" style="fill:rgb(133,54,29);fill-rule:nonzero;"/>
        </g>
        <g transform="matrix(1,0,0,1,2472.38,1568.73)">
            <path d="M0,-10.729L6.198,0L-6.198,0L0,-10.729Z" style="fill:rgb(133,54,29);fill-rule:nonzero;"/>
        </g>
        <g transform="matrix(1,0,0,1,2484.78,1568.73)">
            <path d="M0,-10.729L6.198,0L-6.198,0L0,-10.729Z" style="fill:rgb(133,54,29);fill-rule:nonzero;"/>
        </g>
        <g transform="matrix(1,0,0,1,2497.18,1568.73)">
            <path d="M0,-10.729L6.198,0L-6.198,0L0,-10.729Z" style="fill:rgb(133,54,29);fill-rule:nonzero;"/>
        </g>
        <g transform="matrix(1,0,0,1,2509.57,1568.73)">
            <path d="M0,-10.729L6.198,0L-6.198,0L0,-10.729Z" style="fill:rgb(133,54,29);fill-rule:nonzero;"/>
        </g>
        <g transform="matrix(1,0,0,1,2521.97,1568.73)">
            <path d="M0,-10.729L6.198,0L-6.198,0L0,-10.729Z" style="fill:rgb(133,54,29);fill-rule:nonzero;"/>
        </g>
        <g transform="matrix(1,0,0,1,2534.36,1568.73)">
            <path d="M0,-10.729L6.198,0L-6.198,0L0,-10.729Z" style="fill:rgb(133,54,29);fill-rule:nonzero;"/>
        </g>
        <g transform="matrix(1,0,0,1,2546.76,1568.73)">
            <path d="M0,-10.729L6.198,0L-6.198,0L0,-10.729Z" style="fill:rgb(133,54,29);fill-rule:nonzero;"/>
        </g>
        <g transform="matrix(1,0,0,1,2559.15,1568.73)">
            <path d="M0,-10.729L6.198,0L-6.198,0L0,-10.729Z" style="fill:rgb(133,54,29);fill-rule:nonzero;"/>
        </g>
        <g transform="matrix(1,0,0,1,2571.55,1568.73)">
            <path d="M0,-10.729L6.198,0L-6.198,0L0,-10.729Z" style="fill:rgb(133,54,29);fill-rule:nonzero;"/>
        </g>
        <g transform="matrix(1,0,0,1,2583.94,1568.73)">
            <path d="M0,-10.729L6.198,0L-6.198,0L0,-10.729Z" style="fill:rgb(133,54,29);fill-rule:nonzero;"/>
        </g>
        <g transform="matrix(1,0,0,1,2596.34,1568.73)">
            <path d="M0,-10.729L6.198,0L-6.198,0L0,-10.729Z" style="fill:rgb(133,54,29);fill-rule:nonzero;"/>
        </g>
        <g transform="matrix(1,0,0,1,2608.74,1568.73)">
            <path d="M0,-10.729L6.198,0L-6.198,0L0,-10.729Z" style="fill:rgb(133,54,29);fill-rule:nonzero;"/>
        </g>
        <g transform="matrix(1,0,0,1,2621.13,1568.73)">
            <path d="M0,-10.729L6.198,0L-6.198,0L0,-10.729Z" style="fill:rgb(133,54,29);fill-rule:nonzero;"/>
        </g>
        <g transform="matrix(1,0,0,1,2633.53,1568.73)">
            <path d="M0,-10.729L6.198,0L-6.198,0L0,-10.729Z" style="fill:rgb(133,54,29);fill-rule:nonzero;"/>
        </g>
        <g transform="matrix(1,0,0,1,2645.92,1568.73)">
            <path d="M0,-10.729L6.198,0L-6.198,0L0,-10.729Z" style="fill:rgb(133,54,29);fill-rule:nonzero;"/>
        </g>
        <g transform="matrix(1,0,0,1,2396.18,1619.95)">
            <path d="M0,-10.04L-5.797,0L5.797,0L0,-10.04Z" style="fill:rgb(133,54,29);fill-rule:nonzero;"/>
        </g>
        <g transform="matrix(1,0,0,1,2407.77,1619.95)">
            <path d="M0,-10.04L-5.797,0L5.797,0L0,-10.04Z" style="fill:rgb(133,54,29);fill-rule:nonzero;"/>
        </g>
        <g transform="matrix(1,0,0,1,2419.36,1619.95)">
            <path d="M0,-10.04L-5.797,0L5.797,0L0,-10.04Z" style="fill:rgb(133,54,29);fill-rule:nonzero;"/>
        </g>
        <g transform="matrix(1,0,0,1,2430.96,1619.95)">
            <path d="M0,-10.04L-5.797,0L5.797,0L0,-10.04Z" style="fill:rgb(133,54,29);fill-rule:nonzero;"/>
        </g>
        <g transform="matrix(1,0,0,1,2442.55,1619.95)">
            <path d="M0,-10.04L-5.796,0L5.797,0L0,-10.04Z" style="fill:rgb(133,54,29);fill-rule:nonzero;"/>
        </g>
        <g transform="matrix(1,0,0,1,2448.34,1610.54)">
            <path d="M0,9.404L5.437,9.404L5.437,0L0,9.404Z" style="fill:rgb(133,54,29);fill-rule:nonzero;"/>
        </g>
        <g transform="matrix(1,0,0,1,2709.77,1619.95)">
            <path d="M0,-10.04L5.797,0L-5.796,0L0,-10.04Z" style="fill:rgb(133,54,29);fill-rule:nonzero;"/>
        </g>
        <g transform="matrix(1,0,0,1,2698.18,1619.95)">
            <path d="M0,-10.04L5.797,0L-5.796,0L0,-10.04Z" style="fill:rgb(133,54,29);fill-rule:nonzero;"/>
        </g>
        <g transform="matrix(1,0,0,1,2686.58,1619.95)">
            <path d="M0,-10.04L5.797,0L-5.796,0L0,-10.04Z" style="fill:rgb(133,54,29);fill-rule:nonzero;"/>
        </g>
        <g transform="matrix(1,0,0,1,2674.99,1619.95)">
            <path d="M0,-10.04L5.797,0L-5.796,0L0,-10.04Z" style="fill:rgb(133,54,29);fill-rule:nonzero;"/>
        </g>
        <g transform="matrix(1,0,0,1,2663.4,1619.95)">
            <path d="M0,-10.04L5.797,0L-5.796,0L0,-10.04Z" style="fill:rgb(133,54,29);fill-rule:nonzero;"/>
        </g>
        <g transform="matrix(1,0,0,1,2657.61,1610.54)">
            <path d="M0,9.404L-5.437,9.404L-5.437,0L0,9.404Z" style="fill:rgb(133,54,29);fill-rule:nonzero;"/>
        </g>
        <g transform="matrix(1,0,0,1,2409.17,1761.21)">
            <path d="M0,32.867C0,32.867 -0.186,28.105 2.282,23.343C2.282,23.343 -1.647,19.892 -0.116,14.283C1.489,8.404 17.253,0 17.253,0" style="fill:none;fill-rule:nonzero;stroke:rgb(133,54,29);stroke-width:5px;"/>
        </g>
        <g transform="matrix(1,0,0,1,2442.85,1761.21)">
            <path d="M0,32.839C0,32.839 0.186,28.077 -2.282,23.315C-2.282,23.315 1.647,19.864 0.116,14.255C-1.489,8.376 -17.142,0 -17.142,0" style="fill:none;fill-rule:nonzero;stroke:rgb(133,54,29);stroke-width:5px;"/>
        </g>
        <g transform="matrix(1,0,0,1,2437.43,1769.62)">
            <path d="M0,66.541L-21.807,66.541C-21.807,66.541 -23.865,24.533 -18.927,18.609C-18.927,18.609 -23.301,15.02 -21.326,9.55C-19.421,4.27 -11.468,0.278 -10.918,0.01C-10.912,0.003 -10.905,0 -10.902,0.003C-10.898,0.003 -10.895,0.007 -10.889,0.01C-10.338,0.278 -2.386,4.27 -0.48,9.55C1.494,15.02 -2.88,18.609 -2.88,18.609C2.058,24.533 0,66.541 0,66.541" style="fill:rgb(133,54,29);fill-rule:nonzero;"/>
        </g>
        <g transform="matrix(1,0,0,1,2426.54,1769.63)">
            <path d="M0,-0.017L0,0C-0.007,-0.003 -0.01,-0.007 -0.013,-0.007C-0.003,-0.014 0,-0.017 0,-0.017" style="fill:rgb(133,54,29);fill-rule:nonzero;"/>
        </g>
        <g transform="matrix(1,0,0,1,2426.53,1769.62)">
            <path d="M0,0.003C-0.003,0 -0.01,0.003 -0.017,0.01L-0.017,-0.007C-0.017,-0.007 -0.01,-0.004 0,0.003" style="fill:rgb(133,54,29);fill-rule:nonzero;"/>
        </g>
        <g transform="matrix(0,-1,-1,0,2463.9,1815.12)">
            <path d="M-21.043,21.043L21.043,21.043" style="fill:none;fill-rule:nonzero;stroke:rgb(133,54,29);stroke-width:3px;"/>
        </g>
        <g transform="matrix(0,-1,-1,0,2427.65,1812.53)">
            <path d="M-18.458,18.458L18.458,18.458" style="fill:none;fill-rule:nonzero;stroke:rgb(161,86,94);stroke-width:2px;"/>
        </g>
        <g transform="matrix(0,-1,-1,0,2424.45,1815.12)">
            <path d="M-21.043,21.043L21.043,21.043" style="fill:none;fill-rule:nonzero;stroke:rgb(133,54,29);stroke-width:3px;"/>
        </g>
        <g transform="matrix(0,-1,-1,0,2430.24,1815.12)">
            <path d="M-21.043,21.043L21.043,21.043" style="fill:none;fill-rule:nonzero;stroke:rgb(133,54,29);stroke-width:3px;"/>
        </g>
        <g transform="matrix(0,-1,-1,0,2469.75,1815.12)">
            <path d="M-21.043,21.043L21.043,21.043" style="fill:none;fill-rule:nonzero;stroke:rgb(133,54,29);stroke-width:3px;"/>
        </g>
        <g transform="matrix(1,0,0,1,2663.31,1761.01)">
            <path d="M0,32.867C0,32.867 -0.186,28.105 2.282,23.343C2.282,23.343 -1.647,19.892 -0.116,14.283C1.489,8.404 17.253,0 17.253,0" style="fill:none;fill-rule:nonzero;stroke:rgb(133,54,29);stroke-width:5px;"/>
        </g>
        <g transform="matrix(1,0,0,1,2696.98,1761.01)">
            <path d="M0,32.84C0,32.84 0.186,28.077 -2.282,23.315C-2.282,23.315 1.647,19.864 0.116,14.255C-1.489,8.377 -17.142,0 -17.142,0" style="fill:none;fill-rule:nonzero;stroke:rgb(133,54,29);stroke-width:5px;"/>
        </g>
        <g transform="matrix(1,0,0,1,2691.57,1769.43)">
            <path d="M0,66.735L-21.807,66.735C-21.807,66.735 -23.865,24.534 -18.927,18.609C-18.927,18.609 -23.301,15.02 -21.326,9.549C-19.421,4.271 -11.469,0.278 -10.918,0.009C-10.912,0.003 -10.905,0 -10.902,0.003C-10.898,0.003 -10.895,0.006 -10.889,0.009C-10.339,0.278 -2.386,4.271 -0.48,9.549C1.494,15.02 -2.88,18.609 -2.88,18.609C2.058,24.534 0,66.735 0,66.735" style="fill:rgb(133,54,29);fill-rule:nonzero;"/>
        </g>
        <g transform="matrix(0.00451735,-0.99999,-0.99999,-0.00451735,2718.03,1815.21)">
            <path d="M-21.045,21.141L21.236,21.141" style="fill:none;fill-rule:nonzero;stroke:rgb(133,54,29);stroke-width:3px;"/>
        </g>
        <g transform="matrix(0,-1,-1,0,2723.89,1815.12)">
            <path d="M-21.043,21.043L21.043,21.043" style="fill:none;fill-rule:nonzero;stroke:rgb(133,54,29);stroke-width:3px;"/>
        </g>
        <g transform="matrix(0.00453532,-0.99999,-0.99999,-0.00453532,2729.55,1815.4)">
            <path d="M-20.852,20.947L21.042,20.947" style="fill:none;fill-rule:nonzero;stroke:rgb(133,54,29);stroke-width:3px;"/>
        </g>
        <g transform="matrix(0.00451238,-0.99999,-0.99999,-0.00451238,2678.41,1815.3)">
            <path d="M-20.958,21.053L21.148,21.053" style="fill:none;fill-rule:nonzero;stroke:rgb(133,54,29);stroke-width:3px;"/>
        </g>
        <g transform="matrix(0.00648032,-0.999979,-0.999979,-0.00648032,2684.33,1815.29)">
            <path d="M-21.004,21.141L21.278,21.141" style="fill:none;fill-rule:nonzero;stroke:rgb(133,54,29);stroke-width:3px;"/>
        </g>
        <g transform="matrix(0,-1,-1,0,2416.08,1817.7)">
            <path d="M-18.458,18.458L18.458,18.458" style="fill:none;fill-rule:nonzero;stroke:rgb(133,54,29);stroke-width:3px;"/>
        </g>
        <g transform="matrix(0,1,1,0,2569.64,1721.36)">
            <path d="M-114.859,-114.859L114.859,-114.859" style="fill:none;fill-rule:nonzero;stroke:rgb(178,142,141);stroke-width:6px;"/>
        </g>
        <g transform="matrix(0,1,1,0,2766.21,1721.1)">
            <path d="M-115.064,-115.064L115.064,-115.064" style="fill:none;fill-rule:nonzero;stroke:rgb(178,142,141);stroke-width:6px;"/>
        </g>
        <g transform="matrix(0,1,1,0,2498.06,1726.77)">
            <path d="M-106.824,-106.824L106.824,-106.824" style="fill:none;fill-rule:nonzero;stroke:rgb(178,142,141);stroke-width:5px;"/>
        </g>
        <g transform="matrix(0,1,1,0,2822.82,1728.07)">
            <path d="M-108.113,-108.113L108.113,-108.113" style="fill:none;fill-rule:nonzero;stroke:rgb(178,142,141);stroke-width:5px;"/>
        </g>
        <g transform="matrix(-1,-5.04167e-06,-5.04167e-06,1,2453.79,1606.75)">
            <path d="M-198.347,0.001L0,0.001" style="fill:none;fill-rule:nonzero;stroke:rgb(161,86,94);stroke-width:5px;"/>
        </g>
        <g transform="matrix(0,1,1,0,2468.84,1612.44)">
            <path d="M-5.687,-5.687L5.687,-5.687" style="fill:none;fill-rule:nonzero;stroke:rgb(161,86,94);stroke-width:5px;"/>
        </g>
        <g transform="matrix(0,1,1,0,2474.62,1612.44)">
            <path d="M-5.687,-5.687L5.687,-5.687" style="fill:none;fill-rule:nonzero;stroke:rgb(161,86,94);stroke-width:5px;"/>
        </g>
        <g transform="matrix(0,1,1,0,2463.07,1612.44)">
            <path d="M-5.687,-5.687L5.687,-5.687" style="fill:none;fill-rule:nonzero;stroke:rgb(161,86,94);stroke-width:5px;"/>
        </g>
        <g transform="matrix(0,1,1,0,2480.39,1612.44)">
            <path d="M-5.687,-5.687L5.687,-5.687" style="fill:none;fill-rule:nonzero;stroke:rgb(161,86,94);stroke-width:5px;"/>
        </g>
        <g transform="matrix(0,1,1,0,2486.16,1612.44)">
            <path d="M-5.687,-5.687L5.687,-5.687" style="fill:none;fill-rule:nonzero;stroke:rgb(161,86,94);stroke-width:5px;"/>
        </g>
        <g transform="matrix(0,1,1,0,2491.94,1612.44)">
            <path d="M-5.687,-5.687L5.687,-5.687" style="fill:none;fill-rule:nonzero;stroke:rgb(161,86,94);stroke-width:5px;"/>
        </g>
        <g transform="matrix(0,1,1,0,2497.71,1612.44)">
            <path d="M-5.687,-5.687L5.687,-5.687" style="fill:none;fill-rule:nonzero;stroke:rgb(161,86,94);stroke-width:5px;"/>
        </g>
        <g transform="matrix(0,1,1,0,2503.48,1612.44)">
            <path d="M-5.687,-5.687L5.687,-5.687" style="fill:none;fill-rule:nonzero;stroke:rgb(161,86,94);stroke-width:5px;"/>
        </g>
        <g transform="matrix(0,1,1,0,2509.25,1612.44)">
            <path d="M-5.687,-5.687L5.687,-5.687" style="fill:none;fill-rule:nonzero;stroke:rgb(161,86,94);stroke-width:5px;"/>
        </g>
        <g transform="matrix(0,1,1,0,2515.03,1612.44)">
            <path d="M-5.687,-5.687L5.687,-5.687" style="fill:none;fill-rule:nonzero;stroke:rgb(161,86,94);stroke-width:5px;"/>
        </g>
        <g transform="matrix(0,1,1,0,2520.8,1612.44)">
            <path d="M-5.687,-5.687L5.687,-5.687" style="fill:none;fill-rule:nonzero;stroke:rgb(161,86,94);stroke-width:5px;"/>
        </g>
        <g transform="matrix(0,1,1,0,2526.57,1612.44)">
            <path d="M-5.687,-5.687L5.687,-5.687" style="fill:none;fill-rule:nonzero;stroke:rgb(161,86,94);stroke-width:5px;"/>
        </g>
        <g transform="matrix(0,1,1,0,2532.35,1612.44)">
            <path d="M-5.687,-5.687L5.687,-5.687" style="fill:none;fill-rule:nonzero;stroke:rgb(161,86,94);stroke-width:5px;"/>
        </g>
        <g transform="matrix(0,1,1,0,2538.12,1612.44)">
            <path d="M-5.687,-5.687L5.687,-5.687" style="fill:none;fill-rule:nonzero;stroke:rgb(161,86,94);stroke-width:5px;"/>
        </g>
        <g transform="matrix(0,1,1,0,2543.89,1612.44)">
            <path d="M-5.687,-5.687L5.687,-5.687" style="fill:none;fill-rule:nonzero;stroke:rgb(161,86,94);stroke-width:5px;"/>
        </g>
        <g transform="matrix(0,1,1,0,2549.66,1612.44)">
            <path d="M-5.687,-5.687L5.687,-5.687" style="fill:none;fill-rule:nonzero;stroke:rgb(161,86,94);stroke-width:5px;"/>
        </g>
        <g transform="matrix(0,1,1,0,2555.44,1612.44)">
            <path d="M-5.687,-5.687L5.687,-5.687" style="fill:none;fill-rule:nonzero;stroke:rgb(161,86,94);stroke-width:5px;"/>
        </g>
        <g transform="matrix(0,1,1,0,2561.21,1612.44)">
            <path d="M-5.687,-5.687L5.687,-5.687" style="fill:none;fill-rule:nonzero;stroke:rgb(161,86,94);stroke-width:5px;"/>
        </g>
        <g transform="matrix(0,1,1,0,2566.98,1612.44)">
            <path d="M-5.687,-5.687L5.687,-5.687" style="fill:none;fill-rule:nonzero;stroke:rgb(161,86,94);stroke-width:5px;"/>
        </g>
        <g transform="matrix(0,1,1,0,2572.75,1612.44)">
            <path d="M-5.687,-5.687L5.687,-5.687" style="fill:none;fill-rule:nonzero;stroke:rgb(161,86,94);stroke-width:5px;"/>
        </g>
        <g transform="matrix(0,1,1,0,2578.53,1612.44)">
            <path d="M-5.687,-5.687L5.687,-5.687" style="fill:none;fill-rule:nonzero;stroke:rgb(161,86,94);stroke-width:5px;"/>
        </g>
        <g transform="matrix(0,1,1,0,2584.3,1612.44)">
            <path d="M-5.687,-5.687L5.687,-5.687" style="fill:none;fill-rule:nonzero;stroke:rgb(161,86,94);stroke-width:5px;"/>
        </g>
        <g transform="matrix(0,1,1,0,2590.07,1612.44)">
            <path d="M-5.687,-5.687L5.687,-5.687" style="fill:none;fill-rule:nonzero;stroke:rgb(161,86,94);stroke-width:5px;"/>
        </g>
        <g transform="matrix(0,1,1,0,2595.85,1612.44)">
            <path d="M-5.687,-5.687L5.687,-5.687" style="fill:none;fill-rule:nonzero;stroke:rgb(161,86,94);stroke-width:5px;"/>
        </g>
        <g transform="matrix(0,1,1,0,2601.62,1612.44)">
            <path d="M-5.687,-5.687L5.687,-5.687" style="fill:none;fill-rule:nonzero;stroke:rgb(161,86,94);stroke-width:5px;"/>
        </g>
        <g transform="matrix(0,1,1,0,2607.39,1612.44)">
            <path d="M-5.687,-5.687L5.687,-5.687" style="fill:none;fill-rule:nonzero;stroke:rgb(161,86,94);stroke-width:5px;"/>
        </g>
        <g transform="matrix(0,1,1,0,2613.16,1612.44)">
            <path d="M-5.687,-5.687L5.687,-5.687" style="fill:none;fill-rule:nonzero;stroke:rgb(161,86,94);stroke-width:5px;"/>
        </g>
        <g transform="matrix(0,1,1,0,2618.94,1612.44)">
            <path d="M-5.687,-5.687L5.687,-5.687" style="fill:none;fill-rule:nonzero;stroke:rgb(161,86,94);stroke-width:5px;"/>
        </g>
        <g transform="matrix(0,1,1,0,2624.71,1612.44)">
            <path d="M-5.687,-5.687L5.687,-5.687" style="fill:none;fill-rule:nonzero;stroke:rgb(161,86,94);stroke-width:5px;"/>
        </g>
        <g transform="matrix(0,1,1,0,2630.48,1612.44)">
            <path d="M-5.687,-5.687L5.687,-5.687" style="fill:none;fill-rule:nonzero;stroke:rgb(161,86,94);stroke-width:5px;"/>
        </g>
        <g transform="matrix(0,1,1,0,2636.26,1612.44)">
            <path d="M-5.687,-5.687L5.687,-5.687" style="fill:none;fill-rule:nonzero;stroke:rgb(161,86,94);stroke-width:5px;"/>
        </g>
        <g transform="matrix(0,1,1,0,2642.03,1612.44)">
            <path d="M-5.687,-5.687L5.687,-5.687" style="fill:none;fill-rule:nonzero;stroke:rgb(161,86,94);stroke-width:5px;"/>
        </g>
        <g transform="matrix(0,1,1,0,2647.8,1612.44)">
            <path d="M-5.687,-5.687L5.687,-5.687" style="fill:none;fill-rule:nonzero;stroke:rgb(161,86,94);stroke-width:5px;"/>
        </g>
        <g transform="matrix(0,1,1,0,2653.57,1612.44)">
            <path d="M-5.687,-5.687L5.687,-5.687" style="fill:none;fill-rule:nonzero;stroke:rgb(161,86,94);stroke-width:5px;"/>
        </g>
        <g transform="matrix(0,-1,-1,0,2397.63,1721.33)">
            <circle cx="-2.325" cy="0" r="2.325" style="fill:none;stroke:rgb(133,54,29);stroke-width:5px;"/>
        </g>
        <g transform="matrix(0,-1,-1,0,2407.35,1721.33)">
            <circle cx="-2.325" cy="0" r="2.325" style="fill:none;stroke:rgb(133,54,29);stroke-width:5px;"/>
        </g>
        <g transform="matrix(0,-1,-1,0,2417.07,1721.33)">
            <circle cx="-2.325" cy="0" r="2.325" style="fill:none;stroke:rgb(133,54,29);stroke-width:5px;"/>
        </g>
        <g transform="matrix(0,-1,-1,0,2426.8,1721.33)">
            <circle cx="-2.325" cy="0" r="2.325" style="fill:none;stroke:rgb(133,54,29);stroke-width:5px;"/>
        </g>
        <g transform="matrix(0,-1,-1,0,2436.52,1721.33)">
            <circle cx="-2.325" cy="0" r="2.325" style="fill:none;stroke:rgb(133,54,29);stroke-width:5px;"/>
        </g>
        <g transform="matrix(0,-1,-1,0,2446.24,1721.33)">
            <circle cx="-2.325" cy="0" r="2.325" style="fill:none;stroke:rgb(133,54,29);stroke-width:5px;"/>
        </g>
        <g transform="matrix(1,0,0,1,2393.84,1719.28)">
            <path d="M0,0L58.185,0" style="fill:none;fill-rule:nonzero;stroke:rgb(133,54,29);stroke-width:5px;"/>
        </g>
        <g transform="matrix(1,0,0,1,2393.84,1728.03)">
            <path d="M0,0L58.185,0" style="fill:none;fill-rule:nonzero;stroke:rgb(133,54,29);stroke-width:5px;"/>
        </g>
    </g>
    <defs>
        <linearGradient id="_Linear1" x1="0" y1="0" x2="1" y2="0" gradientUnits="userSpaceOnUse" gradientTransform="matrix(0.00390777,-0.999992,-0.999992,-0.00390777,0.450037,0.451799)"><stop offset="0" style="stop-color:rgb(250,234,40);stop-opacity:1"/><stop offset="0.14" style="stop-color:rgb(250,198,27);stop-opacity:1"/><stop offset="0.3" style="stop-color:rgb(250,181,23);stop-opacity:1"/><stop offset="0.47" style="stop-color:rgb(238,119,11);stop-opacity:1"/><stop offset="0.78" style="stop-color:rgb(206,96,21);stop-opacity:1"/><stop offset="1" style="stop-color:rgb(206,96,21);stop-opacity:1"/></linearGradient>
        <linearGradient id="_Linear2" x1="0" y1="0" x2="1" y2="0" gradientUnits="userSpaceOnUse" gradientTransform="matrix(1,0,0,-1,0,-0.00019431)"><stop offset="0" style="stop-color:rgb(130,71,27);stop-opacity:1"/><stop offset="0.13" style="stop-color:rgb(170,107,48);stop-opacity:1"/><stop offset="0.49" style="stop-color:rgb(194,126,52);stop-opacity:1"/><stop offset="0.78" style="stop-color:rgb(215,147,78);stop-opacity:1"/><stop offset="1" style="stop-color:rgb(215,147,78);stop-opacity:1"/></linearGradient>
    </defs>
</svg>
