<svg xmlns="http://www.w3.org/2000/svg" viewBox="0 0 5524 2738.57"><defs><style>.cls-1{fill:none;}.cls-2{fill:#fff;}</style></defs><g id="Calque_2" data-name="Calque 2"><g id="Calque_1-2" data-name="Calque 1"><rect class="cls-1" width="5524" height="2738.57"/><path class="cls-2" d="M1366.76,2064.78l-168.58-395.36-210.59,64.87-1.25-1.06c-1.56-1.31-10.71-5-63.31,2-24.49,3.26-48.14,7.48-54.6,8.66l-9.67,28.51-14.38-24.24-99,26.52,28.06-26.2,172.25-160.69.3-.17c39.12-22.55,63.18-73.78,76.47-112.79a482,482,0,0,0,19.75-80.6l6,.4c0,21.24,30.93,36.06,56.88,44.74a386.05,386.05,0,0,0,58.55,14.05c89.87,15.68,297.84,31.51,390,38a105.69,105.69,0,0,1,46,3.24l24.6,7.53-25.67-1.67c-.72,0-17.44-1.13-44.23-3a121.36,121.36,0,0,0-39.47,12.88c-130.75,88.19-287.38,148.2-311,157l168.39,395ZM949.33,1592.62,777.58,1752.83l-10.5,9.8,80.14-21.48,10,16.94,6.61-19.49,1.73-.32c.27,0,27.89-5.21,56.64-9,50.83-6.77,62.72-3.84,66.57-1.61l208.49-64.23,1.53-.55c1.71-.62,172.3-62.76,312.76-157.51l.16-.09a111.91,111.91,0,0,1,21.83-9.25c-99.47-7.22-286.75-22-370.88-36.69-4.32-.63-97-14.53-116.78-50.73a501.92,501.92,0,0,1-17.7,68.05C1008.46,1534.67,981.91,1573.68,949.33,1592.62Z"/><path class="cls-2" d="M932.69,1732.25l-2.9-2.74c.39-.42,40-42.62,74-103.06,20-35.44,34.19-70.13,42.24-103.1,10-41.1,10.45-79.63,1.26-114.51l3.86-1c9.38,35.55,8.95,74.75-1.25,116.52-8.14,33.34-22.5,68.38-42.67,104.15C972.94,1689.34,933.09,1731.83,932.69,1732.25Z"/><path class="cls-2" d="M1419.26,1560.78c-.85-.23-86.55-23.12-174.48-51.92-118.36-38.77-184.18-69.28-195.65-90.69-2-3.65-2.4-7.12-1.31-10.32l2.84,1c-.82,2.42-.45,5,1.11,7.94,26.59,49.63,364.85,140.22,368.27,141.13Z"/><path class="cls-2" d="M1170.15,1670c-.28-.38-28.85-39.13-57-82-38-57.74-57.25-95.11-57.25-111.06h3c0,36.83,112.57,189.73,113.71,191.27Z"/><path class="cls-2" d="M4501.5,2738.57H4204.55l-.34-.5c-.41-.59-40-58.37-77.13-138.39-21.82-47-38.06-91.76-48.27-132.92-12.58-50.75-16-96.23-10.14-135.23-6.81-4.29-31.31-21.22-51.33-54.44a189.94,189.94,0,0,1-25.51-74.72c-4.27-33.81-.57-70.9,11-110.23.29-2.8,2.7-21.49,16.1-28.13,8.49-4.22,19.28-2.59,32.08,4.85l111.38-276.53c.65-3.42,7.12-38.45.21-52.27-4.15-8.29-12.9-30.85-16.34-56.87-4.33-32.8,1.45-60,16.7-78.64l.34-.36,61.84-54.1c2-3.79,15.75-29.1,30.94-54.12,29.51-48.59,39.41-54.94,43.74-55.77a214.72,214.72,0,0,1,30.29-32.62c25.3-22.11,51.41-33.37,75.51-32.61,31.69,1,60.32,22.09,85.1,62.65l.37.59.06.7,15.52,174.6c2.32,6.27,32.2,87.62,56.83,176.38,34,122.46,42.45,200.83,25.2,233,3.29,9.2,22.9,65.38,31.77,125.73,5.7,38.74,5.93,71.64.7,97.79-6.51,32.58-21.56,54.81-44.72,66.11l-15.4,96.28-.31.5-54.36,89.31-30.95,69.64c-1.61,5.58-36.62,130.43,14.07,155.78l.59.29Zm-291.79-3.07,281.62,0-5.09-6.36c-23.36-12.12-33.2-43.26-29.25-92.58,2.91-36.35,12.65-69.8,12.75-70.14l.14-.37,31.2-70.17.1-.17,54.15-89,15.72-98.24,1.45-.67c22.14-10.22,36.54-31.25,42.8-62.5,5.1-25.46,4.85-57.66-.73-95.7-9.56-65.07-31.73-125.3-31.95-125.9l-.49-1.32.7-1.22c41.6-71.85-80.66-402.58-81.9-405.91l-.14-.38,0-.4-15.5-174.3c-23.57-38.33-50.41-58.23-79.78-59.18-54.73-1.77-101.09,63.17-101.56,63.83l-.89,1.27h-1.56c-1.34,0-9.59,2.55-40.22,53-16.3,26.85-30.91,54.07-31.06,54.34l-.25.48-62.46,54.65c-9.85,12.13-20.4,34.76-15.24,73.86,3.46,26.17,12.54,48.56,15.75,55,8.15,16.29.59,54.76.26,56.39l-.05.27-.11.26-114.16,283.43-3-1.94c-12.25-7.79-22.09-9.95-29.25-6.41-11.16,5.51-12.81,23.4-12.83,23.58l0,.3-.08.3c-11.39,38.56-15.07,74.84-10.93,107.84a183.82,183.82,0,0,0,24.56,72.32c22.16,36.93,50.81,53.51,51.1,53.67l1.81,1-.33,2c-6.14,38.63-2.87,84,9.72,134.79,10.12,40.78,26.22,85.13,47.86,131.81C4166.43,2670.28,4203.64,2726.5,4209.71,2735.5Z"/><path class="cls-2" d="M4187.75,1874.87h-6c0-23.68,119.65-296.91,124.74-308.52l.22-.41,74.3-117.32.63-.37c28.44-16.51,50.44-19.3,65.41-8.31,39.31,28.89,14,142.88,12.94,147.72l-.42,1.86-1.86.41c-3.09.68-5.58,2.62-7.59,5.93-17,27.88,9.57,129.35,9.84,130.37l-5.8,1.54c-1.13-4.27-27.48-105-9.17-135a18.19,18.19,0,0,1,9.52-8.13c3-14.46,22.7-115.06-11-139.83-12.76-9.38-32.34-6.58-58.21,8.3L4311.9,1569C4277.28,1648,4187.75,1856.27,4187.75,1874.87Z"/><path class="cls-2" d="M4437.31,1491.54c-29.78,0-71.68-6.22-74.06-6.57l.9-5.94c.19,0,19.63,2.93,41.18,4.85,35.56,3.16,49.27,1.32,54.51-.78l2.22,5.57C4456.85,1490.76,4447.83,1491.54,4437.31,1491.54Z"/><path class="cls-2" d="M4344.46,1516.08l-.42-6c.29,0,28.56-2,56.95-3.41,58.71-3,60.58-1.11,62.08.39l-4.24,4.24a1.94,1.94,0,0,0,.61.43C4453.46,1509.54,4385.74,1513.24,4344.46,1516.08Z"/><path class="cls-2" d="M4422.56,1649.4c-16.51,0-43.06-3.37-64.42-21.91-22.81-19.79-33.72-51.77-32.45-95l6,.18c-1.22,41.38,9,71.77,30.38,90.32,30.77,26.7,74.59,19.52,75,19.44l1,5.92A100,100,0,0,1,4422.56,1649.4Z"/><polygon class="cls-2" points="4296.54 1860.21 4290.82 1858.41 4314.01 1784.98 4310.13 1657.11 4316.13 1656.93 4320.03 1785.82 4296.54 1860.21"/><path class="cls-2" d="M4141.78,2304.61a15.23,15.23,0,0,1-2.7-.24c-15.08-2.66-19.35-27.29-19.53-28.34l-19.43-97.15,5.88-1.18,19.45,97.25c1,6.07,5.62,21.92,14.68,23.51,13.58,2.41,32.08-26.31,41.94-43.73l34.77-77.27,11.61-85.16,5.94.82-11.73,86-35.3,78.45C4169.5,2289.16,4154.55,2304.61,4141.78,2304.61Z"/><path class="cls-2" d="M4380.15,2454.53l-7.78-470.69a172.88,172.88,0,0,1,2.23-25.59c3.07-18.33,8.79-29.62,17-33.55,7-3.36,15.24-1.28,24.56,6.18l-3.74,4.68c-7.37-5.89-13.5-7.73-18.22-5.46-13,6.23-15.8,40.87-15.81,53.69l7.78,470.64Z"/><path class="cls-2" d="M4469.66,2567.76c-.1-.62-9.78-63.21-11.22-129.27-1.94-88.44,11.14-141.31,38.86-157.21,3.92-14,40-147.27,8.1-182.69l4.46-4c35.72,39.69-5.36,183.46-7.13,189.56l-.35,1.23-1.13.59c-26,13.74-38.69,66.43-36.82,152.35,1.44,65.67,11.06,127.92,11.15,128.54Z"/><path class="cls-1" d="M4457.06,2419.47s97.25,7.78,101.14-11.67"/><path class="cls-2" d="M4560.69,1963.08c-18.59-10.14-35.63-60.26-50.63-149-11.07-65.49-17-128.94-17.05-129.57l6-.56c.06.64,5.95,63.89,17,129.16,18.29,108.11,36,138.35,47.59,144.69Z"/><path class="cls-2" d="M4159.31,2165.73h-1.74c-12.6,0-25.47-15-38.25-44.6a369.77,369.77,0,0,1-15.21-43.19l5.78-1.58a366.41,366.41,0,0,0,15,42.44c10.71,24.78,21.6,39.11,30.92,40.77,2.78-6.34,11-30.07-4.77-61.63l5.36-2.68c19.94,39.88,4.48,67.79,3.81,69Z"/></g></g></svg>