<svg xmlns="http://www.w3.org/2000/svg" viewBox="0 0 8191.3 1736.3"><defs><style>.cls-1,.cls-2{fill:none;}.cls-1{stroke:#fff;stroke-miterlimit:10;stroke-width:6px;}</style></defs><g id="Calque_2" data-name="Calque 2"><g id="Calque_1-2" data-name="Calque 1"><path class="cls-1" d="M3176,1335.2s-16.9,11.9-19.7,11.9l1.8,6.9,1.4,11.9-3.2,4.1s7.3,22,11,23.8l7.3-.9.9,5.9s-14.2,0-15.1,17.8-5.5,25.6-5.5,25.6-26.1,15.6-32.5,20.6l-8.2,6.4-10.1,5.5-7.8,10.5,3.2,1.4,4.1-1.4,3.2-5.5,5-.5-4.6,5,.9,3.7,5.9-3.7,5.9-5.5,5-6.9,5.5-1.4s30.2-7.8,35.7-18.3h3.2s6.9,37,12.3,43.5v46.2l1.8,27,35.7,55.3-9.6,19.2-7.3,3.2-2.7,5,8.7,2.7,20.1-4.1,23.8-8.2s-2.7-14.6-11.9-19.2l-16.9-27s.5-2.7-5.5-16.5c0,0,27-2.3,37,6.4s8.7,23.8,8.7,23.8,5,8.2,12.3-.5c0,0,6.4-17.4,5.5-29.3l-.9-21.5s-16.5-3.7-27,2.7c0,0-36.6-5.5-43.9,0s11.4-18.8,11.4-18.8l9.6.9s17.8-37,1.8-60.8l-11.4-17.8,2.7-6.4-4.6-6.9-.5-6.9.5-5.5v-5.9l1.8-9.6s38.4,29.7,50.3,34.8v17.8l-1.8,5,6.4.9,7.8-1.4v-8.7s-.5-22.4-7.3-24.2c0,0-17.4-19.7-32.9-27,0,0-21-16.5-21-19.2,0,0-11-11-13.7-8.7,0,0,.9-31.1-2.7-43.5C3206.2,1349.4,3197.5,1330.2,3176,1335.2Z"/><path class="cls-1" d="M3181.9,1495.8s25.6-7.3,39.3-31.1"/><polyline class="cls-1" points="3181.9 1542 3203.4 1531.9 3221.3 1542.4"/><line class="cls-1" x1="3154.9" y1="1442.2" x2="3169.6" y2="1452.3"/><line class="cls-1" x1="3228.2" y1="1428.9" x2="3232.1" y2="1413.1"/><path class="cls-1" d="M2081,1580.4a232.89,232.89,0,0,1-9.2-64.3c.1-21.7,3.5-50.5,4.4-57.9.1-.8.1-1.1.2-1.8,2.5-22-2.7-38.8-4.6-45.9-5.8-21.5-5.2-40.8-4.6-59.7.7-21,3.6-22.8,4.6-50.5.7-19-.7-17.8,0-36.7.9-25.9,3.6-28.8,4.6-55.1.2-5.5.1-4.7,0-36.7v-45.9c0-23,.2-45.9,0-68.9-.3-34.5-.8-37,0-50.5,1.3-23.3,3.5-28.8,4.6-45.9,1.9-30.8-4.1-34.7-4.6-64.3-.2-12.8.8-12.5,9.2-73.4,6.4-47,5.3-43.4,9.2-68.9,4.1-26.4,5.9-34.2,9.2-59.7,2.3-18.1,2.4-21.7,4.6-36.7,3.4-23.5,6.1-33.6,9.2-50.5,4.9-26.7,6.6-46.7,9.2-78,4.2-49.9,2.5-67,9.2-68.9,4.7-1.3,13.6,5.1,32.1,41.3,0,0,0-9.2,9.2-4.6,0,0-4.6,45.9,78,50.5,0,0,4.6-41.3-41.3-73.4,0,0-9.2-4.6,18.4-4.6l-32.1-32.1s-18.4-18.4,4.6-4.6c0,0,9.2,4.6-22.9-36.7h4.6s-13.8-32.1,13.8-13.8l23,4.6s4.6,18.4,36.7,23v13.8l13.8,4.6,4.6-13.8s4.6-9.2,9.2,13.8c0,0,22.9,55.1,41.3,64.3,0,0,0-9.2,4.6-27.5,0,0,0,59.7,22.9,50.5v23s9.2,0,18.4-32.1c0,0,32.1-9.2-4.6-101,0,0-45.9-45.9-87.2-64.3,0,0,68.9-18.4,110.2,36.7l13.8,4.6,4.6,13.8,27.5,32.1s45.9-50.5-64.3-137.7h13.8s0-23,18.4,4.6l36.7,18.4s0-68.9-64.3-68.9c0,0-27.5-4.6,18.4-4.6,0,0,0-23-128.5,9.2,0,0,55.1-55.1,82.6-45.9,0,0-45.9-55.1-156.1,45.9,0,0,18.4-59.7,36.7-82.6,0,0-87.2,18.4-96.4,59.7,0,0-9.2,9.2-13.8,0,0,0-13.8-45.9-55.1-50.5,0,0,6.9,6.9,6.9,16.1,0,0-18.4-32.1-105.6-23,0,0,105.6,59.7,105.6,78,0,0-13.8,4.6-27.5-9.2,0,0-123.9-82.6-183.6,23l36.7-27.5-13.8,27.5s36.7-41.3,50.5-36.7c0,0-4.6,18.4-32.1,36.7l13.8,4.6,4.6,9.2,41.3-23s23-4.6-4.6,9.2l23,9.2,18.4,9.2s18.4,13.8-4.6,9.2c0,0-165.2-13.8-174.4,105.6,0,0-4.6,36.7,9.2,45.9,0,0,9.2,9.2,18.4-27.5l13.8-4.6v-9.2h9.2s13.8-64.3,23-64.3c0,0,0,27.5-9.2,36.7s27.5-41.3,133.1-32.1c0,0-45.9,36.7-50.5,36.7s13.8,4.6,13.8,4.6,0,4.6-23,13.8-18.4,23-18.4,23-23,13.8-18.4,32.1l-4.6,18.4,4.6,4.6-4.6,13.8s0,32.1,9.2,32.1c0,0,23-45.9,45.9-110.2l82.6-55.1s27.5-9.2-4.6,18.4l-4.6,18.4-13.8,18.4,18.4,4.6s-55.1,32.1-45.9,73.4h9.2s-23,27.5,18.4,50.5l4.6-18.4h9.2V504.2l13.8-9.2V467.5l9.2,9.2,9.2-9.2V449.1l9.2-4.6,4.6-4.6V426.1l4.6,4.6v50.5l-9.2,4.6v32.1h-4.6l-4.6,45.9-4.6,32.1-4.6,18.4v32.1l-4.6,9.2-4.6,23-9.2,41.3-9.2,87.2-4.6,41.3-9.2,23-4.6,55.1-4.6,68.9-4.6,23-4.6,27.5v50.5l-9.2,4.6,4.6,55.1-4.6,9.2v110.2s-9.2,36.7-4.6,64.3c0,0-13.8,64.3-4.6,78v23s-9.2,41.3-4.6,59.7,0,78,0,78"/><path class="cls-1" d="M3721.2,1379a187.57,187.57,0,0,1-7.4-51.7c.1-17.4,2.8-40.6,3.5-46.6.1-.6.1-.9.2-1.4a91.66,91.66,0,0,0-3.7-36.9c-4.7-17.3-4.2-32.8-3.7-48,.5-16.9,2.9-18.3,3.7-40.6.6-15.3-.6-14.3,0-29.5.8-20.8,2.9-23.2,3.7-44.3.2-4.4.1-3.8,0-29.5v-36.9c0-18.5.1-36.9,0-55.4-.2-27.8-.6-29.8,0-40.6,1.1-18.7,2.8-23.2,3.7-36.9,1.5-24.7-3.3-28-3.7-51.7-.2-10.3.7-10,7.4-59.1,5.2-37.8,4.2-34.9,7.4-55.4,3.3-21.3,4.7-27.5,7.4-48,1.9-14.6,1.9-17.4,3.7-29.5,2.8-18.9,4.9-27,7.4-40.6,3.9-21.5,5.3-37.5,7.4-62.8,3.4-40.1,2-53.9,7.4-55.4,3.8-1,10.9,4.1,25.8,33.2,0,0,0-7.4,7.4-3.7,0,0-3.7,36.9,62.8,40.6,0,0,3.7-33.2-33.2-59.1,0,0-7.4-3.7,14.8-3.7l-25.8-25.8s-14.8-14.8,3.7-3.7c0,0,7.4,3.7-18.5-29.5h3.7s-11.1-25.8,11.1-11.1l18.5,3.7s3.7,14.8,29.5,18.5v11.1l11.1,3.7,3.7-11.1s3.7-7.4,7.4,11.1c0,0,18.5,44.3,33.2,51.7,0,0,0-7.4,3.7-22.2,0,0,0,48,18.5,40.6V541s7.4,0,14.8-25.8c0,0,25.8-7.4-3.7-81.2,0,0-36.9-36.9-70.1-51.7,0,0,55.4-14.8,88.6,29.5l11.1,3.7,3.7,11.1,22.2,25.8s36.9-40.6-51.7-110.8H3969s0-18.5,14.8,3.7l29.5,14.8s0-55.4-51.7-55.4c0,0-22.2-3.7,14.8-3.7,0,0,0-18.5-103.4,7.4,0,0,44.3-44.3,66.5-36.9,0,0-36.9-44.3-125.5,36.9,0,0,14.8-48,29.5-66.5,0,0-70.1,14.8-77.5,48,0,0-7.4,7.4-11.1,0,0,0-11.1-36.9-44.3-40.6,0,0,5.5,5.5,5.5,12.9,0,0-14.8-25.8-84.9-18.5,0,0,84.9,48,84.9,62.8,0,0-11.1,3.7-22.2-7.4,0,0-99.7-66.5-147.7,18.5l29.5-22.2-11.1,22.2s29.5-33.2,40.6-29.5c0,0-3.7,14.8-25.8,29.5l11.1,3.7,3.7,7.4,33.2-18.5s18.5-3.7-3.7,7.4l18.5,7.4,14.8,7.4s14.8,11.1-3.7,7.4c0,0-132.9-11.1-140.3,84.9,0,0-3.7,29.5,7.4,36.9,0,0,7.4,7.4,14.8-22.2l11.1-3.7v-7.4h7.4s11.1-51.7,18.5-51.7c0,0,0,22.2-7.4,29.5s22.2-33.2,107.1-25.8c0,0-36.9,29.5-40.6,29.5s11.1,3.7,11.1,3.7,0,3.7-18.5,11.1-14.8,18.5-14.8,18.5-18.5,11.1-14.8,25.8l-3.7,14.8,3.7,3.7-3.7,11.1s0,25.8,7.4,25.8c0,0,18.5-36.9,36.9-88.6l66.5-44.3s22.2-7.4-3.7,14.8L3694,421l-11.1,14.8,14.8,3.7s-44.3,25.8-36.9,59.1h7.4s-18.5,22.2,14.8,40.6l3.7-14.8h7.4V513.3l11.1-7.4V483.7l7.4,7.4,7.4-7.4V468.9l7.4-3.7,3.7-3.7V450.4l3.7,3.7v40.7l-7.4,3.7v25.8h-3.7l-3.7,36.9-3.7,25.8-3.7,14.8v25.8l-3.7,7.4-3.7,18.5-7.4,33.2-7.4,70.1-3.7,33.2-7.4,18.5-3.7,44.3-3.7,55.4-3.7,18.5-3.7,22.2v40.6l-7.4,3.7,3.7,44.3-3.7,7.4v88.6s-7.4,29.5-3.7,51.7c0,0-11.1,51.7-3.7,62.8v18.5s-7.4,33.2-3.7,48,0,62.8,0,62.8"/><path class="cls-1" d="M5938.6,1547.6a215.56,215.56,0,0,1-8.5-59.3c.1-20,3.2-46.6,4-53.5.1-.7.1-1,.2-1.6,2.3-20.3-2.5-35.8-4.2-42.4-5.4-19.8-4.8-37.6-4.2-55.1.6-19.4,3.3-21,4.2-46.6.6-17.5-.6-16.4,0-33.9.9-23.9,3.3-26.6,4.2-50.9.2-5.1.1-4.3,0-33.9V1128c0-21.2.2-42.4,0-63.6-.2-31.9-.7-34.2,0-46.6,1.2-21.5,3.3-26.6,4.2-42.4,1.8-28.4-3.8-32.1-4.2-59.3-.2-11.8.8-11.5,8.5-67.8,5.9-43.4,4.9-40.1,8.5-63.6,3.7-24.4,5.4-31.6,8.5-55.1,2.2-16.7,2.2-20,4.2-33.9,3.2-21.7,5.6-31,8.5-46.6,4.5-24.6,6.1-43.1,8.5-72.1,3.9-46.1,2.4-61.9,8.5-63.6,4.3-1.2,12.6,4.7,29.7,38.1,0,0,0-8.5,8.5-4.2,0,0-4.2,42.4,72.1,46.6,0,0,4.2-38.2-38.1-67.8,0,0-8.5-4.2,17-4.2L6049,492.2s-17-17,4.2-4.2c0,0,8.5,4.2-21.2-33.9h4.2s-12.7-29.7,12.7-12.7l21.2,4.2s4.2,17,33.9,21.2v12.7l12.7,4.2,4.2-12.7s4.2-8.5,8.5,12.7c0,0,21.2,50.9,38.1,59.3,0,0,0-8.5,4.2-25.4,0,0,0,55.1,21.2,46.6v21.2s8.5,0,17-29.7c0,0,29.7-8.5-4.2-93.3,0,0-42.4-42.4-80.5-59.3,0,0,63.6-17,101.7,33.9l12.7,4.2,4.2,12.7,25.4,29.7s42.4-46.6-59.3-127.2h12.7s0-21.2,17,4.2l33.9,17s0-63.6-59.3-63.6c0,0-25.4-4.2,17-4.2,0,0,0-21.2-118.7,8.5,0,0,50.9-50.9,76.3-42.4,0,0-42.4-50.9-144.1,42.4,0,0,17-55.1,33.9-76.3,0,0-80.5,17-89,55.1,0,0-8.5,8.5-12.7,0,0,0-12.7-42.4-50.9-46.6,0,0,6.4,6.4,6.4,14.8,0,0-17-29.7-97.5-21.2,0,0,97.5,55.1,97.5,72.1,0,0-12.7,4.2-25.4-8.5,0,0-114.5-76.3-169.6,21.2l33.9-25.4-12.7,25.4s33.9-38.2,46.6-33.9c0,0-4.2,17-29.7,33.9l12.7,4.2,4.2,8.5,38.2-21.2s21.2-4.2-4.2,8.5l21.2,8.5,17,8.5s17,12.7-4.2,8.5c0,0-152.6-12.7-161.1,97.5,0,0-4.2,33.9,8.5,42.4,0,0,8.5,8.5,17-25.4l12.7-4.2v-8.5h8.5s12.7-59.3,21.2-59.3c0,0,0,25.4-8.5,33.9s25.4-38.1,122.9-29.7c0,0-42.4,33.9-46.6,33.9s12.7,4.2,12.7,4.2,0,4.2-21.2,12.7-17,21.2-17,21.2-21.2,12.7-17,29.7l-4.2,17,4.2,4.2-4.2,12.7s0,29.7,8.5,29.7c0,0,21.2-42.4,42.4-101.7l76.3-50.9s25.4-8.5-4.2,17l-4.2,17-12.7,17,17,4.2s-50.9,29.7-42.4,67.8h8.5s-21.2,25.4,17,46.6l4.2-17h8.5V553.7l12.7-8.5V519.8l8.5,8.5,8.5-8.5v-17l8.5-4.2,4.2-4.2V481.7l4.2,4.2v46.6l-8.5,4.2v29.7h-4.2l-4.2,42.4-4.2,29.7-4.2,17v29.7l-4.2,8.5-4.2,21.2-8.5,38.2-8.5,80.5-4.2,38.2-8.5,21.2-4.2,50.9-4.2,63.6-4.2,21.2-4.2,25.4v46.6l-8.5,4.2,4.2,50.9-4.2,8.5V1266s-8.5,33.9-4.2,59.3c0,0-12.7,59.3-4.2,72.1v21.2s-8.5,38.1-4.2,55.1,0,72.1,0,72.1"/><path class="cls-1" d="M4591.5,1141.8a105,105,0,0,1-4.2-29.3c0-9.9,1.6-23,2-26.4,0-.4.1-.5.1-.8a52.62,52.62,0,0,0-2.1-20.9c-2.6-9.8-2.4-18.6-2.1-27.2.3-9.6,1.6-10.4,2.1-23,.3-8.6-.3-8.1,0-16.7.4-11.8,1.6-13.1,2.1-25.1.1-2.5,0-2.1,0-16.7V934.8c0-10.5.1-20.9,0-31.4-.1-15.7-.3-16.9,0-23,.6-10.6,1.6-13.1,2.1-20.9.9-14-1.9-15.8-2.1-29.3-.1-5.8.4-5.7,4.2-33.4,2.9-21.4,2.4-19.8,4.2-31.4,1.8-12,2.7-15.6,4.2-27.2,1.1-8.2,1.1-9.9,2.1-16.7,1.6-10.7,2.8-15.3,4.2-23,2.2-12.1,3-21.3,4.2-35.5,1.9-22.7,1.2-30.5,4.2-31.4,2.1-.6,6.2,2.3,14.6,18.8,0,0,0-4.2,4.2-2.1,0,0-2.1,20.9,35.5,23,0,0,2.1-18.8-18.8-33.4,0,0-4.2-2.1,8.4-2.1L4646,621.2s-8.4-8.4,2.1-2.1c0,0,4.2,2.1-10.5-16.7h2.1s-6.3-14.6,6.3-6.3l10.5,2.1s2.1,8.4,16.7,10.5V615l6.3,2.1,2.1-6.3s2.1-4.2,4.2,6.3c0,0,10.5,25.1,18.8,29.3,0,0,0-4.2,2.1-12.5,0,0,0,27.2,10.5,23v10.5s4.2,0,8.4-14.6c0,0,14.6-4.2-2.1-46,0,0-20.9-20.9-39.7-29.3,0,0,31.4-8.4,50.2,16.7l6.3,2.1,2.1,6.3,12.5,14.6s20.9-23-29.3-62.7h6.3s0-10.5,8.4,2.1L4757,565s0-31.4-29.3-31.4c0,0-12.5-2.1,8.4-2.1,0,0,0-10.5-58.5,4.2,0,0,25.1-25.1,37.6-20.9,0,0-20.9-25.1-71.1,20.9,0,0,8.4-27.2,16.7-37.6,0,0-39.7,8.4-43.9,27.2,0,0-4.2,4.2-6.3,0,0,0-6.3-20.9-25.1-23a11.46,11.46,0,0,1,3.1,7.3s-8.4-14.6-48.1-10.5c0,0,48.1,27.2,48.1,35.5,0,0-6.3,2.1-12.5-4.2,0,0-56.4-37.6-83.6,10.5l16.7-12.5-6.3,12.5s16.7-18.8,23-16.7c0,0-2.1,8.4-14.6,16.7l6.3,2.1,2.1,4.2,18.8-10.5s10.5-2.1-2.1,4.2l10.5,4.2,8.4,4.2s8.4,6.3-2.1,4.2c0,0-75.2-6.3-79.4,48.1,0,0-2.1,16.7,4.2,20.9,0,0,4.2,4.2,8.4-12.5l6.3-2.1v-4.2h4.2s6.3-29.3,10.5-29.3c0,0,0,12.5-4.2,16.7s12.5-18.8,60.6-14.6c0,0-20.9,16.7-23,16.7s6.3,2.1,6.3,2.1,0,2.1-10.5,6.3-8.4,10.5-8.4,10.5-10.5,6.3-8.4,14.6l-2.1,8.4,2.1,2.1-2.1,6.3s0,14.6,4.2,14.6a485.19,485.19,0,0,0,20.9-50.2l37.6-25.1s12.5-4.2-2.1,8.4l-2.1,8.4-6.3,8.4,8.4,2.1s-25.1,14.6-20.9,33.4h4.2s-10.5,12.5,8.4,23l2.1-8.4h4.2v-6.3l6.3-4.2V635.1l4.2,4.2,4.2-4.2v-8.4l4.2-2.1,2.1-2.1v-6.3l2.1,2.1v23l-4.2,2.1V658h-2.1l-2.1,20.9-2.1,14.6-2.1,8.4v14.6l-2.1,4.2-2.1,10.5-4.2,18.8-4.2,39.7-2.1,18.8-4.2,10.5-2.1,25.1-2.1,31.4-2.1,10.5-2.1,12.5v23l-4.2,2.1,2.1,25.1-2.1,4.2v50.2s-4.2,16.7-2.1,29.3c0,0-6.3,29.3-2.1,35.5v10.5s-4.2,18.8-2.1,27.2,0,35.5,0,35.5"/><path class="cls-1" d="M2888.2,1407.7c1-6.8,2.1-13.5,3.1-20.3a8.74,8.74,0,0,0,.1-3.6,9.18,9.18,0,0,0-2.7-3.8c-5.2-4.8-11.5-8.9-18.5-10s-14.8.9-19.3,6.4c-5.3,6.5-4.9,15.8-4.2,24.2.3,4.2.7,8.4,1,12.7.2,2.8.4,5.7-.6,8.3-1.9,4.6-7.2,6.9-12.1,7.9s-10.2,1.2-14.4,3.9c-2.1,1.3-3.8,3.1-5.9,4.4-6.2,3.9-14.6,3-20.5,7.2-6.3,4.5-7.8,13.1-8.5,20.9-.9,10.2-1.6,20.4-2.2,30.6-.3,4.3-.5,8.6-.8,12.9-.4,6.5-.8,13.1-.9,19.6a17,17,0,0,0,2.7-12.6c2.1,2.1,1.6,5.5,1.5,8.5s.9,6.7,3.9,7"/><path class="cls-1" d="M2804,1513.5c1.1-1.8.5-4.2-.6-6s-2.7-3.3-3.8-5.1a20.45,20.45,0,0,1-2.3-9.1,99,99,0,0,1,2.4-30.7,9,9,0,0,1,1.3-3.2c1.6-1.9,4.6-1.7,7.1-1.8a20.28,20.28,0,0,0,13-5.4c-1.4,11.9-4.6,23.4-7.7,34.9-2,7.2-4.1,14.7-9.1,20.3"/><path class="cls-1" d="M2887.8,1407.1c1,2.3,3.2,5.6,2.2,7.9-1.1,2.7-5.7,4.4-8.6,5,.9,1.3,1.9,2.6,2.8,3.9-3.2,5.3-11,7.3-16.4,4.2,3.4-1.5,7.1,2.6,7,6.3s-2.3,7-4,10.3a32.44,32.44,0,0,0,22.2,46c2.6.6,5.5.9,7.3,2.9a6.45,6.45,0,0,1,.2,7.8,10.28,10.28,0,0,1-7.1,4,7.89,7.89,0,0,1-3.4-.3,10.61,10.61,0,0,1-3.3-2.7c-9.5-9.7-25.7-12.9-31.5-25.2-3.7,14.7-8.1,29.3-13.1,43.6"/><path class="cls-1" d="M2789.9,1531.9c.2-4.6.5-9.3.7-13.9.8,4.6,1.6,9.2,3.5,13.4a2.55,2.55,0,0,0,.7,1c1.1.5,1.9-1.3,1.8-2.5a71.89,71.89,0,0,0-2.1-13c.1-.5.9-.4,1.1,0a5.9,5.9,0,0,1,.2,1.4,2.36,2.36,0,0,0,3.4,1.3,3.76,3.76,0,0,0,1.6-3.7,9.74,9.74,0,0,0-1.5-4,8.27,8.27,0,0,0,8.5,7.1,20.07,20.07,0,0,0-3.8-5.8"/><path class="cls-1" d="M2807.7,1503.1a56.82,56.82,0,0,1,20,3.8c6.3,2.7,12,7.1,15.1,13.2"/><path class="cls-1" d="M2879.7,1405.9c2.5.2,5.1.5,7.6.7"/><path class="cls-1" d="M2862.5,1401c-1-1.8-3.9-1.5-5.1.1s-1.1,3.9-.4,5.8a12.58,12.58,0,0,0,7.1,7.2,2.2,2.2,0,0,0,1.5-2.6,4.43,4.43,0,0,0-1.8-2.6"/><path class="cls-1" d="M2791.3,1530.2c1.1,15.6-1.9,31.1-5,46.4-1.7,8.4-3.6,17.4-9.5,23.7-3.3,3.5-7.6,6-11.4,9-11.5,9.1-17.9,23.1-24.8,36-1.9,3.5-3.9,7.1-6.8,9.9-1.8,1.7-3.8,3-5.5,4.8a23.29,23.29,0,0,0-4.3,7.5,5.59,5.59,0,0,0-.5,2.5,5.49,5.49,0,0,0,1.3,2.5,52.71,52.71,0,0,0,31,18.6c.6-5.7-4.2-10.3-6.2-15.7"/><path class="cls-1" d="M2841.6,1520c2.9,3.3,5.9,6.5,8.9,9.6,4.2,4.3,8.5,8.5,12.9,12.7,3.6,3.4,7.2,6.9,10.7,10.3,7.1,6.9,14.9,15.7,12.7,25.4-1,4.5-4.1,8.3-7.1,11.8l-18.1,21.4c-5.5,6.5-11.2,13.3-13.4,21.6s.3,18.4,7.8,22.4c2.4,1.3,5.2,1.9,7.6,3.3s4.4,4,3.8,6.7c-4.4,2.8-10.2,1.9-14.9-.2s-8.9-5.3-13.8-7.1c-3.6-1.3-7.4-1.9-11-3.3s-7-4-8-7.7c-1.8-6.6,4.6-12.3,9.1-17.5s7.4-11.4,10.3-17.6c6.4-13.8,13.5-28.7,27-35.4-10.9-4.1-21.8-8.3-32.7-12.4a5.6,5.6,0,0,1-6.2-.2"/><path class="cls-1" d="M2787.2,1571.9a25.38,25.38,0,0,0,14.1-2.2c1.9-.9,4-2,5.8-1a6.26,6.26,0,0,1,2.5,3.6c.8,2,1.5,4.1,2.3,6.1"/><path class="cls-1" d="M2749.2,1675.5c-3-11,4.3-22,11.2-31.1,8.4-11,16.9-22.2,27.8-30.7,3.7-2.9,7.6-5.5,10.4-9.3a45.32,45.32,0,0,0,4.5-9.1,83.24,83.24,0,0,1,22.8-30.4"/><path class="cls-1" d="M2795.7,1534.9c.6,4,4.2,6.6,7.5,9,7.8,5.6,14.9,12,22,18.4"/><path class="cls-1" d="M2839.7,1567.1a39,39,0,0,0,27.2-6.5c2.8-1.9,5.5-4.7,5.3-8.1"/><path class="cls-1" d="M2829.2,1521.7a27.34,27.34,0,0,0,7.9,4.2c1.7.6,3.5,1,4.9,2.2,3.1,2.6,2.7,7.4,1.9,11.4"/><path class="cls-1" d="M2808.8,1512.3a93.19,93.19,0,0,0,6.5-7.6"/><path class="cls-1" d="M2858.7,1442.9a22.17,22.17,0,0,1-1.4-10.5"/><path class="cls-1" d="M2847.9,1430.6a19.32,19.32,0,0,0,4.1,5.3"/><path class="cls-1" d="M2862.6,1434.7v4.1"/><path class="cls-1" d="M2842.6,1509.5v-1.8"/><path class="cls-1" d="M3062.7,1494.4c5.7-.8,12.7-1.1,16.1,3.6,1.6,2.2,1.9,5.1,2.4,7.7,3,15.6,14.5,28.6,16.9,44.3.8,5.5.5,11.2,2.1,16.5,1.4,4.8,4.4,9.3,4.4,14.4s-5.3,10.4-9.6,7.8a7.07,7.07,0,0,0-4.4-6.6c.6-1.6,1.3-3.2,1.9-4.9a42.83,42.83,0,0,0-6.2-.2c3.7-3.2,5-8.4,4.6-13.2s-2.4-9.4-4.4-13.8c-3.5-7.6-7.4-14.9-11.6-22.1a45,45,0,0,0-2.1,20.9c1.6,11.5,7.6,22.6,5.6,34-1.5,8.9-7.7,16.3-14.6,22.1a6.72,6.72,0,0,0-2.4,2.9,6.92,6.92,0,0,0,0,3.5c3.3,21,6.7,42,10,63,.5,3,1,6,2.4,8.6,1,1.9,2.5,3.8,2.2,5.9-.5,3.1-4.4,4.1-7.5,4.5l-15.8,1.8a4.92,4.92,0,0,1-2.7-.2c-2.8-1.3-1.4-5.4,0-8.2,6.7-13.3,1.4-29.3-3.9-43.2-4.3-11.1-8.5-22.3-12.8-33.4l-23.4,23.1a15.41,15.41,0,0,0-2.9,3.4,14.62,14.62,0,0,0-1.6,6.2,147.19,147.19,0,0,0,4.6,56.8c.7,2.6,1.4,5.9-.8,7.6a6.46,6.46,0,0,1-4.1,1l-33,.9c-1.7,0-3.4.1-4.9-.7a3.26,3.26,0,0,1-1.6-4.2c.6-1.1,1.9-1.5,3.1-1.9,4.3-1.3,8.7-2.9,12.3-5.8,8.5-7,9.6-19.7,7.8-30.5s-5.6-21.7-4.5-32.6c.9-8.8,5-16.9,9.8-24.3a144.71,144.71,0,0,1,21.6-26.5c2.6-2.5,5.3-4.9,6.7-8.2,1.2-2.7,1.4-5.8,1.5-8.8a133.47,133.47,0,0,0-6-42.6c-3,9.8-6,19.6-8.9,29.4-1.4,4.5-2.8,9.1-5.7,12.7a18.66,18.66,0,0,1-18,6.3,14.1,14.1,0,0,1,10.1-15.4c-2.1-5.2-.7-11.2,1.7-16.4s5.6-9.9,7-15.4c2-7.7.5-16.6,5.2-23.1,5.9-8.2,18.6-8.1,26.1-14.9-5.5-4.5-7.4-12.3-6.2-19.2s5.2-13.1,9.9-18.4a13.4,13.4,0,0,1,5.6-4.2,12.66,12.66,0,0,1,6.4.3c7.7,1.7,16.1,4.1,20.5,10.6,3.8,5.5,3.8,13,1.6,19.3a82.46,82.46,0,0,1-10.3,20"/><path class="cls-1" d="M2997.5,1601.2c2.6-.2,4.9,1.4,6.8,3.1s3.4,3.9,5.5,5.4a39.76,39.76,0,0,0,5,2.7,17.86,17.86,0,0,1,6.9,7"/><path class="cls-1" d="M3039.8,1626.7a50.16,50.16,0,0,1,21.2-7.3"/><path class="cls-1" d="M3023.6,1566.2a40.3,40.3,0,0,1,14.2-1.9c3.5.2,7,.8,10.4.2a44.08,44.08,0,0,0,7-2.3,35.25,35.25,0,0,1,18.5-1.1"/><path class="cls-1" d="M3004.6,1597.1c4.9.2,8.9,3.8,12,7.5s6,8,10.3,10.3"/><path class="cls-1" d="M3037.5,1622.1c1.3-2,3.8-2.7,6.1-3.3l16.1-4.2"/><path class="cls-1" d="M3002.4,1525a29.68,29.68,0,0,1,12.3,6.1"/><path class="cls-1" d="M3078.2,1535.5a46.27,46.27,0,0,0,9.7-12.3"/><path class="cls-1" d="M3035.1,1486.1c.2,3.5,3.3,7.3,6.5,8.7,3.5,1.5,7.1,2.8,10.9,2.8s10.9-2.3,12.7-5.6"/><ellipse class="cls-1" cx="2938.5" cy="1596.4" rx="28.2" ry="27.4"/><path class="cls-1" d="M6314.7,1159.5l-.8-20s4.6-30-5.4-42.2-44.5-.8-44.5-.8-20,16.9-20,22.3-30,18.4-30,18.4,1.5,14.6,29.2,6.9l20.7,43,9.2,4.6-13.8,8.4,8.4,10,9.2,37.6-3.1,64.5,6.9,3.8-6.9,54.5-4.6,15.4,3.8,15.4-7.7,37.6,16.1-7.7,1.5,14.6s-16.9,37.6-4.6,50.7l-4.6,42.2-7.7,43,10,40.7-12.3-2.3s-12.3,30.7,73,22.3l-4.6-10,4.6-17.7-3.1-14.6s17.7-23.8,17.7-37.6l10.8-55.3,30,75.3s13.8,40.7,19.2,41.5c0,0-25.3,10.8-14.6,18.4l68.3,3.1s5.4-13.8,1.5-20.7l-11.5-34.6,2.3-10.8s-7.7-68.3-15.4-73l-20.7-63.7.8-8.4-.8-17.7-12.3-40.7-4.6-40.7s-20.7-95.2-25.3-95.2c0,0-4.6-49.9-35.3-57.6,0,0-19.2-10-19.2-15.4Z"/><path class="cls-1" d="M6280.9,1252.5l38.4,89.1s3.8,16.9,14.6,21.5.8,25.3.8,25.3l6.9,18.4,27.6,3.8-2.3-11.5-6.9-13.8v-13.8l8.4-3.1s6.9-18.4-1.5-18.4-8.4-3.8-8.4-3.8l-16.1-66s-11.5-26.9-18.4-26.9"/><path class="cls-1" d="M6272.8,1191.4s30-34.6,41.5-32.3"/><path class="cls-1" d="M6281.3,1431s7.7-14.6,26.1-5.4l53.8,16.9,35.3.8,25.3-9.2"/><path class="cls-1" d="M6361.9,1507s14.8-47.6,13.9-64.5"/><path class="cls-1" d="M6275.9,1622.2s27.6,23.8,56.1,10"/><polyline class="cls-1" points="6411.1 1623.8 6424.1 1636.8 6435.7 1630.7 6464.1 1628.4"/><polyline class="cls-1" points="6242.9 1143.8 6287.4 1133.8 6313.6 1139.2"/><ellipse class="cls-1" cx="6591.9" cy="1589.6" rx="87.9" ry="108.7"/><ellipse class="cls-1" cx="6586.6" cy="1592.3" rx="70.3" ry="92.2"/><path class="cls-1" d="M6440,1417.1l3.3,159,58.4,4.6,178.2,8.4,66.8-1.5c-9.2,1.5-21.5-10-21.5-10l-77.6-157.4-390.9-5.4-6.1-6.9s377.8-1.5,387,1.5c0,0,15.4-5.4,20,15.4l70.7,143.6s8.4,13.8,39.2,7.7"/><path class="cls-1" d="M6965.5,1479.4c4.6-63.7-16.9-56.8-16.9-56.8l-293-4.3-8.8-7.7s259.6,3.6,294.9,1.3,31.5,39.9,31.5,39.9h8.4v124.4l-70.6,3.5-148.2,7.3-16.2.8s-5.4,87.5,80.6,98.3c0,0,82.2,13.1,86.8-107.5"/><path class="cls-1" d="M6762.8,1586.9s-1.5,69.9,56.8,82.2c0,0,65.8,5.4,68.2-88.3"/><path class="cls-1" d="M4202.7,902.4c-6.2,1.8-10.2-9.1-16.6-8.2a30.24,30.24,0,0,1,10.1,11.5,17.39,17.39,0,0,1,1.9,5.4,21.08,21.08,0,0,1-.1,5.6,97.83,97.83,0,0,1-4.8,20.6,22.44,22.44,0,0,0-1.6,6.3,6.08,6.08,0,0,0,2.7,5.6c1,.6,2.2.7,3.3,1.3,1.3.7,2.6,2.1,4.1,1.7,1.9-.4,2-3,2.5-4.8,1-3.8,4.9-6.1,8.3-8.1s7-5,7-8.9c5,2.9,8.4,8,10.3,13.4s2.5,11.2,3,16.9c.7,8.4,1.1,16.8,1.2,25.3.1,6.1,0,12.4-3.1,17.7,1.5,2.1,4.9,1.7,6.7,0s2.4-4.4,2.8-6.9c1.2-7.8,1-15.8.8-23.7-.2-6-.3-12-.5-18"/><path class="cls-1" d="M4240.5,955.6a3.91,3.91,0,0,1,3.6,2.3,10.82,10.82,0,0,1,.9,4.4,201.6,201.6,0,0,1-2,43.2c2.2.4,4.3-1.1,5.3-3.1a15.6,15.6,0,0,0,1.3-6.4l2.1-38.4c.3-6.1,1.1-12.9,5.9-16.6"/><path class="cls-1" d="M4202.7,902.7l4.2-12.6v10.5a3.23,3.23,0,0,0,.3,1.7c.5.8,1.7.9,2.6.9,6.7,0,13.5-.8,19.8,1.2,4.5,1.4,9.6,4.2,13.5,1.6,3.4-2.3,3.7-7.4,6.6-10.3,3.6-3.6,10.2-2.3,13.6,1.5s4.5,9.1,5.1,14.2c1.2,10.6,1,21.8-3.7,31.4-1.9,3.8-4.4,7.3-5.8,11.2-1.8,5-1.8,10.5-1.8,15.9.1,7.2.1,14.4.2,21.5,0,1.6.1,3.4,1.3,4.6.6.6,1.5,1,2,1.7.9,1.3,0,3.3-1.4,4a8.32,8.32,0,0,1-4.7.6,2.81,2.81,0,0,1-2-.6,2.86,2.86,0,0,1-.6-2.2V959"/><path class="cls-1" d="M4257.6,994.6a7.23,7.23,0,0,0-5.7,4"/><path class="cls-1" d="M4231.8,997.5a12.75,12.75,0,0,1,6.7-.6"/><path class="cls-1" d="M4243.2,1000a4.85,4.85,0,0,1,5.6-2.6"/><path class="cls-1" d="M4193.7,934.4c2,1.1,4,2.1,6,3.2,2.3,1.3,4.8,2.6,6.2,4.9"/><path class="cls-1" d="M4194.5,946.8a3,3,0,0,1,1.5-3.8,8,8,0,0,1-1.4,5.8"/><path class="cls-1" d="M4197.3,950.3a8.4,8.4,0,0,0,3.7-4.2"/><path class="cls-1" d="M4199.2,921.4a3.93,3.93,0,0,1,4.7-1.9"/><path class="cls-1" d="M3781.1,1200.5c-.4,7.4-.9,14.7-1.3,22.1-.1,1.2-.1,2.5-.2,3.7l-.9,14.7a3,3,0,0,0,.4,1.9c.8.7,2.2.2,2.9.9a2.92,2.92,0,0,1,.7,1.2c1.1,2.4,5.1,2.6,6.5.3.7-1.2.7-2.7,1.5-3.9s2.2-1.6,3.4-2.2a25.6,25.6,0,0,0,11.8-10.5c1.4-2.3,1.3-4.6,3.9-5.3s6.3,2.1,8.1,3.7c2.8,2.4,5.2,5.4,8.5,7.1,3,1.5,6.8,2.1,8.8,4.8a21.15,21.15,0,0,1,1.8,3.7c2.5,5.4,8.1,8.8,11.1,14,1.7,2.9,4.2,6.2,4.9,9.4,3,14,3.1,28.2,3.6,42.5-3.5,1.4-6.9,5.8-6.1,9.7,3.5.3,9.5,1.2,12.1-1.5a17.46,17.46,0,0,0,4.1-8.4c1.6-7.3.4-15.3-.4-22.6-1.2-10.8-2.9-21.6-5.1-32.2"/><path class="cls-1" d="M3861.1,1254.1v-2c18.1.1,36.4,4.3,54.3,1.5,1.4,9.6,8.7,17.5,10.8,27a47.81,47.81,0,0,1,.8,10.7,32.93,32.93,0,0,1-.6,7.7,29.09,29.09,0,0,1-2.7,6.9,117.76,117.76,0,0,1-15.1,23.1c2.5.2,5,.3,7.6.5.6,0,1.3.1,1.7-.4.6-.5.4-1.5.5-2.3.1-1.6,1.2-2.9,2.2-4.1,6.7-8.1,11.3-17.7,15.9-27.2a25.66,25.66,0,0,0,2.3-6c1.4-7.9-5.4-15.1-5.9-23.1-.5-7.1,4-13.5,8.6-18.9s9.8-10.8,11.5-17.7c1.4,8.6-1,17.3-2.3,25.9s-1.5,18.1,3.5,25.2c.8,1.1,2,2.2,3.2,1.8,1.6-.6,1.4-2.9,1-4.6-1.4-5.8-1.1-11.9-.8-17.9.4-8.4.9-16.7,1.3-25.1a37.29,37.29,0,0,0-.4-10,12.81,12.81,0,0,0-5.3-8.2"/><path class="cls-1" d="M3843,1186.1c-2.7,5.2-5.4,10.5-6.8,16.2a73.26,73.26,0,0,0-1.6,14c-.3,6.3-.7,12.7-1,19a4.22,4.22,0,0,0,.3,2.2c.5,1,1.7,1.3,2.8,1.5,13.9,2.9,28,4.6,42.1,6.2l15.4,1.8a144.41,144.41,0,0,0,20.8,1.4,11.66,11.66,0,0,0,4.5-.9c3.2-1.7,3.9-5.8,4.8-9.3a2.13,2.13,0,0,1,.7-1.2c.6-.4,1.4,0,2,.4,4.6,2.9,9.1,5.7,13.7,8.6a2.38,2.38,0,0,0,1.8.5,2.26,2.26,0,0,0,1.1-.8c.6-.7,1.3-1.4,1.9-2,1.1-1.1,2.2-2.8,1.3-4.1a3.16,3.16,0,0,0-1.7-1.1,116.29,116.29,0,0,1-12.4-5.8,18.34,18.34,0,0,1-5.3-3.8c-2.7-3.1-3.1-7.7-2.5-11.8.7-4.6,2.5-8.9,4.3-13.1,1.1-2.5,2.4-5.2,4.9-6.1a5.78,5.78,0,0,1,5.7,1.4,12.66,12.66,0,0,1,3.2,5.2c-1.3-5.3-3.2-11.2-8.1-13.6-2.8-1.4-6.2-1.3-9.3-1.3-10.9,0-21.7-1.3-32.6-2.4a100,100,0,0,0-12.2-.8c-5,.1-9.9,1.1-14.9.9-7.6-.2-15.2-2.8-22.8-1.9"/><path class="cls-1" d="M3781.3,1200.3a57.75,57.75,0,0,1-17.1-1c6.7-1.7,13.5-3.3,20.2-5a3.77,3.77,0,0,0,2.1-1,8.17,8.17,0,0,0,1.1-2.3c.9-1.8,3-2.6,4.6-3.9,3-2.6,3.8-6.9,4.3-10.9.9,3,1.9,6,2.8,8.9a3.19,3.19,0,0,0,.9,1.6,3.81,3.81,0,0,0,1.5.5c3,.4,6,.1,9,.2,9.7.3,21.2,4.1,30.8,2.4"/><path class="cls-1" d="M3942.6,1204.8a56.2,56.2,0,0,1,8.6,9.6,13.29,13.29,0,0,0,2.1,2.6"/><path class="cls-1" d="M3926.1,1227.8c-2.7-.8-6.1,1.1-6.1,4.1,0,2.5,2.6,3.4,4.3,4.8"/><path class="cls-1" d="M3853.7,1242.2a26.16,26.16,0,0,0,2.4,3.4,15.33,15.33,0,0,0,2.8,2.9c.9.7,2,1.2,3,1.9.6.4,1.1.9,1.7,1.3a6.62,6.62,0,0,0,5.8.7,54.33,54.33,0,0,0-5.4-6.3,20.54,20.54,0,0,0-4.2-3.6,6.26,6.26,0,0,0-5.3-.7"/><path class="cls-1" d="M3826.4,1190.1c2.7,1.8,5.6,3.7,6.9,6.7,2,4.5,0,9.6-1.2,14.4a34.63,34.63,0,0,0-.7,13.6c.6,4,1.9,8,1.1,11.9"/><path class="cls-1" d="M3928.4,1230.1c-1.1-6.5,1.6-13,4.3-19,1-2.3,2-4.6,3.1-7a7.14,7.14,0,0,1,.8-1.5,3.31,3.31,0,0,1,3.5-1,3.26,3.26,0,0,1,2.1,3"/><path class="cls-1" d="M3791.6,1239.9c.2-.3-.1-.8-.5-1s-.8-.2-1.2-.4c-.7-.4-.8-1.3-1.1-2.1-1.1-3-5.5-3.5-6.8-6.4-.6-1.4-.4-3-.8-4.4-.8-2.4-2-2.8-.8-4.9.8-1.6,2.5-3.4,3.5-4.9a14.75,14.75,0,0,1,2.9-3.2c.4-.3.9-.8.8-1.3a.68.68,0,0,0-.4-.6c-1.6-1.4-4.4-1.1-5.7-2.8"/><path class="cls-1" d="M3786.4,1247a10.63,10.63,0,0,1-2.4-5.4,6.36,6.36,0,0,1,.5-3.6"/><path class="cls-1" d="M3779,1236.6a1.13,1.13,0,0,1,1.5.4,3.29,3.29,0,0,1,.4,1.7c0,.5,0,1.1-.4,1.4s-1.1.2-1.2-.3"/><path class="cls-1" d="M3781.3,1212.1a4.75,4.75,0,0,1,3.7,0"/><path class="cls-1" d="M3938.9,1288.5c.4-.4,1.2-.1,1.5.4a3.23,3.23,0,0,1,.3,1.7c0,4.1.1,8.3.1,12.4a20.75,20.75,0,0,1-.3,4.3,22.85,22.85,0,0,1-1.2,3.7c-1.9,4.6-3.8,9.4-7,13.3-1.2,1.5-2.7,3-3.4,4.8,2.7,0,5.3-.1,8-.1,1.3,0,2.8-.2,3.6-1.2s.3-2.7-.1-4-.3-3.1,1-3.6c.3-.1.7-.2,1-.3a2.72,2.72,0,0,0,1.1-2c1.4-6.4,2.7-12.7,4.1-19.1.9-4.1,1.7-8.2,3.4-12,.6-1.4,1.4-2.9,1.2-4.4-.2-1.8-1.6-3.1-2.6-4.6-3.2-4.6-3.2-10.7-3-16.3a55.24,55.24,0,0,1,.9-9.9c1.3-6.2,4.8-12.1,4.5-18.5"/><path class="cls-1" d="M3912,1324.7h6.2"/><path class="cls-1" d="M3852.6,1311.6c2.9-.2,6-.4,8.6,1,1,.5,1.9,1.3,3,1.3"/><path class="cls-1" d="M3931.5,1325.1a17.54,17.54,0,0,1,8.5-1"/><path class="cls-1" d="M1368.8,1136.5s-.8-33.8-39.2-28.4c0,0-37.6,9.2-31.5,36.1l-11.5,9.2,4.6,9.2-.8,13.8,5.4,5.4-2.3,13.8,4.6.8.8,7.7,6.9,12.3,6.1,16.9s16.9-6.1,16.9-17.7l10.8,2.3-3.8,9.2-6.1,59.9,6.1,32.3-9.2,10-10.8-12.3h-4.6l5.4,7.7-15.4,9.2,2.3,13.1,10.8,18.4,19.2-9.2s3.1,50.7,20.7,50.7c0,0,14.6,3.8,22.3-6.9,0,0-31.5,178.2-25.3,193.5l13.1-.8,10-2.3.8,14.6s16.9,6.9,34.6,0l5.4,1.5s16.1,62.2,6.9,67.6l-13.1,12.3s-44.5,11.5-44.5,15.4,15.4,12.3,15.4,12.3l55.3,2.3,27.6-2.3s13.1-5.4,10-13.1c0,0,11.5,6.1,19.2,2.3,0,0,25.3,1.5,5.4-21.5l-10-28.4.8-64.5,16.1,1.5,5.4-2.3V1585l7.7-4.6s-14.6-185.1-23-192.8,5.4-2.3,5.4-2.3l55.3,33.8,10,13.8s48.4-1.5,49.9-39.9l-4.6-1.5s-6.1-175.1-117.5-188.1c0,0-16.1-50.7-38.4-22.3l-9.2-3.1s18.4,3.8,11.5-15.4c0,0-8.4-8.4-12.3-1.5,0,0-16.1-13.8-39.2,19.2l13.8,7.7-13.8,7.7-33.8-21.5s1.5-6.9,8.4-3.8l1.5-12.3s2.3-13.8-12.3-17.7v-3.9Z"/><path class="cls-1" d="M1286.6,1153.4s61.4,32.3,69.1,25.3"/><path class="cls-1" d="M1490.5,1383.4c-20.7-3.1-66.8-76-66.8-76-16.9-17.7-5.4-61.4-5.4-61.4l-87.5-92.9,39.9,20.7"/><path class="cls-1" d="M1415.2,1206.8l16.1,10C1431.4,1216.7,1419.8,1176.8,1415.2,1206.8Z"/><path class="cls-1" d="M1459,1196.8l19.2,3.1S1459.8,1166.8,1459,1196.8Z"/><line class="cls-1" x1="1378.6" y1="1203.2" x2="1394.1" y2="1189.9"/><path class="cls-1" d="M1323.1,1185.3s8.3.5,8-9.8"/><polyline class="cls-1" points="1450.5 1349.1 1422.9 1351.1 1412.9 1361.1 1392.2 1368.8 1376.1 1399.5"/><path class="cls-1" d="M1333.1,1355.7s20.7,0,25.3-5.4c0,0,33-3.1,33.8-23l-6.9-13.8,6.9-16.1-4.6-49.9-16.9-30"/><path class="cls-1" d="M1335.4,1318.9s1.5,29.2,23,31.5"/><path class="cls-1" d="M1397.6,1439.5s3.1,157.4,16.9,166.6c0,0,18.4-.7,28.4-2.3l16.1-6.9s11.5-10.8,28.4-8.4"/><path class="cls-1" d="M1374.5,1439.5s-19.2,139.8-10.8,152.8"/><path class="cls-1" d="M1488.2,1415.7s23,154.4,20.7,169"/><path class="cls-1" d="M1453.8,1601.3s9.8,45.5,2.1,53.2c0,0,3.1,46.1,16.1,46.1"/><path class="cls-1" d="M237.3,1518.2l-1.4-3.2a37.77,37.77,0,0,0,4.6-15.2s2.3-10.6-2.3-13.4c0,0-1.4-23.5-27.6-20.3l-6.4,11.5s-10.6,3.2-5.5,16.6l2.3,11.1.5,3.2.9,8.3,3.7.9-10.1,6.9s-18.9-2.3-24.9,10.1c0,0-7.8,19.8-3.2,26.7l4.6,16.6-.5,13.4-.5,18.4-2.8,12.4s4.6,18,8.8,19.3l5.1,17s2.8,44.2,6,44.2c0,0,0,1.4,6.4-.5l-.5,6.9,6.4,3.7H211l5.1-2.8-1.4-9.7v-7.8l18.4-8.8,39.6-.9,9.2,1.8h10.6l9.7,4.1s4.1,1.4,6.9-.5,8.8.9,8.8.9l4.6-1.4-3.2-6a97.14,97.14,0,0,1-15.2-5.1l15.2-8.8,5.1-3.2,5.5-6.9,5.5-2.3,6.9-4.6,7.8-5.1,5.1-1.4-19.3-56.2s-6-19.8-33.6-11.1c0,0-25.3,5.5-27.6,4.6,0,0,.9-12.4-3.7-16.1a86.54,86.54,0,0,1-12-29.5S253.4,1524.6,237.3,1518.2Z"/><path class="cls-1" d="M200.9,1505.3l5.1-6,6.9-3.7s14.6-14.2,28.5-.7"/><path class="cls-1" d="M203.2,1576.7s5.1-6.4,7.8-6.4l11.5-16.6-6.9-11.1-2.3-6c-11.5-1.8-8.8-17.3-8.8-17.3"/><path class="cls-1" d="M213.3,1536.6s4.6,5.5,7.4,5.5l7.4-1.4,6.4-4.6,2.3-6.4,3.7-8.8.5,10.1-4.1,10.1,7.4-6,5.1-1.4-6.9,14.3-9.2,9.2-12.4,25.3"/><polyline class="cls-1" points="194.9 1702.5 214.7 1692.8 247 1677.6 260.3 1673.9 267.2 1671.1 266.3 1666.1 287.5 1666.5 297.2 1666.5 303.2 1661.5 311.9 1659.6 318.8 1652.7 328.5 1651.3 340 1644.9 350.2 1646.2"/><path class="cls-1" d="M272.8,1683.1s-9.7-3.2,6.9-17.5"/><path class="cls-1" d="M222.6,1540.3l1.8-3.2s-10.6-4.1-7.8-12c0,0,2.8-8.8,24-6"/><path class="cls-1" d="M211,1570.2s6,17.5,13.4,17l-1.8,7.8-9.2,2.3"/><path class="cls-1" d="M249.3,1547.2s-2.3,24.9,1.4,29.9"/><path class="cls-1" d="M241,1602.5l10.1-15.7,2.8-1.8-3.2-1.8s-3.7-9.2,9.2-10.1c0,0,13.4,12.4,3.7,18.9l11.1-9.7"/><path class="cls-1" d="M260.3,1601.1s-.5-9.7,3.2-9.2"/><path class="cls-1" d="M198.6,1593.7s23.5,20.7,94,.9"/><polyline class="cls-1" points="202.3 1614.9 211 1617.7 217 1621.4 227.6 1624.1"/><polyline class="cls-1" points="253.9 1636.6 269.1 1629.7 271.9 1625.5 281.5 1623.7"/><path class="cls-1" d="M244.7,1637s7.8-2.3,17.5,2.8a128.92,128.92,0,0,0,18,7.8l11.1,10.6"/><path class="cls-1" d="M206,1517.7s-1.4,6,1.4,7.4c0,0,4.6,7.8,6.4,7.8"/><rect class="cls-2" width="8191.3" height="1736.3"/></g></g></svg>