<svg xmlns="http://www.w3.org/2000/svg" viewBox="0 0 1487.22 2748.79"><defs><style>.cls-1{fill:#c0dae2;}.cls-14,.cls-2,.cls-4{fill:#fff;}.cls-3{fill:#c78764;}.cls-4{stroke:#fff;}.cls-13,.cls-14,.cls-4,.cls-7,.cls-9{stroke-miterlimit:10;}.cls-14,.cls-4{stroke-width:0.5px;}.cls-5{fill:#f4e8df;}.cls-6{fill:#2d170f;}.cls-13,.cls-15,.cls-7,.cls-9{fill:none;}.cls-13,.cls-7,.cls-9{stroke:#020203;}.cls-7{stroke-width:0.38px;}.cls-8{fill:#020203;}.cls-9{stroke-width:0.25px;}.cls-10{opacity:0.5;}.cls-11{opacity:0.47;}.cls-12{fill:#ae5151;}.cls-13{stroke-width:0.13px;}.cls-14{stroke:#d3d6db;}</style></defs><g id="Calque_2" data-name="Calque 2"><g id="Calque_1-2" data-name="Calque 1"><path class="cls-1" d="M290.42,1888.6s-267.3,147.3-267.3,212.7-38.2,616.4-16.4,638.2,1479.6-1.6,1479.6-1.6,9.6-560.3-34-625.7-272.7-207.3-272.7-207.3Z"/><path class="cls-2" d="M257.12,2130.6s240.6,284.8,373.1,245.5,196.4,39.3,260.2,24.5,265.1-9.8,274.9-117.8,122.7-270,122.7-270,68.7-122.7,49.1-181.7S257.12,2130.6,257.12,2130.6Z"/><polygon class="cls-3" points="490.32 1283.7 514.92 1656.8 843.82 1710.8 1045.12 1656.8 1069.72 1367.1 1020.62 1151.1 917.52 1111.8 691.62 1141.3 490.32 1283.7"/><polygon class="cls-2" points="1040.62 1398.6 1030.02 1464.5 1099.12 1494.8 1104.02 1455.5 1040.62 1398.6"/><path class="cls-4" d="M1037.72,1467.8s49.1,19.6,58.9,14.7l-56.1-84-27.4-161.5-19.6-34.4-34.4-54H826.62l-137.5,14.7-79.8,65.5-45.4,49.9s-12.3,71.2-14.7,73.6c0,0-17.2,31.9-29.5,29.5v142.4s36.8,22.1,39.3,58.9l54,54,204.8,37.1,114.3-12.6s71.2-76.1,98.2-63.8,73.6,29.5,73.6,29.5,36.8-46.6,63.8-4.9l83.5,14.7s76.1,46.6,83.5,88.4,10.4,219.4-73.6,284.8c-154.7,120.3-166.9,108-166.9,108s-179.2,17.2-279.8,0c0,0-444.3-27-456.6-9.8l-98.2,19.6s-76.1-81-54-108c0,0-36.8-46.6-29.5-98.2,0,0-22.1-46.6-9.8-54,0,0,7.4-46.6,39.3-49.1,0,0,36.8,12.3,44.2,34.4l39.3-63.8,9.8,4.9s-12.3-130.1,63.8-201.3c0,0-41.7-81-14.7-108,0,0-56.5-164.5-44.2-171.8,0,0-27-41.7-24.5-44.2s-4.9-93.3-4.9-93.3-2.5-76.1,73.6-112.9c0,0,41.7-46.6,58.9-44.2,0,0,81-154.7,186.6-162,0,0,159.6-7.4,176.7,4.9,0,0,31.9-7.4,49.1,0l-4.9-29.5s41.7-17.2,54,0l24.5-29.5s51.6,7.4,54,39.3l44.2,14.7,49.1,68.7,73.6,44.2s22.1,46.6-44.2,58.9c0,0,27,61.4,29.5,88.4,0,0,174.3,105.6,142.4,171.8v186.6s-17.2,12.3-34.4,14.7l19.6,137.5Z"/><polygon class="cls-5" points="596.42 1451.2 624.42 1458.6 640.92 1460.6 639.42 1449.1 628.02 1432.7 603.22 1445.6 595.92 1449.7 596.42 1451.2"/><path class="cls-6" d="M557.82,1420.2c21.7-15.5,50-18.5,76.6-16.9s52.9,7.5,79.6,7.7a12.48,12.48,0,0,0,5.4-.8c2.3-1.1,3.7-3.5,4.4-5.9,2.6-9.2-4-19.1-12.5-23.4s-18.5-4.6-28.1-4.7c-11.2-.2-22.4-.3-33.6-.5-16-.2-32.2-.4-47.8,3.4-20.9,5.2-41.2,19.8-46,40.8"/><path class="cls-6" d="M985.62,1368.1c-37.6-2.3-87.1-.3-118.7,20.2-4,2.6-8.1,5.4-12.8,6.5s-10.3-.2-12.8-4.3c-3.2-5.2-.3-12,3.4-16.8l6.5-4.1c8-5.4,11.2-8.5,19.3-13.6,13.3-8.6,25.6-11.2,41.4-12.4,15.3-1.1,32-1,46.2,4.7C964.52,1350.9,982.62,1362,985.62,1368.1Z"/><path class="cls-6" d="M569.72,1265.2c29.1,1.4,46.3-37.3,75.2-40.7,12.5-1.5,27.3,3.6,36.7-4.9,4.2-3.8,6.2-9.8,10.7-13.4,8.9-7.2,21.9-1.8,32.8,1.8a88.19,88.19,0,0,0,65.4-4.4c3.6-1.8,7.3-3.8,11.3-3.9,8.3-.2,14.2,7.6,20,13.7a65.68,65.68,0,0,0,47.8,20.2,12,12,0,0,0,6.7-1.5c6.3-4.1,2-13.8-2-20.2a98.63,98.63,0,0,1-15-62.4c.2-1.7.3-3.6-.7-5a6.69,6.69,0,0,0-3.3-1.8c-41.6-12.4-85.2,10.1-128.6,10.8-14.2.2-28.8-1.8-42.1,3.1a73.4,73.4,0,0,0-16.4,9.2,267.07,267.07,0,0,0-44.5,39.1c-7.6,8.3-14.6,17.1-21.6,25.9-9.4,11.8-18.8,23.5-28.2,35.3"/><path class="cls-6" d="M853.62,1146.2c16.7,8.7,37.3,15.8,53.1,25.9,12.7,8.1,25.5,17.1,33.5,29.8,4,6.3,6.7,13.5,11.5,19.2,6.9,8.2,17.5,12.9,23.1,22,13.9,22.9-12.7,56.9,4,77.9,3.9,4.9,9.6,8.1,14.1,12.5,5.2,5.1,8.5,11.8,11.1,18.6a128.38,128.38,0,0,1,7.4,65.5c-.2-18.6,10.3-35.3,18.4-52.1s13.6-37.4,4-53.4c-2.3-3.9-5.4-7.2-7.5-11.2-2.4-4.7-3.2-10.1-3.6-15.4-1.5-17.8.6-36.2-4.6-53.4-3.6-11.9-10.6-22.6-14.7-34.4-4.9-13.8-5.8-29.1-12.4-42.2s-22.2-23.8-35.6-17.9c-4.3,1.9-7.8,5.3-12.1,7.2-5.6,2.5-11.9,2.2-18,1.9-22.1-1.2-54.6-2.7-76.5-5.4"/><path class="cls-7" d="M625.42,1433.8s-2.2,1.2-5.8,3.1-8.5,4.6-13.9,7.6c-2.7,1.5-5.3,2.9-7.7,4.2a36.9,36.9,0,0,1-6.4,3.1c-1.9.6-3.5,1-4.6,1.5l-1.6.8a17.75,17.75,0,0,1,1.6-.8,35.5,35.5,0,0,1,4.6-1.5,36.9,36.9,0,0,0,6.4-3.1c2.4-1.3,5-2.7,7.7-4.2,5.4-3,10.4-5.6,13.9-7.6S625.42,1433.8,625.42,1433.8Z"/><path class="cls-5" d="M721.82,1449.1c-11,.2-25.2,4.7-35.8,7.2-3.4.8-6.8,1.5-10.3,2a14.17,14.17,0,0,0,4.6-3.2c5.3-5.5,5.3-15.9,4.5-24C697.62,1434.9,712.32,1440.9,721.82,1449.1Z"/><path class="cls-7" d="M721.82,1449.1a73.66,73.66,0,0,0-17.6-10.8,136.69,136.69,0,0,0-19.4-7.1,55,55,0,0,1,.3,9.1,33.09,33.09,0,0,1-1.4,8.9,16.38,16.38,0,0,1-3,5.5,13.08,13.08,0,0,1-5,3.7h0c3.8-.8,7.7-1.5,11.5-2.3s7.6-2,11.4-2.9c7.7-2,15.4-3.8,23.2-4.1-7.9.2-15.5,2.1-23.1,4-3.8,1-7.6,2-11.4,2.9s-7.7,1.5-11.5,2.3h0a13.89,13.89,0,0,0,5-3.7,16.38,16.38,0,0,0,3-5.5,33.73,33.73,0,0,0,1.4-8.9,69.2,69.2,0,0,0-.3-9.1,150.19,150.19,0,0,1,19.4,7.1A82.84,82.84,0,0,1,721.82,1449.1Z"/><path class="cls-7" d="M721.82,1449.1s.5.5,1.1,1,1.1,1,1.1,1-.5-.5-1.1-1S721.82,1449.1,721.82,1449.1Z"/><path class="cls-7" d="M678.72,1429.5s1.4.4,3.1.8c.8.2,1.6.4,2.2.6a6.59,6.59,0,0,1,.9.2,6.59,6.59,0,0,0-.9-.2,21.78,21.78,0,0,0-2.2-.6C680.12,1429.9,678.72,1429.5,678.72,1429.5Z"/><path class="cls-5" d="M962.42,1396.2c-8.8,8.7-18.1,19.9-29.7,23.7a87.47,87.47,0,0,1-12.3,2.8c-13.9,2.5-28,4.9-42.1,4.1-9.6-.5-21.4.5-30.6-2.7h0c6.3-6,11.8-13.1,18.6-18.7,1.3-1,2.6-2.1,4-3-1.6,8.4,4.8,16.7,12.7,20s16.9,2.7,25.5,1.8a14.1,14.1,0,0,0,4.9-1.2c2.2-1.1,3.5-3.4,4.5-5.6,3.4-8,2.7-19.2,2.1-27.9C934.32,1389.9,948.42,1392.8,962.42,1396.2Z"/><path class="cls-7" d="M962.42,1396.2c-13.9-3.4-28.1-6.3-42.4-6.7.3,4.3.5,8.5.5,12.8a44.54,44.54,0,0,1-1.7,12.6,19.11,19.11,0,0,1-2.7,5.8,8,8,0,0,1-2.3,2.2,7.74,7.74,0,0,1-3,1.1c-2.1.4-4.2.5-6.3.7s-4.3.3-6.4.3a40.76,40.76,0,0,1-12.6-1.6,22.61,22.61,0,0,1-10.6-6.8,17.92,17.92,0,0,1-4.7-11.6,8.6,8.6,0,0,1,.1-1.6l.1-.8c.1-.2-.1,0-.2,0l-.3.2-2.6,1.9a48.1,48.1,0,0,0-4.8,4.2c-3.6,3.5-6.9,7.2-10.3,10.7-.8.9-1.7,1.8-2.5,2.6l-1.3,1.3-.3.3-.2.2-.1.1h.1l.9.3a43.75,43.75,0,0,0,7,1.5,109.68,109.68,0,0,0,13.9.7c2.3,0,4.5,0,6.8.1s4.4.2,6.6.2a147.35,147.35,0,0,0,24.6-2.1c3.8-.6,7.5-1.2,11-1.8s6.9-1.2,10.1-2a38.12,38.12,0,0,0,8.8-3.2,44.6,44.6,0,0,0,7-4.6,105,105,0,0,0,9.9-9c2.6-2.6,4.6-4.7,5.9-6s2-2,2-2l-2.1,2.1c-1.4,1.4-3.4,3.4-5.9,6a105,105,0,0,1-9.9,9,53,53,0,0,1-7,4.6,38.12,38.12,0,0,1-8.8,3.2c-3.2.8-6.6,1.4-10.1,2s-7.2,1.3-11,1.8A157.71,157.71,0,0,1,883,1427c-2.2,0-4.4-.2-6.6-.2s-4.5-.1-6.8-.1a132,132,0,0,1-13.9-.7,43.75,43.75,0,0,1-7-1.5l-.9-.3h-.1l.1-.1.2-.2.3-.3a15.93,15.93,0,0,0,1.3-1.3c.9-.9,1.7-1.7,2.5-2.6,3.4-3.5,6.6-7.3,10.3-10.7a48.1,48.1,0,0,1,4.8-4.2l2.6-1.9.3-.2c.1-.1.3-.2.2,0l-.1.8a8.6,8.6,0,0,0-.1,1.6,17.92,17.92,0,0,0,4.7,11.6,22.61,22.61,0,0,0,10.6,6.8,38.63,38.63,0,0,0,12.6,1.6c2.1,0,4.3-.1,6.4-.3s4.2-.4,6.3-.7a8.38,8.38,0,0,0,3-1.1,8,8,0,0,0,2.3-2.2,19.27,19.27,0,0,0,2.7-5.8,49,49,0,0,0,1.7-12.6c.1-4.3-.2-8.5-.5-12.8C934.32,1389.9,948.42,1392.8,962.42,1396.2Z"/><path class="cls-7" d="M962.42,1396.2s1.6.4,3.7.9,3.7.9,3.7.9-1.6-.4-3.7-.9S962.42,1396.2,962.42,1396.2Z"/><path class="cls-7" d="M842,1429.1s1.4-1,3-2.4,2.8-2.6,2.8-2.6-1.2,1.2-2.8,2.6S842,1429.1,842,1429.1Z"/><path class="cls-7" d="M722.92,1449.1h0Z"/><path class="cls-7" d="M674.12,1458.6a3.78,3.78,0,0,1,.8-.1,4.53,4.53,0,0,1,.8-.1,38413033274147.27,38413033274147.27,0,0,0-1.6.2Z"/><path class="cls-7" d="M594.82,1450.4l2.2.8c1.4.5,3.5,1.2,6.2,2.1s5.8,1.7,9.3,2.6,7.4,1.7,11.6,2.4,8.1,1.2,11.7,1.5,6.9.5,9.6.6,5,.1,6.5.1h0c-1.5,0-3.8,0-6.5-.1s-6-.3-9.6-.6-7.6-.8-11.7-1.5-8-1.5-11.6-2.4-6.7-1.8-9.3-2.6-4.7-1.5-6.2-2.1Z"/><path class="cls-7" d="M962.32,1396.2a4.43,4.43,0,0,0,.6-.5,4.43,4.43,0,0,1,.6-.5,4.43,4.43,0,0,0-.6.5A4.43,4.43,0,0,1,962.32,1396.2Z"/><path class="cls-7" d="M846.32,1423.6a6,6,0,0,1,.7.3,2.49,2.49,0,0,1,.7.3,6,6,0,0,1-.7-.3A6,6,0,0,0,846.32,1423.6Z"/><path class="cls-8" d="M681.12,1456a15,15,0,0,1-4.6,3.3,8.49,8.49,0,0,1-2.2.9h0l-2.5.3a.35.35,0,0,0-.2.1,159.46,159.46,0,0,1-16.9.9c-.1.1-.3,0-.4,0a40.41,40.41,0,0,1-14.6-2.9c-8.8-3.8-12.3-15.5-13.8-25.4a70.78,70.78,0,0,1,11.8-4.7c8.7-2.5,17.9-2.3,26.9-1.4a134,134,0,0,1,20.8,4c.2.1.3.1.5.2v.2C686.52,1439.7,686.52,1450.3,681.12,1456Z"/><path class="cls-9" d="M681.12,1456a16.59,16.59,0,0,0,3.3-5.6,27.33,27.33,0,0,0,1.4-6.3,62.77,62.77,0,0,0-.1-13c-4.4-1.2-8.8-2.2-13.3-3a103.5,103.5,0,0,0-13.5-1.6,68.72,68.72,0,0,0-13.6.3,49.6,49.6,0,0,0-13.1,3.4c-2.2.9-4.3,1.9-6.4,2.9a55.82,55.82,0,0,0,4.2,15,23.71,23.71,0,0,0,4.3,6.5,18.1,18.1,0,0,0,3,2.5l.8.5.9.4a14.17,14.17,0,0,0,1.8.8,42,42,0,0,0,15.3,2.5,136,136,0,0,0,15.6-.9h0l2.8-.3a17.64,17.64,0,0,0,3.7-1.7,12.29,12.29,0,0,0,2.9-2.4,11.09,11.09,0,0,1-3.2,2.5,24.77,24.77,0,0,1-3.7,1.7l-2.8.3h0c-5.2.6-10.4.8-15.6.9a41.67,41.67,0,0,1-15.3-2.5,14.17,14.17,0,0,1-1.8-.8l-.9-.4-.8-.5a18.1,18.1,0,0,1-3-2.5,25.32,25.32,0,0,1-4.3-6.5,55.82,55.82,0,0,1-4.2-15c2.1-1,4.3-2,6.4-2.9a53.77,53.77,0,0,1,13.1-3.4,77.27,77.27,0,0,1,13.6-.3c4.5.3,9,.9,13.5,1.6s8.9,1.8,13.3,3a62.77,62.77,0,0,1,.1,13,32.08,32.08,0,0,1-1.4,6.3A11.52,11.52,0,0,1,681.12,1456Z"/><path class="cls-9" d="M625.32,1433.4v.2a.35.35,0,0,0,.1.2.31.31,0,0,0-.1-.2Z"/><path class="cls-9" d="M674,1458.6s-.3.1-.7.2-1.2.3-2,.5a47.13,47.13,0,0,1-6.8.9c-2.7.1-5.1.1-6.9.1h0c1.8,0,4.2,0,6.9-.1a36.28,36.28,0,0,0,6.8-.9c.9-.2,1.5-.4,2-.5A3.13,3.13,0,0,0,674,1458.6Z"/><path class="cls-9" d="M683.62,1434.4c0,.1.1-.2.1-.6s.2-1,.3-1.6.2-1.2.3-1.6a4.33,4.33,0,0,1,.1-.5v-.1h0v.1a4.33,4.33,0,0,0-.1.5c-.1.4-.2,1-.3,1.6s-.2,1.2-.3,1.6S683.62,1434.5,683.62,1434.4Z"/><path class="cls-8" d="M917.82,1417.4a10.08,10.08,0,0,1-4.5,5.6,13.58,13.58,0,0,1-4.9,1.2c-8.6.9-17.6,1.5-25.5-1.8s-14.3-11.6-12.7-20c13.3-9.2,30-13,46.3-13h3.3C920.52,1398.2,921.22,1409.4,917.82,1417.4Z"/><path class="cls-9" d="M917.82,1417.4s.2-.5.5-1.4c.2-.5.3-1,.5-1.7s.4-1.5.6-2.4a66.88,66.88,0,0,0,.9-15.4c-.1-1.6-.1-3.3-.3-5.1,0-.4-.1-.9-.1-1.3a1.7,1.7,0,0,0-.1-.7h-3.5a88,88,0,0,0-12.2.8,81,81,0,0,0-26.8,8,51.61,51.61,0,0,0-7.1,4.3,14.83,14.83,0,0,0,.7,7.8,19.48,19.48,0,0,0,4.2,6.7,24.48,24.48,0,0,0,6.3,4.8,29.47,29.47,0,0,0,7.6,2.5,56.42,56.42,0,0,0,15.9.3c1.3-.1,2.6-.3,4-.4a18.32,18.32,0,0,0,3.9-.9,8.12,8.12,0,0,0,3.1-2.4,14.79,14.79,0,0,0,1.9-3.5,17,17,0,0,1-1.9,3.5,8.12,8.12,0,0,1-3.1,2.4,17,17,0,0,1-3.9.9c-1.3.2-2.6.3-4,.4a60.49,60.49,0,0,1-15.9-.3,29.47,29.47,0,0,1-7.6-2.5,22.89,22.89,0,0,1-6.3-4.8,19.48,19.48,0,0,1-4.2-6.7,14.83,14.83,0,0,1-.7-7.8c2.3-1.5,4.7-3,7.1-4.3a80.31,80.31,0,0,1,26.8-8,106.85,106.85,0,0,1,12.2-.8h3.5a2,2,0,0,0,.1.7c0,.5.1.9.1,1.3q.15,2.7.3,5.1a61.65,61.65,0,0,1-.9,15.4q-.3,1.35-.6,2.4c-.2.7-.4,1.2-.5,1.7A9.92,9.92,0,0,1,917.82,1417.4Z"/><path class="cls-9" d="M919.92,1389.2v0Z"/><path class="cls-9" d="M870.32,1402.4h0v0Z"/><g class="cls-10"><path class="cls-9" d="M716.62,1571.8s-.5,1.1-1.4,3.2c-.5,1-1,2.3-1.7,3.7s-1.4,3.1-2.4,4.9c-1.8,3.6-4,7.9-6.6,12.5s-5.6,9.7-9,14.8-6.7,9.9-9.9,14.2-6.2,8-8.8,11.1c-1.3,1.6-2.5,2.9-3.5,4.1s-2,2.2-2.7,3.1l-2.3,2.6,2.3-2.6c.8-.8,1.7-1.9,2.7-3.1s2.3-2.6,3.5-4.1c2.6-3.1,5.6-6.8,8.8-11.1s6.5-9.1,9.9-14.2,6.3-10.2,9-14.8,4.8-8.9,6.6-12.5c.9-1.8,1.7-3.5,2.4-4.9s1.3-2.7,1.7-3.7C716.12,1572.9,716.62,1571.8,716.62,1571.8Z"/></g><g class="cls-11"><path class="cls-9" d="M928.82,1629.6a13.84,13.84,0,0,1,.7-1.4,42.6,42.6,0,0,1,2.3-3.8,58,58,0,0,1,4.5-5.5c1.9-2.1,4.1-4.3,6.4-7a35.71,35.71,0,0,0,6.1-9.7,16,16,0,0,0,1.3-6.2,18.29,18.29,0,0,0-.2-3.3,20.74,20.74,0,0,0-1-3.3c-1.8-4.3-5.3-7.9-8.8-11.4s-7.2-7.3-11.1-10.9c-7.8-7.3-15.6-13.8-22.9-19.5s-14.2-10.4-20-14.3-10.7-6.7-14.1-8.7-5.3-3-5.3-3,1.9,1.1,5.3,3,8.2,4.9,14.1,8.7,12.7,8.6,20,14.3,15.1,12.2,22.9,19.5c3.9,3.7,7.6,7.3,11.1,10.9s7,7.2,8.8,11.4a13.85,13.85,0,0,1,1,3.3,12.22,12.22,0,0,1,.2,3.3,20.73,20.73,0,0,1-1.3,6.2,34.86,34.86,0,0,1-6.1,9.7c-2.3,2.7-4.5,4.9-6.4,7a45.74,45.74,0,0,0-4.5,5.5,27.14,27.14,0,0,0-2.3,3.8A14.22,14.22,0,0,1,928.82,1629.6Z"/></g><path class="cls-9" d="M761.32,1573a10.52,10.52,0,0,1,1,.9,9.74,9.74,0,0,1,1.8,2.7,8.8,8.8,0,0,1,.8,3.2,12.53,12.53,0,0,1,.1,1.4s0-.5-.1-1.4a12.37,12.37,0,0,0-.8-3.2,8.43,8.43,0,0,0-1.8-2.7A10.52,10.52,0,0,0,761.32,1573Z"/><g class="cls-10"><path class="cls-9" d="M872.22,1566.6s.1.6.2,1.7a49.16,49.16,0,0,1,.3,5,26.63,26.63,0,0,1-1,7.9,14,14,0,0,1-2.2,4.4,10.47,10.47,0,0,1-4.4,3.3c-1.8.8-3.8,1.2-5.7,2.2a13.6,13.6,0,0,0-4.9,4.4,71,71,0,0,1-4.3,5.7,24.75,24.75,0,0,1-5.8,4.8,42.15,42.15,0,0,1-15.2,5.2,121,121,0,0,1-17.3,1.5,126,126,0,0,1-17.4-.1,60.71,60.71,0,0,1-15.8-3.3,42.45,42.45,0,0,1-12.7-7.2,29,29,0,0,1-7.8-10,29.32,29.32,0,0,1-2.7-10.1,26.63,26.63,0,0,1,.7-7.9c.1-.3.1-.5.2-.8s.2-.5.3-.7c.2-.5.3-.9.5-1.3.4-.8.6-1.4.9-1.9l.9-1.5-.9,1.5a17.15,17.15,0,0,0-.9,1.9c-.2.4-.3.8-.5,1.3-.1.2-.2.5-.3.7s-.1.5-.2.8a23.67,23.67,0,0,0-.7,7.9,27.24,27.24,0,0,0,2.7,10.1,29,29,0,0,0,7.8,10,41.25,41.25,0,0,0,12.7,7.2,60.71,60.71,0,0,0,15.8,3.3,125.91,125.91,0,0,0,17.4.1,159,159,0,0,0,17.3-1.5,42.15,42.15,0,0,0,15.2-5.2,24.75,24.75,0,0,0,5.8-4.8,56.75,56.75,0,0,0,4.3-5.7,14.58,14.58,0,0,1,4.9-4.4c1.9-.9,3.9-1.4,5.7-2.2a12.44,12.44,0,0,0,4.4-3.3,12.14,12.14,0,0,0,2.2-4.4,26.63,26.63,0,0,0,1-7.9,49.16,49.16,0,0,0-.3-5C872.32,1567.2,872.22,1566.6,872.22,1566.6Z"/></g><g class="cls-10"><path class="cls-9" d="M838.62,1531.8s-.4-1.6-1-4.4c-.3-1.4-.7-3.2-1.1-5.2s-.9-4.3-1.4-6.9-1-5.4-1.4-8.4-.9-6.3-1.3-9.7c-.8-6.8-1.5-14.4-1.8-22.3s-.3-15.5-.1-22.4c.1-3.4.2-6.7.5-9.8s.4-5.9.7-8.5.5-4.9.7-7,.5-3.8.7-5.3c.4-2.9.6-4.5.6-4.5s-.2,1.6-.6,4.5c-.2,1.4-.5,3.2-.7,5.3s-.5,4.4-.7,7-.5,5.4-.7,8.5-.3,6.3-.5,9.8c-.2,6.9-.2,14.5.1,22.4s1,15.5,1.8,22.3c.4,3.4.8,6.7,1.3,9.7s.9,5.8,1.4,8.4.9,4.9,1.4,6.9.8,3.8,1.1,5.2C838.22,1530.3,838.62,1531.8,838.62,1531.8Z"/></g><path class="cls-2" d="M1023.72,1476.3s-11.9,5.3-9,8.7c6.4,7.3,15.3-20.4,15.3-20.4l18.9,7.1,170.6,118.9,9.8,54-44.2,14.7-178.7-58c-.2-4.9,3.4-9,5.8-13.3,5.1-9.2,4.9-20.3,4.6-30.8-.7-25-1.5-50-2.2-75"/><path class="cls-9" d="M1011.12,1456.3s.1-1.8.2-4.7.1-6.9,0-11.3-.4-8.4-.7-11.2-.5-4.6-.5-4.6.2,1.8.5,4.6.6,6.8.7,11.2.1,8.4,0,11.3S1011.12,1456.3,1011.12,1456.3Z"/><path class="cls-9" d="M1022.72,1434.9a3,3,0,0,0,.3-.4c.1-.1.2-.3.4-.5a5.58,5.58,0,0,0,.5-.8,12.19,12.19,0,0,0,1.4-5.5,68.3,68.3,0,0,0-.5-8.5,41.31,41.31,0,0,1-.1-5,26,26,0,0,1,1-5.3c1-3.6,2.5-6.8,3.4-9.9a24.29,24.29,0,0,0,1.2-8.4,12.07,12.07,0,0,0-1.5-5.5,10.55,10.55,0,0,0-.8-1.3,3,3,0,0,0-.3-.4,1.73,1.73,0,0,0,.3.4,10.55,10.55,0,0,1,.8,1.3,15.28,15.28,0,0,1,1.5,5.5,24,24,0,0,1-1.2,8.4c-.9,3.1-2.4,6.3-3.4,9.9a26,26,0,0,0-1,5.3,40.88,40.88,0,0,0,.1,5,68.3,68.3,0,0,1,.5,8.5,13.19,13.19,0,0,1-1.4,5.5,5.58,5.58,0,0,1-.5.8c-.2.2-.3.4-.4.5A1.87,1.87,0,0,1,1022.72,1434.9Z"/><path class="cls-9" d="M1021.82,1452.8s0,.6-.1,1.5a15,15,0,0,1-.9,3.5,11,11,0,0,1-1.8,3.1c-.6.7-1,1.1-1,1.1s.4-.4,1-1.1a11,11,0,0,0,1.8-3.1,15,15,0,0,0,.9-3.5A4.26,4.26,0,0,0,1021.82,1452.8Z"/><path class="cls-12" d="M715.22,1656c11.2,3.9,22.4,7.7,34.1,9.7,16.8,2.9,34,1.7,51,.5,13.3-.9,26.7-1.9,40-2.8,9.2-.6,18.5-1.3,27.2-4.4,8.2-2.9,15.6-7.9,22.8-12.8,12.1-8.2,24.2-16.5,34.5-26.9-9,6.7-20.3,9.3-31.2,11.8-18.3,4.1-36.6,8.3-54.9,12.4-9.5,2.1-19.1,4.3-28.8,4.9-10,.6-20.1-.4-30.2-.6-22.8-.2-45.4,4.4-67.7,9"/><path class="cls-12" d="M901.12,1638.5c2,8.6-3.5,17.6-10.9,22.4s-16.4,6.4-25.2,7.9c-12,2.1-24,4.1-36,6.2-13.3,2.3-26.8,4.5-40.1,2.8a95.24,95.24,0,0,1-32-9.9"/><path class="cls-13" d="M624.72,1674.3h0Z"/><path class="cls-13" d="M898.92,1639.7a9.21,9.21,0,0,0-1.3.7c-.9.5-2.1,1.2-3.8,2-3.3,1.7-8.2,4.1-14.3,6.7a163.64,163.64,0,0,1-22.2,7.5c-2.1.6-4.3,1.1-6.6,1.6s-4.6.9-7,1.3a115.59,115.59,0,0,1-14.8,1.6c-5.1.3-10.1.2-14.9.3s-9.4.5-13.8,1c-8.8,1.1-16.6,2.7-23.2,3.4a92.07,92.07,0,0,1-15.8.6c-.9-.1-1.8-.1-2.5-.2a14.05,14.05,0,0,0-1.8-.2c-1-.1-1.5-.2-1.5-.2s.5.1,1.5.2c.5.1,1.1.1,1.8.2s1.5.1,2.5.2a92.07,92.07,0,0,0,15.8-.6c6.6-.7,14.5-2.2,23.2-3.4a121,121,0,0,1,13.8-1c4.8-.1,9.8,0,14.9-.3a117.58,117.58,0,0,0,14.8-1.6c2.4-.4,4.7-.8,7-1.3s4.5-1,6.6-1.6a159,159,0,0,0,22.2-7.5c6.2-2.6,11-5,14.3-6.7,1.7-.8,2.9-1.6,3.8-2A9.21,9.21,0,0,1,898.92,1639.7Z"/><path class="cls-13" d="M955.72,1428.4s-1.4.6-3.9,1.6c-1.2.5-2.8,1.1-4.6,1.8s-3.8,1.5-6.1,2.2q-1.65.6-3.6,1.2c-1.2.4-2.6.8-3.9,1.2-2.7.9-5.6,1.6-8.7,2.4-6.2,1.5-13,3-20.3,4.1s-14.3,1.7-20.6,2.1c-3.2.1-6.2.3-9,.2h-4.1c-1.3,0-2.6-.1-3.8-.1-2.4,0-4.6-.2-6.5-.3s-3.6-.2-4.9-.4c-2.7-.2-4.2-.4-4.2-.4s1.5.1,4.2.4c1.3.1,3,.3,4.9.4s4.1.3,6.5.3c1.2,0,2.5.1,3.8.1H875c2.8,0,5.9-.1,9-.2,6.4-.4,13.3-1,20.6-2.1s14.1-2.6,20.3-4.1q4.65-1.2,8.7-2.4,2.1-.6,3.9-1.2l3.6-1.2c2.3-.7,4.3-1.5,6.1-2.2s3.3-1.3,4.6-1.8C954.32,1429,955.72,1428.4,955.72,1428.4Z"/><path class="cls-13" d="M613,1482.2l3.9.3c2.5.2,6.1.5,10.6.8s9.9.5,15.8.5a146.88,146.88,0,0,0,19.3-1.2,86.29,86.29,0,0,0,18.8-4.5c5.6-2,10.4-4.5,14.5-6.2a41.82,41.82,0,0,1,10.2-2.9,10.28,10.28,0,0,1,1.7-.1h0a10.9,10.9,0,0,0-1.7.1,40.65,40.65,0,0,0-10.2,2.9c-4.2,1.7-8.9,4.2-14.5,6.2a92.47,92.47,0,0,1-18.8,4.5,147.92,147.92,0,0,1-19.3,1.2c-6,0-11.3-.3-15.8-.5s-8.1-.6-10.6-.8S613,1482.2,613,1482.2Z"/><path class="cls-2" d="M1252,1604.8a1.73,1.73,0,0,1-.7.1q-.75.15-2.1.3h-1.6a12.75,12.75,0,0,1-1.9-.1l-2.2-.3c-.8-.1-1.6-.4-2.5-.6a32,32,0,0,1-11.4-6.3,43.19,43.19,0,0,1-10.5-13.7c-2.9-5.8-4.4-12.8-5.1-20.2s-.4-15.6-.2-24a167.63,167.63,0,0,0-.9-26.3,240.53,240.53,0,0,0-4.9-27.9c-2.1-9.5-4.5-18.7-6.8-27.6s-4.4-17.5-6.5-25.6c-4.1-16.3-7.9-31.1-11-43.4s-5.6-22.4-7.3-29.3c-.8-3.5-1.5-6.2-1.9-8-.2-.9-.4-1.6-.5-2.1a4.18,4.18,0,0,1-.1-.7,3.13,3.13,0,0,1,.2.7,18.87,18.87,0,0,0,.6,2.1c.5,1.8,1.2,4.5,2.1,7.9,1.8,6.9,4.4,16.9,7.6,29.2s7,27.1,11.2,43.4c2.1,8.2,4.3,16.7,6.6,25.6s4.7,18.1,6.8,27.6a242.12,242.12,0,0,1,4.9,28q.75,6.9.9,13.5c.1,4.4,0,8.8-.1,13-.3,8.4-.6,16.4.1,23.9s2.1,14.3,4.9,20a42.94,42.94,0,0,0,10.2,13.6,32.17,32.17,0,0,0,11.1,6.4c.9.2,1.6.5,2.4.6l2.2.3a12.75,12.75,0,0,0,1.9.1,8.53,8.53,0,0,0,1.6,0c.9-.1,1.6-.1,2.1-.2Z"/><path class="cls-2" d="M1186.22,1314.6a3.22,3.22,0,0,1,.2.6c.1.4.3,1,.5,1.8.4,1.6,1,3.9,1.7,7,1.5,6.1,3.3,14.9,5.2,25.9s3.6,24.2,4.7,38.8a464.1,464.1,0,0,1,1,47.9c-.3,8.5-.6,16.8-.5,24.8.1,4,.2,7.9.5,11.7.1,1.9.4,3.8.5,5.7.3,1.9.5,3.7.8,5.5a105.76,105.76,0,0,0,2.3,10.4c.5,1.6,1,3.3,1.6,4.9.3.8.6,1.6.9,2.3s.7,1.5,1,2.3a71.73,71.73,0,0,0,9.4,15.4,53.81,53.81,0,0,0,10.9,10.2,20.07,20.07,0,0,0,2.7,1.7c.9.5,1.7,1.1,2.6,1.5s1.7.8,2.4,1.2,1.6.6,2.3.9c1.4.6,2.8.9,3.9,1.3a12.44,12.44,0,0,0,1.6.4,6.88,6.88,0,0,0,1.3.2,8.21,8.21,0,0,0,1.8.3c.4.1.6.1.6.2a2.8,2.8,0,0,1-.6-.1c-.4-.1-1-.1-1.9-.3-.4-.1-.9-.1-1.4-.2s-1-.3-1.6-.4a28.81,28.81,0,0,1-4-1.2c-.7-.3-1.5-.5-2.3-.9s-1.6-.8-2.5-1.2-1.7-.9-2.6-1.4a20.07,20.07,0,0,1-2.7-1.7,54.46,54.46,0,0,1-11.1-10.2,66.94,66.94,0,0,1-9.6-15.5c-.3-.8-.7-1.5-1-2.3l-.9-2.4a46.62,46.62,0,0,1-1.6-4.9c-.9-3.4-1.8-6.9-2.4-10.5-.3-1.8-.6-3.7-.8-5.5l-.6-5.7c-.3-3.9-.4-7.8-.5-11.8-.1-8,.2-16.3.5-24.8a436.89,436.89,0,0,0-.9-47.8c-1-14.7-2.7-27.8-4.5-38.8s-3.5-19.8-4.9-25.9c-.6-3-1.2-5.4-1.5-7-.2-.8-.3-1.4-.4-1.8A2.8,2.8,0,0,1,1186.22,1314.6Z"/><path class="cls-2" d="M905.32,2047.4a2.8,2.8,0,0,1,.6.1c.4.1.9.2,1.6.4s1.6.5,2.6.8,2.2.6,3.6.9c5.4,1.3,13.3,2.7,23.2,4,4.9.7,10.3,1.4,16.1,2.3a152.5,152.5,0,0,1,18.3,4.1,79.18,79.18,0,0,1,18.9,8.5,123.81,123.81,0,0,1,17.6,13.6c11.2,10.3,20.8,21.2,30.9,29.7s20.5,14.3,30,17.3a52.64,52.64,0,0,0,13.1,2.5,50.37,50.37,0,0,0,5.5,0c1.7-.1,3.2-.4,4.6-.5,1.4-.3,2.6-.6,3.6-.8.5-.1,1-.3,1.4-.4s.8-.3,1.2-.4c.7-.2,1.2-.4,1.6-.5s.5-.2.6-.1a4.2,4.2,0,0,1-.5.2,11.61,11.61,0,0,0-1.6.6,8.34,8.34,0,0,1-1.2.4c-.4.2-.9.3-1.4.5-1,.3-2.3.6-3.6.9s-2.9.5-4.6.6a50.42,50.42,0,0,1-5.5,0,49.34,49.34,0,0,1-13.3-2.4c-9.6-2.9-20.2-8.7-30.4-17.2s-19.8-19.4-30.9-29.7a119.85,119.85,0,0,0-17.4-13.5,77.48,77.48,0,0,0-18.7-8.4,155.27,155.27,0,0,0-18.1-4.2c-5.8-1-11.2-1.7-16.1-2.4a222,222,0,0,1-23.2-4.3c-1.3-.4-2.5-.7-3.6-1s-1.9-.6-2.6-.8-1.2-.4-1.6-.5S905.32,2047.4,905.32,2047.4Z"/><path class="cls-2" d="M903.12,2091.2a1.09,1.09,0,0,1,.4-.2c.3-.1.7-.3,1.2-.5s1.2-.5,1.9-.8c.4-.2.8-.3,1.2-.5s.9-.3,1.5-.5c1-.3,2.2-.7,3.5-1.1s2.7-.6,4.2-.9a55.06,55.06,0,0,1,10.5-1c7.8-.2,17.1,1.3,27,4.4a124.35,124.35,0,0,1,15,6.1,165.56,165.56,0,0,1,15.1,8.6c9.9,6.6,18.8,13.6,26.9,20s15.4,12.1,21.7,16.5a177.43,177.43,0,0,0,15.5,9.9c1.9,1.1,3.4,1.8,4.4,2.4.5.3.9.5,1.1.6a1.09,1.09,0,0,1,.4.2s-.1,0-.4-.2-.7-.3-1.2-.5c-1-.5-2.6-1.2-4.5-2.2a153.19,153.19,0,0,1-15.7-9.7c-6.4-4.4-13.8-10-21.9-16.4s-17-13.3-26.9-19.8a164.18,164.18,0,0,0-15-8.6,108.79,108.79,0,0,0-14.9-6.1,83.7,83.7,0,0,0-26.7-4.6,63,63,0,0,0-10.4.9c-1.5.3-2.9.5-4.2.8s-2.4.7-3.5,1a8.33,8.33,0,0,1-1.5.4c-.4.2-.9.3-1.3.5a20.75,20.75,0,0,0-2,.8c-.5.2-.9.3-1.2.4A.31.31,0,0,1,903.12,2091.2Z"/><path class="cls-2" d="M606,2133.4a4.2,4.2,0,0,1-.5.2q-.45.15-1.5.6c-.7.3-1.5.4-2.5.7l-1.6.3c-.3.1-.6.1-.9.2s-.6.1-1,.1a30.74,30.74,0,0,1-9.7-.7,41.71,41.71,0,0,1-11.9-4.9,52.29,52.29,0,0,1-12-10,139.62,139.62,0,0,1-11-14.2c-3.6-5.2-7.2-10.8-11.4-16.1-2-2.8-4.3-5.4-6.6-8.1-1.1-1.4-2.4-2.6-3.6-4s-2.4-2.7-3.7-3.9a254,254,0,0,0-31-26.7c-10.1-7.5-19.6-13.7-27.6-18.9s-14.6-9.1-19.1-12c-2.3-1.4-4-2.5-5.2-3.2-.6-.4-1-.7-1.3-.9a3,3,0,0,1-.4-.3,4.2,4.2,0,0,0,.5.2c.3.2.8.4,1.4.8,1.2.7,3,1.7,5.3,3.1,4.6,2.7,11.2,6.6,19.3,11.7s17.6,11.3,27.8,18.7a239.35,239.35,0,0,1,31.1,26.8c1.3,1.3,2.5,2.6,3.7,4s2.5,2.6,3.6,4c2.3,2.7,4.6,5.4,6.6,8.1,4.3,5.4,7.8,11,11.4,16.2a138.8,138.8,0,0,0,10.8,14.2,51.48,51.48,0,0,0,11.8,10,41.17,41.17,0,0,0,11.7,5,30.9,30.9,0,0,0,9.6.9,3.4,3.4,0,0,0,1-.1c.3,0,.6-.1.9-.1.6-.1,1.1-.2,1.6-.3,1-.3,1.8-.4,2.5-.6s1.2-.4,1.5-.5C605.92,2133.4,606,2133.4,606,2133.4Z"/><path class="cls-2" d="M1266.52,1554.1a2.8,2.8,0,0,0-.1-.6c0-.4-.1-.9-.1-1.7a46.56,46.56,0,0,0-1-6.4,60.5,60.5,0,0,0-3-9.7,73,73,0,0,0-6.3-11.9,155.34,155.34,0,0,0-9.6-13.3c-3.7-4.6-7.7-9.4-11.9-14.6a159.81,159.81,0,0,1-12.3-16.9c-.9-1.6-1.9-3.1-2.8-4.7-.5-.8-.9-1.6-1.3-2.4s-.8-1.7-1.2-2.5c-1.8-3.3-3.1-6.9-4.6-10.4-.7-1.8-1.3-3.6-1.9-5.4l-.9-2.7c-.3-.9-.5-1.8-.8-2.7l-1.5-5.4-1.2-5.4c-.8-3.5-1.3-7.1-1.9-10.5-.3-1.7-.4-3.4-.6-5.1s-.4-3.4-.6-5a292,292,0,0,1-.9-35.3c.3-10,.8-18.1,1.2-23.8.2-2.8.4-5,.5-6.4.1-.7.1-1.3.2-1.7a1.45,1.45,0,0,1,.1-.6v.6a12.27,12.27,0,0,1-.1,1.7c-.1,1.5-.2,3.7-.3,6.5-.2,5.6-.7,13.7-.9,23.7a316.9,316.9,0,0,0,1.1,35.2c.1,1.6.4,3.3.6,5s.4,3.4.7,5.1c.6,3.4,1,6.9,1.9,10.4.4,1.8.7,3.5,1.2,5.3s1,3.5,1.5,5.3c.3.9.5,1.8.8,2.7l.9,2.7c.6,1.8,1.2,3.6,1.9,5.4,1.5,3.5,2.8,7.1,4.5,10.3.4.8.8,1.7,1.2,2.5a18.34,18.34,0,0,0,1.3,2.4c.9,1.6,1.9,3.1,2.8,4.7a145,145,0,0,0,12.2,16.8c4.2,5.2,8.2,10,11.8,14.7a153.73,153.73,0,0,1,9.5,13.4,77.44,77.44,0,0,1,6.2,12.1,51.27,51.27,0,0,1,2.9,9.8,60.41,60.41,0,0,1,.8,6.4v2.4Z"/><path class="cls-2" d="M471.72,1766.4a331.44,331.44,0,0,0,199.9,88.6c21.8,1.7,43.9,1.2,65.3,6.2,29.8,6.9,56.2,23.8,85.1,33.7,20.5,7.1,42.1,10.5,63.3,15.1a593.17,593.17,0,0,1,178.2,70.1c28.7,17.1,56.6,36.9,88.9,45.9s70.9,4.5,92.7-20.8"/><path class="cls-14" d="M1245.12,2005.1s-.5.5-1.5,1.6c-.5.5-1.1,1.2-1.8,1.9a13.58,13.58,0,0,1-1.2,1.2,17.38,17.38,0,0,0-1.5,1.3,67.57,67.57,0,0,1-20.7,12.7,92.8,92.8,0,0,1-37.8,6.3,115.29,115.29,0,0,1-23.9-3.1,164.72,164.72,0,0,1-25.6-8.7c-17.5-7.4-35.2-18.4-54.2-30.1-9.5-5.9-19.4-11.8-29.8-17.5-2.6-1.4-5.2-2.9-7.9-4.3s-5.3-2.8-8.1-4.2-5.5-2.8-8.2-4.1-5.6-2.7-8.4-4.1a592,592,0,0,0-73.1-29c-13-4.2-26.3-8-40-11.3-1.7-.4-3.4-.9-5.1-1.3s-3.4-.8-5.2-1.2c-3.5-.8-6.9-1.6-10.4-2.3-7-1.4-14-2.9-21.1-4.3-14.2-2.9-28.1-6.2-41.3-11.1s-25.8-10.9-38.2-16.5-24.8-10.9-37.4-14.4-25.5-4.9-38-5.7-24.7-1.1-36.6-2.2l-8.8-.9c-1.5-.1-2.9-.4-4.3-.6l-4.3-.6-4.3-.6c-1.4-.2-2.8-.4-4.2-.7-2.8-.5-5.5-1-8.3-1.6a324.07,324.07,0,0,1-59.3-17.7c-2.2-.9-4.3-1.8-6.5-2.7s-4.3-1.8-6.3-2.7-4.1-1.9-6-2.8-4-1.8-5.8-2.8c-3.8-2-7.5-3.9-11-5.8s-6.9-3.9-10.1-5.8a53.5,53.5,0,0,1-4.7-2.9c-1.5-1-3-1.9-4.5-2.9s-2.9-1.9-4.3-2.8-2.7-1.9-4.1-2.8c-2.6-1.8-5.2-3.6-7.6-5.3s-4.6-3.5-6.7-5.1c-4.3-3.1-7.8-6.2-11-8.8-1.6-1.3-3-2.5-4.3-3.6s-2.4-2.2-3.5-3.1l-6.3-5.7,6.3,5.7c1,.9,2.2,2,3.5,3.1s2.8,2.3,4.3,3.6c3.2,2.6,6.7,5.7,11,8.8,2.1,1.6,4.3,3.3,6.7,5.1s5,3.4,7.6,5.3c1.3.9,2.7,1.9,4.1,2.8s2.9,1.8,4.3,2.8,3,1.9,4.5,2.9,3.1,2,4.7,2.9l10.1,5.8,11,5.8c1.9,1,3.9,1.9,5.8,2.8s4,1.9,6,2.8a59.67,59.67,0,0,0,6.3,2.7c2.1.9,4.3,1.8,6.5,2.7a326.46,326.46,0,0,0,59.3,17.7c2.7.5,5.5,1,8.3,1.6,1.4.3,2.8.5,4.2.7l4.3.6,4.3.6,4.3.6,8.8.9c11.8,1.2,24.1,1.4,36.6,2.2s25.3,2.2,38,5.7,25,8.8,37.4,14.4,24.9,11.7,38.2,16.5,27.2,8.2,41.3,11.1c7.1,1.5,14.1,2.9,21.1,4.3,3.5.7,7,1.5,10.4,2.3l5.2,1.2c1.7.4,3.4.8,5.1,1.3,13.7,3.4,27.1,7.1,40,11.3a598.32,598.32,0,0,1,73.1,29c2.8,1.4,5.7,2.7,8.4,4.1s5.5,2.8,8.2,4.1l8.1,4.2c2.7,1.4,5.3,2.8,7.9,4.3,10.4,5.7,20.3,11.7,29.8,17.5,18.9,11.7,36.7,22.6,54.2,30.1a164.72,164.72,0,0,0,25.6,8.7,114.45,114.45,0,0,0,23.9,3.1,96,96,0,0,0,37.8-6.3,65.68,65.68,0,0,0,20.7-12.7,17.38,17.38,0,0,1,1.5-1.3,13.58,13.58,0,0,0,1.2-1.2c.7-.8,1.3-1.4,1.8-1.9C1244.62,2005.7,1245.12,2005.1,1245.12,2005.1Z"/><path class="cls-2" d="M405.52,1846.2a955.72,955.72,0,0,1,202.2,107.3c37.4,26,73,54.8,112.6,77.4s84.1,39,129.7,37.3"/><path class="cls-14" d="M850,2068.3s-1.8,0-5.1.1c-1.7,0-3.7.1-6.2-.1s-5.3-.1-8.4-.4c-1.6-.1-3.3-.3-5-.4s-3.6-.4-5.5-.7c-3.8-.4-8-1.2-12.4-2a249.23,249.23,0,0,1-29.7-7.8,289.87,289.87,0,0,1-34.4-14,392.61,392.61,0,0,1-37.3-20.7c-12.8-7.9-25.8-16.8-39.2-26.3s-26.9-19.6-41-29.7-28-19.8-41.7-28.8-27.2-17.2-40.2-24.8c-26-15.2-50.1-27.6-70.6-37.4s-37.5-17-49.3-21.8c-5.9-2.5-10.5-4.2-13.6-5.4s-4.8-1.9-4.8-1.9,1.6.6,4.8,1.9,7.7,3,13.6,5.4c11.8,4.8,28.7,12,49.3,21.8s44.6,22.2,70.6,37.4q19.5,11.4,40.2,24.8t41.7,28.8c14.1,10.2,27.7,20.3,41,29.7s26.4,18.4,39.2,26.3a418.81,418.81,0,0,0,37.3,20.7,296.87,296.87,0,0,0,34.4,14,231.46,231.46,0,0,0,29.7,7.8c4.5.8,8.6,1.6,12.4,2,1.9.2,3.8.5,5.5.7s3.4.3,5,.4c3.2.3,6,.3,8.4.4s4.5.1,6.2.1C848.22,2068.3,850,2068.3,850,2068.3Z"/><path class="cls-2" d="M611.52,1749.5c67.8,12.5,131.4,46.1,200.2,50.7,58.4,3.9,115.9-13.5,171.9-30.6,36.5-11.2,72.3-23,103.8-45,24.8-17.2,47.7-40.4,80.7-34.2,67.3,12.7,78.8,120.3,71.9,173.6-5,38.6-22.3,76.2-51.5,101.9-11.7,10.3-26,19.8-30,34.9"/><path class="cls-14" d="M1158.52,2000.7s.2-.8.7-2.4c.2-.8.7-1.7,1.1-2.8.2-.6.6-1.1.9-1.8a9.29,9.29,0,0,0,.5-1,8.79,8.79,0,0,0,.6-1,50.83,50.83,0,0,1,7.2-9.2,133.29,133.29,0,0,1,11.9-10.7c2.3-1.9,4.8-4,7.3-6.2s5.1-4.6,7.6-7.3a153.52,153.52,0,0,0,15.2-18.4,167.38,167.38,0,0,0,24-52.8c.4-1.3.7-2.6,1-3.9s.6-2.7.9-4c.6-2.7,1.1-5.5,1.6-8.2s.9-5.6,1.2-8.5c.2-1.4.4-2.9.5-4.3s.3-2.9.4-4.4c.4-5.9.7-11.9.7-18s-.1-12.4-.5-18.7a271.42,271.42,0,0,0-5.2-39c-.3-1.7-.7-3.3-1.1-5s-.8-3.3-1.2-5c-.9-3.3-1.8-6.6-2.9-9.9a154.26,154.26,0,0,0-7.7-19.7,121.44,121.44,0,0,0-10.9-18.7,82.6,82.6,0,0,0-15.2-16.1,65.4,65.4,0,0,0-19.7-10.9l-2.7-.9a28.64,28.64,0,0,0-2.8-.7c-1.9-.4-3.7-.9-5.6-1.2a56.08,56.08,0,0,0-11.6-.6,62.13,62.13,0,0,0-22.7,5.6,126.19,126.19,0,0,0-20.6,12.1c-6.6,4.6-13,9.5-19.5,14.3-1.6,1.2-3.3,2.4-5,3.5s-3.4,2.3-5.1,3.4c-3.5,2.2-6.9,4.4-10.5,6.4a294.57,294.57,0,0,1-44.3,20.4c-15,5.6-30.1,10.3-45,14.9-29.7,9.1-58.4,17.7-86.4,23.3s-55.2,8.4-80.5,7a274.29,274.29,0,0,1-36.4-4.5c-1.4-.3-2.9-.5-4.3-.8s-2.8-.6-4.3-.9c-2.8-.6-5.6-1.2-8.4-1.9s-5.4-1.4-8.1-2-5.3-1.3-7.9-2.1c-20.8-5.7-39.3-11.9-55.7-17.2s-30.4-9.6-42.1-12.9c-5.8-1.5-11-3-15.5-4s-8.3-2-11.5-2.6c-6.2-1.3-9.5-1.9-9.5-1.9s3.3.7,9.5,1.9c3.1.6,6.9,1.6,11.5,2.6s9.7,2.5,15.5,4c11.6,3.3,25.7,7.6,42.1,12.9s34.9,11.4,55.7,17.2c2.6.8,5.2,1.4,7.9,2.1s5.4,1.4,8.1,2,5.5,1.2,8.4,1.9c1.4.3,2.8.7,4.3.9s2.9.5,4.3.8a278.5,278.5,0,0,0,36.4,4.5c25.4,1.5,52.6-1.3,80.5-7s56.8-14.2,86.4-23.3c14.8-4.5,29.9-9.3,45-14.9a299.19,299.19,0,0,0,44.3-20.4c3.6-2,7.1-4.2,10.5-6.4,1.7-1.1,3.4-2.3,5.1-3.4s3.3-2.3,5-3.5c6.6-4.8,13-9.7,19.5-14.3A129.22,129.22,0,0,1,1132,1695a62.13,62.13,0,0,1,22.7-5.6,56.08,56.08,0,0,1,11.6.6,50.54,50.54,0,0,1,5.6,1.2,28.64,28.64,0,0,1,2.8.7l2.7.9a65.4,65.4,0,0,1,19.7,10.9,85.71,85.71,0,0,1,15.2,16.1,121.44,121.44,0,0,1,10.9,18.7,163.85,163.85,0,0,1,7.7,19.7c1.1,3.3,2,6.6,2.9,9.9.4,1.7.8,3.3,1.2,5s.8,3.3,1.1,5a269.57,269.57,0,0,1,5.2,39c.4,6.3.5,12.6.5,18.7s-.3,12.1-.7,18c-.1,1.5-.3,2.9-.4,4.4s-.3,2.9-.5,4.3c-.3,2.9-.8,5.7-1.2,8.5s-1,5.5-1.6,8.2c-.3,1.3-.6,2.7-.9,4s-.6,2.7-1,3.9a167.38,167.38,0,0,1-24,52.8,125.14,125.14,0,0,1-15.2,18.4c-2.5,2.7-5.2,5-7.6,7.3s-5,4.2-7.3,6.2c-4.6,3.9-8.7,7.4-11.9,10.7a50.83,50.83,0,0,0-7.2,9.2c-.2.3-.4.7-.6,1s-.3.7-.5,1l-.9,1.8c-.4,1.1-.9,2-1.1,2.8A24.62,24.62,0,0,1,1158.52,2000.7Z"/><path class="cls-2" d="M371.62,1456.8a487.71,487.71,0,0,1-6.9-78.2c-.4-51.3,8.8-106.2,44-143.5,23.6-25,56.1-39.2,88-51.8q44.25-17.4,89.4-32.3"/><path class="cls-14" d="M586.12,1151.1s-5.7,1.9-16,5.4-25.2,8.7-43.5,15.5c-9.1,3.4-19.1,7.2-29.7,11.4s-22,8.8-33.6,14.3a223.55,223.55,0,0,0-34.9,20.3,149,149,0,0,0-16.3,13.8c-1.3,1.3-2.6,2.5-3.8,3.9s-2.4,2.7-3.6,4.1c-2.5,2.7-4.6,5.7-6.9,8.7a46.3,46.3,0,0,0-3.1,4.6c-1,1.5-2,3.1-3,4.6l-2.7,4.8-1.3,2.4c-.5.8-.9,1.6-1.3,2.4a175,175,0,0,0-8.4,19.6,216.74,216.74,0,0,0-9.7,39.1,322.41,322.41,0,0,0-3.4,36.4c-.4,11.4-.2,22.1.2,31.8.8,19.5,2.6,35.1,4,45.9.7,5.4,1.4,9.6,1.8,12.4s.7,4.3.7,4.3-.2-1.5-.7-4.3-1.1-7-1.8-12.4c-1.4-10.8-3.2-26.5-4-45.9-.4-9.7-.6-20.4-.2-31.8a302.63,302.63,0,0,1,3.4-36.4,216.74,216.74,0,0,1,9.7-39.1,167.46,167.46,0,0,1,8.4-19.6c.4-.8.8-1.6,1.3-2.4l1.3-2.4,2.7-4.8c1-1.5,2-3.1,3-4.6s2-3.1,3.1-4.6c2.3-2.9,4.4-6,6.9-8.7,1.2-1.4,2.4-2.8,3.6-4.1s2.5-2.6,3.8-3.9a161,161,0,0,1,16.3-13.8,214.74,214.74,0,0,1,34.9-20.3c11.6-5.6,23-10.1,33.6-14.3s20.6-8,29.7-11.4c18.3-6.8,33.1-11.9,43.5-15.5S586.12,1151.1,586.12,1151.1Z"/><path class="cls-2" d="M817.12,1016.2c18.8,5.2,36,14.5,53.4,23.3a921.87,921.87,0,0,0,148.4,59.2c-25,3.9-49.9,7.9-74.9,11.8"/><path class="cls-14" d="M944.12,1110.5l74.9-11.8c-22.8-6.9-45.2-14.6-67.4-23.2-9.5-3.7-18.6-7.4-27.5-11.2s-17.3-7.5-25.2-11.2c-16-7.3-30.1-14.6-42-20.6-6-3-11.4-5.6-16.2-7.7s-9.1-3.8-12.6-5.1-6.3-2.1-8.1-2.7-2.9-.8-2.9-.8,1,.3,2.9.8,4.6,1.4,8.1,2.7,7.7,3,12.6,5.1,10.3,4.8,16.2,7.7c11.9,6,26,13.2,42,20.6,8,3.7,16.4,7.4,25.2,11.2s18,7.5,27.5,11.2q33.3,12.9,67.4,23.2Z"/><path class="cls-2" d="M400.62,1201.2A737.48,737.48,0,0,1,505.32,1020"/><path class="cls-14" d="M505.32,1020.1s-1.8,2.3-5,6.5c-.8,1.1-1.7,2.2-2.7,3.5s-2,2.7-3.1,4.2c-2.2,3-4.8,6.5-7.6,10.3-1.4,1.9-2.8,4-4.3,6.1s-3,4.3-4.6,6.6c-3.2,4.6-6.5,9.6-10,14.8-6.9,10.5-14.2,22.3-21.4,34.8s-13.7,24.7-19.4,35.9c-2.8,5.6-5.5,10.9-7.8,16-1.2,2.5-2.4,4.9-3.5,7.3s-2.1,4.6-3.1,6.8c-2,4.3-3.7,8.3-5.2,11.7q-1,2.55-2.1,4.8c-.6,1.5-1.2,2.9-1.7,4.1l-3.1,7.6,3.1-7.6c.5-1.2,1.1-2.6,1.7-4.1s1.3-3.1,2.1-4.8c1.5-3.5,3.2-7.4,5.2-11.7,1-2.2,2-4.4,3.1-6.8s2.3-4.8,3.5-7.3c2.4-5.1,5.1-10.4,7.8-16,5.7-11.2,12.2-23.4,19.4-35.9s14.6-24.3,21.4-34.8c3.5-5.2,6.7-10.2,10-14.8,1.6-2.3,3.1-4.5,4.6-6.6s3-4.1,4.3-6.1c2.7-3.9,5.3-7.3,7.6-10.3,1.1-1.5,2.2-2.9,3.1-4.2s1.9-2.4,2.7-3.5C503.52,1022.4,505.32,1020.1,505.32,1020.1Z"/><path class="cls-2" d="M475,1167.1a539.09,539.09,0,0,0,80.9-119.8c6.8-13.7,12.9-27.7,20.7-40.8,14.2-24.1,33.4-44.8,52.4-65.3"/><path class="cls-14" d="M628.92,941.1s-2.6,2.8-7.3,7.9-11.5,12.5-19.5,22a261.1,261.1,0,0,0-25.5,35.4c-4.2,7.1-8.1,14.8-12,22.8s-7.8,16.4-12.2,24.9a540.44,540.44,0,0,1-51.8,82c-7.6,9.9-14,17.6-18.5,22.9-2.2,2.7-4.1,4.7-5.3,6l-1.8,2.1,1.8-2.1c1.2-1.4,3-3.4,5.3-6,4.5-5.3,11-13,18.5-22.9a540.44,540.44,0,0,0,51.8-82c4.3-8.4,8.3-16.8,12.2-24.9s7.8-15.7,12-22.8a284.33,284.33,0,0,1,25.5-35.4c8-9.5,14.8-16.9,19.5-22S628.92,941.1,628.92,941.1Z"/><path class="cls-2" d="M532.62,1155.8c78.7-63.7,85.5-187.7,162.9-252.9"/><path class="cls-14" d="M695.52,902.9s-.8.7-2.3,2.1c-.8.7-1.7,1.5-2.8,2.5-.6.5-1.1,1-1.8,1.6s-1.3,1.2-1.9,1.9l-4.5,4.5c-1.6,1.7-3.3,3.6-5.1,5.6-.5.5-.9,1-1.4,1.5s-.9,1.1-1.4,1.6c-.9,1.1-1.9,2.3-2.9,3.5-2,2.3-3.9,5-6,7.7-.5.7-1,1.4-1.6,2.1s-1,1.4-1.5,2.2c-1,1.5-2.1,3-3.2,4.5s-2.1,3.2-3.2,4.8-2.2,3.3-3.2,5c-2.1,3.5-4.3,7-6.4,10.8s-4.2,7.6-6.4,11.6c-8.5,16.1-16.7,34.3-25.3,53.4-4.3,9.6-8.5,18.9-12.7,27.8s-8.5,17.5-12.7,25.5c-2.2,4-4.3,7.9-6.5,11.6s-4.4,7.3-6.5,10.7c-1,1.7-2.2,3.3-3.3,5s-2.1,3.2-3.2,4.8-2.2,3-3.2,4.5c-.5.7-1,1.5-1.6,2.2s-1.1,1.4-1.6,2.1c-2.1,2.7-4.1,5.3-6.1,7.6-1,1.2-2,2.3-2.9,3.4-.5.6-.9,1.1-1.4,1.6a19.2,19.2,0,0,0-1.4,1.5l-5.2,5.5c-1.7,1.6-3.2,3.1-4.6,4.4-.7.7-1.3,1.3-2,1.9s-1.3,1.1-1.8,1.6c-1.1,1-2.1,1.8-2.8,2.4l-2.3,2,2.3-2c.8-.7,1.7-1.5,2.8-2.4.6-.5,1.2-1,1.8-1.6s1.3-1.2,2-1.9c1.4-1.3,2.9-2.8,4.6-4.4s3.4-3.5,5.2-5.5c.5-.5.9-1,1.4-1.5s.9-1.1,1.4-1.6c.9-1.1,1.9-2.2,2.9-3.4,2.1-2.3,4-5,6.1-7.6.5-.7,1.1-1.4,1.6-2.1s1-1.4,1.6-2.2c1.1-1.5,2.1-2.9,3.2-4.5s2.1-3.1,3.2-4.8,2.2-3.2,3.3-5c2.1-3.4,4.4-7,6.5-10.7s4.3-7.6,6.5-11.6c4.3-8,8.5-16.5,12.7-25.5s8.4-18.3,12.7-27.8c8.6-19.1,16.9-37.3,25.3-53.4,2.1-4,4.2-7.9,6.4-11.6s4.3-7.3,6.4-10.8c1-1.7,2.2-3.4,3.2-5s2.1-3.3,3.2-4.8,2.1-3,3.2-4.5c.5-.7,1-1.5,1.5-2.2s1.1-1.4,1.6-2.1c2.1-2.7,4-5.4,6-7.7l2.9-3.5c.5-.6.9-1.1,1.4-1.6s.9-1,1.4-1.5c1.8-2,3.5-3.9,5.1-5.6s3.2-3.1,4.5-4.5l1.9-1.9c.6-.6,1.2-1.1,1.8-1.6,1.1-1,2-1.8,2.8-2.5C694.72,903.6,695.52,902.9,695.52,902.9Z"/><path class="cls-2" d="M305.72,1273.8a32.27,32.27,0,0,0,43-36.4"/><path class="cls-14" d="M348.72,1237.4a4.18,4.18,0,0,0,.1.7c.1.5.2,1.1.3,2a30.07,30.07,0,0,1-.1,7.3,33.61,33.61,0,0,1-3.1,10.4,34.14,34.14,0,0,1-8,10.5,31.64,31.64,0,0,1-11.7,6.2,32.81,32.81,0,0,1-10.7,1.3,27.94,27.94,0,0,1-7.2-1.1c-.8-.2-1.5-.5-1.9-.6s-.7-.2-.7-.2a3.13,3.13,0,0,0,.7.2c.4.1,1.1.4,1.9.6a28.72,28.72,0,0,0,7.2,1.1,35.43,35.43,0,0,0,10.7-1.3,33.25,33.25,0,0,0,11.7-6.2,31.29,31.29,0,0,0,8-10.5,33.61,33.61,0,0,0,3.1-10.4,30.07,30.07,0,0,0,.1-7.3c-.1-.9-.2-1.5-.3-2A1.73,1.73,0,0,0,348.72,1237.4Z"/><path class="cls-2" d="M292.32,1199.3a94.33,94.33,0,0,1,36.9-67.8"/><path class="cls-14" d="M329.22,1131.5s-.9.7-2.4,1.9a14.7,14.7,0,0,1-1.3,1,17.38,17.38,0,0,0-1.5,1.3c-1.1,1-2.3,2-3.6,3.3l-2,2c-.7.7-1.4,1.5-2.1,2.3a59.52,59.52,0,0,0-4.3,5.2,110.92,110.92,0,0,0-8.5,12.9,106,106,0,0,0-6.3,14.1c-.7,2.3-1.5,4.4-2,6.5-.3,1-.6,2-.8,3s-.4,1.9-.6,2.8c-.4,1.8-.6,3.4-.8,4.8-.1.7-.2,1.4-.3,2s-.1,1.2-.2,1.7c-.2,2-.3,3.1-.3,3.1s.1-1.1.3-3.1a11.14,11.14,0,0,1,.2-1.7c.1-.6.2-1.3.3-2,.2-1.4.4-3,.8-4.8.2-.9.4-1.8.6-2.8s.5-1.9.8-3a67.62,67.62,0,0,1,2-6.5,100.59,100.59,0,0,1,6.3-14.1,93,93,0,0,1,8.5-12.9c1.5-1.8,2.9-3.6,4.3-5.2.7-.8,1.4-1.6,2.1-2.3l2-2c1.2-1.3,2.5-2.3,3.6-3.3a17.38,17.38,0,0,1,1.5-1.3c.5-.4.9-.7,1.3-1C328.42,1132.2,329.22,1131.5,329.22,1131.5Z"/><path class="cls-2" d="M258.32,1926.7c64.7-3.8,131.3-7.3,192.4,14.2,19.2,6.8,39.1,17.5,46.7,36.4,4.7,11.8,4.5,26.3,13.9,34.8,10.5,9.4,28.7,7.1,37.7,17.9,3.5,4.3,4.9,9.8,7,14.9a58.22,58.22,0,0,0,43.9,35.1"/><path class="cls-14" d="M600,2080s-.4-.1-1-.2-1.7-.3-3-.6a59.37,59.37,0,0,1-11.2-4.1,56.51,56.51,0,0,1-15.4-10.8,57.15,57.15,0,0,1-13.7-20.8c-.8-2.2-1.6-4.4-2.5-6.7a29.71,29.71,0,0,0-3.6-6.5,20.62,20.62,0,0,0-5.9-5,37.59,37.59,0,0,0-7.4-3.2c-5.2-1.7-10.8-2.9-16.2-5a29.18,29.18,0,0,1-7.7-4.3,24.66,24.66,0,0,1-5.8-7c-3-5.4-4.3-11.6-5.9-17.9-.8-3.1-1.6-6.3-2.7-9.4-.5-1.6-1.3-3-1.9-4.5-.4-.7-.8-1.5-1.2-2.2a14.79,14.79,0,0,0-1.3-2.1l-1.4-2.1c-.5-.7-1-1.3-1.6-2a40.21,40.21,0,0,0-3.4-3.8,62.59,62.59,0,0,0-7.8-6.7l-2.1-1.5a16.44,16.44,0,0,0-2.2-1.4l-4.5-2.7c-3-1.7-6.2-3.2-9.5-4.7s-6.5-2.7-9.8-3.9-6.6-2.2-9.9-3.2c-.8-.3-1.6-.5-2.5-.8l-2.5-.7c-1.7-.5-3.3-.9-4.9-1.4s-3.3-.9-4.9-1.3-3.3-.7-4.9-1.1a300.08,300.08,0,0,0-38-6.2c-12.2-1.3-23.9-2-34.8-2.3-5.5-.2-10.7-.2-15.8-.2s-9.9.1-14.6.1c-18.6.4-33.6,1.2-44,1.8s-16.1.9-16.1.9,5.7-.3,16.1-.9,25.4-1.4,44-1.8c4.6-.1,9.5-.1,14.6-.1s10.4,0,15.8.2c10.9.2,22.6,1,34.8,2.3a319.17,319.17,0,0,1,38,6.2c1.6.4,3.3.7,4.9,1.1s3.3.9,4.9,1.3,3.3.9,4.9,1.4l2.5.7c.8.2,1.6.5,2.5.8,3.3,1.1,6.6,2.1,9.9,3.2s6.6,2.5,9.8,3.9a93,93,0,0,1,9.5,4.7c1.6.8,3,1.8,4.5,2.7a16.44,16.44,0,0,0,2.2,1.4l2.1,1.5a62.59,62.59,0,0,1,7.8,6.7c1.1,1.3,2.4,2.4,3.4,3.8.5.7,1.1,1.3,1.6,2l1.4,2.1a23.92,23.92,0,0,1,1.3,2.1c.4.7.8,1.4,1.2,2.2a43.19,43.19,0,0,1,1.9,4.5c1.1,3.1,1.9,6.2,2.7,9.4,1.5,6.2,2.9,12.5,5.9,17.9a23.12,23.12,0,0,0,5.8,7,26.62,26.62,0,0,0,7.7,4.3c5.4,2.1,11,3.3,16.2,5a44.65,44.65,0,0,1,7.4,3.2,23.73,23.73,0,0,1,5.9,5,24.43,24.43,0,0,1,3.6,6.5c.9,2.2,1.7,4.5,2.5,6.7a57.15,57.15,0,0,0,13.7,20.8,59.15,59.15,0,0,0,26.6,14.9c1.3.3,2.4.5,3,.6A4.23,4.23,0,0,0,600,2080Z"/><path class="cls-2" d="M911.92,1835c4.8-5.4,12.7-6.5,19.9-7.4,75.6-9.9,144.7-46.4,211.9-82.3"/><path class="cls-14" d="M1143.62,1745.4s-3.1,1.6-8.7,4.6q-4.2,2.25-10.2,5.4c-4,2.1-8.5,4.5-13.5,7.1-10,5.2-22,11.4-35.5,17.9s-28.5,13.4-44.5,19.8a479.87,479.87,0,0,1-46,16c-3.6,1-7.1,2-10.5,2.9s-6.8,1.6-10,2.4c-1.6.4-3.2.8-4.8,1.1s-3.1.6-4.6.9c-3,.6-5.9,1.2-8.7,1.7-5.6.9-10.7,1.7-15.1,2.3a64.63,64.63,0,0,0-11.3,2.2,19.49,19.49,0,0,0-6.4,3.4c-.6.5-1.1,1-1.4,1.3a2.22,2.22,0,0,0-.4.5,3.61,3.61,0,0,0,.4-.5c.3-.3.8-.8,1.4-1.3a19.49,19.49,0,0,1,6.4-3.4,56.51,56.51,0,0,1,11.3-2.2c4.4-.7,9.5-1.4,15.1-2.3,2.8-.5,5.7-1.1,8.7-1.7l4.6-.9c1.6-.4,3.2-.8,4.8-1.1,3.2-.8,6.6-1.5,10-2.4s6.9-1.9,10.5-2.9c14.4-4.2,29.9-9.6,46-16s31-13.3,44.5-19.8,25.5-12.6,35.5-17.9c5-2.6,9.6-5,13.5-7.1s7.4-3.9,10.2-5.4C1140.62,1747,1143.62,1745.4,1143.62,1745.4Z"/><path class="cls-2" d="M1268.42,1772c3.9,24.9,3,50.3,2.1,75.5-1.1,30.4-2.3,61.1-10.7,90.3s-24.8,57.2-50.4,73.5"/><path class="cls-14" d="M1209.42,2011.4s.7-.5,2.2-1.5c.7-.5,1.6-1.1,2.6-1.8s2.1-1.7,3.4-2.6a108.41,108.41,0,0,0,8.9-7.9,119.47,119.47,0,0,0,10.3-11.9,131.87,131.87,0,0,0,10.3-16.1,148.42,148.42,0,0,0,9-20c5.4-14.5,8.9-31.2,11-48.9s2.7-34.7,3.3-50.1,1.1-29.3.9-41-.8-21.1-1.5-27.6c-.4-3.2-.7-5.8-.9-7.5s-.4-2.6-.4-2.6.1.9.4,2.6.6,4.2.9,7.5c.7,6.5,1.4,15.9,1.5,27.6s-.3,25.6-.9,41-1.2,32.4-3.3,50.1-5.7,34.4-11,48.9a160.65,160.65,0,0,1-9,20,140.07,140.07,0,0,1-10.3,16.1,98.1,98.1,0,0,1-10.3,11.9,92.4,92.4,0,0,1-8.9,7.9c-1.3,1-2.4,1.9-3.4,2.6s-1.9,1.3-2.6,1.8A17.7,17.7,0,0,0,1209.42,2011.4Z"/><path class="cls-2" d="M903.42,1688.6c19.2,17.5,40.8,36.1,66.8,36.7,19.3.4,37.4-9.4,52.7-21.3s28.8-26,45-36.5a123.1,123.1,0,0,1,62.2-19.4"/><path class="cls-14" d="M1130.12,1648.1s-.9,0-2.6.1c-.9,0-1.9.1-3.2.2s-2.7.2-4.3.4a121.68,121.68,0,0,0-27,6.4,125.5,125.5,0,0,0-17.5,7.9,129.32,129.32,0,0,0-18.3,12.2c-6.1,4.8-12.3,10.2-18.6,15.7a259.91,259.91,0,0,1-20.3,16.5,109.46,109.46,0,0,1-22.7,12.8,65.28,65.28,0,0,1-23.7,4.9h-1.5l-1.4-.1c-1-.1-1.9-.1-2.9-.2s-1.9-.3-2.8-.4-1.8-.3-2.7-.4l-2.7-.6a19.73,19.73,0,0,1-2.6-.7c-1.7-.6-3.4-1-5-1.7a88.34,88.34,0,0,1-17.1-8.8,143.37,143.37,0,0,1-12.8-9.3c-3.6-2.9-6.7-5.6-9.2-7.7s-4.3-3.9-5.6-5.1-2-1.8-2-1.8.7.6,2,1.8,3.2,2.9,5.6,5.1,5.5,4.8,9.2,7.7a138.22,138.22,0,0,0,12.8,9.3,91.1,91.1,0,0,0,17.1,8.8c1.6.7,3.3,1.1,5,1.7a19.73,19.73,0,0,0,2.6.7l2.7.6a25.12,25.12,0,0,0,2.7.4c.9.1,1.8.3,2.8.4s1.9.1,2.9.2l1.4.1h1.5a64.86,64.86,0,0,0,23.7-4.9,104.57,104.57,0,0,0,22.7-12.8c7.3-5.2,13.9-11,20.3-16.5s12.5-11,18.6-15.7a135.29,135.29,0,0,1,18.3-12.2,131,131,0,0,1,17.5-7.9,123,123,0,0,1,27-6.4c1.6-.2,3.1-.3,4.3-.4s2.3-.2,3.2-.2C1129.22,1648.1,1130.12,1648.1,1130.12,1648.1Z"/><path class="cls-2" d="M1080,1207.4a270.1,270.1,0,0,0-74.4-35.2"/><path class="cls-14" d="M1005.62,1172.2s1.1.3,3.1,1,4.9,1.5,8.4,2.8,7.7,2.8,12.3,4.6,9.6,4,14.7,6.4,10,4.9,14.3,7.3,8.2,4.6,11.4,6.6,5.7,3.6,7.5,4.8,2.7,1.8,2.7,1.8-1-.6-2.7-1.8-4.3-2.8-7.5-4.8-7-4.2-11.4-6.6-9.2-4.9-14.3-7.3-10.2-4.6-14.7-6.4-8.8-3.4-12.3-4.6-6.4-2.2-8.4-2.8S1005.62,1172.2,1005.62,1172.2Z"/><path class="cls-2" d="M1026.62,1247.2a238.87,238.87,0,0,0,82.6,54.3"/><path class="cls-14" d="M1109.22,1301.5s-1.3-.5-3.6-1.5c-1.2-.5-2.6-1-4.2-1.8s-3.5-1.5-5.5-2.5-4.3-2-6.6-3.2-4.9-2.5-7.5-3.9c-5.2-2.9-10.9-6.2-16.6-10s-11-7.6-15.7-11.3c-2.3-1.9-4.6-3.6-6.6-5.3s-3.9-3.3-5.6-4.8-3.2-2.9-4.5-4.1-2.4-2.3-3.3-3.2c-1.8-1.8-2.8-2.7-2.8-2.7s1,1,2.8,2.7c.9.9,2,2,3.3,3.2s2.8,2.6,4.5,4.1,3.5,3.1,5.6,4.8,4.2,3.5,6.6,5.3c4.7,3.6,10,7.5,15.7,11.3s11.4,7.1,16.6,10c2.6,1.4,5.1,2.8,7.5,3.9s4.6,2.3,6.6,3.2,3.9,1.8,5.5,2.5,3.1,1.3,4.2,1.8C1107.92,1301,1109.22,1301.5,1109.22,1301.5Z"/><path class="cls-8" d="M700.82,1436.9s-22.1-12.3-27-12.3-24.5-4.9-39.3,0-54,24.5-54,24.5l19.1-1.5C599.72,1447.7,656.62,1412.3,700.82,1436.9Z"/><path class="cls-8" d="M863,1408.2s9.6-10.6,19.4-15.5c0,0,14.7-9.8,49.1-4.9,24.8,3.5,39.3,4.9,39.3,4.9l-10,2.8S882.52,1382.9,863,1408.2Z"/><path class="cls-14" d="M619.22,2314.9s-1.2-.1-3.4-.2-5.5-.3-9.8-.6-9.4-.7-15.4-1.5-12.8-1.7-20.3-3.2a163.67,163.67,0,0,1-23.9-6.9,111.52,111.52,0,0,1-25.2-13.3,135.85,135.85,0,0,1-23.1-21.4c-7.3-8.2-14.1-17.3-21.3-26.4a523.83,523.83,0,0,0-43.5-48.9,508.41,508.41,0,0,0-40-35.4c-11.9-9.4-22-16.6-29-21.4-3.5-2.4-6.3-4.2-8.2-5.4s-2.9-1.9-2.9-1.9,1,.6,2.9,1.9,4.7,3,8.2,5.4c7.1,4.8,17.1,11.9,29,21.4a491,491,0,0,1,40,35.4,499.45,499.45,0,0,1,43.5,48.9c7.2,9.1,14,18.2,21.3,26.4a135.85,135.85,0,0,0,23.1,21.4,111.52,111.52,0,0,0,25.2,13.3,163.67,163.67,0,0,0,23.9,6.9c7.4,1.6,14.3,2.5,20.3,3.2s11.2,1.1,15.4,1.5,7.5.5,9.8.6S619.22,2314.9,619.22,2314.9Z"/><path class="cls-14" d="M1025.72,2079.7s-1.1,0-3.1-.1h-1.7c-.6,0-1.3-.1-2-.1-1.5-.1-3.2-.2-5.1-.5a103.48,103.48,0,0,1-30.9-9.7,199.36,199.36,0,0,1-19.5-11c-6.8-4.3-13.9-9.2-21.4-14.4s-15.3-10.6-23.7-15.8c-4.2-2.6-8.5-5.1-13-7.5a152,152,0,0,0-14.1-6.6,119.9,119.9,0,0,0-14.7-4.8c-4.9-1.3-9.9-2.2-14.8-3-9.7-1.6-19.2-2.9-28.1-4.9-17.7-4-32.9-10.3-45.4-16s-22.3-11-29.1-14.6-10.5-5.6-10.5-5.6,3.7,2,10.5,5.6,16.6,8.8,29.1,14.6,27.7,12,45.4,16c8.9,2,18.3,3.3,28.1,4.9,4.9.8,9.8,1.8,14.8,3a114.58,114.58,0,0,1,14.7,4.8c4.9,2,9.5,4.2,14.1,6.6s8.8,4.9,13,7.5c8.4,5.2,16.2,10.7,23.7,15.8s14.6,10.1,21.4,14.4a190.66,190.66,0,0,0,19.5,11c12.4,6,23.3,8.8,30.9,9.7,1.9.3,3.6.4,5.1.5a14.08,14.08,0,0,0,2,.1h1.7C1024.62,2079.7,1025.72,2079.7,1025.72,2079.7Z"/><path class="cls-14" d="M553.12,1716.5l-2.1-.6c-1.4-.4-3.5-1-6.1-1.9a205.44,205.44,0,0,1-21.8-8.6c-4.5-2.1-9.3-4.5-14.4-7.3s-10.4-6.1-15.8-9.7a196.25,196.25,0,0,1-32.5-27.4,148.07,148.07,0,0,1-24.6-34.6,112.93,112.93,0,0,1-11-32.8,86.91,86.91,0,0,1-.7-23.4q.45-4.2.9-6.3c.3-1.4.4-2.2.4-2.2s-.1.8-.4,2.2-.6,3.6-.9,6.3a86.91,86.91,0,0,0,.7,23.4,111,111,0,0,0,11,32.8,151.07,151.07,0,0,0,24.6,34.6,196.25,196.25,0,0,0,32.5,27.4c5.4,3.7,10.7,6.9,15.8,9.7s9.9,5.3,14.4,7.3a185.67,185.67,0,0,0,21.8,8.6c2.6.9,4.7,1.5,6.1,1.9Z"/><path class="cls-14" d="M651.82,1705s-24.5-12.8-64.2-33.5c-9.9-5.2-20.8-10.9-32.4-17s-24.2-12.6-35.9-21.7a86.56,86.56,0,0,1-16-16,57.36,57.36,0,0,1-9.8-21.4c-1.7-7.9-1.6-16.2-1.3-24.5s.6-16.8-.6-25.2a110.78,110.78,0,0,0-6.8-24.3c-3-7.7-6.4-15.2-9.4-22.7-1.5-3.7-2.7-7.5-4-11.3s-2.2-7.5-3.3-11.3a112.51,112.51,0,0,1-2.5-11.2c-.3-1.9-.8-3.7-1.1-5.5s-.5-3.7-.8-5.5a205.64,205.64,0,0,1-1.2-41.9,215.37,215.37,0,0,1,6.2-36,195.48,195.48,0,0,1,20.5-48.7c.8-1.3,1.6-2.6,2.3-3.8a26.62,26.62,0,0,1,2.1-3.3c1.4-2,2.5-3.6,3.5-5,1.9-2.7,2.9-4.1,2.9-4.1s-1,1.4-2.9,4.1c-.9,1.4-2.1,3-3.5,5-.7,1-1.3,2.1-2.1,3.3s-1.5,2.5-2.3,3.8a195.48,195.48,0,0,0-20.5,48.7,215.37,215.37,0,0,0-6.2,36,198.71,198.71,0,0,0,1.2,41.9c.2,1.8.5,3.7.8,5.5s.7,3.7,1.1,5.5c.8,3.7,1.4,7.5,2.5,11.2s1.9,7.6,3.3,11.3,2.5,7.5,4,11.3c3,7.5,6.4,14.9,9.4,22.7a109.26,109.26,0,0,1,6.8,24.3c1.2,8.5.8,16.9.6,25.2s-.3,16.6,1.3,24.5a55.84,55.84,0,0,0,9.8,21.4,83.6,83.6,0,0,0,16,16c11.7,9.1,24.2,15.6,35.9,21.7s22.5,11.8,32.4,17C627.22,1692.1,651.82,1705,651.82,1705Z"/><path class="cls-14" d="M340.12,1766.4s-.2-1.8-.5-5q-.15-1.2-.3-2.7c-.1-1-.1-2-.2-3.2-.1-2.3-.4-4.9-.4-7.8,0-1.4-.1-3-.1-4.5s.1-3.2.1-4.9c0-3.4.3-7,.6-10.8A197.25,197.25,0,0,1,343,1703a211.78,211.78,0,0,1,6.9-23.8c1.4-3.6,2.6-7,4-10.1.7-1.6,1.3-3.1,2-4.5s1.3-2.8,2-4.1c1.2-2.6,2.5-4.9,3.6-6.9.5-1,1-2,1.5-2.8s1-1.6,1.4-2.3c1.7-2.8,2.6-4.3,2.6-4.3s-.9,1.5-2.6,4.3c-.4.7-.9,1.5-1.4,2.3s-1,1.8-1.5,2.8c-1.1,2-2.4,4.3-3.6,6.9-.6,1.3-1.3,2.7-2,4.1s-1.3,2.9-2,4.5c-1.4,3.1-2.6,6.5-4,10.1A192.67,192.67,0,0,0,343,1703a218,218,0,0,0-3.7,24.5c-.2,3.8-.5,7.4-.6,10.8,0,1.7-.1,3.3-.1,4.9s.1,3.1.1,4.5c0,2.9.2,5.5.4,7.8.1,1.1.1,2.2.2,3.2s.2,1.9.3,2.7C340,1764.6,340.12,1766.4,340.12,1766.4Z"/><path class="cls-14" d="M315.12,2137.9s-1-.8-2.9-2.2-4.6-3.6-8.1-6.5a130.09,130.09,0,0,1-11.9-11.3,93.3,93.3,0,0,1-6.4-8,64.34,64.34,0,0,1-5.5-10.1,63.15,63.15,0,0,1-3.5-12.1c-.8-4.3-1.4-8.9-2.2-13.5a154.05,154.05,0,0,0-7.5-29.3,238.1,238.1,0,0,0-13.6-30.5c-5.3-10.3-11.5-20.6-17.8-31.2s-12.7-20.8-18.4-30.8-11-20-15.4-29.7a192.47,192.47,0,0,1-10.3-28.4c-.7-2.3-1.2-4.6-1.7-6.8-.3-1.1-.5-2.2-.7-3.3s-.3-2.2-.4-3.3a19.38,19.38,0,0,1,.6-6.4,8.87,8.87,0,0,1,3.4-5l.6-.4c.2-.1.5-.2.7-.3a7.37,7.37,0,0,1,1.4-.4,7.08,7.08,0,0,1,2.9,0,23.45,23.45,0,0,1,5.3,1.7c3.3,1.5,6.5,2.9,9.4,4.1l15,6.6c8.2,3.6,12.8,5.7,12.8,5.7s-4.6-2-12.8-5.7c-4.1-1.8-9.2-4.1-15-6.6-2.9-1.3-6.1-2.7-9.4-4.1a23.45,23.45,0,0,0-5.3-1.7,9.39,9.39,0,0,0-2.9,0,5.73,5.73,0,0,0-1.4.4c-.2.1-.5.2-.7.3l-.6.4a8.87,8.87,0,0,0-3.4,5,19.38,19.38,0,0,0-.6,6.4,18.59,18.59,0,0,0,.4,3.3c.2,1.1.5,2.2.7,3.3.5,2.2,1,4.5,1.7,6.8a192.47,192.47,0,0,0,10.3,28.4c4.4,9.7,9.6,19.6,15.4,29.7s12.1,20.3,18.4,30.8,12.5,20.9,17.8,31.2a244.44,244.44,0,0,1,13.6,30.5,161.94,161.94,0,0,1,7.5,29.3c.7,4.7,1.3,9.2,2.2,13.5a56.7,56.7,0,0,0,3.5,12.1,51.3,51.3,0,0,0,5.5,10.1,77.27,77.27,0,0,0,6.4,8,130.09,130.09,0,0,0,11.9,11.3c3.5,2.9,6.2,5,8.1,6.5S315.12,2137.9,315.12,2137.9Z"/><path class="cls-14" d="M1168.42,2117.5s-1.2,1.6-3.5,4.8-5.5,7.9-9.4,14.2a245.29,245.29,0,0,0-12.6,23.7,229.86,229.86,0,0,0-12.3,33.3c-.9,3.2-1.8,6.4-2.5,9.8l-1.2,5.1c-.3,1.7-.7,3.5-1,5.2-1.3,7.1-2.4,14.5-3.1,22.2s-1.4,15.7-2.8,23.9c-.3,2-.8,4.1-1.2,6.1s-1,4.1-1.6,6.1a58.51,58.51,0,0,1-4.9,11.9,49.94,49.94,0,0,1-7.8,10.6,62,62,0,0,1-10.5,8.5c-7.7,5-16.4,8.5-25.3,11.8-17.8,6.4-36.3,13.1-55.2,19.9s-37.3,13.8-55.8,18.3a165.89,165.89,0,0,1-27.5,4.5,118.32,118.32,0,0,1-26.7-1c-17.3-2.6-33-8.2-47.4-13.8s-27.7-11.5-40-16.2c-6.1-2.4-12.1-4.5-17.7-6.3-2.8-.9-5.6-1.7-8.3-2.4-1.3-.4-2.7-.7-4-1l-3.9-.9a114.26,114.26,0,0,0-26.7-2.8,93.1,93.1,0,0,0-16.8,1.9c-3.8.9-5.7,1.4-5.7,1.4l5.7-1.4a94.28,94.28,0,0,1,16.8-1.9,114.77,114.77,0,0,1,26.7,2.8c1.3.2,2.6.6,3.9.9s2.7.6,4,1c2.7.8,5.5,1.5,8.3,2.4q8.55,2.7,17.7,6.3c12.3,4.7,25.5,10.5,40,16.2s30.2,11.2,47.4,13.8a124.45,124.45,0,0,0,26.7,1,165.89,165.89,0,0,0,27.5-4.5c18.4-4.5,36.8-11.6,55.8-18.3s37.4-13.5,55.2-19.9c8.9-3.3,17.6-6.8,25.3-11.8a62,62,0,0,0,10.5-8.5,49.94,49.94,0,0,0,7.8-10.6,60.94,60.94,0,0,0,4.9-11.9c.6-2,1.1-4.1,1.6-6.1s.9-4.1,1.2-6.1c1.4-8.1,2-16.2,2.8-23.9s1.8-15.1,3.1-22.2c.4-1.8.7-3.5,1-5.2s.8-3.4,1.2-5.1c.7-3.4,1.7-6.6,2.5-9.8a237.46,237.46,0,0,1,12.3-33.3,245.29,245.29,0,0,1,12.6-23.7c3.9-6.3,7.1-11,9.4-14.2S1168.42,2117.5,1168.42,2117.5Z"/><path class="cls-14" d="M1222.52,1299.6s.2-.8.5-2.4a43.82,43.82,0,0,0,.8-7,47.18,47.18,0,0,0-1.3-11,56.43,56.43,0,0,0-5.3-13.7,72.23,72.23,0,0,0-4.6-7.2,77.89,77.89,0,0,0-6-7.1,96,96,0,0,0-7.3-6.8c-2.6-2.2-5.4-4.3-8.4-6.4-5.9-4.2-12.4-8.1-19.1-12.2s-13.7-8.3-20.7-12.8a837.45,837.45,0,0,1-69.5-49.7c-8.6-6.8-15.3-12.5-20-16.5s-7.2-6.2-7.2-6.2,2.6,2.2,7.2,6.2,11.5,9.7,20,16.5a831,831,0,0,0,69.5,49.7c7,4.5,14,8.8,20.7,12.8s13.2,8,19.1,12.2c3,2.1,5.8,4.2,8.4,6.4a96,96,0,0,1,7.3,6.8,77.89,77.89,0,0,1,6,7.1,72.23,72.23,0,0,1,4.6,7.2,52.61,52.61,0,0,1,5.3,13.7,47.77,47.77,0,0,1,1.3,11,34.57,34.57,0,0,1-.8,7A22.91,22.91,0,0,0,1222.52,1299.6Z"/><path class="cls-14" d="M919.82,2307l-1.8.3c-.6.1-1.3.2-2.2.4s-1.9.2-3,.4-2.5.2-3.9.3-3,0-4.7,0a66.16,66.16,0,0,1-11.6-1.4c-8.7-1.6-18.9-5.3-30.1-10.9s-23.4-13-37.1-20.7c-6.9-3.8-14.2-7.7-22-11.2a160.91,160.91,0,0,0-25.4-8.4,208.75,208.75,0,0,0-28.3-4.8c-9.8-1-20-1.6-30.4-1.8-20.8-.5-42.7.4-65.4.2-11.3-.1-22.9-.5-34.5-1.7a205,205,0,0,1-35-6.5,141,141,0,0,1-60.2-34.7c-16.4-15.7-29.2-33.7-40.6-51.1s-21.5-34.4-31.9-49.8a269.15,269.15,0,0,0-32.6-39.8,165.8,165.8,0,0,0-33.4-26.1,108.08,108.08,0,0,0-29.6-12.1,89.78,89.78,0,0,0-20.1-2.5,41.46,41.46,0,0,0-5.3.1,12.25,12.25,0,0,0-1.8.1s.6,0,1.8-.1,3-.2,5.3-.1a89.78,89.78,0,0,1,20.1,2.5,108.08,108.08,0,0,1,29.6,12.1,169.48,169.48,0,0,1,33.4,26.1,269.15,269.15,0,0,1,32.6,39.8c10.4,15.3,20.5,32.4,31.9,49.8s24.2,35.3,40.6,51.1a139.83,139.83,0,0,0,60.2,34.7,203.18,203.18,0,0,0,35,6.5c11.6,1.2,23.2,1.6,34.5,1.7,22.7.2,44.5-.6,65.4-.2,10.4.2,20.6.7,30.4,1.8a208.75,208.75,0,0,1,28.3,4.8,171.86,171.86,0,0,1,25.4,8.4,215.12,215.12,0,0,1,22,11.2c13.7,7.7,25.9,15.2,37.1,20.7s21.4,9.2,30.1,10.9a93,93,0,0,0,11.6,1.4c1.7,0,3.3.1,4.7,0s2.7-.1,3.9-.3,2.2-.3,3-.4,1.6-.3,2.2-.4Z"/><path class="cls-14" d="M1227.22,1843a2.8,2.8,0,0,0-.1-.6,2.49,2.49,0,0,0-.1-.8,5.16,5.16,0,0,0-.2-1.1,15.71,15.71,0,0,0-3-6.5,21.81,21.81,0,0,0-9-6.8c-4.1-1.8-9.3-2.3-14.9-1.9s-11.6,1.7-18.1,3-13.4,2.7-20.6,4.2c-14.5,3-30.5,6.5-47.2,10.2-33.4,7.5-63.5,15-85.2,20.7-10.9,2.8-19.6,5.1-25.7,6.8s-9.4,2.5-9.4,2.5,3.3-.9,9.4-2.5,14.8-4,25.7-6.8c21.7-5.6,51.8-13.1,85.2-20.7,16.7-3.8,32.6-7.2,47.2-10.2,7.3-1.5,14.2-2.9,20.6-4.2s12.5-2.6,18.1-3a33.39,33.39,0,0,1,14.9,1.9,21.81,21.81,0,0,1,9,6.8,14.5,14.5,0,0,1,3,6.5,5.16,5.16,0,0,1,.2,1.1,2,2,0,0,0,.1.8A2.14,2.14,0,0,1,1227.22,1843Z"/><path class="cls-14" d="M1014.92,2186.9s-.1.2-.4.7a17.33,17.33,0,0,1-1.2,2,37.35,37.35,0,0,1-5.6,7.1,45.52,45.52,0,0,1-11.5,8.3,67.51,67.51,0,0,1-17.8,6.1,114.55,114.55,0,0,1-22.8,2.2c-4.1,0-8.4-.2-12.7-.5s-8.9-.7-13.5-1.3a259.28,259.28,0,0,1-58.5-14c-10.1-3.6-19.6-7.9-28.7-12.1s-17.9-8.5-26.3-12.4-16.4-7.5-24.1-10.4a211.21,211.21,0,0,0-21.7-7.2,118.38,118.38,0,0,0-32.8-4.2c-1,0-1.9.1-2.8.1a16.59,16.59,0,0,0-2.4.2c-1.5.1-2.8.2-3.8.3-2,.2-3.1.4-3.1.4s1.1-.1,3.1-.4c1-.1,2.3-.2,3.8-.3a19.42,19.42,0,0,0,2.4-.2c.9,0,1.8-.1,2.8-.1a118.38,118.38,0,0,1,32.8,4.2,196.33,196.33,0,0,1,21.7,7.2c7.7,3,15.7,6.5,24.1,10.4s17.2,8.1,26.3,12.4,18.7,8.5,28.7,12.1a264.77,264.77,0,0,0,58.5,14c4.6.6,9.1,1,13.5,1.3s8.6.5,12.7.5a115.3,115.3,0,0,0,22.8-2.2,69.93,69.93,0,0,0,17.8-6.1,42.15,42.15,0,0,0,11.5-8.3,37.35,37.35,0,0,0,5.6-7.1c.6-.9.9-1.6,1.2-2S1014.92,2186.9,1014.92,2186.9Z"/><path class="cls-14" d="M376.32,1716.8l.3,1.8c.2,1.2.5,2.9.9,5.2.7,4.5,1.7,11.1,2.4,19.3.4,4.1.6,8.6.7,13.4s.1,10-.4,15.4a137,137,0,0,1-6.7,34.6,110.07,110.07,0,0,1-7.5,16.7,96.91,96.91,0,0,1-9.6,14.1c-.9,1-1.7,2.1-2.6,3.1s-1.8,1.9-2.7,2.9c-1.7,1.9-3.6,3.5-5.4,5.2-.9.8-1.8,1.5-2.7,2.3s-1.8,1.5-2.7,2.1-1.8,1.3-2.7,1.9c-.4.3-.9.6-1.3.9s-.9.5-1.3.8c-1.8,1-3.4,2.1-5.1,2.9l-2.4,1.2-1.2.6c-.4.2-.8.3-1.2.5-1.5.6-2.9,1.2-4.2,1.7s-2.5.8-3.6,1.2c-.5.2-1.1.3-1.6.5s-1,.2-1.4.3c-.9.2-1.6.4-2.2.5-1.2.3-1.8.4-1.8.4s.6-.1,1.8-.4c.6-.1,1.3-.3,2.2-.5.4-.1.9-.2,1.4-.3a14.24,14.24,0,0,0,1.6-.5,37.88,37.88,0,0,0,3.6-1.2c1.3-.5,2.7-1.1,4.2-1.7.4-.2.8-.3,1.2-.5l1.2-.6,2.4-1.2c1.7-.8,3.3-1.9,5.1-2.9.4-.3.9-.5,1.3-.8s.9-.6,1.3-.9c.9-.6,1.8-1.2,2.7-1.9s1.8-1.4,2.7-2.1a19.35,19.35,0,0,0,2.7-2.3,65.67,65.67,0,0,0,5.4-5.2,38.4,38.4,0,0,0,2.7-2.9c.9-1,1.7-2,2.6-3.1a100.8,100.8,0,0,0,17.1-30.8,137,137,0,0,0,6.7-34.6c.4-5.4.4-10.6.4-15.4s-.4-9.3-.7-13.4c-.7-8.2-1.6-14.8-2.4-19.3-.3-2.3-.7-4-.9-5.2Z"/><path class="cls-14" d="M728.42,962.1a14.3,14.3,0,0,0-1.6,1c-.5.3-1.2.7-2,1.2-.4.2-.8.5-1.3.8s-.9.6-1.4.9c-1,.7-2,1.4-3.2,2.2s-2.3,1.9-3.7,2.9a93.55,93.55,0,0,0-8.3,7.7,148.83,148.83,0,0,0-18.1,23.3c-6.1,9.3-12,20-18.2,31.3-3.1,5.6-6.1,11.1-9.1,16.4s-6.1,10.2-9.1,14.9c-6.2,9.3-12.4,17.2-18.4,23.1a88,88,0,0,1-8.5,7.5c-1.3,1-2.6,2-3.7,2.8s-2.3,1.5-3.3,2.2c-.5.3-.9.6-1.4.9s-.9.5-1.3.7c-.8.4-1.5.8-2,1.1-1.1.6-1.6.9-1.6.9s.6-.3,1.6-.9c.5-.3,1.2-.7,2-1.1.4-.2.8-.5,1.3-.7s.9-.6,1.4-.9c1-.7,2.1-1.4,3.3-2.2s2.4-1.8,3.7-2.8c2.6-2.1,5.5-4.6,8.5-7.5a142.21,142.21,0,0,0,18.4-23.1c3-4.7,6.1-9.6,9.1-14.9s6.1-10.7,9.1-16.4c6.2-11.3,12.1-22,18.2-31.3s12.2-17.3,18.1-23.3a109.87,109.87,0,0,1,8.3-7.7c1.3-1,2.5-2,3.7-2.9s2.2-1.6,3.2-2.2a11,11,0,0,1,1.4-.9c.4-.3.9-.5,1.3-.8.8-.5,1.4-.9,2-1.2C727.82,962.5,728.42,962.1,728.42,962.1Z"/><path class="cls-2" d="M1155.82,1235.3a1.75,1.75,0,0,1,.5.1c.3.1.8.2,1.5.4s1.5.4,2.5.7a14.24,14.24,0,0,1,1.6.5l1.8.6a114.54,114.54,0,0,1,20.1,9.6,116,116,0,0,1,25.4,21,36.5,36.5,0,0,1,3.1,3.6c1,1.2,2.1,2.5,3.1,3.8,1.9,2.7,4,5.3,5.7,8.2.5.7.9,1.4,1.4,2.2a15.92,15.92,0,0,1,1.3,2.2c.8,1.5,1.7,3,2.5,4.6s1.5,3.2,2.3,4.8c.4.8.7,1.6,1.1,2.4a26,26,0,0,0,1,2.5c.6,1.7,1.3,3.3,1.9,5l1.5,5.1c1,3.4,1.7,6.7,2.5,10,1.4,6.6,2.6,13,4.2,19a72.16,72.16,0,0,0,2.8,8.6,60.83,60.83,0,0,0,3.7,7.7,35.7,35.7,0,0,0,10.3,11.1,34.22,34.22,0,0,0,11.4,5.3,24.05,24.05,0,0,0,9.5.4,18.32,18.32,0,0,0,5.7-2,13.7,13.7,0,0,0,1.4-.8,1,1,0,0,1,.5-.2,3,3,0,0,1-.4.3,13.7,13.7,0,0,1-1.4.8,20.87,20.87,0,0,1-5.7,2.1,26.41,26.41,0,0,1-9.6-.3,32.75,32.75,0,0,1-11.5-5.3,37.8,37.8,0,0,1-10.5-11.2,60.83,60.83,0,0,1-3.7-7.7,73.81,73.81,0,0,1-2.8-8.7c-1.6-6-2.8-12.4-4.2-19.1a91.33,91.33,0,0,0-2.5-10c-.5-1.7-1-3.3-1.5-5s-1.2-3.3-1.9-5a26,26,0,0,0-1-2.5c-.4-.8-.7-1.6-1.1-2.4-.8-1.6-1.4-3.2-2.3-4.8s-1.7-3.1-2.5-4.6a15.92,15.92,0,0,0-1.3-2.2c-.5-.7-.9-1.4-1.4-2.2-1.7-2.9-3.8-5.5-5.7-8.2-1-1.3-2-2.5-3-3.7s-2-2.5-3.1-3.6a118,118,0,0,0-25.3-21,120.24,120.24,0,0,0-20-9.7,6.36,6.36,0,0,0-1.8-.6c-.6-.2-1.1-.3-1.6-.5-1-.3-1.8-.6-2.4-.8s-1.2-.4-1.5-.5A.93.93,0,0,1,1155.82,1235.3Z"/><path class="cls-2" d="M1255.52,1247.1a1.58,1.58,0,0,0-.4.1c-.3,0-.7.1-1.3.1a20.35,20.35,0,0,1-5,0,33.07,33.07,0,0,1-7.7-1.6,48.76,48.76,0,0,1-9.4-4.4c-6.6-4-13.6-10.1-20.7-17.4s-15.1-15.2-23.4-23.5-16.2-16.3-23.4-23.5a92.07,92.07,0,0,0-11-9.3,41.48,41.48,0,0,0-11.2-5.5,28.94,28.94,0,0,0-10.2-1.1,25.14,25.14,0,0,0-7.6,1.7,22.85,22.85,0,0,0-5.7,3.5l.3-.3a4.87,4.87,0,0,1,1-.8,17.37,17.37,0,0,1,4.3-2.5,22.34,22.34,0,0,1,7.6-1.8,30,30,0,0,1,10.4,1.1,38.39,38.39,0,0,1,11.4,5.5,72.07,72.07,0,0,1,11.1,9.3c7.3,7.2,15.1,15.1,23.4,23.5s16.2,16.3,23.4,23.5,14,13.4,20.6,17.4a52.05,52.05,0,0,0,9.3,4.5,39.53,39.53,0,0,0,7.6,1.7,28,28,0,0,0,4.9.1c.6,0,1-.1,1.3-.1C1255.42,1247.1,1255.52,1247.1,1255.52,1247.1Z"/><path class="cls-2" d="M1124,1087.7a62.16,62.16,0,0,1-7.6,1,86,86,0,0,1-20.8-.8,81.82,81.82,0,0,1-14-3.5,99.36,99.36,0,0,1-15.1-6.8c-10.2-5.7-20.3-13.8-30.4-22.6s-19.6-17.4-29.2-24-19-11.4-27.3-14.1a61.5,61.5,0,0,0-20.5-3.3c-1.2,0-2.3,0-3.3.1s-1.7.2-2.4.3a8.64,8.64,0,0,1-1.5.1h-.5a1.75,1.75,0,0,0,.5-.1c.3,0,.8-.1,1.5-.2s1.4-.2,2.4-.3a32.18,32.18,0,0,1,3.3-.1,61.44,61.44,0,0,1,20.6,3.2c8.4,2.6,17.9,7.5,27.5,14.1s19.2,15.2,29.3,24,20.1,16.9,30.3,22.6a90.38,90.38,0,0,0,15,6.9,83.19,83.19,0,0,0,13.9,3.5,93.81,93.81,0,0,0,20.8,1l3.3-.3q1.35-.15,2.4-.3a10.4,10.4,0,0,1,1.5-.2A.36.36,0,0,1,1124,1087.7Z"/><path class="cls-2" d="M1192.12,1172.1a1.21,1.21,0,0,1-.5.1,9.59,9.59,0,0,1-1.5.3,3.59,3.59,0,0,1-1.1.2c-.4.1-.9.1-1.4.2s-1,.2-1.6.3-1.2.1-1.8.2a60.68,60.68,0,0,1-21.7-1.8c-9-2.2-19.2-6.9-29.3-13.8s-20.3-15.8-29.9-26.1-18.3-20.5-26.9-29.3a171.57,171.57,0,0,0-24.3-21.4,103.79,103.79,0,0,0-10.6-6.6c-1.6-.8-3.1-1.6-4.6-2.3s-2.8-1.2-3.9-1.7c-.6-.2-1.1-.5-1.7-.7a8.8,8.8,0,0,0-1.5-.5c-.9-.3-1.7-.6-2.4-.8s-1.1-.4-1.5-.5a4.2,4.2,0,0,1-.5-.2,1.75,1.75,0,0,1,.5.1c.3.1.8.3,1.5.5s1.4.5,2.4.8c.5.2,1,.3,1.5.5s1.1.4,1.7.7c1.2.5,2.5,1,4,1.7s2.9,1.5,4.6,2.3a113.31,113.31,0,0,1,10.6,6.5c7.6,5.2,15.9,12.6,24.4,21.3s17.3,18.9,26.9,29.3a176.9,176.9,0,0,0,29.8,26.1c10.1,6.8,20.2,11.5,29.1,13.8a63,63,0,0,0,21.6,1.9c.6-.1,1.2-.1,1.8-.2a10,10,0,0,1,1.6-.2c.5-.1.9-.1,1.4-.2a5.16,5.16,0,0,1,1.1-.2,9.59,9.59,0,0,0,1.5-.3Z"/><path class="cls-2" d="M1283.12,1203a5.2,5.2,0,0,0-.5.3c-.4.2-.9.4-1.6.7-1.4.6-3.5,1.5-6.2,2.6a211,211,0,0,1-23.3,8.1,119.85,119.85,0,0,1-16.7,3.4,113.46,113.46,0,0,1-19.6.8c-13.8-.7-28.7-4.4-43.7-9.6s-29-11.3-41.8-16.2-24.7-8.7-35-10.7a112.83,112.83,0,0,0-24.5-2.4c-1.5,0-2.7.1-3.9.1s-2.1.2-2.8.2a12.27,12.27,0,0,1-1.7.1h-.6a2.8,2.8,0,0,0,.6-.1,14.93,14.93,0,0,0,1.7-.2c.8-.1,1.7-.2,2.8-.3s2.4-.1,3.9-.2a112.88,112.88,0,0,1,24.6,2.3c10.3,2,22.2,5.7,35.1,10.6s26.8,10.9,41.8,16.1,29.8,8.9,43.6,9.7a103.5,103.5,0,0,0,19.5-.7,119.85,119.85,0,0,0,16.7-3.4,221.06,221.06,0,0,0,23.4-7.9c2.7-1.1,4.8-1.9,6.2-2.5a14.36,14.36,0,0,0,1.6-.7A1.58,1.58,0,0,1,1283.12,1203Z"/><path class="cls-2" d="M1216.72,1158.3l-.6.3c-.4.2-1,.4-1.7.7-.4.2-.8.3-1.3.5s-1,.3-1.6.5l-1.8.6a16,16,0,0,1-2.1.5,63,63,0,0,1-26,.8,82.85,82.85,0,0,1-17.4-4.8,92.61,92.61,0,0,1-9.2-4.1c-3.1-1.6-6.2-3.3-9.3-5.2a228.66,228.66,0,0,1-18.9-13c-6.3-4.8-12.8-10-19.5-15.1-13.4-10.3-26.5-19.5-38.7-27.5-6.1-4-12-7.7-17.5-11.1a140.1,140.1,0,0,0-15.9-8.6,61.3,61.3,0,0,0-14.1-4.7,42,42,0,0,0-11.2-.9,35.18,35.18,0,0,0-7,1.3,9.3,9.3,0,0,0-1.8.6,3.22,3.22,0,0,0-.6.2,3.22,3.22,0,0,1,.6-.2,18.41,18.41,0,0,0,1.8-.6,33.76,33.76,0,0,1,7-1.3,41.43,41.43,0,0,1,11.2.8,69.15,69.15,0,0,1,14.2,4.7,149.18,149.18,0,0,1,15.9,8.6c5.6,3.4,11.5,7.1,17.6,11,12.2,8,25.4,17.2,38.8,27.5,6.7,5.1,13.1,10.3,19.4,15.1a227.49,227.49,0,0,0,18.8,13c3.1,1.9,6.2,3.6,9.3,5.2a92.61,92.61,0,0,0,9.2,4.1,82.85,82.85,0,0,0,17.4,4.8,64.85,64.85,0,0,0,25.9-.6,20.93,20.93,0,0,1,2.1-.5,18.88,18.88,0,0,0,1.8-.6c.6-.2,1.1-.3,1.6-.5s.9-.3,1.3-.5a18.32,18.32,0,0,0,1.7-.7A1.2,1.2,0,0,1,1216.72,1158.3Z"/><path class="cls-2" d="M1283.52,1346.6a1.75,1.75,0,0,1-.5-.1c-.3-.1-.8-.3-1.4-.5a27.49,27.49,0,0,1-5.2-2.4,29.16,29.16,0,0,1-3.4-2.3c-.6-.5-1.2-.9-1.8-1.5s-1.2-1.2-1.9-1.8a52,52,0,0,1-7.2-9.7,90.09,90.09,0,0,1-6.3-13.2c-2-4.9-3.7-10.2-5.6-15.8-3.9-11.1-8.6-23.3-15.5-35.1s-15.3-21.9-24.7-29a79.79,79.79,0,0,0-14.3-8.6,69.79,69.79,0,0,0-13.8-4.6,59.76,59.76,0,0,0-11.9-1.4,55.76,55.76,0,0,0-9,.7q-1.8.3-3.3.6c-.9.2-1.7.5-2.3.6s-1.1.3-1.4.4a1.75,1.75,0,0,1-.5.1,4.2,4.2,0,0,1,.5-.2c.3-.1.8-.2,1.4-.4s1.4-.4,2.3-.7,2-.4,3.3-.6a69.92,69.92,0,0,1,9.1-.8,60.79,60.79,0,0,1,12,1.3,64.57,64.57,0,0,1,13.9,4.6,70.21,70.21,0,0,1,14.4,8.6c9.5,7.1,18,17.3,24.9,29.1s11.6,24,15.5,35.2c1.9,5.6,3.7,10.9,5.6,15.8a101.73,101.73,0,0,0,6.2,13.2,51.84,51.84,0,0,0,7.1,9.7l1.8,1.8c.6.6,1.2,1,1.8,1.5a30.77,30.77,0,0,0,3.4,2.4,24.33,24.33,0,0,0,5.2,2.4c.6.2,1.1.4,1.4.5C1283.32,1346.5,1283.52,1346.6,1283.52,1346.6Z"/><path class="cls-2" d="M1294.72,1469.7h-.4a7.17,7.17,0,0,1-1.3-.1,34.33,34.33,0,0,1-4.9-.8,35.16,35.16,0,0,1-7.3-3.1,38.88,38.88,0,0,1-8.2-6.5,46.4,46.4,0,0,1-7.5-10.3,87.12,87.12,0,0,1-5.8-13.4c-1.7-4.9-3.1-10.1-4.7-15.4s-3.5-10.8-5.6-16.3a206.29,206.29,0,0,0-30.1-52.3,176.39,176.39,0,0,0-12.1-13.8c-1.5-1.6-2.7-2.8-3.5-3.6l-.9-.9-.3-.3.3.3.9.9c.8.8,2,2,3.6,3.5,3,3.1,7.3,7.7,12.2,13.8a202.33,202.33,0,0,1,30.3,52.4c2.1,5.5,4,11,5.6,16.4s3,10.5,4.7,15.4a91.49,91.49,0,0,0,5.7,13.4,47.85,47.85,0,0,0,7.4,10.2,37.82,37.82,0,0,0,8.1,6.5,29.05,29.05,0,0,0,7.2,3.2,26,26,0,0,0,4.9.9c.6,0,1,.1,1.3.1A.62.62,0,0,1,1294.72,1469.7Z"/><path class="cls-2" d="M1202.22,1154.6a4.2,4.2,0,0,1-.5.2c-.3.1-.8.3-1.5.5-1.3.4-3.2,1-5.7,1.7a181.42,181.42,0,0,1-21.1,5,95.56,95.56,0,0,1-14.9,1.4,64.76,64.76,0,0,1-17.1-2,69.77,69.77,0,0,1-17.4-7.6c-5.7-3.3-11.3-7.2-17.4-10.7a109.22,109.22,0,0,0-18.6-8.3,130.89,130.89,0,0,0-18.4-4.7,224.29,224.29,0,0,0-32-3.1c-9.2-.3-16.6-.2-21.7-.2-2.6,0-4.6,0-5.9.1h-1.5a9.23,9.23,0,0,0,1.5-.1c1.3,0,3.3-.1,5.9-.1,5.1-.1,12.5-.2,21.7,0a209.37,209.37,0,0,1,32,3,130.89,130.89,0,0,1,18.4,4.7,113.75,113.75,0,0,1,18.7,8.3c6.1,3.5,11.7,7.3,17.4,10.7a69.15,69.15,0,0,0,17.3,7.6,59.76,59.76,0,0,0,17,2,96.12,96.12,0,0,0,14.9-1.3,185,185,0,0,0,21.1-4.9c2.5-.7,4.4-1.2,5.7-1.6.6-.2,1.1-.3,1.5-.4A1.55,1.55,0,0,1,1202.22,1154.6Z"/><path class="cls-2" d="M1261.62,1484.7a1.24,1.24,0,0,1-.2-.3,3.28,3.28,0,0,0-.6-.8c-.5-.7-1.3-1.8-2.2-3.3a109.28,109.28,0,0,1-6.9-12.7c-2.6-5.5-5.3-12.3-8.1-19.8s-5.8-15.9-9.5-24.4c-1.9-4.2-3.9-8.3-6.1-12.1a106.37,106.37,0,0,0-7-10.5,66.28,66.28,0,0,0-15.2-14.9,71.76,71.76,0,0,0-7-4.2c-1.1-.5-2.1-1-3.1-1.4s-1.9-.7-2.7-1c-.4-.1-.8-.3-1.1-.4s-.7-.2-1-.3c-.6-.2-1.2-.3-1.6-.4a6.21,6.21,0,0,1-1-.3.77.77,0,0,0-.3-.1.77.77,0,0,1,.3.1,8.66,8.66,0,0,0,1,.2c.4.1,1,.2,1.6.4a3.55,3.55,0,0,0,1,.2,4.87,4.87,0,0,1,1.1.4q1.2.45,2.7.9c1,.4,2,.9,3.1,1.4a49.05,49.05,0,0,1,7.1,4.1,68.69,68.69,0,0,1,15.3,14.9,97.36,97.36,0,0,1,7,10.6,114,114,0,0,1,6.1,12.1c3.7,8.5,6.7,16.9,9.5,24.5s5.4,14.3,8,19.9a103.26,103.26,0,0,0,6.8,12.7c.9,1.5,1.6,2.5,2.1,3.3.2.4.4.7.5.9A3,3,0,0,1,1261.62,1484.7Z"/><path class="cls-2" d="M1202.42,1415a1.09,1.09,0,0,0-.4-.2,2.58,2.58,0,0,1-.7-1.1,4.26,4.26,0,0,1,1.9-4.3,4.42,4.42,0,0,1,1.6-.6,6.23,6.23,0,0,1,1.9.1,9.34,9.34,0,0,1,3.8,2c1.2.9,2.4,2.1,3.7,3.2l4,3.7a164,164,0,0,1,18.4,19.7,73.67,73.67,0,0,1,8.3,13.6,53.58,53.58,0,0,1,3,7.9,75.22,75.22,0,0,1,1.9,8.5c.9,5.8,1.3,11.5,1.7,17a108.49,108.49,0,0,0,2,15.7c.3,1.2.5,2.5.9,3.6a35.8,35.8,0,0,0,1.1,3.5,39.53,39.53,0,0,0,3,6.2,37.7,37.7,0,0,0,8.1,9.4,26.73,26.73,0,0,0,8.9,5,16,16,0,0,0,4.1.9,13.61,13.61,0,0,0,3.5,0,19,19,0,0,0,4.8-1.1c.5-.2.9-.4,1.2-.5a1.09,1.09,0,0,0,.4-.2,17.75,17.75,0,0,1-1.6.8,16.44,16.44,0,0,1-4.8,1.2,21.6,21.6,0,0,1-3.6,0,17.63,17.63,0,0,1-4.2-.9,28.52,28.52,0,0,1-9.1-5,38.28,38.28,0,0,1-8.3-9.4,36.93,36.93,0,0,1-3.1-6.3,35.8,35.8,0,0,1-1.1-3.5c-.4-1.2-.6-2.4-.9-3.7a128.56,128.56,0,0,1-2-15.8c-.4-5.5-.8-11.2-1.7-17a73.48,73.48,0,0,0-1.9-8.4,66.24,66.24,0,0,0-3-7.8,74.59,74.59,0,0,0-8.2-13.5,156.15,156.15,0,0,0-18.3-19.7c-1.4-1.3-2.7-2.6-4-3.7s-2.4-2.3-3.6-3.2a10.05,10.05,0,0,0-3.7-1.9,5.54,5.54,0,0,0-1.8-.2,3.39,3.39,0,0,0-1.5.6,4,4,0,0,0-1.9,4.1,2.27,2.27,0,0,0,.6,1.1A1.37,1.37,0,0,1,1202.42,1415Z"/><path class="cls-2" d="M1266.92,1582.1a1.58,1.58,0,0,1-.4-.1c-.3-.1-.7-.3-1.3-.5s-1.2-.5-2-.8-1.7-.8-2.7-1.3a54.94,54.94,0,0,1-14.8-11.9,96.61,96.61,0,0,1-15.1-23.8c-4.5-9.6-8.2-20.8-12.7-32.1s-9.8-21.9-16.8-29.9a55.63,55.63,0,0,0-22.6-16.1,39.21,39.21,0,0,0-18.6-2.4c-1.1.2-2.1.4-2.9.5s-1.5.4-2.1.6-1,.3-1.3.4a1.58,1.58,0,0,1-.4.1,1.09,1.09,0,0,1,.4-.2c.3-.1.7-.2,1.3-.4s1.3-.4,2.1-.6,1.8-.4,2.9-.6a37.83,37.83,0,0,1,18.7,2.2c7.6,2.7,15.8,8.1,22.9,16.2s12.3,18.7,16.9,30,8.2,22.5,12.6,32.1a97.59,97.59,0,0,0,14.9,23.7,54.61,54.61,0,0,0,14.6,11.9c1,.5,1.9,1,2.7,1.4s1.5.6,2,.9,1,.4,1.2.5A1.62,1.62,0,0,0,1266.92,1582.1Z"/><path class="cls-2" d="M1187.32,1295.4s.4-.3,1.2-.8a13.68,13.68,0,0,1,3.8-1.3,19.21,19.21,0,0,1,6.3.1,37,37,0,0,1,8,2.6c.7.3,1.4.7,2.2,1s1.4.8,2.2,1.3a6.73,6.73,0,0,1,1.1.7,7.63,7.63,0,0,1,1.1.8c.7.5,1.5,1,2.2,1.6a58.65,58.65,0,0,1,8.2,8.3c5.2,6.5,9.5,14.5,13.2,23.3,1.8,4.4,3.4,8.8,4.9,13s3,8.3,4.5,12.1,3.1,7.4,4.6,10.7c.8,1.6,1.6,3.2,2.4,4.7.4.7.8,1.5,1.2,2.2s.9,1.4,1.3,2a55.1,55.1,0,0,0,9.3,11.4c1.2,1.2,2.3,2,3,2.6.3.3.6.5.8.7s.3.2.3.2a1.24,1.24,0,0,0-.3-.2c-.2-.1-.5-.4-.8-.6-.7-.6-1.8-1.4-3.1-2.6a53.94,53.94,0,0,1-9.4-11.3,22.63,22.63,0,0,0-1.3-2c-.4-.7-.8-1.4-1.2-2.2-.9-1.5-1.6-3.1-2.5-4.7-1.6-3.3-3.2-6.9-4.7-10.7s-3-7.9-4.5-12.1-3.1-8.6-4.9-12.9c-3.7-8.7-8-16.8-13.1-23.2a58.18,58.18,0,0,0-8.1-8.3c-.7-.6-1.4-1.1-2.1-1.6l-1.1-.8a6.73,6.73,0,0,1-1.1-.7c-.7-.4-1.4-.9-2.1-1.3a20,20,0,0,0-2.1-1,37,37,0,0,0-7.9-2.7,22.87,22.87,0,0,0-6.3-.2,14.17,14.17,0,0,0-3.8,1.2A6.74,6.74,0,0,0,1187.32,1295.4Z"/><path class="cls-2" d="M1116.72,1183.9a1.24,1.24,0,0,1,.3-.2,8.92,8.92,0,0,1,1-.5l1.6-.8a4.67,4.67,0,0,0,1-.5c.4-.2.8-.3,1.2-.5.9-.3,1.8-.7,2.8-1s2.2-.6,3.5-1a61,61,0,0,1,8.6-1.5,84.67,84.67,0,0,1,22.7.8,160.84,160.84,0,0,1,27,7c9.4,3.2,18.2,6.5,26.4,9.1a153.09,153.09,0,0,0,22,5.5,100.63,100.63,0,0,0,15.3,1.3h2.4c.7,0,1.3-.1,1.8-.1h1.1a5.38,5.38,0,0,0-1.1.1c-.5,0-1.1.1-1.8.1a17.72,17.72,0,0,1-2.4.1,86,86,0,0,1-15.3-1.1,166.91,166.91,0,0,1-22.1-5.4c-8.2-2.6-17-5.9-26.4-9a172.85,172.85,0,0,0-26.9-7,88.81,88.81,0,0,0-22.6-.9,61,61,0,0,0-8.6,1.5c-1.2.3-2.4.6-3.5.9s-2,.7-2.8,1a5.64,5.64,0,0,1-1.2.4,9.29,9.29,0,0,0-1,.5c-.6.3-1.2.5-1.6.7s-.8.3-1,.4A.58.58,0,0,0,1116.72,1183.9Z"/><path class="cls-2" d="M1198.92,1127.2h-1.6c-1,0-2.6.1-4.6,0a123.28,123.28,0,0,1-16.7-1.4,218.14,218.14,0,0,1-24.3-5.3c-9-2.5-18.9-5.5-29.3-8.6-20.7-6.2-39.5-11.8-53-15.9-6.8-2.1-12.3-3.7-16.1-4.9-1.9-.6-3.4-1-4.4-1.3-.5-.2-.9-.3-1.1-.4a1.58,1.58,0,0,0-.4-.1,1.58,1.58,0,0,1,.4.1,8.11,8.11,0,0,0,1.1.3c1,.3,2.5.7,4.4,1.3,3.8,1.1,9.3,2.7,16.1,4.7,13.6,4,32.3,9.6,53.1,15.8,10.4,3.1,20.2,6.1,29.2,8.6a220.58,220.58,0,0,0,24.3,5.4,129.89,129.89,0,0,0,16.7,1.6c2,.1,3.5,0,4.6,0h1.2A1.58,1.58,0,0,0,1198.92,1127.2Z"/><path class="cls-2" d="M1291.12,1361.4a1.58,1.58,0,0,1-.4-.1,7.38,7.38,0,0,1-1.2-.2c-.5-.1-1.2-.2-2-.4-.4-.1-.8-.1-1.2-.2a10.26,10.26,0,0,1-1.4-.4q-1.5-.45-3.3-.9c-1.2-.4-2.4-.9-3.8-1.4a80,80,0,0,1-8.8-4.4c-6.3-3.7-13-9.4-19.5-16.4-3.2-3.6-6.5-7.4-9.7-11.6s-6.3-8.6-9.3-13.3c-6.1-9.3-11.8-18.2-17.6-25.9a132,132,0,0,0-16.9-19,72.83,72.83,0,0,0-7.7-6.1c-1.2-.8-2.3-1.6-3.3-2.2s-2-1.2-2.9-1.7a7.46,7.46,0,0,0-1.2-.7,10.91,10.91,0,0,1-1.1-.6,15,15,0,0,1-1.8-.9c-.5-.2-.8-.4-1.1-.5l-.4-.2s.1,0,.4.2.6.3,1.1.5,1.1.5,1.8.8c.4.2.7.3,1.1.5s.8.5,1.3.7c.9.5,1.9,1.1,3,1.7s2.2,1.4,3.4,2.2a72.83,72.83,0,0,1,7.7,6.1,126.57,126.57,0,0,1,17.1,19c5.8,7.7,11.5,16.6,17.6,25.9,3.1,4.6,6.2,9.1,9.3,13.2s6.4,8,9.6,11.6c6.5,7,13.2,12.7,19.4,16.4a60.62,60.62,0,0,0,8.7,4.5c1.3.5,2.6,1,3.7,1.5s2.3.7,3.2,1c.5.1.9.3,1.4.4s.9.2,1.2.3c.8.2,1.4.3,1.9.4a10.38,10.38,0,0,1,1.2.3A2.81,2.81,0,0,1,1291.12,1361.4Z"/><path class="cls-2" d="M1276.72,1566.7h-.5a8.17,8.17,0,0,1-1.4-.1,10.18,10.18,0,0,1-2.3-.2c-.5-.1-1-.1-1.5-.2-.3,0-.5-.1-.8-.1s-.6-.1-.9-.2a39.55,39.55,0,0,1-3.9-1.1c-1.4-.4-2.9-1.1-4.5-1.7a49.45,49.45,0,0,1-9.8-6.2,64,64,0,0,1-18.1-24c-4.8-10.4-7.8-22.7-10.5-35.5s-5.7-25-9.1-35.9-6.8-20.5-10-28.5-6.1-14.4-8.1-18.7c-1-2.2-1.8-3.9-2.4-5a11.82,11.82,0,0,1-.6-1.3,4.2,4.2,0,0,0-.2-.5,1.09,1.09,0,0,1,.2.4c.1.3.4.7.7,1.3.6,1.1,1.4,2.8,2.4,5,2.1,4.3,5,10.7,8.2,18.7s6.8,17.6,10.2,28.5,6.4,23.1,9.1,35.9,5.7,25.1,10.5,35.4a65.19,65.19,0,0,0,17.9,23.9,52,52,0,0,0,9.7,6.2c1.6.7,3,1.3,4.4,1.8s2.7.8,3.8,1.1c.3.1.6.1.8.2s.6.1.8.1a7.72,7.72,0,0,0,1.5.2c.9.2,1.7.2,2.3.3a8.17,8.17,0,0,0,1.4.1A1.73,1.73,0,0,1,1276.72,1566.7Z"/><path class="cls-2" d="M1273.22,1635.2a1.58,1.58,0,0,1-.4-.1c-.3-.1-.7-.2-1.2-.4a16.7,16.7,0,0,0-2-.6c-.4-.1-.8-.3-1.3-.4s-.9-.3-1.4-.5c-1-.4-2.1-.8-3.3-1.3s-2.5-1.2-3.9-1.8a100.91,100.91,0,0,1-9-5.2,105.54,105.54,0,0,1-20.3-17.7c-3.4-3.8-6.8-7.9-10.1-12.3s-6.5-9.2-9.6-14.1c-6.2-10-11.6-19.7-16.6-28.6s-9.7-16.7-13.9-23.1a176.77,176.77,0,0,0-10.7-14.7c-1.3-1.7-2.5-2.9-3.2-3.8-.4-.4-.6-.8-.8-1l-.3-.3.3.3a11.15,11.15,0,0,1,.9,1c.7.9,1.9,2.1,3.2,3.7a166.41,166.41,0,0,1,10.9,14.6c4.3,6.4,9,14.2,14,23s10.4,18.6,16.6,28.5q4.65,7.5,9.6,14.1c3.3,4.4,6.7,8.5,10.1,12.3a108.29,108.29,0,0,0,20.2,17.7,100.31,100.31,0,0,0,8.9,5.2c1.4.7,2.6,1.3,3.8,1.8s2.3.9,3.3,1.3c.5.2,1,.4,1.4.6s.9.3,1.3.4a10.78,10.78,0,0,0,2,.6c.5.2.9.3,1.2.4A.69.69,0,0,0,1273.22,1635.2Z"/><path class="cls-2" d="M1138.52,1106.1a1.58,1.58,0,0,1-.4-.1c-.3-.1-.6-.2-1.1-.4-1-.3-2.4-.8-4.3-1.4-.9-.3-2-.7-3.1-1.1s-2.3-.9-3.6-1.4c-2.6-1.1-5.6-2.2-8.7-3.7-1.6-.7-3.3-1.5-5-2.3s-3.5-1.8-5.3-2.8c-3.7-1.9-7.4-4.2-11.4-6.6a191.7,191.7,0,0,1-45.3-39.6c-2.9-3.6-5.7-7-8-10.4-1.2-1.7-2.4-3.3-3.4-4.9s-2-3.2-3-4.6c-2-2.9-3.4-5.7-4.8-8.1-.7-1.2-1.3-2.3-1.9-3.4s-1-2-1.5-2.9c-.9-1.8-1.5-3.1-2-4.1-.2-.5-.4-.8-.5-1.1l-.2-.4a1.24,1.24,0,0,1,.2.3,6.42,6.42,0,0,0,.6,1c.5.9,1.2,2.3,2.1,4,.4.9.9,1.8,1.5,2.9s1.2,2.2,1.9,3.4c1.4,2.4,2.9,5.2,4.9,8.1,1,1.5,2,3,3,4.6s2.3,3.2,3.5,4.9c2.3,3.4,5.2,6.8,8.1,10.4a200.7,200.7,0,0,0,21,21.5,212,212,0,0,0,24.1,18c4,2.4,7.7,4.7,11.4,6.6,1.8,1,3.5,2,5.3,2.8s3.4,1.6,5,2.4c3.1,1.6,6.1,2.7,8.7,3.8q2,.75,3.6,1.5c1.1.4,2.2.8,3.1,1.1,1.8.7,3.3,1.2,4.2,1.5.5.2.9.3,1.1.4A.35.35,0,0,1,1138.52,1106.1Z"/><path class="cls-2" d="M1234,1155.1a5.2,5.2,0,0,1-.5-.3,10.55,10.55,0,0,0-1.3-.8c-.6-.4-1.3-.8-2.2-1.3-.4-.2-.9-.5-1.4-.8s-1.1-.5-1.7-.8a67.43,67.43,0,0,0-21.3-5.9,122,122,0,0,0-15.3-.8c-5.5,0-11.4.2-17.6.4s-12.7.4-19.5.2a99.86,99.86,0,0,1-20.8-2.4,113.28,113.28,0,0,1-19.9-6.6c-6.2-2.7-12.1-5.6-17.6-8.5s-10.7-5.6-15.6-8.2c-2.5-1.2-4.8-2.5-7.1-3.6-1.2-.6-2.3-1.1-3.4-1.6l-3.3-1.5a122.89,122.89,0,0,0-21-7.4,17.16,17.16,0,0,0-3.4-.7c-1-.2-1.8-.3-2.5-.5a9.59,9.59,0,0,1-1.5-.3,1.75,1.75,0,0,0-.5-.1,1.75,1.75,0,0,1,.5.1c.4.1.9.1,1.6.3s1.5.3,2.5.4a25.78,25.78,0,0,1,3.4.7,121.86,121.86,0,0,1,21,7.2c1.1.5,2.2.9,3.3,1.5s2.2,1.1,3.4,1.6q3.45,1.65,7.2,3.6c4.9,2.6,10.1,5.3,15.6,8.2s11.4,5.8,17.6,8.4a104.41,104.41,0,0,0,19.8,6.5,99.7,99.7,0,0,0,20.7,2.4c6.8.2,13.3,0,19.5-.2s12.1-.4,17.7-.3a122.81,122.81,0,0,1,15.4.9,67,67,0,0,1,21.4,6,13,13,0,0,0,1.7.8c.5.3,1,.6,1.4.8.9.5,1.6.9,2.2,1.3s1,.7,1.3.9A1.09,1.09,0,0,0,1234,1155.1Z"/><rect class="cls-15" width="1486.32" height="2737.9"/></g></g></svg>