<svg width="24" height="24" viewBox="0 0 24 24" fill="none" xmlns="http://www.w3.org/2000/svg">
<path fill-rule="evenodd" clip-rule="evenodd" d="M11.2596 3.69119C11.4788 3.78209 11.6662 3.93594 11.798 4.1333C11.9298 4.33067 12.0001 4.56267 12 4.79999V19.2C12 19.4373 11.9296 19.6693 11.7977 19.8665C11.6658 20.0638 11.4784 20.2176 11.2592 20.3084C11.04 20.3992 10.7987 20.423 10.566 20.3767C10.3332 20.3304 10.1194 20.2162 9.95161 20.0484L5.50321 15.6H2.40001C2.08175 15.6 1.77653 15.4736 1.55148 15.2485C1.32644 15.0235 1.20001 14.7183 1.20001 14.4V9.59999C1.20001 9.28173 1.32644 8.97651 1.55148 8.75147C1.77653 8.52642 2.08175 8.39999 2.40001 8.39999H5.50321L9.95161 3.95159C10.1194 3.78367 10.3333 3.6693 10.5661 3.62295C10.7989 3.5766 11.0403 3.60035 11.2596 3.69119V3.69119ZM14.7516 8.75159C14.9766 8.52663 15.2818 8.40025 15.6 8.40025C15.9182 8.40025 16.2234 8.52663 16.4484 8.75159L18 10.3032L19.5516 8.75159C19.6623 8.63698 19.7947 8.54556 19.9411 8.48267C20.0875 8.41978 20.245 8.38668 20.4043 8.38529C20.5637 8.38391 20.7217 8.41427 20.8692 8.47461C21.0166 8.53494 21.1506 8.62405 21.2633 8.73672C21.376 8.84939 21.4651 8.98337 21.5254 9.13085C21.5857 9.27832 21.6161 9.43634 21.6147 9.59567C21.6133 9.75501 21.5802 9.91247 21.5173 10.0589C21.4544 10.2053 21.363 10.3377 21.2484 10.4484L19.6968 12L21.2484 13.5516C21.467 13.7779 21.588 14.081 21.5852 14.3957C21.5825 14.7103 21.4563 15.0113 21.2338 15.2338C21.0113 15.4563 20.7103 15.5825 20.3957 15.5852C20.0811 15.5879 19.7779 15.467 19.5516 15.2484L18 13.6968L16.4484 15.2484C16.2221 15.467 15.919 15.5879 15.6043 15.5852C15.2897 15.5825 14.9887 15.4563 14.7662 15.2338C14.5437 15.0113 14.4175 14.7103 14.4148 14.3957C14.4121 14.081 14.533 13.7779 14.7516 13.5516L16.3032 12L14.7516 10.4484C14.5266 10.2234 14.4003 9.91819 14.4003 9.59999C14.4003 9.2818 14.5266 8.97663 14.7516 8.75159V8.75159Z" fill="black"/>
</svg>
