<svg width="24" height="24" viewBox="0 0 24 24" fill="none" xmlns="http://www.w3.org/2000/svg">
<path fill-rule="evenodd" clip-rule="evenodd" d="M11.2596 3.6912C11.4788 3.78209 11.6662 3.93594 11.798 4.13331C11.9298 4.33067 12.0001 4.56268 12 4.8V19.2C12 19.4373 11.9296 19.6693 11.7977 19.8665C11.6658 20.0638 11.4784 20.2176 11.2592 20.3084C11.04 20.3992 10.7987 20.423 10.566 20.3767C10.3332 20.3304 10.1194 20.2162 9.95161 20.0484L5.50321 15.6H2.40001C2.08175 15.6 1.77653 15.4736 1.55148 15.2485C1.32644 15.0235 1.20001 14.7183 1.20001 14.4V9.6C1.20001 9.28174 1.32644 8.97651 1.55148 8.75147C1.77653 8.52642 2.08175 8.4 2.40001 8.4H5.50321L9.95161 3.9516C10.1194 3.78368 10.3333 3.66931 10.5661 3.62295C10.7989 3.5766 11.0403 3.60035 11.2596 3.6912V3.6912ZM17.5884 3.5148C17.8134 3.28983 18.1186 3.16345 18.4368 3.16345C18.755 3.16345 19.0602 3.28983 19.2852 3.5148C20.401 4.62798 21.2859 5.95062 21.8891 7.40677C22.4923 8.86291 22.8018 10.4239 22.8 12C22.8018 13.5761 22.4923 15.1371 21.8891 16.5932C21.2859 18.0494 20.401 19.372 19.2852 20.4852C19.0589 20.7038 18.7558 20.8247 18.4411 20.822C18.1265 20.8193 17.8255 20.6931 17.603 20.4706C17.3805 20.2481 17.2543 19.9471 17.2516 19.6325C17.2489 19.3178 17.3698 19.0147 17.5884 18.7884C18.4814 17.8981 19.1895 16.84 19.672 15.6749C20.1546 14.5099 20.402 13.261 20.4 12C20.4 9.348 19.3272 6.9504 17.5884 5.2116C17.3634 4.98656 17.2371 4.68139 17.2371 4.3632C17.2371 4.045 17.3634 3.73983 17.5884 3.5148V3.5148ZM14.1936 6.9084C14.3051 6.79682 14.4374 6.70831 14.5831 6.64792C14.7288 6.58754 14.8849 6.55645 15.0426 6.55645C15.2003 6.55645 15.3565 6.58754 15.5021 6.64792C15.6478 6.70831 15.7802 6.79682 15.8916 6.9084C16.5611 7.57639 17.092 8.37007 17.4538 9.24385C17.8156 10.1176 18.0012 11.0543 18 12C18.0012 12.9457 17.8155 13.8823 17.4537 14.7561C17.0919 15.6299 16.561 16.4236 15.8916 17.0916C15.6664 17.3168 15.361 17.4433 15.0426 17.4433C14.7242 17.4433 14.4188 17.3168 14.1936 17.0916C13.9684 16.8664 13.8419 16.561 13.8419 16.2426C13.8419 15.9242 13.9684 15.6188 14.1936 15.3936C14.6402 14.9486 14.9944 14.4197 15.2358 13.8373C15.4771 13.2549 15.6009 12.6304 15.6 12C15.601 11.3695 15.4772 10.7451 15.2359 10.1627C14.9945 9.58026 14.6403 9.05134 14.1936 8.6064C14.082 8.49495 13.9935 8.3626 13.9331 8.21692C13.8728 8.07125 13.8417 7.91509 13.8417 7.7574C13.8417 7.5997 13.8728 7.44355 13.9331 7.29787C13.9935 7.15219 14.082 7.01984 14.1936 6.9084V6.9084Z" fill="black"/>
</svg>
