<svg xmlns="http://www.w3.org/2000/svg" xmlns:xlink="http://www.w3.org/1999/xlink" viewBox="0 0 16001.09 2738.57"><defs><style>.cls-1{fill:url(#Dégradé_sans_nom_39);}.cls-2{opacity:0.66;}.cls-3{fill:#fff;}.cls-4{opacity:0.3;}.cls-5{fill:#1d1d1b;}.cls-6{opacity:0.59;}.cls-7{opacity:0.26;}.cls-8{opacity:0.14;}.cls-9{opacity:0.21;}.cls-10{fill:#da8061;}.cls-11{fill:#d77f61;}.cls-12{fill:url(#Dégradé_sans_nom_27);}.cls-13{fill:url(#Dégradé_sans_nom_45);}.cls-14{fill:url(#Dégradé_sans_nom_27-2);}.cls-15{fill:url(#Dégradé_sans_nom_45-2);}.cls-16{fill:url(#Dégradé_sans_nom_45-3);}.cls-17{fill:url(#Dégradé_sans_nom_26);}.cls-18{fill:#5b4153;}.cls-19{fill:url(#Dégradé_sans_nom_26-2);}.cls-20{fill:url(#Dégradé_sans_nom_45-4);}.cls-21{fill:url(#Dégradé_sans_nom_24);}.cls-22{fill:url(#Dégradé_sans_nom_46);}.cls-23{fill:url(#Dégradé_sans_nom_20);}.cls-24{fill:url(#Dégradé_sans_nom_45-5);}.cls-25{fill:url(#Dégradé_sans_nom_45-6);}.cls-26{fill:url(#Dégradé_sans_nom_26-3);}.cls-27{fill:url(#Dégradé_sans_nom_46-2);}.cls-28{fill:url(#Dégradé_sans_nom_26-4);}.cls-29{fill:url(#Dégradé_sans_nom_48);}.cls-30{fill:url(#Dégradé_sans_nom_13);}.cls-31{fill:url(#Dégradé_sans_nom_39-2);}.cls-32{fill:url(#Dégradé_sans_nom_27-3);}.cls-33{fill:url(#Dégradé_sans_nom_45-7);}.cls-34{fill:url(#Dégradé_sans_nom_27-4);}.cls-35{fill:url(#Dégradé_sans_nom_45-8);}.cls-36{fill:url(#Dégradé_sans_nom_45-9);}.cls-37{fill:url(#Dégradé_sans_nom_26-5);}.cls-38{fill:url(#Dégradé_sans_nom_26-6);}.cls-39{fill:url(#Dégradé_sans_nom_45-10);}.cls-40{fill:url(#Dégradé_sans_nom_24-2);}.cls-41{fill:url(#Dégradé_sans_nom_46-3);}.cls-42{fill:url(#Dégradé_sans_nom_20-2);}.cls-43{fill:url(#Dégradé_sans_nom_45-11);}.cls-44{fill:url(#Dégradé_sans_nom_45-12);}.cls-45{fill:url(#Dégradé_sans_nom_26-7);}.cls-46{fill:url(#Dégradé_sans_nom_46-4);}.cls-47{fill:url(#Dégradé_sans_nom_26-8);}.cls-48{fill:url(#Dégradé_sans_nom_48-2);}.cls-49{fill:url(#Dégradé_sans_nom_13-2);}.cls-50{fill:url(#Dégradé_sans_nom_39-3);}.cls-51{fill:url(#Dégradé_sans_nom_27-5);}.cls-52{fill:url(#Dégradé_sans_nom_45-13);}.cls-53{fill:url(#Dégradé_sans_nom_27-6);}.cls-54{fill:url(#Dégradé_sans_nom_45-14);}.cls-55{fill:url(#Dégradé_sans_nom_45-15);}.cls-56{fill:url(#Dégradé_sans_nom_26-9);}.cls-57{fill:url(#Dégradé_sans_nom_26-10);}.cls-58{fill:url(#Dégradé_sans_nom_45-16);}.cls-59{fill:url(#Dégradé_sans_nom_24-3);}.cls-60{fill:url(#Dégradé_sans_nom_46-5);}.cls-61{fill:url(#Dégradé_sans_nom_20-3);}.cls-62{fill:url(#Dégradé_sans_nom_45-17);}.cls-63{fill:url(#Dégradé_sans_nom_45-18);}.cls-64{fill:url(#Dégradé_sans_nom_26-11);}.cls-65{fill:url(#Dégradé_sans_nom_46-6);}.cls-66{fill:url(#Dégradé_sans_nom_26-12);}.cls-67{fill:url(#Dégradé_sans_nom_48-3);}.cls-68{fill:url(#Dégradé_sans_nom_13-3);}</style><linearGradient id="Dégradé_sans_nom_39" x1="2759.35" y1="94.74" x2="2771.38" y2="3173.02" gradientUnits="userSpaceOnUse"><stop offset="0" stop-color="#4b3142"/><stop offset="0.14" stop-color="#4b3142"/><stop offset="0.24" stop-color="#6a424c"/><stop offset="0.37" stop-color="#905757"/><stop offset="0.4" stop-color="#995c59"/><stop offset="0.44" stop-color="#a4625b"/><stop offset="0.48" stop-color="#a8645c"/><stop offset="0.67" stop-color="#eb8b6a"/></linearGradient><linearGradient id="Dégradé_sans_nom_27" x1="1468.81" y1="1951.85" x2="638.71" y2="1221.32" gradientUnits="userSpaceOnUse"><stop offset="0" stop-color="#4d3344"/><stop offset="0.18" stop-color="#814e53"/><stop offset="0.31" stop-color="#965a58"/><stop offset="0.61" stop-color="#c37463"/><stop offset="0.77" stop-color="#d47e67"/><stop offset="0.8" stop-color="#e08e67"/><stop offset="0.85" stop-color="#eb9c68"/><stop offset="0.91" stop-color="#f1a468"/><stop offset="1" stop-color="#f3a768"/></linearGradient><linearGradient id="Dégradé_sans_nom_45" x1="1035.72" y1="1453.56" x2="75.62" y2="1946.16" gradientUnits="userSpaceOnUse"><stop offset="0" stop-color="#6e5665"/><stop offset="0.14" stop-color="#533a4b"/><stop offset="0.39" stop-color="#4d3343"/><stop offset="0.52" stop-color="#4c3343"/><stop offset="0.86" stop-color="#4d3343"/></linearGradient><linearGradient id="Dégradé_sans_nom_27-2" x1="3839.7" y1="2003.32" x2="3009.6" y2="1272.79" xlink:href="#Dégradé_sans_nom_27"/><linearGradient id="Dégradé_sans_nom_45-2" x1="3406.61" y1="1505.03" x2="2446.51" y2="1997.63" xlink:href="#Dégradé_sans_nom_45"/><linearGradient id="Dégradé_sans_nom_45-3" x1="2161.05" y1="1199.93" x2="1969.21" y2="1298.36" xlink:href="#Dégradé_sans_nom_45"/><linearGradient id="Dégradé_sans_nom_26" x1="2372.45" y1="1437.9" x2="2053.88" y2="1157.54" gradientUnits="userSpaceOnUse"><stop offset="0" stop-color="#4d3344"/><stop offset="0.18" stop-color="#814e53"/><stop offset="0.32" stop-color="#965a58"/><stop offset="0.64" stop-color="#c37463"/><stop offset="0.81" stop-color="#d47e67"/><stop offset="0.83" stop-color="#e08e67"/><stop offset="0.87" stop-color="#eb9c68"/><stop offset="0.92" stop-color="#f1a468"/><stop offset="1" stop-color="#f3a768"/></linearGradient><linearGradient id="Dégradé_sans_nom_26-2" x1="4748.04" y1="1490.77" x2="4429.47" y2="1210.41" xlink:href="#Dégradé_sans_nom_26"/><linearGradient id="Dégradé_sans_nom_45-4" x1="1931.62" y1="1406.91" x2="815.82" y2="1979.41" xlink:href="#Dégradé_sans_nom_45"/><linearGradient id="Dégradé_sans_nom_24" x1="2244.24" y1="1830.17" x2="1619.83" y2="1115.06" gradientUnits="userSpaceOnUse"><stop offset="0.24" stop-color="#4d3344"/><stop offset="0.44" stop-color="#814e53"/><stop offset="0.51" stop-color="#965a58"/><stop offset="0.67" stop-color="#c37463"/><stop offset="0.75" stop-color="#d47e67"/><stop offset="0.78" stop-color="#e08e67"/><stop offset="0.84" stop-color="#eb9c68"/><stop offset="0.9" stop-color="#f1a468"/><stop offset="1" stop-color="#f3a768"/></linearGradient><linearGradient id="Dégradé_sans_nom_46" x1="4290.53" y1="1459.25" x2="3174.73" y2="2031.75" gradientUnits="userSpaceOnUse"><stop offset="0" stop-color="#6e5665"/><stop offset="0.23" stop-color="#533a4b"/><stop offset="0.39" stop-color="#4d3343"/><stop offset="0.52" stop-color="#4c3343"/><stop offset="0.86" stop-color="#4d3343"/></linearGradient><linearGradient id="Dégradé_sans_nom_20" x1="691.94" y1="1815.08" x2="-183.24" y2="1157.39" gradientUnits="userSpaceOnUse"><stop offset="0" stop-color="#4d3344"/><stop offset="0.18" stop-color="#814e53"/><stop offset="0.26" stop-color="#965a58"/><stop offset="0.43" stop-color="#c37463"/><stop offset="0.52" stop-color="#d47e67"/><stop offset="0.58" stop-color="#e08e67"/><stop offset="0.66" stop-color="#eb9c68"/><stop offset="0.76" stop-color="#f1a468"/><stop offset="0.92" stop-color="#f3a768"/></linearGradient><linearGradient id="Dégradé_sans_nom_45-5" x1="426.94" y1="1419.79" x2="-64.96" y2="1672.18" xlink:href="#Dégradé_sans_nom_45"/><linearGradient id="Dégradé_sans_nom_45-6" x1="2774.59" y1="1506.84" x2="1778.55" y2="2017.9" xlink:href="#Dégradé_sans_nom_45"/><linearGradient id="Dégradé_sans_nom_26-3" x1="3583.01" y1="2254.42" x2="2543.69" y2="1339.75" xlink:href="#Dégradé_sans_nom_26"/><linearGradient id="Dégradé_sans_nom_46-2" x1="5287.94" y1="1385.29" x2="4446.8" y2="2069.87" xlink:href="#Dégradé_sans_nom_46"/><linearGradient id="Dégradé_sans_nom_26-4" x1="5537.74" y1="2039.43" x2="4864.99" y2="1447.37" xlink:href="#Dégradé_sans_nom_26"/><linearGradient id="Dégradé_sans_nom_48" x1="4482.17" y1="1858.13" x2="4061.06" y2="1027.68" gradientUnits="userSpaceOnUse"><stop offset="0.34" stop-color="#4d3344"/><stop offset="0.54" stop-color="#814e53"/><stop offset="0.59" stop-color="#965a58"/><stop offset="0.69" stop-color="#c37463"/><stop offset="0.75" stop-color="#d47e67"/><stop offset="0.78" stop-color="#e08e67"/><stop offset="0.84" stop-color="#eb9c68"/><stop offset="0.9" stop-color="#f1a468"/><stop offset="1" stop-color="#f3a768"/></linearGradient><linearGradient id="Dégradé_sans_nom_13" y1="2261.57" x2="5524" y2="2261.57" gradientUnits="userSpaceOnUse"><stop offset="0" stop-color="#915657"/><stop offset="0.02" stop-color="#975a59"/><stop offset="0.14" stop-color="#b26a5f"/><stop offset="0.27" stop-color="#c57563"/><stop offset="0.39" stop-color="#d07c66"/><stop offset="0.52" stop-color="#d47e67"/><stop offset="1" stop-color="#f3a768"/></linearGradient><linearGradient id="Dégradé_sans_nom_39-2" x1="8286.04" y1="94.74" x2="8298.07" y2="3173.02" gradientTransform="matrix(1, 0, 0, -1, -1.97, 2738.57)" xlink:href="#Dégradé_sans_nom_39"/><linearGradient id="Dégradé_sans_nom_27-3" x1="6995.5" y1="1951.85" x2="6165.4" y2="1221.32" gradientTransform="matrix(-1, 0, 0, 1, 16580.07, 0)" xlink:href="#Dégradé_sans_nom_27"/><linearGradient id="Dégradé_sans_nom_45-7" x1="6562.41" y1="1453.56" x2="5602.31" y2="1946.16" gradientTransform="matrix(-1, 0, 0, 1, 16580.07, 0)" xlink:href="#Dégradé_sans_nom_45"/><linearGradient id="Dégradé_sans_nom_27-4" x1="9366.39" y1="2003.32" x2="8536.29" y2="1272.79" gradientTransform="matrix(-1, 0, 0, 1, 16580.07, 0)" xlink:href="#Dégradé_sans_nom_27"/><linearGradient id="Dégradé_sans_nom_45-8" x1="8933.3" y1="1505.03" x2="7973.2" y2="1997.63" gradientTransform="matrix(-1, 0, 0, 1, 16580.07, 0)" xlink:href="#Dégradé_sans_nom_45"/><linearGradient id="Dégradé_sans_nom_45-9" x1="7687.74" y1="1199.93" x2="7495.9" y2="1298.36" gradientTransform="matrix(-1, 0, 0, 1, 16580.07, 0)" xlink:href="#Dégradé_sans_nom_45"/><linearGradient id="Dégradé_sans_nom_26-5" x1="7899.14" y1="1437.9" x2="7580.57" y2="1157.54" gradientTransform="matrix(-1, 0, 0, 1, 16580.07, 0)" xlink:href="#Dégradé_sans_nom_26"/><linearGradient id="Dégradé_sans_nom_26-6" x1="10274.73" y1="1490.77" x2="9956.16" y2="1210.41" gradientTransform="matrix(-1, 0, 0, 1, 16580.07, 0)" xlink:href="#Dégradé_sans_nom_26"/><linearGradient id="Dégradé_sans_nom_45-10" x1="7458.31" y1="1406.91" x2="6342.51" y2="1979.41" gradientTransform="matrix(-1, 0, 0, 1, 16580.07, 0)" xlink:href="#Dégradé_sans_nom_45"/><linearGradient id="Dégradé_sans_nom_24-2" x1="7770.93" y1="1830.17" x2="7146.52" y2="1115.06" gradientTransform="matrix(-1, 0, 0, 1, 16580.07, 0)" xlink:href="#Dégradé_sans_nom_24"/><linearGradient id="Dégradé_sans_nom_46-3" x1="9817.22" y1="1459.25" x2="8701.42" y2="2031.75" gradientTransform="matrix(-1, 0, 0, 1, 16580.07, 0)" xlink:href="#Dégradé_sans_nom_46"/><linearGradient id="Dégradé_sans_nom_20-2" x1="6218.63" y1="1815.08" x2="5343.45" y2="1157.39" gradientTransform="matrix(-1, 0, 0, 1, 16580.07, 0)" xlink:href="#Dégradé_sans_nom_20"/><linearGradient id="Dégradé_sans_nom_45-11" x1="5953.63" y1="1419.79" x2="5461.73" y2="1672.18" gradientTransform="matrix(-1, 0, 0, 1, 16580.07, 0)" xlink:href="#Dégradé_sans_nom_45"/><linearGradient id="Dégradé_sans_nom_45-12" x1="8301.28" y1="1506.84" x2="7305.24" y2="2017.9" gradientTransform="matrix(-1, 0, 0, 1, 16580.07, 0)" xlink:href="#Dégradé_sans_nom_45"/><linearGradient id="Dégradé_sans_nom_26-7" x1="9109.7" y1="2254.42" x2="8070.38" y2="1339.75" gradientTransform="matrix(-1, 0, 0, 1, 16580.07, 0)" xlink:href="#Dégradé_sans_nom_26"/><linearGradient id="Dégradé_sans_nom_46-4" x1="10814.63" y1="1385.29" x2="9973.49" y2="2069.87" gradientTransform="matrix(-1, 0, 0, 1, 16580.07, 0)" xlink:href="#Dégradé_sans_nom_46"/><linearGradient id="Dégradé_sans_nom_26-8" x1="11064.43" y1="2039.43" x2="10391.68" y2="1447.37" gradientTransform="matrix(-1, 0, 0, 1, 16580.07, 0)" xlink:href="#Dégradé_sans_nom_26"/><linearGradient id="Dégradé_sans_nom_48-2" x1="10008.86" y1="1858.13" x2="9587.75" y2="1027.68" gradientTransform="matrix(-1, 0, 0, 1, 16580.07, 0)" xlink:href="#Dégradé_sans_nom_48"/><linearGradient id="Dégradé_sans_nom_13-2" x1="5526.69" y1="2261.57" x2="11050.69" y2="2261.57" gradientTransform="matrix(-1, 0, 0, 1, 16580.07, 0)" xlink:href="#Dégradé_sans_nom_13"/><linearGradient id="Dégradé_sans_nom_39-3" x1="13519.06" y1="95.77" x2="13531.08" y2="3171.56" xlink:href="#Dégradé_sans_nom_39"/><linearGradient id="Dégradé_sans_nom_27-5" x1="1477.52" y1="1951.85" x2="647.42" y2="1221.32" gradientTransform="translate(11035.96)" xlink:href="#Dégradé_sans_nom_27"/><linearGradient id="Dégradé_sans_nom_45-13" x1="1044.42" y1="1453.56" x2="84.33" y2="1946.16" gradientTransform="translate(11035.96)" xlink:href="#Dégradé_sans_nom_45"/><linearGradient id="Dégradé_sans_nom_27-6" x1="3848.41" y1="2003.32" x2="3018.31" y2="1272.79" gradientTransform="translate(11035.96)" xlink:href="#Dégradé_sans_nom_27"/><linearGradient id="Dégradé_sans_nom_45-14" x1="3415.32" y1="1505.03" x2="2455.22" y2="1997.63" gradientTransform="translate(11035.96)" xlink:href="#Dégradé_sans_nom_45"/><linearGradient id="Dégradé_sans_nom_45-15" x1="2169.75" y1="1199.93" x2="1977.92" y2="1298.36" gradientTransform="translate(11035.96)" xlink:href="#Dégradé_sans_nom_45"/><linearGradient id="Dégradé_sans_nom_26-9" x1="2381.16" y1="1437.9" x2="2062.59" y2="1157.54" gradientTransform="translate(11035.96)" xlink:href="#Dégradé_sans_nom_26"/><linearGradient id="Dégradé_sans_nom_26-10" x1="4756.75" y1="1490.77" x2="4438.18" y2="1210.41" gradientTransform="translate(11035.96)" xlink:href="#Dégradé_sans_nom_26"/><linearGradient id="Dégradé_sans_nom_45-16" x1="1940.32" y1="1406.91" x2="824.53" y2="1979.41" gradientTransform="translate(11035.96)" xlink:href="#Dégradé_sans_nom_45"/><linearGradient id="Dégradé_sans_nom_24-3" x1="2252.95" y1="1830.17" x2="1628.54" y2="1115.06" gradientTransform="translate(11035.96)" xlink:href="#Dégradé_sans_nom_24"/><linearGradient id="Dégradé_sans_nom_46-5" x1="4299.24" y1="1459.25" x2="3183.44" y2="2031.75" gradientTransform="translate(11035.96)" xlink:href="#Dégradé_sans_nom_46"/><linearGradient id="Dégradé_sans_nom_20-3" x1="700.65" y1="1815.08" x2="-174.53" y2="1157.39" gradientTransform="translate(11035.96)" xlink:href="#Dégradé_sans_nom_20"/><linearGradient id="Dégradé_sans_nom_45-17" x1="435.65" y1="1419.79" x2="-56.25" y2="1672.18" gradientTransform="translate(11035.96)" xlink:href="#Dégradé_sans_nom_45"/><linearGradient id="Dégradé_sans_nom_45-18" x1="2783.3" y1="1506.84" x2="1787.25" y2="2017.9" gradientTransform="translate(11035.96)" xlink:href="#Dégradé_sans_nom_45"/><linearGradient id="Dégradé_sans_nom_26-11" x1="3591.72" y1="2254.42" x2="2552.4" y2="1339.75" gradientTransform="translate(11035.96)" xlink:href="#Dégradé_sans_nom_26"/><linearGradient id="Dégradé_sans_nom_46-6" x1="16138.95" y1="1415.86" x2="15435.27" y2="1988.57" xlink:href="#Dégradé_sans_nom_46"/><linearGradient id="Dégradé_sans_nom_26-12" x1="16010.98" y1="1927.72" x2="15887.2" y2="1818.79" xlink:href="#Dégradé_sans_nom_26"/><linearGradient id="Dégradé_sans_nom_48-3" x1="4490.88" y1="1858.13" x2="4069.77" y2="1027.68" gradientTransform="translate(11035.96)" xlink:href="#Dégradé_sans_nom_48"/><linearGradient id="Dégradé_sans_nom_13-3" x1="11044.68" y1="2261.57" x2="16001.09" y2="2261.57" xlink:href="#Dégradé_sans_nom_13"/></defs><g id="Calque_2" data-name="Calque 2"><g id="Calque_1-2" data-name="Calque 1"><rect class="cls-1" x="2.33" width="5524" height="2738.57"/><g class="cls-2"><ellipse class="cls-3" cx="513.02" cy="493.99" rx="22.82" ry="25.56"/></g><g class="cls-2"><ellipse class="cls-3" cx="1345.83" cy="866.01" rx="22.82" ry="25.56"/></g><g class="cls-2"><ellipse class="cls-3" cx="1661.19" cy="608.41" rx="22.82" ry="25.56"/></g><g class="cls-2"><ellipse class="cls-3" cx="2389.23" cy="1343.05" rx="22.82" ry="25.56"/></g><g class="cls-2"><ellipse class="cls-3" cx="2509.04" cy="608.41" rx="22.82" ry="25.56"/></g><g class="cls-2"><ellipse class="cls-3" cx="2819.96" cy="1085.45" rx="22.82" ry="25.56"/></g><g class="cls-2"><ellipse class="cls-3" cx="3146.39" cy="375.38" rx="22.82" ry="25.56"/></g><g class="cls-2"><ellipse class="cls-3" cx="3538.71" cy="1100.48" rx="22.82" ry="25.56"/></g><g class="cls-2"><ellipse class="cls-3" cx="3833.66" cy="770.6" rx="22.82" ry="25.56"/></g><g class="cls-2"><ellipse class="cls-3" cx="4029.68" cy="341.26" rx="22.82" ry="25.56"/></g><g class="cls-2"><ellipse class="cls-3" cx="4702.59" cy="1304.89" rx="22.82" ry="25.56"/></g><g class="cls-2"><ellipse class="cls-3" cx="4716.02" cy="579.78" rx="22.82" ry="25.56"/></g><g class="cls-4"><path class="cls-5" d="M3921.27,458.25c3.21,0,3.22-5,0-5s-3.23,5,0,5Z"/></g><g class="cls-4"><path class="cls-3" d="M489.84,334.22c3.21,0,3.22-5,0-5s-3.23,5,0,5Z"/></g><g class="cls-4"><path class="cls-3" d="M1034.69,439.17c3.22,0,3.23-5,0-5s-3.22,5,0,5Z"/></g><g class="cls-6"><path class="cls-3" d="M2217.14,584.78a5,5,0,1,0-5-5,5.09,5.09,0,0,0,5,5Z"/></g><g class="cls-7"><path class="cls-3" d="M2820,871a5,5,0,1,0-5-5,5.05,5.05,0,0,0,5,5Z"/></g><g class="cls-7"><path class="cls-3" d="M1591.14,918.71a5,5,0,1,0-5-5,5.05,5.05,0,0,0,5,5Z"/></g><g class="cls-7"><path class="cls-3" d="M3040.22,260.4a5,5,0,1,0-5-5,5,5,0,0,0,5,5Z"/></g><g class="cls-7"><path class="cls-3" d="M3422.78,899.63a5,5,0,1,0-5-5,5.05,5.05,0,0,0,5,5Z"/></g><g class="cls-7"><path class="cls-3" d="M4141.53,279.48a5,5,0,1,0-5-5,5.06,5.06,0,0,0,5,5Z"/></g><g class="cls-7"><path class="cls-3" d="M4141.53,937.79a5,5,0,1,0-5-5,5.05,5.05,0,0,0,5,5Z"/></g><g class="cls-7"><path class="cls-3" d="M5138.5,775.6a5,5,0,1,0-5-5,5.06,5.06,0,0,0,5,5Z"/></g><g class="cls-7"><path class="cls-3" d="M4976.2,346.26a5,5,0,1,0-5-5,5.05,5.05,0,0,0,5,5Z"/></g><g class="cls-7"><path class="cls-3" d="M4524.09,661.11a5,5,0,1,0-5-5,5.06,5.06,0,0,0,5,5Z"/></g><g class="cls-7"><path class="cls-3" d="M3388,479.84a5,5,0,1,0-5-5,5.1,5.1,0,0,0,5,5Z"/></g><g class="cls-7"><path class="cls-3" d="M3538.71,1309.89a5,5,0,1,0-5-5,5.06,5.06,0,0,0,5,5Z"/></g><g class="cls-7"><path class="cls-3" d="M1579.55,1348.05a5,5,0,1,0-5-5,5.06,5.06,0,0,0,5,5Z"/></g><g class="cls-7"><path class="cls-3" d="M814.43,1166.77a5,5,0,1,0-5-5,5.05,5.05,0,0,0,5,5Z"/></g><g class="cls-7"><path class="cls-3" d="M1150.62,651.57a5,5,0,1,0-5-5,5.06,5.06,0,0,0,5,5Z"/></g><g class="cls-7"><path class="cls-3" d="M339.13,909.17a5,5,0,1,0-5-5,5.05,5.05,0,0,0,5,5Z"/></g><g class="cls-7"><path class="cls-3" d="M513,355.81a5,5,0,1,0-5-5,5.05,5.05,0,0,0,5,5Z"/></g><g class="cls-7"><path class="cls-3" d="M872.4,756.52a5,5,0,1,0-5-5,5.06,5.06,0,0,0,5,5Z"/></g><g class="cls-7"><path class="cls-3" d="M872.4,222.23a5,5,0,1,0-5-5,5.06,5.06,0,0,0,5,5Z"/></g><g class="cls-7"><path class="cls-3" d="M1765,680.19a5,5,0,1,0-5-5,5.05,5.05,0,0,0,5,5Z"/></g><g class="cls-8"><path class="cls-3" d="M791.25,759c3.92,0,7.68-3.45,7.5-7.5a7.64,7.64,0,0,0-7.5-7.5c-3.93,0-7.69,3.45-7.5,7.5a7.63,7.63,0,0,0,7.5,7.5Z"/></g><g class="cls-8"><path class="cls-3" d="M536.21,730.4c3.92,0,7.68-3.45,7.5-7.5a7.63,7.63,0,0,0-7.5-7.5c-3.93,0-7.68,3.45-7.5,7.5a7.63,7.63,0,0,0,7.5,7.5Z"/></g><g class="cls-8"><path class="cls-3" d="M1440.44,1169.27c3.92,0,7.68-3.45,7.5-7.5a7.64,7.64,0,0,0-7.5-7.5c-3.93,0-7.69,3.45-7.5,7.5a7.62,7.62,0,0,0,7.5,7.5Z"/></g><g class="cls-8"><path class="cls-3" d="M2020.07,1016.62c3.92,0,7.68-3.45,7.5-7.5a7.63,7.63,0,0,0-7.5-7.5c-3.92,0-7.68,3.45-7.5,7.5a7.63,7.63,0,0,0,7.5,7.5Z"/></g><g class="cls-8"><path class="cls-3" d="M1521.58,346.26a5,5,0,1,0-5-5,5,5,0,0,0,5,5Z"/></g><g class="cls-8"><path class="cls-3" d="M2472.18,358.31c3.93,0,7.68-3.45,7.5-7.5a7.62,7.62,0,0,0-7.5-7.5c-3.92,0-7.68,3.45-7.5,7.5a7.64,7.64,0,0,0,7.5,7.5Z"/></g><g class="cls-8"><path class="cls-3" d="M2622.89,883.05c3.92,0,7.68-3.45,7.5-7.5a7.63,7.63,0,0,0-7.5-7.5c-3.92,0-7.68,3.45-7.5,7.5a7.63,7.63,0,0,0,7.5,7.5Z"/></g><g class="cls-8"><path class="cls-3" d="M3446,883.05c3.92,0,7.68-3.45,7.5-7.5a7.63,7.63,0,0,0-7.5-7.5c-3.93,0-7.68,3.45-7.5,7.5a7.63,7.63,0,0,0,7.5,7.5Z"/></g><g class="cls-8"><path class="cls-3" d="M3446,482.34c3.92,0,7.68-3.45,7.5-7.5a7.63,7.63,0,0,0-7.5-7.5c-3.93,0-7.68,3.45-7.5,7.5a7.63,7.63,0,0,0,7.5,7.5Z"/></g><g class="cls-8"><path class="cls-3" d="M4269.05,463.25c3.92,0,7.68-3.45,7.5-7.5a7.63,7.63,0,0,0-7.5-7.5c-3.93,0-7.68,3.45-7.5,7.5a7.62,7.62,0,0,0,7.5,7.5Z"/></g><g class="cls-8"><path class="cls-3" d="M4408.16,854.43c3.92,0,7.68-3.45,7.5-7.5a7.63,7.63,0,0,0-7.5-7.5c-3.92,0-7.68,3.45-7.5,7.5a7.63,7.63,0,0,0,7.5,7.5Z"/></g><g class="cls-8"><path class="cls-3" d="M5115.31,1236.06c3.93,0,7.68-3.45,7.5-7.5a7.63,7.63,0,0,0-7.5-7.5c-3.92,0-7.68,3.45-7.5,7.5a7.63,7.63,0,0,0,7.5,7.5Z"/></g><g class="cls-8"><path class="cls-3" d="M4269.05,1446c3.92,0,7.68-3.45,7.5-7.5a7.63,7.63,0,0,0-7.5-7.5c-3.93,0-7.68,3.45-7.5,7.5a7.63,7.63,0,0,0,7.5,7.5Z"/></g><g class="cls-8"><path class="cls-3" d="M3341.63,1169.27c3.93,0,7.69-3.45,7.5-7.5a7.63,7.63,0,0,0-7.5-7.5c-3.92,0-7.68,3.45-7.5,7.5a7.63,7.63,0,0,0,7.5,7.5Z"/></g><g class="cls-8"><path class="cls-3" d="M2634.48,1197.9c3.92,0,7.68-3.45,7.5-7.5a7.62,7.62,0,0,0-7.5-7.5c-3.92,0-7.68,3.45-7.5,7.5a7.63,7.63,0,0,0,7.5,7.5Z"/></g><g class="cls-8"><path class="cls-3" d="M3133,520.5c3.92,0,7.68-3.45,7.5-7.5a7.64,7.64,0,0,0-7.5-7.5c-3.93,0-7.69,3.45-7.5,7.5a7.63,7.63,0,0,0,7.5,7.5Z"/></g><g class="cls-8"><path class="cls-3" d="M3967.64,615.91c3.92,0,7.68-3.45,7.5-7.5a7.63,7.63,0,0,0-7.5-7.5c-3.93,0-7.68,3.45-7.5,7.5a7.63,7.63,0,0,0,7.5,7.5Z"/></g><g class="cls-8"><path class="cls-3" d="M3759,272.44c3.92,0,7.68-3.45,7.5-7.5a7.63,7.63,0,0,0-7.5-7.5c-3.92,0-7.68,3.45-7.5,7.5a7.63,7.63,0,0,0,7.5,7.5Z"/></g><g class="cls-8"><path class="cls-3" d="M2762,520.5c3.92,0,7.68-3.45,7.5-7.5a7.63,7.63,0,0,0-7.5-7.5c-3.92,0-7.68,3.45-7.5,7.5a7.63,7.63,0,0,0,7.5,7.5Z"/></g><g class="cls-8"><path class="cls-3" d="M2460.59,129.33c3.92,0,7.68-3.45,7.5-7.5a7.62,7.62,0,0,0-7.5-7.5c-3.92,0-7.68,3.45-7.5,7.5a7.63,7.63,0,0,0,7.5,7.5Z"/></g><g class="cls-8"><path class="cls-3" d="M1985.29,320.14c3.92,0,7.68-3.45,7.5-7.5a7.63,7.63,0,0,0-7.5-7.5c-3.92,0-7.68,3.45-7.5,7.5a7.63,7.63,0,0,0,7.5,7.5Z"/></g><g class="cls-8"><path class="cls-3" d="M1463.62,759c3.92,0,7.68-3.45,7.5-7.5a7.63,7.63,0,0,0-7.5-7.5c-3.92,0-7.68,3.45-7.5,7.5a7.63,7.63,0,0,0,7.5,7.5Z"/></g><g class="cls-8"><path class="cls-3" d="M1127.43,301.06c3.93,0,7.69-3.45,7.5-7.5a7.63,7.63,0,0,0-7.5-7.5c-3.92,0-7.68,3.45-7.5,7.5a7.64,7.64,0,0,0,7.5,7.5Z"/></g><g class="cls-8"><path class="cls-3" d="M281.17,91.16c3.92,0,7.68-3.45,7.5-7.5a7.63,7.63,0,0,0-7.5-7.5c-3.92,0-7.68,3.45-7.5,7.5a7.62,7.62,0,0,0,7.5,7.5Z"/></g><g class="cls-8"><path class="cls-3" d="M281.17,711.32c3.92,0,7.68-3.45,7.5-7.5a7.63,7.63,0,0,0-7.5-7.5c-3.92,0-7.68,3.45-7.5,7.5a7.63,7.63,0,0,0,7.5,7.5Z"/></g><g class="cls-8"><path class="cls-3" d="M1023.1,1197.9c3.92,0,7.68-3.45,7.5-7.5a7.63,7.63,0,0,0-7.5-7.5c-3.92,0-7.68,3.45-7.5,7.5a7.63,7.63,0,0,0,7.5,7.5Z"/></g><g class="cls-8"><path class="cls-3" d="M2877.93,1531.83c3.92,0,7.68-3.45,7.5-7.5a7.63,7.63,0,0,0-7.5-7.5c-3.93,0-7.68,3.45-7.5,7.5a7.63,7.63,0,0,0,7.5,7.5Z"/></g><g class="cls-8"><path class="cls-3" d="M4072,1312.39c3.92,0,7.68-3.45,7.5-7.5a7.62,7.62,0,0,0-7.5-7.5c-3.92,0-7.68,3.45-7.5,7.5a7.63,7.63,0,0,0,7.5,7.5Z"/></g><g class="cls-8"><path class="cls-3" d="M4790.72,1093c3.92,0,7.68-3.45,7.5-7.5a7.63,7.63,0,0,0-7.5-7.5c-3.93,0-7.68,3.45-7.5,7.5a7.63,7.63,0,0,0,7.5,7.5Z"/></g><g class="cls-8"><path class="cls-3" d="M3944.45,367.85c3.93,0,7.68-3.45,7.5-7.5a7.62,7.62,0,0,0-7.5-7.5c-3.92,0-7.68,3.45-7.5,7.5a7.63,7.63,0,0,0,7.5,7.5Z"/></g><g class="cls-8"><path class="cls-3" d="M4871.87,367.85c3.92,0,7.68-3.45,7.5-7.5a7.63,7.63,0,0,0-7.5-7.5c-3.93,0-7.69,3.45-7.5,7.5a7.63,7.63,0,0,0,7.5,7.5Z"/></g><path class="cls-3" d="M1794.7,1223.65c3.22,0,3.22-5,0-5s-3.22,5,0,5Z"/><path class="cls-3" d="M1993.77,1339.3c3.22,0,3.22-5,0-5s-3.22,5,0,5Z"/><path class="cls-3" d="M319.24,1108c3.21,0,3.22-5,0-5s-3.23,5,0,5Z"/><g class="cls-9"><path class="cls-3" d="M1361.43,1366.07c5.23,0,10.24-4.6,10-10a10.18,10.18,0,0,0-10-10c-5.23,0-10.24,4.6-10,10a10.17,10.17,0,0,0,10,10Z"/></g><g class="cls-9"><path class="cls-3" d="M893,903.48c5.23,0,10.24-4.6,10-10a10.18,10.18,0,0,0-10-10c-5.23,0-10.24,4.6-10,10a10.18,10.18,0,0,0,10,10Z"/></g><g class="cls-9"><path class="cls-3" d="M2075.74,1144.41c5.23,0,10.24-4.6,10-10a10.18,10.18,0,0,0-10-10c-5.23,0-10.24,4.6-10,10a10.17,10.17,0,0,0,10,10Z"/></g><g class="cls-9"><path class="cls-3" d="M4019.6,1337.16c5.23,0,10.24-4.6,10-10a10.17,10.17,0,0,0-10-10c-5.23,0-10.24,4.6-10,10a10.17,10.17,0,0,0,10,10Z"/></g><g class="cls-9"><path class="cls-3" d="M5155.47,1183c5.23,0,10.24-4.6,10-10a10.17,10.17,0,0,0-10-10c-5.23,0-10.24,4.6-10,10a10.17,10.17,0,0,0,10,10Z"/></g><g class="cls-9"><path class="cls-3" d="M5284.28,286.68c5.23,0,10.24-4.6,10-10a10.18,10.18,0,0,0-10-10c-5.23,0-10.24,4.6-10,10a10.17,10.17,0,0,0,10,10Z"/></g><g class="cls-9"><path class="cls-3" d="M5331.12,836c5.23,0,10.24-4.6,10-10a10.18,10.18,0,0,0-10-10c-5.23,0-10.24,4.6-10,10a10.17,10.17,0,0,0,10,10Z"/></g><g class="cls-9"><path class="cls-3" d="M1818.12,1438.17a5,5,0,1,0-5-5,5.06,5.06,0,0,0,5,5Z"/></g><g class="cls-9"><path class="cls-3" d="M307.53,1168.32a5,5,0,1,0-5-5,5.06,5.06,0,0,0,5,5Z"/></g><g class="cls-9"><path class="cls-3" d="M3422.39,1438.17a5,5,0,1,0-5-5,5.06,5.06,0,0,0,5,5Z"/></g><g class="cls-9"><path class="cls-3" d="M3399,657.54a5,5,0,1,0-5-5,5.06,5.06,0,0,0,5,5Z"/></g><g class="cls-9"><path class="cls-3" d="M3469.23,146.76a5,5,0,1,0-5-5,5.06,5.06,0,0,0,5,5Z"/></g><g class="cls-9"><path class="cls-3" d="M4464.58,1100.86a5,5,0,1,0-5-5,5.06,5.06,0,0,0,5,5Z"/></g><g class="cls-9"><path class="cls-3" d="M5237.44,522.62a5,5,0,1,0-5-5,5.05,5.05,0,0,0,5,5Z"/></g><g class="cls-9"><path class="cls-3" d="M4452.87,185.31a5,5,0,1,0-5-5,5.06,5.06,0,0,0,5,5Z"/></g><polygon class="cls-10" points="4678.15 1349.05 4751.47 1316.79 4842.4 1357.85 4747.07 1409.18 4678.15 1349.05"/><polygon class="cls-10" points="3362.69 1331.45 3526.94 1259.6 3704.39 1331.45 3533.54 1444.38 3362.69 1331.45"/><polygon class="cls-10" points="5309.68 1390.66 5526.69 1297.74 5525.97 1420.46 5525.97 1512.85 5309.68 1390.66"/><polygon class="cls-11" points="411.31 1296.02 493.84 1256.94 574.89 1296.02 502.05 1349.21 411.31 1296.02"/><polygon class="cls-11" points="1.97 1204.15 154.42 1273.17 1.97 1344.74 1.97 1204.15"/><polygon class="cls-11" points="493.84 1256.94 582.81 1296.39 493.84 1335.09 432.6 1282.87 493.84 1256.94"/><polygon class="cls-10" points="1158.88 1218.72 1345.46 1292.51 1115.66 1404.25 999.71 1278.81 1158.88 1218.72"/><polygon class="cls-10" points="2487.68 1326.12 2383.39 1277.32 2258.03 1326.12 2372.86 1354.61 2487.68 1326.12"/><path class="cls-12" d="M857.53,1106.27l840.41,710.22-644,2.35S503,1554.62,592.68,1434.9c70.75-94.47,183.9-242,233.07-301.05C838.89,1118.05,857.53,1106.27,857.53,1106.27Z"/><path class="cls-13" d="M461.44,1329.63l396.09-223.36s-46.47,27.91-12.2,53.17,10.82,36.07-14.43,38.78-59.53,9.92-5.41,31.56,59.52,41.49,6.31,64.94-202,75.76-124.46,144.31,476.06,377.46,476.06,377.46L2,1802.61V1561.8Z"/><path class="cls-14" d="M3228.42,1157.74,4068.83,1868l-644,2.35s-550.9-264.22-461.23-383.94c70.76-94.47,183.9-242,233.07-301C3209.78,1169.52,3228.42,1157.74,3228.42,1157.74Z"/><path class="cls-15" d="M2832.33,1381.1l396.09-223.36s-46.47,27.91-12.2,53.17,10.82,36.07-14.43,38.78-59.53,9.92-5.41,31.57,59.52,41.48,6.31,64.93-202,75.76-124.46,144.31S3554.29,1868,3554.29,1868l-1181.43-13.88V1613.27Z"/><polygon class="cls-16" points="2098.19 1106.27 1924.09 1210.42 2104.98 1354.61 2189.74 1255.86 2098.19 1106.27"/><path class="cls-17" d="M2098.19,1106.27s-27.76,57,7.22,100.18c0,0,68.6,54.79-8.84,109.58L2243,1439.6l185.36-73.45Z"/><polygon class="cls-18" points="4481.71 1150.13 4307.61 1254.28 4488.5 1398.46 4573.26 1299.72 4481.71 1150.13"/><path class="cls-19" d="M4481.71,1150.13s-27.76,57,7.22,100.17c0,0,68.11,56.31-26,126.45l163.57,106.7L4811.84,1410Z"/><polygon class="cls-20" points="1724.61 1003.45 630.8 1618.82 790.43 1816.98 2126.72 1816.49 1724.61 1003.45"/><path class="cls-21" d="M1724.61,1003.45s-103.45,47.76-39.93,102.82c0,0,79.85,35.1-9.07,85.92s-274,192.37-165.16,277.67,399.27,294,597.09,346.63l345.38-230.44Z"/><polygon class="cls-22" points="4083.52 1055.79 2989.72 1671.16 3149.35 1869.32 4485.63 1868.83 4083.52 1055.79"/><path class="cls-23" d="M289.17,1152.62l814.29,663.87H312.27S-355.07,1708.57,289.17,1152.62Z"/><path class="cls-24" d="M2,1322.68l287.2-170.06s75.21,107.92-45.79,209.3-274.7,192.95-209.29,264.89c0,0,101.8,134.08,278.18,189.68L2,1802.61Z"/><path class="cls-25" d="M2669.58,1193.7s1043.29,720.21-286.19,672.67l-444.06-59.12,269.2-396.72Z"/><path class="cls-26" d="M2669.58,1193.7s134.11,110.23-23.88,172.69c0,0-93.7,7.35,20.21,115.74,0,0,117.58,79-31.23,200.25s-216.48,156.14-251.29,184H3900.78Z"/><path class="cls-27" d="M5054.19,1230.44s1043.29,720.21-286.2,672.68L4323.93,1844l269.2-396.72Z"/><path class="cls-28" d="M5054.19,1230.44s134.11,110.23-23.89,172.69c0,0-93.69,7.35,20.21,115.75,0,0,117.58,79-31.23,200.25s-216.47,156.14-251.29,184l758.7,131.4V1488.6Z"/><path class="cls-29" d="M4083.52,1055.79s-103.44,47.76-39.92,102.83c0,0,79.85,35.1-9.08,85.91s-274,192.38-165.15,277.68,399.27,294,597.09,346.62l345.38-254Z"/><path class="cls-30" d="M0,1802.61s1624.14-48.69,4006,13.88c0,0,477.71,6.71,1518,115.14v806.94H0Z"/><g class="cls-7"><path class="cls-3" d="M2974.83,2650.16a5,5,0,1,0-5-5,5.06,5.06,0,0,0,5,5Z"/></g><rect class="cls-31" x="5527.05" width="5524" height="2738.57" transform="translate(16578.1 2738.57) rotate(-180)"/><g class="cls-2"><ellipse class="cls-3" cx="10540.36" cy="493.99" rx="22.82" ry="25.56"/></g><g class="cls-2"><ellipse class="cls-3" cx="9707.55" cy="866.01" rx="22.82" ry="25.56"/></g><g class="cls-2"><ellipse class="cls-3" cx="9392.19" cy="608.41" rx="22.82" ry="25.56"/></g><g class="cls-2"><ellipse class="cls-3" cx="8664.15" cy="1343.05" rx="22.82" ry="25.56"/></g><g class="cls-2"><ellipse class="cls-3" cx="8544.34" cy="608.41" rx="22.82" ry="25.56"/></g><g class="cls-2"><ellipse class="cls-3" cx="8233.42" cy="1085.45" rx="22.82" ry="25.56"/></g><g class="cls-2"><ellipse class="cls-3" cx="7906.99" cy="375.38" rx="22.82" ry="25.56"/></g><g class="cls-2"><ellipse class="cls-3" cx="7514.67" cy="1100.48" rx="22.82" ry="25.56"/></g><g class="cls-2"><ellipse class="cls-3" cx="7219.72" cy="770.6" rx="22.82" ry="25.56"/></g><g class="cls-2"><ellipse class="cls-3" cx="7023.7" cy="341.26" rx="22.82" ry="25.56"/></g><g class="cls-2"><ellipse class="cls-3" cx="6350.79" cy="1304.89" rx="22.82" ry="25.56"/></g><g class="cls-2"><ellipse class="cls-3" cx="6337.36" cy="579.78" rx="22.82" ry="25.56"/></g><g class="cls-4"><path class="cls-5" d="M7132.11,458.25c3.22,0,3.23-5,0-5s-3.22,5,0,5Z"/></g><g class="cls-4"><path class="cls-3" d="M10563.54,334.22c3.22,0,3.23-5,0-5s-3.22,5,0,5Z"/></g><g class="cls-4"><path class="cls-3" d="M10018.69,439.17c3.22,0,3.22-5,0-5s-3.22,5,0,5Z"/></g><g class="cls-6"><path class="cls-3" d="M8836.24,584.78a5,5,0,1,0-5-5,5.05,5.05,0,0,0,5,5Z"/></g><g class="cls-7"><path class="cls-3" d="M8233.42,871a5,5,0,1,0-5-5,5.06,5.06,0,0,0,5,5Z"/></g><g class="cls-7"><path class="cls-3" d="M9462.24,918.71a5,5,0,1,0-5-5,5.05,5.05,0,0,0,5,5Z"/></g><g class="cls-7"><path class="cls-3" d="M8013.16,260.4a5,5,0,1,0-5-5,5.06,5.06,0,0,0,5,5Z"/></g><g class="cls-7"><path class="cls-3" d="M7630.6,899.63a5,5,0,1,0-5-5,5.06,5.06,0,0,0,5,5Z"/></g><g class="cls-7"><path class="cls-3" d="M6911.85,279.48a5,5,0,1,0-5-5,5.05,5.05,0,0,0,5,5Z"/></g><g class="cls-7"><path class="cls-3" d="M6911.85,937.79a5,5,0,1,0-5-5,5,5,0,0,0,5,5Z"/></g><g class="cls-7"><path class="cls-3" d="M5914.88,775.6a5,5,0,1,0-5-5,5.05,5.05,0,0,0,5,5Z"/></g><g class="cls-7"><path class="cls-3" d="M6077.18,346.26a5,5,0,1,0-5-5,5.05,5.05,0,0,0,5,5Z"/></g><g class="cls-7"><path class="cls-3" d="M6529.29,661.11a5,5,0,1,0-5-5,5,5,0,0,0,5,5Z"/></g><g class="cls-7"><path class="cls-3" d="M7665.38,479.84a5,5,0,1,0-5-5,5.06,5.06,0,0,0,5,5Z"/></g><g class="cls-7"><path class="cls-3" d="M7514.67,1309.89a5,5,0,1,0-5-5,5.05,5.05,0,0,0,5,5Z"/></g><g class="cls-7"><path class="cls-3" d="M9473.83,1348.05a5,5,0,1,0-5-5,5.05,5.05,0,0,0,5,5Z"/></g><g class="cls-7"><path class="cls-3" d="M10239,1166.77a5,5,0,1,0-5-5,5.06,5.06,0,0,0,5,5Z"/></g><g class="cls-7"><path class="cls-3" d="M9902.76,651.57a5,5,0,1,0-5-5,5.05,5.05,0,0,0,5,5Z"/></g><g class="cls-7"><path class="cls-3" d="M10714.25,909.17a5,5,0,1,0-5-5,5.06,5.06,0,0,0,5,5Z"/></g><g class="cls-7"><path class="cls-3" d="M10540.36,355.81a5,5,0,1,0-5-5,5.06,5.06,0,0,0,5,5Z"/></g><g class="cls-7"><path class="cls-3" d="M10181,756.52a5,5,0,1,0-5-5,5.06,5.06,0,0,0,5,5Z"/></g><g class="cls-7"><path class="cls-3" d="M10181,222.23a5,5,0,1,0-5-5,5.06,5.06,0,0,0,5,5Z"/></g><g class="cls-7"><path class="cls-3" d="M9288.35,680.19a5,5,0,1,0-5-5,5.05,5.05,0,0,0,5,5Z"/></g><g class="cls-8"><path class="cls-3" d="M10262.13,759c3.93,0,7.69-3.45,7.5-7.5a7.63,7.63,0,0,0-7.5-7.5c-3.92,0-7.68,3.45-7.5,7.5a7.64,7.64,0,0,0,7.5,7.5Z"/></g><g class="cls-8"><path class="cls-3" d="M10517.17,730.4c3.93,0,7.68-3.45,7.5-7.5a7.62,7.62,0,0,0-7.5-7.5c-3.92,0-7.68,3.45-7.5,7.5a7.63,7.63,0,0,0,7.5,7.5Z"/></g><g class="cls-8"><path class="cls-3" d="M9612.94,1169.27c3.93,0,7.69-3.45,7.5-7.5a7.63,7.63,0,0,0-7.5-7.5c-3.92,0-7.68,3.45-7.5,7.5a7.63,7.63,0,0,0,7.5,7.5Z"/></g><g class="cls-8"><path class="cls-3" d="M9033.31,1016.62c3.92,0,7.68-3.45,7.5-7.5a7.63,7.63,0,0,0-7.5-7.5c-3.92,0-7.68,3.45-7.5,7.5a7.63,7.63,0,0,0,7.5,7.5Z"/></g><g class="cls-8"><path class="cls-3" d="M9531.8,346.26a5,5,0,1,0-5-5,5.06,5.06,0,0,0,5,5Z"/></g><g class="cls-8"><path class="cls-3" d="M8581.2,358.31c3.92,0,7.68-3.45,7.5-7.5a7.63,7.63,0,0,0-7.5-7.5c-3.93,0-7.68,3.45-7.5,7.5a7.63,7.63,0,0,0,7.5,7.5Z"/></g><g class="cls-8"><path class="cls-3" d="M8430.49,883.05c3.93,0,7.68-3.45,7.5-7.5a7.63,7.63,0,0,0-7.5-7.5c-3.92,0-7.68,3.45-7.5,7.5a7.63,7.63,0,0,0,7.5,7.5Z"/></g><g class="cls-8"><path class="cls-3" d="M7607.41,883.05c3.93,0,7.68-3.45,7.5-7.5a7.63,7.63,0,0,0-7.5-7.5c-3.92,0-7.68,3.45-7.5,7.5a7.63,7.63,0,0,0,7.5,7.5Z"/></g><g class="cls-8"><path class="cls-3" d="M7607.41,482.34c3.93,0,7.68-3.45,7.5-7.5a7.62,7.62,0,0,0-7.5-7.5c-3.92,0-7.68,3.45-7.5,7.5a7.63,7.63,0,0,0,7.5,7.5Z"/></g><g class="cls-8"><path class="cls-3" d="M6784.33,463.25c3.93,0,7.68-3.45,7.5-7.5a7.63,7.63,0,0,0-7.5-7.5c-3.92,0-7.68,3.45-7.5,7.5a7.63,7.63,0,0,0,7.5,7.5Z"/></g><g class="cls-8"><path class="cls-3" d="M6645.22,854.43c3.92,0,7.68-3.45,7.5-7.5a7.62,7.62,0,0,0-7.5-7.5c-3.92,0-7.68,3.45-7.5,7.5a7.63,7.63,0,0,0,7.5,7.5Z"/></g><g class="cls-8"><path class="cls-3" d="M5938.07,1236.06c3.92,0,7.68-3.45,7.5-7.5a7.63,7.63,0,0,0-7.5-7.5c-3.92,0-7.68,3.45-7.5,7.5a7.63,7.63,0,0,0,7.5,7.5Z"/></g><g class="cls-8"><path class="cls-3" d="M6784.33,1446c3.93,0,7.68-3.45,7.5-7.5a7.62,7.62,0,0,0-7.5-7.5c-3.92,0-7.68,3.45-7.5,7.5a7.64,7.64,0,0,0,7.5,7.5Z"/></g><g class="cls-8"><path class="cls-3" d="M7711.75,1169.27c3.92,0,7.68-3.45,7.5-7.5a7.64,7.64,0,0,0-7.5-7.5c-3.93,0-7.68,3.45-7.5,7.5a7.62,7.62,0,0,0,7.5,7.5Z"/></g><g class="cls-8"><path class="cls-3" d="M8418.9,1197.9c3.92,0,7.68-3.45,7.5-7.5a7.63,7.63,0,0,0-7.5-7.5c-3.92,0-7.68,3.45-7.5,7.5a7.63,7.63,0,0,0,7.5,7.5Z"/></g><g class="cls-8"><path class="cls-3" d="M7920.41,520.5c3.93,0,7.69-3.45,7.5-7.5a7.63,7.63,0,0,0-7.5-7.5c-3.92,0-7.68,3.45-7.5,7.5a7.64,7.64,0,0,0,7.5,7.5Z"/></g><g class="cls-8"><path class="cls-3" d="M7085.74,615.91c3.93,0,7.68-3.45,7.5-7.5a7.62,7.62,0,0,0-7.5-7.5c-3.92,0-7.68,3.45-7.5,7.5a7.63,7.63,0,0,0,7.5,7.5Z"/></g><g class="cls-8"><path class="cls-3" d="M7294.41,272.44c3.92,0,7.68-3.45,7.5-7.5a7.62,7.62,0,0,0-7.5-7.5c-3.92,0-7.68,3.45-7.5,7.5a7.63,7.63,0,0,0,7.5,7.5Z"/></g><g class="cls-8"><path class="cls-3" d="M8291.38,520.5c3.92,0,7.68-3.45,7.5-7.5a7.63,7.63,0,0,0-7.5-7.5c-3.92,0-7.68,3.45-7.5,7.5a7.63,7.63,0,0,0,7.5,7.5Z"/></g><g class="cls-8"><path class="cls-3" d="M8592.79,129.33c3.92,0,7.68-3.45,7.5-7.5a7.63,7.63,0,0,0-7.5-7.5c-3.92,0-7.68,3.45-7.5,7.5a7.63,7.63,0,0,0,7.5,7.5Z"/></g><g class="cls-8"><path class="cls-3" d="M9068.09,320.14c3.92,0,7.68-3.45,7.5-7.5a7.63,7.63,0,0,0-7.5-7.5c-3.92,0-7.68,3.45-7.5,7.5a7.62,7.62,0,0,0,7.5,7.5Z"/></g><g class="cls-8"><path class="cls-3" d="M9589.76,759c3.92,0,7.68-3.45,7.5-7.5a7.63,7.63,0,0,0-7.5-7.5c-3.92,0-7.68,3.45-7.5,7.5a7.63,7.63,0,0,0,7.5,7.5Z"/></g><g class="cls-8"><path class="cls-3" d="M9926,301.06c3.92,0,7.68-3.45,7.5-7.5a7.64,7.64,0,0,0-7.5-7.5c-3.93,0-7.68,3.45-7.5,7.5a7.63,7.63,0,0,0,7.5,7.5Z"/></g><g class="cls-8"><path class="cls-3" d="M10772.21,91.16c3.92,0,7.68-3.45,7.5-7.5a7.63,7.63,0,0,0-7.5-7.5c-3.92,0-7.68,3.45-7.5,7.5a7.63,7.63,0,0,0,7.5,7.5Z"/></g><g class="cls-8"><path class="cls-3" d="M10772.21,711.32c3.92,0,7.68-3.45,7.5-7.5a7.62,7.62,0,0,0-7.5-7.5c-3.92,0-7.68,3.45-7.5,7.5a7.63,7.63,0,0,0,7.5,7.5Z"/></g><g class="cls-8"><path class="cls-3" d="M10030.28,1197.9c3.92,0,7.68-3.45,7.5-7.5a7.62,7.62,0,0,0-7.5-7.5c-3.92,0-7.68,3.45-7.5,7.5a7.63,7.63,0,0,0,7.5,7.5Z"/></g><g class="cls-8"><path class="cls-3" d="M8175.45,1531.83c3.93,0,7.68-3.45,7.5-7.5a7.62,7.62,0,0,0-7.5-7.5c-3.92,0-7.68,3.45-7.5,7.5a7.64,7.64,0,0,0,7.5,7.5Z"/></g><g class="cls-8"><path class="cls-3" d="M6981.41,1312.39c3.92,0,7.68-3.45,7.5-7.5a7.63,7.63,0,0,0-7.5-7.5c-3.92,0-7.68,3.45-7.5,7.5a7.63,7.63,0,0,0,7.5,7.5Z"/></g><g class="cls-8"><path class="cls-3" d="M6262.66,1093c3.93,0,7.68-3.45,7.5-7.5a7.62,7.62,0,0,0-7.5-7.5c-3.92,0-7.68,3.45-7.5,7.5a7.63,7.63,0,0,0,7.5,7.5Z"/></g><g class="cls-8"><path class="cls-3" d="M7108.93,367.85c3.92,0,7.68-3.45,7.5-7.5a7.63,7.63,0,0,0-7.5-7.5c-3.93,0-7.68,3.45-7.5,7.5a7.63,7.63,0,0,0,7.5,7.5Z"/></g><g class="cls-8"><path class="cls-3" d="M6181.51,367.85c3.93,0,7.69-3.45,7.5-7.5a7.62,7.62,0,0,0-7.5-7.5c-3.92,0-7.68,3.45-7.5,7.5a7.64,7.64,0,0,0,7.5,7.5Z"/></g><path class="cls-3" d="M9258.68,1223.65c3.22,0,3.22-5,0-5s-3.22,5,0,5Z"/><path class="cls-3" d="M9059.61,1339.3c3.22,0,3.22-5,0-5s-3.22,5,0,5Z"/><path class="cls-3" d="M10734.14,1108c3.22,0,3.23-5,0-5s-3.22,5,0,5Z"/><g class="cls-9"><path class="cls-3" d="M9692,1366.07c5.23,0,10.24-4.6,10-10a10.17,10.17,0,0,0-10-10c-5.23,0-10.24,4.6-10,10a10.18,10.18,0,0,0,10,10Z"/></g><g class="cls-9"><path class="cls-3" d="M10160.35,903.48c5.23,0,10.24-4.6,10-10a10.17,10.17,0,0,0-10-10c-5.23,0-10.24,4.6-10,10a10.19,10.19,0,0,0,10,10Z"/></g><g class="cls-9"><path class="cls-3" d="M8977.64,1144.41c5.23,0,10.24-4.6,10-10a10.17,10.17,0,0,0-10-10c-5.23,0-10.24,4.6-10,10a10.18,10.18,0,0,0,10,10Z"/></g><g class="cls-9"><path class="cls-3" d="M7033.78,1337.16c5.23,0,10.24-4.6,10-10a10.17,10.17,0,0,0-10-10c-5.23,0-10.24,4.6-10,10a10.17,10.17,0,0,0,10,10Z"/></g><g class="cls-9"><path class="cls-3" d="M5897.91,1183c5.23,0,10.24-4.6,10-10a10.17,10.17,0,0,0-10-10c-5.23,0-10.24,4.6-10,10a10.17,10.17,0,0,0,10,10Z"/></g><g class="cls-9"><path class="cls-3" d="M5769.1,286.68c5.23,0,10.24-4.6,10-10a10.18,10.18,0,0,0-10-10c-5.23,0-10.24,4.6-10,10a10.17,10.17,0,0,0,10,10Z"/></g><g class="cls-9"><path class="cls-3" d="M5722.26,836c5.23,0,10.24-4.6,10-10a10.18,10.18,0,0,0-10-10c-5.23,0-10.24,4.6-10,10a10.17,10.17,0,0,0,10,10Z"/></g><g class="cls-9"><path class="cls-3" d="M9235.26,1438.17a5,5,0,1,0-5-5,5.05,5.05,0,0,0,5,5Z"/></g><g class="cls-9"><path class="cls-3" d="M10745.85,1168.32a5,5,0,1,0-5-5,5.05,5.05,0,0,0,5,5Z"/></g><g class="cls-9"><path class="cls-3" d="M7631,1438.17a5,5,0,1,0-5-5,5.05,5.05,0,0,0,5,5Z"/></g><g class="cls-9"><path class="cls-3" d="M7654.41,657.54a5,5,0,1,0-5-5,5.05,5.05,0,0,0,5,5Z"/></g><g class="cls-9"><path class="cls-3" d="M7584.15,146.76a5,5,0,1,0-5-5,5.05,5.05,0,0,0,5,5Z"/></g><g class="cls-9"><path class="cls-3" d="M6588.8,1100.86a5,5,0,1,0-5-5,5.05,5.05,0,0,0,5,5Z"/></g><g class="cls-9"><path class="cls-3" d="M5815.94,522.62a5,5,0,1,0-5-5,5.05,5.05,0,0,0,5,5Z"/></g><g class="cls-9"><path class="cls-3" d="M6600.51,185.31a5,5,0,1,0-5-5,5.05,5.05,0,0,0,5,5Z"/></g><polygon class="cls-10" points="6375.23 1349.05 6301.91 1316.79 6210.98 1357.85 6306.31 1409.18 6375.23 1349.05"/><polygon class="cls-10" points="7690.69 1331.45 7526.44 1259.6 7348.99 1331.45 7519.84 1444.38 7690.69 1331.45"/><polygon class="cls-10" points="5743.7 1390.66 5526.69 1297.74 5527.41 1420.46 5527.41 1512.85 5743.7 1390.66"/><polygon class="cls-11" points="10642.07 1296.02 10559.54 1256.94 10478.49 1296.02 10551.33 1349.21 10642.07 1296.02"/><polygon class="cls-11" points="11051.42 1204.15 10898.96 1273.17 11051.42 1344.74 11051.42 1204.15"/><polygon class="cls-11" points="10559.54 1256.94 10470.57 1296.39 10559.54 1335.09 10620.78 1282.87 10559.54 1256.94"/><polygon class="cls-10" points="9894.5 1218.72 9707.92 1292.51 9937.72 1404.25 10053.67 1278.81 9894.5 1218.72"/><polygon class="cls-10" points="8565.7 1326.12 8669.99 1277.32 8795.35 1326.12 8680.52 1354.61 8565.7 1326.12"/><path class="cls-32" d="M10195.85,1106.27l-840.41,710.22,644,2.35s550.9-264.22,461.23-383.94c-70.75-94.47-183.9-242-233.06-301.05C10214.49,1118.05,10195.85,1106.27,10195.85,1106.27Z"/><path class="cls-33" d="M10591.94,1329.63l-396.09-223.36s46.48,27.91,12.2,53.17-10.82,36.07,14.43,38.78,59.53,9.92,5.41,31.56-59.52,41.49-6.31,64.94,202,75.76,124.46,144.31S9870,1816.49,9870,1816.49l1181.43-13.88V1561.8Z"/><path class="cls-34" d="M7825,1157.74,6984.55,1868l644,2.35s550.9-264.22,461.23-383.94c-70.76-94.47-183.9-242-233.07-301C7843.6,1169.52,7825,1157.74,7825,1157.74Z"/><path class="cls-35" d="M8221.05,1381.1,7825,1157.74s46.47,27.91,12.2,53.17-10.82,36.07,14.43,38.78,59.53,9.92,5.41,31.57-59.52,41.48-6.31,64.93,202,75.76,124.46,144.31S7499.09,1868,7499.09,1868l1181.43-13.88V1613.27Z"/><polygon class="cls-36" points="8955.19 1106.27 9129.29 1210.42 8948.4 1354.61 8863.64 1255.86 8955.19 1106.27"/><path class="cls-37" d="M8955.19,1106.27s27.76,57-7.22,100.18c0,0-68.6,54.79,8.84,109.58L8810.42,1439.6l-185.36-73.45Z"/><polygon class="cls-18" points="6571.67 1150.13 6745.77 1254.28 6564.88 1398.46 6480.12 1299.72 6571.67 1150.13"/><path class="cls-38" d="M6571.67,1150.13s27.76,57-7.21,100.17c0,0-68.12,56.31,26,126.45l-163.57,106.7L6241.54,1410Z"/><polygon class="cls-39" points="9328.77 1003.45 10422.58 1618.82 10262.95 1816.98 8926.67 1816.49 9328.77 1003.45"/><path class="cls-40" d="M9328.77,1003.45s103.45,47.76,39.93,102.82c0,0-79.85,35.1,9.08,85.92s274,192.37,165.15,277.67-399.27,294-597.09,346.63l-345.38-230.44Z"/><polygon class="cls-41" points="6969.86 1055.79 8063.66 1671.16 7904.03 1869.32 6567.75 1868.83 6969.86 1055.79"/><path class="cls-42" d="M10764.21,1152.62l-814.29,663.87h791.19S11408.45,1708.57,10764.21,1152.62Z"/><path class="cls-43" d="M11051.41,1322.68l-287.2-170.06s-75.21,107.92,45.79,209.3,274.7,192.95,209.29,264.89c0,0-101.8,134.08-278.18,189.68l310.3-13.88Z"/><path class="cls-44" d="M8383.8,1193.7S7340.51,1913.91,8670,1866.37l444.06-59.12-269.2-396.72Z"/><path class="cls-45" d="M8383.8,1193.7s-134.11,110.23,23.88,172.69c0,0,93.7,7.35-20.21,115.74,0,0-117.58,79,31.24,200.25s216.47,156.14,251.28,184H7152.6Z"/><path class="cls-46" d="M5999.19,1230.44s-1043.29,720.21,286.2,672.68L6729.45,1844l-269.2-396.72Z"/><path class="cls-47" d="M5999.19,1230.44s-134.11,110.23,23.89,172.69c0,0,93.69,7.35-20.21,115.75,0,0-117.58,79,31.23,200.25s216.47,156.14,251.29,184l-758.7,131.4V1488.6Z"/><path class="cls-48" d="M6969.86,1055.79s103.44,47.76,39.92,102.83c0,0-79.85,35.1,9.08,85.91s274,192.38,165.15,277.68-399.27,294-597.09,346.62l-345.38-254Z"/><path class="cls-49" d="M11053.38,1802.61s-1624.14-48.69-4006,13.88c0,0-477.71,6.71-1518,115.14v806.94h5524Z"/><g class="cls-7"><path class="cls-3" d="M8078.55,2650.16a5,5,0,1,0-5-5,5.05,5.05,0,0,0,5,5Z"/></g><rect class="cls-50" x="11047" width="4954.09" height="2738.57"/><g class="cls-2"><ellipse class="cls-3" cx="11557.69" cy="493.99" rx="22.82" ry="25.56"/></g><g class="cls-2"><ellipse class="cls-3" cx="12390.5" cy="866.01" rx="22.82" ry="25.56"/></g><g class="cls-2"><ellipse class="cls-3" cx="12705.86" cy="608.41" rx="22.82" ry="25.56"/></g><g class="cls-2"><ellipse class="cls-3" cx="13433.91" cy="1343.05" rx="22.82" ry="25.56"/></g><g class="cls-2"><ellipse class="cls-3" cx="13553.71" cy="608.41" rx="22.82" ry="25.56"/></g><g class="cls-2"><ellipse class="cls-3" cx="13864.64" cy="1085.45" rx="22.82" ry="25.56"/></g><g class="cls-2"><ellipse class="cls-3" cx="14191.06" cy="375.38" rx="22.82" ry="25.56"/></g><g class="cls-2"><ellipse class="cls-3" cx="14583.38" cy="1100.48" rx="22.82" ry="25.56"/></g><g class="cls-2"><ellipse class="cls-3" cx="14878.34" cy="770.6" rx="22.82" ry="25.56"/></g><g class="cls-2"><ellipse class="cls-3" cx="15074.35" cy="341.26" rx="22.82" ry="25.56"/></g><g class="cls-2"><ellipse class="cls-3" cx="15747.27" cy="1304.89" rx="22.82" ry="25.56"/></g><g class="cls-2"><ellipse class="cls-3" cx="15760.69" cy="579.78" rx="22.82" ry="25.56"/></g><g class="cls-4"><path class="cls-5" d="M14965.94,458.25c3.22,0,3.22-5,0-5s-3.22,5,0,5Z"/></g><g class="cls-4"><path class="cls-3" d="M11534.51,334.22c3.22,0,3.22-5,0-5s-3.22,5,0,5Z"/></g><g class="cls-4"><path class="cls-3" d="M12079.36,439.17c3.22,0,3.23-5,0-5s-3.22,5,0,5Z"/></g><g class="cls-6"><path class="cls-3" d="M13261.82,584.78a5,5,0,1,0-5-5,5.05,5.05,0,0,0,5,5Z"/></g><g class="cls-7"><path class="cls-3" d="M13864.64,871a5,5,0,1,0-5-5,5.06,5.06,0,0,0,5,5Z"/></g><g class="cls-7"><path class="cls-3" d="M12635.81,918.71a5,5,0,1,0-5-5,5.05,5.05,0,0,0,5,5Z"/></g><g class="cls-7"><path class="cls-3" d="M14084.9,260.4a5,5,0,1,0-5-5,5.06,5.06,0,0,0,5,5Z"/></g><g class="cls-7"><path class="cls-3" d="M14467.45,899.63a5,5,0,1,0-5-5,5,5,0,0,0,5,5Z"/></g><g class="cls-7"><path class="cls-3" d="M15186.2,279.48a5,5,0,1,0-5-5,5.05,5.05,0,0,0,5,5Z"/></g><g class="cls-7"><path class="cls-3" d="M15186.2,937.79a5,5,0,1,0-5-5,5,5,0,0,0,5,5Z"/></g><g class="cls-7"><path class="cls-3" d="M15568.76,661.11a5,5,0,1,0-5-5,5.06,5.06,0,0,0,5,5Z"/></g><g class="cls-7"><path class="cls-3" d="M14432.68,479.84a5,5,0,1,0-5-5,5.06,5.06,0,0,0,5,5Z"/></g><g class="cls-7"><path class="cls-3" d="M14583.38,1309.89a5,5,0,1,0-5-5,5.05,5.05,0,0,0,5,5Z"/></g><g class="cls-7"><path class="cls-3" d="M12624.22,1348.05a5,5,0,1,0-5-5,5.05,5.05,0,0,0,5,5Z"/></g><g class="cls-7"><path class="cls-3" d="M11859.1,1166.77a5,5,0,1,0-5-5,5.05,5.05,0,0,0,5,5Z"/></g><g class="cls-7"><path class="cls-3" d="M12195.29,651.57a5,5,0,1,0-5-5,5.05,5.05,0,0,0,5,5Z"/></g><g class="cls-7"><path class="cls-3" d="M11383.8,909.17a5,5,0,1,0-5-5,5,5,0,0,0,5,5Z"/></g><g class="cls-7"><path class="cls-3" d="M11557.69,355.81a5,5,0,1,0-5-5,5.1,5.1,0,0,0,5,5Z"/></g><g class="cls-7"><path class="cls-3" d="M11917.07,756.52a5,5,0,1,0-5-5,5.06,5.06,0,0,0,5,5Z"/></g><g class="cls-7"><path class="cls-3" d="M11917.07,222.23a5,5,0,1,0-5-5,5.06,5.06,0,0,0,5,5Z"/></g><g class="cls-7"><path class="cls-3" d="M12809.7,680.19a5,5,0,1,0-5-5,5.05,5.05,0,0,0,5,5Z"/></g><g class="cls-8"><path class="cls-3" d="M11835.92,759c3.92,0,7.68-3.45,7.5-7.5a7.63,7.63,0,0,0-7.5-7.5c-3.92,0-7.68,3.45-7.5,7.5a7.63,7.63,0,0,0,7.5,7.5Z"/></g><g class="cls-8"><path class="cls-3" d="M11580.88,730.4c3.92,0,7.68-3.45,7.5-7.5a7.63,7.63,0,0,0-7.5-7.5c-3.92,0-7.68,3.45-7.5,7.5a7.63,7.63,0,0,0,7.5,7.5Z"/></g><g class="cls-8"><path class="cls-3" d="M12485.11,1169.27c3.92,0,7.68-3.45,7.5-7.5a7.63,7.63,0,0,0-7.5-7.5c-3.92,0-7.68,3.45-7.5,7.5a7.62,7.62,0,0,0,7.5,7.5Z"/></g><g class="cls-8"><path class="cls-3" d="M13064.74,1016.62c3.92,0,7.68-3.45,7.5-7.5a7.63,7.63,0,0,0-7.5-7.5c-3.92,0-7.68,3.45-7.5,7.5a7.63,7.63,0,0,0,7.5,7.5Z"/></g><g class="cls-8"><path class="cls-3" d="M12566.26,346.26a5,5,0,1,0-5-5,5.06,5.06,0,0,0,5,5Z"/></g><g class="cls-8"><path class="cls-3" d="M13516.86,358.31c3.92,0,7.68-3.45,7.5-7.5a7.63,7.63,0,0,0-7.5-7.5c-3.93,0-7.69,3.45-7.5,7.5a7.63,7.63,0,0,0,7.5,7.5Z"/></g><g class="cls-8"><path class="cls-3" d="M13667.56,883.05c3.92,0,7.68-3.45,7.5-7.5a7.63,7.63,0,0,0-7.5-7.5c-3.92,0-7.68,3.45-7.5,7.5a7.63,7.63,0,0,0,7.5,7.5Z"/></g><g class="cls-8"><path class="cls-3" d="M14490.64,883.05c3.92,0,7.68-3.45,7.5-7.5a7.63,7.63,0,0,0-7.5-7.5c-3.92,0-7.68,3.45-7.5,7.5a7.63,7.63,0,0,0,7.5,7.5Z"/></g><g class="cls-8"><path class="cls-3" d="M14490.64,482.34c3.92,0,7.68-3.45,7.5-7.5a7.63,7.63,0,0,0-7.5-7.5c-3.92,0-7.68,3.45-7.5,7.5a7.63,7.63,0,0,0,7.5,7.5Z"/></g><g class="cls-8"><path class="cls-3" d="M15313.72,463.25c3.92,0,7.68-3.45,7.5-7.5a7.63,7.63,0,0,0-7.5-7.5c-3.92,0-7.68,3.45-7.5,7.5a7.62,7.62,0,0,0,7.5,7.5Z"/></g><g class="cls-8"><path class="cls-3" d="M15452.83,854.43c3.92,0,7.68-3.45,7.5-7.5a7.62,7.62,0,0,0-7.5-7.5c-3.92,0-7.68,3.45-7.5,7.5a7.63,7.63,0,0,0,7.5,7.5Z"/></g><g class="cls-8"><path class="cls-3" d="M15313.72,1446c3.92,0,7.68-3.45,7.5-7.5a7.63,7.63,0,0,0-7.5-7.5c-3.92,0-7.68,3.45-7.5,7.5a7.63,7.63,0,0,0,7.5,7.5Z"/></g><g class="cls-8"><path class="cls-3" d="M14386.31,1169.27c3.92,0,7.68-3.45,7.5-7.5a7.64,7.64,0,0,0-7.5-7.5c-3.93,0-7.69,3.45-7.5,7.5a7.62,7.62,0,0,0,7.5,7.5Z"/></g><g class="cls-8"><path class="cls-3" d="M13679.15,1197.9c3.93,0,7.68-3.45,7.5-7.5a7.62,7.62,0,0,0-7.5-7.5c-3.92,0-7.68,3.45-7.5,7.5a7.64,7.64,0,0,0,7.5,7.5Z"/></g><g class="cls-8"><path class="cls-3" d="M14177.64,520.5c3.92,0,7.68-3.45,7.5-7.5a7.63,7.63,0,0,0-7.5-7.5c-3.93,0-7.68,3.45-7.5,7.5a7.63,7.63,0,0,0,7.5,7.5Z"/></g><g class="cls-8"><path class="cls-3" d="M15012.31,615.91c3.92,0,7.68-3.45,7.5-7.5a7.63,7.63,0,0,0-7.5-7.5c-3.92,0-7.68,3.45-7.5,7.5a7.63,7.63,0,0,0,7.5,7.5Z"/></g><g class="cls-8"><path class="cls-3" d="M14803.64,272.44c3.93,0,7.68-3.45,7.5-7.5a7.62,7.62,0,0,0-7.5-7.5c-3.92,0-7.68,3.45-7.5,7.5a7.63,7.63,0,0,0,7.5,7.5Z"/></g><g class="cls-8"><path class="cls-3" d="M13806.67,520.5c3.93,0,7.68-3.45,7.5-7.5a7.63,7.63,0,0,0-7.5-7.5c-3.92,0-7.68,3.45-7.5,7.5a7.63,7.63,0,0,0,7.5,7.5Z"/></g><g class="cls-8"><path class="cls-3" d="M13505.26,129.33c3.93,0,7.68-3.45,7.5-7.5a7.62,7.62,0,0,0-7.5-7.5c-3.92,0-7.68,3.45-7.5,7.5a7.64,7.64,0,0,0,7.5,7.5Z"/></g><g class="cls-8"><path class="cls-3" d="M13030,320.14c3.93,0,7.69-3.45,7.5-7.5a7.63,7.63,0,0,0-7.5-7.5c-3.92,0-7.68,3.45-7.5,7.5a7.63,7.63,0,0,0,7.5,7.5Z"/></g><g class="cls-8"><path class="cls-3" d="M12508.29,759c3.93,0,7.68-3.45,7.5-7.5a7.63,7.63,0,0,0-7.5-7.5c-3.92,0-7.68,3.45-7.5,7.5a7.64,7.64,0,0,0,7.5,7.5Z"/></g><g class="cls-8"><path class="cls-3" d="M12172.11,301.06c3.92,0,7.68-3.45,7.5-7.5a7.64,7.64,0,0,0-7.5-7.5c-3.93,0-7.69,3.45-7.5,7.5a7.63,7.63,0,0,0,7.5,7.5Z"/></g><g class="cls-8"><path class="cls-3" d="M11325.84,91.16c3.92,0,7.68-3.45,7.5-7.5a7.63,7.63,0,0,0-7.5-7.5c-3.92,0-7.68,3.45-7.5,7.5a7.63,7.63,0,0,0,7.5,7.5Z"/></g><g class="cls-8"><path class="cls-3" d="M11325.84,711.32c3.92,0,7.68-3.45,7.5-7.5a7.62,7.62,0,0,0-7.5-7.5c-3.92,0-7.68,3.45-7.5,7.5a7.63,7.63,0,0,0,7.5,7.5Z"/></g><g class="cls-8"><path class="cls-3" d="M12067.77,1197.9c3.93,0,7.68-3.45,7.5-7.5a7.62,7.62,0,0,0-7.5-7.5c-3.92,0-7.68,3.45-7.5,7.5a7.63,7.63,0,0,0,7.5,7.5Z"/></g><g class="cls-8"><path class="cls-3" d="M13922.6,1531.83c3.92,0,7.68-3.45,7.5-7.5a7.63,7.63,0,0,0-7.5-7.5c-3.92,0-7.68,3.45-7.5,7.5a7.63,7.63,0,0,0,7.5,7.5Z"/></g><g class="cls-8"><path class="cls-3" d="M15116.64,1312.39c3.93,0,7.69-3.45,7.5-7.5a7.62,7.62,0,0,0-7.5-7.5c-3.92,0-7.68,3.45-7.5,7.5a7.64,7.64,0,0,0,7.5,7.5Z"/></g><g class="cls-8"><path class="cls-3" d="M15835.39,1093c3.92,0,7.68-3.45,7.5-7.5a7.63,7.63,0,0,0-7.5-7.5c-3.92,0-7.68,3.45-7.5,7.5a7.63,7.63,0,0,0,7.5,7.5Z"/></g><g class="cls-8"><path class="cls-3" d="M14989.12,367.85c3.93,0,7.69-3.45,7.5-7.5a7.62,7.62,0,0,0-7.5-7.5c-3.92,0-7.68,3.45-7.5,7.5a7.64,7.64,0,0,0,7.5,7.5Z"/></g><g class="cls-8"><path class="cls-3" d="M15916.54,367.85c3.92,0,7.68-3.45,7.5-7.5a7.63,7.63,0,0,0-7.5-7.5c-3.92,0-7.68,3.45-7.5,7.5a7.63,7.63,0,0,0,7.5,7.5Z"/></g><path class="cls-3" d="M12839.37,1223.65c3.22,0,3.22-5,0-5s-3.22,5,0,5Z"/><path class="cls-3" d="M13038.44,1339.3c3.22,0,3.22-5,0-5s-3.22,5,0,5Z"/><path class="cls-3" d="M11363.91,1108c3.22,0,3.22-5,0-5s-3.22,5,0,5Z"/><g class="cls-9"><path class="cls-3" d="M12406.1,1366.07c5.23,0,10.24-4.6,10-10a10.17,10.17,0,0,0-10-10c-5.23,0-10.24,4.6-10,10a10.17,10.17,0,0,0,10,10Z"/></g><g class="cls-9"><path class="cls-3" d="M11937.7,903.48c5.23,0,10.24-4.6,10-10a10.17,10.17,0,0,0-10-10c-5.23,0-10.24,4.6-10,10a10.18,10.18,0,0,0,10,10Z"/></g><g class="cls-9"><path class="cls-3" d="M13120.41,1144.41c5.23,0,10.24-4.6,10-10a10.17,10.17,0,0,0-10-10c-5.23,0-10.24,4.6-10,10a10.17,10.17,0,0,0,10,10Z"/></g><g class="cls-9"><path class="cls-3" d="M15064.27,1337.16c5.23,0,10.24-4.6,10-10a10.17,10.17,0,0,0-10-10c-5.23,0-10.24,4.6-10,10a10.18,10.18,0,0,0,10,10Z"/></g><g class="cls-9"><path class="cls-3" d="M12862.79,1438.17a5,5,0,1,0-5-5,5.05,5.05,0,0,0,5,5Z"/></g><g class="cls-9"><path class="cls-3" d="M11352.2,1168.32a5,5,0,1,0-5-5,5.05,5.05,0,0,0,5,5Z"/></g><g class="cls-9"><path class="cls-3" d="M14467.06,1438.17a5,5,0,1,0-5-5,5.05,5.05,0,0,0,5,5Z"/></g><g class="cls-9"><path class="cls-3" d="M14443.64,657.54a5,5,0,1,0-5-5,5.05,5.05,0,0,0,5,5Z"/></g><g class="cls-9"><path class="cls-3" d="M14513.9,146.76a5,5,0,1,0-5-5,5.05,5.05,0,0,0,5,5Z"/></g><g class="cls-9"><path class="cls-3" d="M15509.25,1100.86a5,5,0,1,0-5-5,5.05,5.05,0,0,0,5,5Z"/></g><g class="cls-9"><path class="cls-3" d="M15497.54,185.31a5,5,0,1,0-5-5,5.05,5.05,0,0,0,5,5Z"/></g><polygon class="cls-10" points="15722.82 1349.05 15796.15 1316.79 15887.07 1357.85 15791.75 1409.18 15722.82 1349.05"/><polygon class="cls-10" points="14407.36 1331.45 14571.61 1259.6 14749.06 1331.45 14578.21 1444.38 14407.36 1331.45"/><polygon class="cls-11" points="11455.98 1296.02 11538.52 1256.94 11619.57 1296.02 11546.72 1349.21 11455.98 1296.02"/><polygon class="cls-11" points="11046.64 1204.15 11199.1 1273.17 11046.64 1344.74 11046.64 1204.15"/><polygon class="cls-11" points="11538.52 1256.94 11627.49 1296.39 11538.52 1335.09 11477.27 1282.87 11538.52 1256.94"/><polygon class="cls-10" points="12203.56 1218.72 12390.14 1292.51 12160.33 1404.25 12044.38 1278.81 12203.56 1218.72"/><polygon class="cls-10" points="13532.36 1326.12 13428.06 1277.32 13302.7 1326.12 13417.53 1354.61 13532.36 1326.12"/><path class="cls-51" d="M11902.2,1106.27l840.41,710.22-644,2.35s-550.89-264.22-461.23-383.94c70.76-94.47,183.9-242,233.07-301.05C11883.56,1118.05,11902.2,1106.27,11902.2,1106.27Z"/><path class="cls-52" d="M11506.11,1329.63l396.09-223.36s-46.47,27.91-12.2,53.17,10.82,36.07-14.43,38.78-59.53,9.92-5.41,31.56,59.52,41.49,6.31,64.94-202,75.76-124.46,144.31,476.06,377.46,476.06,377.46l-1181.43-13.88V1561.8Z"/><path class="cls-53" d="M14273.09,1157.74,15113.5,1868l-644,2.35s-550.89-264.22-461.22-383.94c70.75-94.47,183.89-242,233.06-301C14254.45,1169.52,14273.09,1157.74,14273.09,1157.74Z"/><path class="cls-54" d="M13877,1381.1l396.08-223.36s-46.47,27.91-12.2,53.17,10.82,36.07-14.43,38.78-59.52,9.92-5.41,31.57,59.52,41.48,6.31,64.93-202,75.76-124.46,144.31S14599,1868,14599,1868l-1181.43-13.88V1613.27Z"/><polygon class="cls-55" points="13142.86 1106.27 12968.77 1210.42 13149.65 1354.61 13234.42 1255.86 13142.86 1106.27"/><path class="cls-56" d="M13142.87,1106.27s-27.76,57,7.21,100.18c0,0,68.6,54.79-8.83,109.58l146.39,123.57,185.35-73.45Z"/><polygon class="cls-18" points="15526.38 1150.13 15352.28 1254.28 15533.17 1398.46 15617.93 1299.72 15526.38 1150.13"/><path class="cls-57" d="M15526.38,1150.13s-27.75,57,7.22,100.17c0,0,68.11,56.31-26,126.45l163.58,106.7,185.35-73.44Z"/><polygon class="cls-58" points="12769.28 1003.45 11675.48 1618.82 11835.11 1816.98 13171.39 1816.49 12769.28 1003.45"/><path class="cls-59" d="M12769.28,1003.45s-103.45,47.76-39.93,102.82c0,0,79.85,35.1-9.07,85.92s-274,192.37-165.15,277.67,399.26,294,597.08,346.63l345.38-230.44Z"/><polygon class="cls-60" points="15128.19 1055.79 14034.4 1671.16 14194.02 1869.32 15530.31 1868.83 15128.19 1055.79"/><path class="cls-61" d="M11333.84,1152.62l814.3,663.87h-791.2S10689.6,1708.57,11333.84,1152.62Z"/><path class="cls-62" d="M11046.64,1322.68l287.2-170.06s75.22,107.92-45.78,209.3-274.71,192.95-209.3,264.89c0,0,101.8,134.08,278.18,189.68l-310.3-13.88Z"/><path class="cls-63" d="M13714.25,1193.7s1043.29,720.21-286.19,672.67L12984,1807.25l269.2-396.72Z"/><path class="cls-64" d="M13714.25,1193.7s134.12,110.23-23.88,172.69c0,0-93.7,7.35,20.21,115.74,0,0,117.58,79-31.23,200.25s-216.47,156.14-251.29,184h1517.39Z"/><path class="cls-65" d="M16001.09,1276.42v628.1c-56.72,1.47-119.37,1.07-188.42-1.4L15368.61,1844l8.89-13.1,260.31-383.62Z"/><path class="cls-66" d="M15866.56,1865.75c31.4-21,74.46-50.26,134.53-96.67v166.67l-188.42-32.63C15825.43,1892.91,15842.6,1881.75,15866.56,1865.75Z"/><path class="cls-67" d="M15128.2,1055.79s-103.45,47.76-39.93,102.83c0,0,79.85,35.1-9.08,85.91s-274,192.38-165.15,277.68,399.27,294,597.09,346.62l345.38-254Z"/><path class="cls-68" d="M16001.09,1877.13v861.44H11044.68v-936l2.32-.07c69-2,1673.88-47.25,4003.64,14,0,0,106,1.49,326.86,14.4,125.43,7.33,287.91,18.34,489.06,34.86Q15931.17,1871,16001.09,1877.13Z"/><g class="cls-7"><path class="cls-3" d="M14019.5,2650.16a5,5,0,1,0-5-5,5.05,5.05,0,0,0,5,5Z"/></g></g></g></svg>