<svg width="24" height="24" viewBox="0 0 24 24" fill="none" xmlns="http://www.w3.org/2000/svg">
<path fill-rule="evenodd" clip-rule="evenodd" d="M21.6 15.6V5.99998C21.6 5.36346 21.3472 4.75301 20.8971 4.30292C20.447 3.85283 19.8365 3.59998 19.2 3.59998H4.80002C4.1635 3.59998 3.55306 3.85283 3.10297 4.30292C2.65288 4.75301 2.40002 5.36346 2.40002 5.99998V15.6C2.40002 16.2365 2.65288 16.8469 3.10297 17.297C3.55306 17.7471 4.1635 18 4.80002 18H8.40002L12 21.6L15.6 18H19.2C19.8365 18 20.447 17.7471 20.8971 17.297C21.3472 16.8469 21.6 16.2365 21.6 15.6ZM6.00002 8.39998C6.00002 8.08172 6.12645 7.77649 6.3515 7.55145C6.57654 7.3264 6.88176 7.19998 7.20002 7.19998H16.8C17.1183 7.19998 17.4235 7.3264 17.6486 7.55145C17.8736 7.77649 18 8.08172 18 8.39998C18 8.71824 17.8736 9.02346 17.6486 9.2485C17.4235 9.47355 17.1183 9.59998 16.8 9.59998H7.20002C6.88176 9.59998 6.57654 9.47355 6.3515 9.2485C6.12645 9.02346 6.00002 8.71824 6.00002 8.39998ZM7.20002 12C6.88176 12 6.57654 12.1264 6.3515 12.3514C6.12645 12.5765 6.00002 12.8817 6.00002 13.2C6.00002 13.5182 6.12645 13.8235 6.3515 14.0485C6.57654 14.2735 6.88176 14.4 7.20002 14.4H10.8C11.1183 14.4 11.4235 14.2735 11.6486 14.0485C11.8736 13.8235 12 13.5182 12 13.2C12 12.8817 11.8736 12.5765 11.6486 12.3514C11.4235 12.1264 11.1183 12 10.8 12H7.20002Z" fill="black"/>
</svg>
